<svg id="Layer_1" height="512" viewBox="0 0 512 512" width="512" xmlns="http://www.w3.org/2000/svg"><path d="m501.25 232.783h-71.637v-9.753c0-4.418-3.582-8-8-8h-22.433v-23.449c0-4.418-3.582-8-8-8h-22.435v-47.458c0-12.802-10.415-23.217-23.218-23.217h-319.56c-12.802 0-23.217 10.415-23.217 23.217v239.756c0 12.802 10.415 23.217 23.217 23.217h319.561c12.803 0 23.218-10.415 23.218-23.217v-47.459h22.435c4.418 0 8-3.582 8-8v-23.448h22.434c4.418 0 8-3.582 8-8v-9.754h71.637c4.418 0 8-3.582 8-8v-30.434c-.002-4.42-3.584-8.001-8.002-8.001zm-482.5 143.095v-239.756c0-3.979 3.237-7.217 7.217-7.217h55.912v254.189h-55.912c-3.98.001-7.217-3.237-7.217-7.216zm333.995 0c0 3.979-3.238 7.217-7.218 7.217h-247.648v-254.19h247.648c3.979 0 7.218 3.237 7.218 7.217zm30.435-63.459h-14.435v-112.838h14.435zm30.433-31.448h-14.433v-49.941h14.434v49.941zm79.637-17.754h-63.637v-14.434h63.637zm-430.762-68.477h-23.333c-4.418 0-8 3.582-8 8v23.333c0 4.418 3.582 8 8 8h23.333c4.418 0 8-3.582 8-8v-23.333c0-4.419-3.582-8-8-8zm-8 23.333h-7.333v-7.333h7.333zm8 59.854h-23.333c-4.418 0-8 3.582-8 8v23.333c0 4.418 3.582 8 8 8h23.333c4.418 0 8-3.582 8-8v-23.333c0-4.418-3.582-8-8-8zm-8 23.333h-7.333v-7.333h7.333zm229.379-89.897c0 4.418-3.582 8-8 8h-117.002c-4.418 0-8-3.582-8-8s3.582-8 8-8h117.002c4.418 0 8 3.582 8 8zm0 22.319c0 4.418-3.582 8-8 8h-117.002c-4.418 0-8-3.582-8-8s3.582-8 8-8h117.002c4.418 0 8 3.581 8 8zm0 22.318c0 4.418-3.582 8-8 8h-117.002c-4.418 0-8-3.582-8-8s3.582-8 8-8h117.002c4.418 0 8 3.582 8 8zm0 22.318c0 4.418-3.582 8-8 8h-117.002c-4.418 0-8-3.582-8-8s3.582-8 8-8h117.002c4.418 0 8 3.582 8 8zm0 22.319c0 4.418-3.582 8-8 8h-117.002c-4.418 0-8-3.582-8-8s3.582-8 8-8h117.002c4.418 0 8 3.582 8 8z"/></svg>