<?xml version="1.0"?>
<svg width="2800" height="4200" xmlns="http://www.w3.org/2000/svg" xmlns:svg="http://www.w3.org/2000/svg" version="1.1">

 <g class="layer">
  <title>Layer 1</title>
  <g id="g8" transform="matrix(1.33333, 0, 0, -1.33333, 0, 5333.33)">
   <g id="g10" transform="translate(-1005, 435) scale(0.1)">
    <path d="m15876.3,10982.4l-953.8,-6277.1c-4.8,-31.5 4.5,-63.7 25.4,-87.6c20.9,-24 51.5,-37.7 83.3,-37.3l1468.1,19.5c60,0.8 107.9,50 107.1,109.9c-0.8,60 -50,107.9 -110,107.1l-1340.1,-17.7l934.7,6150.5c9,59.3 -31.8,114.7 -91.1,123.7c-59.2,9 -114.6,-31.8 -123.6,-91" fill="#000000" fill-rule="nonzero" id="path12"/>
    <path d="m16558.9,4662.1c205.7,172.9 -772.6,939.2 -1503.9,75.4c805.3,10.1 1232,-100.1 1503.9,-75.4" fill="#000000" fill-rule="nonzero" id="path14"/>
    <path d="m13226.3,11897.8l-1177.8,-4318.4c-2.6,-9.8 -4,-20.2 -3.8,-30.4l46.5,-2729.1l-1361.9,-10.5c-60,-0.5 -108.2,-49.4 -107.7,-109.4c0.4,-59.9 49.4,-108.1 109.4,-107.7l1471.4,11.4c29,0.2 56.6,12 76.9,32.7c20.2,20.8 31.3,48.7 30.8,77.7l-48.1,2823.1l1173.7,4303.5c15.8,57.8 -18.3,117.5 -76.2,133.2c-57.8,15.8 -117.5,-18.3 -133.2,-76.1" fill="#000000" fill-rule="nonzero" id="path16"/>
    <path d="m10671.2,4638.2c-205.6,172.9 772.6,939.2 1503.9,75.5c-805.2,10 -1232,-100.1 -1503.9,-75.5" fill="#000000" fill-rule="nonzero" id="path18"/>
    <path d="m12707.7,16265.6l-1174.9,4882.5c-14.1,58.2 -72.7,94.1 -130.9,80.1c-58.3,-14 -94.2,-72.6 -80.2,-130.9l1174.9,-4882.5c14.1,-58.3 72.7,-94.2 131,-80.1c58.3,14 94.1,72.6 80.1,130.9" fill="#000000" fill-rule="nonzero" id="path20"/>
    <path d="m18556.8,14404.4l3524.8,3838.1c40.5,44.1 37.6,112.8 -6.6,153.3c-44.1,40.6 -112.8,37.7 -153.3,-6.5l-3524.8,-3838.1c-40.6,-44.1 -37.6,-112.8 6.5,-153.4c44.2,-40.5 112.8,-37.6 153.4,6.6" fill="#000000" fill-rule="nonzero" id="path22"/>
    <path d="m22400.7,24364.7l-1218,-4173.2l-0.4,-1.7l-7.1,-23.7l-130.7,-448.1l-3237.5,-11091.6c-63.6,-267 -691.1,-367.7 -1602.6,-304.3c-588.5,41.1 -1295.6,150.7 -2045.3,328.2c-1910.4,452.5 -3374.8,1175.3 -3270.7,1614.7l0.2,0.8l107.1,584.1l-0.3,0.1l2058.1,11239.3l0.1,0.2l4.3,24.5l0.5,1.9l783,4275.9c-67.3,-545.8 1725,-1421.2 4052.4,-1972.4c899.8,-213.1 1750.3,-347.2 2465.4,-401.1c1134,-86.1 1928.4,28.7 2041.5,346.4" fill="#e3e1e0" fill-rule="nonzero" id="path24"/>
    <path d="m21250,21598.6l-3331.3,-11548.1c-83.8,-353.8 -1096.9,-430.5 -2424.4,-225.5c-321.1,49.5 -660.9,115.8 -1010,198.5c-1792.4,424.5 -3161.1,1125.1 -3057.1,1564.4l0.2,0.7l2201.9,11814.8c-66.9,-517.5 1523,-1321.7 3594.6,-1812.3c1717.1,-406.7 3996.4,-77.1 4026.1,7.5" fill="#f5c80c" fill-rule="nonzero" id="path26"/>
    <path d="m21250.4,21600.4l-0.4,-1.6l-6.8,-23.2c-168.6,-479.5 -1947.6,-475.3 -4019.2,15.4c-2071.1,490.5 -3662.8,1284.3 -3599,1788.6l0,0.3l4.3,23.8l0.5,1.8c123.1,500.7 1923.6,503.6 4025.3,5.8c2102.2,-497.8 3710.6,-1308.3 3595.3,-1810.9" fill="#ffea8c" fill-rule="nonzero" id="path28"/>
    <path d="m22408.1,24390l-6.9,-23.8l-0.3,-1.5c-184.9,-518.2 -2179.5,-496.4 -4507.1,54.8c-338.1,80.1 -664.8,167.1 -976.3,259.1l-6.1,153.1c-18.1,5.5 -36.1,11 -53.8,16.4c-18.1,5.5 -35.8,10.9 -53.5,16.3c-35.7,10.8 -71.1,21.6 -106,32.7c-27.8,8.6 -55.2,17.2 -82.2,26c-15,4.7 -30,9.5 -45,14.2c-27,8.5 -53.6,17.2 -79.7,26.2c-136.4,44.4 -268.1,89.3 -394.8,135.4c-27.2,9.7 -54.3,19.4 -81,29.3c-29.8,10.7 -59,21.7 -88.2,33c-20.4,7.7 -40.8,15.3 -60.8,22.9l5.9,-159.2c-1260.6,470.9 -2076.7,995.4 -2030.7,1366.9l0,1.6l4.5,24.4c128.8,543.6 2149.7,530.5 4514,-29.4c2364.2,-560 4176.7,-1454.8 4048,-1998.4" fill="#efefef" fill-rule="nonzero" id="path30"/>
    <path d="m22075.5,24468.6l-5.8,-20.1l-0.6,-1.4c-161.9,-442.4 -1995.1,-394.2 -4141.7,114.2c-2146.5,508.4 -3806.4,1287.5 -3752.7,1755.5l0.1,1.4l3.8,20.7c110.2,465.3 1967.2,423.8 4147.9,-92.7c2180.7,-516.4 3859.2,-1312.3 3749,-1777.6" fill="#e0c7b8" fill-rule="nonzero" id="path32"/>
    <path d="m22075.4,24468.8l-5.7,-20.4l-0.6,-1.1c-36.9,-101 -161.2,-176.4 -356.8,-227c-38.1,-9.5 -78.6,-18.5 -121.6,-26.4c-366,-66.6 -915.4,-64.8 -1576.6,3.8c-618,62.9 -1333.1,185 -2086.8,363.5c-353.7,83.8 -694.5,174.6 -1015.9,270.5c-18.1,5.5 -36.1,11 -53.8,16.4c-18.1,5.5 -35.8,10.9 -53.5,16.3c-35.7,10.8 -71.1,21.6 -106,32.7c-27.8,8.6 -55.2,17.2 -82.2,26c-15,4.7 -30,9.5 -45,14.2c-27,8.5 -53.6,17.2 -79.7,26.2c-136.4,44.4 -268.1,89.3 -394.8,135.4c-27.2,9.7 -54.3,19.4 -81,29.3c-29.8,10.7 -59,21.7 -88.2,33c-20.4,7.7 -40.8,15.3 -60.8,22.9c-19.2,7.3 -38,14.6 -56.9,21.9c-613.6,238.5 -1092.2,485 -1369,707.9c-67.4,54.3 -122.8,106.6 -165.3,157.4c-73.9,88.1 -108.8,171 -100.4,245.6l-0.1,1.3l4.2,20.8c110.1,464.9 1967,423.7 4147.5,-92.7c2180.5,-516.4 3859.1,-1312.6 3749,-1777.5" fill="#e3e1e0" fill-rule="nonzero" id="path34"/>
    <path d="m21590.6,24193.9c-365.9,-66.7 -915.4,-65 -1576.7,3.7c-617.7,63.1 -1332.9,185.1 -2086.6,363.6c-793.2,187.8 -1519.8,412.6 -2118,644.8c-613.6,238.5 -1092.1,485.1 -1368.9,707.8c707.4,128.1 2101.8,2.1 3662.3,-367.5c1606.7,-380.5 2941,-912.9 3487.9,-1352.4" fill="#cccbca" fill-rule="nonzero" id="path36"/>
    <path d="m20013.9,24197.6c-617.7,63.1 -1332.9,185.1 -2086.6,363.6c-768.2,181.9 -1473.8,398.4 -2060.9,622.8c-19.1,7.3 -38.2,14.7 -57.1,22c618.1,-63.6 1333.4,-185.1 2087.9,-363.8c792.4,-187.7 1518.6,-412.4 2116.7,-644.6" fill="#c3c2c1" fill-rule="nonzero" id="path38"/>
    <path d="m22400.9,24364.7l-1218.3,-4173.1l-0.5,-1.9l-6.8,-23.8l-130.7,-447.9l-3237.6,-11091.4c-63.6,-267 -691.1,-368.1 -1602.7,-304.3c-588.2,40.9 -1295.4,150.3 -2045.3,327.9c-1910.4,452.4 -3374.6,1175.6 -3270.6,1614.9l0.2,0.8l39.7,216.9c2484.8,-715.1 3699.2,-902.3 4566,-657.8c1327.5,-205 2340.6,-128.3 2424.4,225.5l3331.3,11548.1c-29.7,-84.6 720.1,2154.3 804.3,2510c130.6,57.1 315,167.3 346.6,256.1" fill="#cccbca" fill-rule="nonzero" id="path40"/>
    <path d="m21250,21598.6l-3331.3,-11548.1c-83.8,-353.8 -1096.9,-430.5 -2424.4,-225.5c556.3,156.7 969.7,491.7 1483.8,979.2c1006.3,954.6 2801.4,6292.5 4048.1,10583.9c117.4,56.1 194.1,125.9 223.8,210.5" fill="#ddab1f" fill-rule="nonzero" id="path42"/>
    <path d="m14171.3,21941.8c0,0 1108.1,-395.7 1571.2,-390c463.1,5.8 -2007.6,-7008.4 -2234.4,-7029.8c-1220,-115.1 663.2,7419.8 663.2,7419.8" fill="#fffbf5" fill-rule="nonzero" id="path44"/>
    <path d="m24695.1,25810.6c6.4,16.2 13.2,32.5 20.3,48.9c4.9,11.1 5.4,23.7 1.5,35.3c-455.8,1349.6 1436.7,2074.7 1897.2,2161.9c33.2,6.3 61.7,-22.2 56.9,-55.5c-47.2,-326.6 660.4,-217.7 1063.7,-259.1c38.1,-3.9 56.3,-48.5 32.6,-78.5c-276,-351 196.3,-350.9 720.6,-375.3c32.9,-1.5 54.1,-34.6 43,-65.7c-76.8,-214.4 378.9,-369 848.9,-434.5c28,-3.9 47.7,-30.6 41.4,-58.2c-54.4,-239.6 411.7,-592.9 829.9,-599.6c40.6,-0.6 62.3,-47.9 36.6,-79.2c-171.3,-208.5 -196.4,-307.9 322.2,-426.8c20.9,-4.8 33.4,-20.3 36.8,-37.7c-1614.4,-210 -4384.4,15.3 -5951.6,224" fill="#217c5c" fill-rule="nonzero" id="path46"/>
    <path d="m26389.7,27745c33.2,6.3 61.7,-22.2 56.9,-55.5c-47.2,-326.6 660.4,-217.7 1063.7,-259.1c38.1,-3.9 56.3,-48.5 32.6,-78.5c-276,-351 196.3,-350.9 720.6,-375.3c32.9,-1.5 -27,-129.6 -24.5,-219.6c6,-227.7 273.7,-116.6 743.7,-182.1c28,-4 47.7,-30.7 41.4,-58.3c-54.4,-239.6 504,-518.7 922.2,-525.3c40.6,-0.6 62.3,-47.9 36.6,-79.3c-71.8,-87.3 -261,-232.4 -28.7,-386.6c247.2,13.5 480,33.6 692.5,61.2c-3.4,17.4 -15.9,32.9 -36.8,37.7c-518.6,118.9 -493.5,218.3 -322.2,426.8c25.7,31.3 4,78.6 -36.6,79.2c-418.2,6.7 -884.3,360 -829.9,599.6c6.3,27.6 -13.4,54.3 -41.4,58.2c-470,65.5 -925.7,220.1 -848.9,434.5c11.1,31.1 -10.1,64.2 -43,65.7c-524.3,24.4 -996.6,24.3 -720.6,375.3c23.7,30 5.5,74.6 -32.6,78.5c-403.3,41.4 -1110.9,-67.5 -1063.7,259.1c4.8,33.3 -23.7,61.8 -56.9,55.5c-334.7,-63.4 -1426.1,-463.8 -1822.2,-1196.2c486.8,534.9 1314.1,830.8 1597.8,884.5" fill="#1b755f" fill-rule="nonzero" id="path48"/>
    <path d="m24695.1,25810.6c1567.2,-208.7 4337.2,-434 5951.6,-224c4.2,-21.2 -5.2,-44.9 -29.7,-54.6c-403,-159.9 -635.8,-440.4 -573.8,-598.6c11.7,-30 -10,-62.7 -42.1,-65.5c-453.6,-39.2 -626.1,-222.5 -586.9,-358.9c8.9,-31 -13.5,-62.1 -45.8,-62.4c-333,-3.7 -754.2,-109.1 -785.4,-322.4c-4.4,-30.5 -35.3,-49.7 -64.4,-39.2c-410.7,148.6 -1000.2,7.7 -914.4,-222.8c13.5,-36.1 -20.1,-72.3 -57.8,-63.6c-481.2,110.1 -799.1,310.7 -892.8,3.7c-8.8,-28.9 -41.5,-43.2 -68.5,-29.4c-571.6,291.9 -928.7,674.5 -1023.3,404.1c-8.7,-25 -35.9,-38.4 -61,-29.9c-394.7,134.7 -1162.9,762.4 -805.7,1663.5" fill="#338e6b" fill-rule="nonzero" id="path50"/>
    <path d="m30363.7,25555.2c-2216.4,-123.1 -4458.6,79.7 -6640.4,469.2c-66.7,17.8 -93.7,-89.6 -24.1,-103.5c2195.2,-356.8 4443.5,-524.2 6664.5,-365.7" fill="#6ccc96" fill-rule="nonzero" id="path52"/>
    <path d="m29313,26444.4c-427.7,-187.5 -675.5,-596 -976,-922.7c56,-267.8 537.6,-804.4 783.8,-938.9c-301.5,210.7 -614.5,592.4 -763.3,926.4c299.2,323.7 539,731.5 955.5,935.2" fill="#6ccc96" fill-rule="nonzero" id="path54"/>
    <path d="m28133.1,27004.6c-388.7,-263.3 -717,-606.3 -1038.1,-946.2c-115.6,-148.3 -298.5,-283.8 -354.1,-463.1c361.1,-458.5 646.4,-1004.5 1089.6,-1388.9c-420.5,382.4 -724.9,966.7 -1068.6,1399.7l0.2,0.1c376.1,527.1 859.1,1000 1371,1398.4" fill="#6ccc96" fill-rule="nonzero" id="path56"/>
    <path d="m26572.7,27753.8c-365.8,-383.3 -671.9,-819.7 -981.8,-1248.3c-151.1,-247.2 -384.2,-482.4 -463,-757.4c326.6,-479.8 590.1,-1042.2 1053.4,-1406.3c-454.2,376 -709.2,941.5 -1036.7,1422.6c0.9,-0.3 1.5,-1.8 1.3,-2.4c400.2,706.8 902.2,1370.5 1426.8,1991.8" fill="#6ccc96" fill-rule="nonzero" id="path58"/>
    <path d="m24537,27083.4c-5.2,12.2 -10.2,24.7 -15.1,37.3c-3.3,8.6 -9.4,15.9 -17.1,20.4c-893.6,528.5 -371.4,1866.3 -199.4,2142c12.4,19.9 40.1,18.1 54.6,-2.9c142.4,-205.6 419.5,204.1 629.4,379.8c19.8,16.6 50.8,0.8 54.8,-27.7c47.4,-331.9 268.9,-99 527,145.9c16.3,15.4 42.9,7.3 53.3,-15.5c72,-157.5 363.6,-19.1 617,176.1c15.1,11.6 37.8,6.4 48.7,-12.1c95.2,-160.5 491.8,-127.9 691.3,74.6c19.3,19.7 53.3,4 57,-26.2c24.7,-200.8 63,-268.7 366.2,-79.3c12.1,7.6 25.8,5.1 36.2,-2.9c-651.3,-913.2 -2063.8,-2153.3 -2903.9,-2809.5" fill="#217c5c" fill-rule="nonzero" id="path60"/>
    <path d="m24357.2,28998.5c12.4,19.9 40.1,18.1 54.6,-2.9c142.4,-205.5 419.5,204.1 629.4,379.8c19.8,16.7 50.8,0.8 54.8,-27.7c47.4,-331.9 268.9,-99 527,145.9c16.2,15.4 52.7,-85.7 99.2,-134.7c117.5,-124.1 187.1,69.9 440.5,265.1c15.1,11.6 37.8,6.4 48.7,-12.1c95.3,-160.6 497.7,-41 697.2,161.5c19.3,19.7 53.3,4 57,-26.2c10.4,-84.1 -5.2,-258.3 181.4,-229.9c109.1,129.5 208.1,255.4 293.9,375.6c-10.4,8 -24.1,10.5 -36.2,2.9c-303.2,-189.4 -341.5,-121.5 -366.2,79.3c-3.7,30.2 -37.7,45.9 -57,26.2c-199.5,-202.5 -596.1,-235.1 -691.3,-74.6c-10.9,18.5 -33.6,23.7 -48.7,12.1c-253.4,-195.2 -545,-333.6 -617,-176.1c-10.4,22.8 -37,30.9 -53.3,15.5c-258.1,-244.9 -479.6,-477.8 -527,-145.9c-4,28.5 -35,44.3 -54.8,27.7c-209.9,-175.7 -487,-585.4 -629.4,-379.8c-14.5,21 -42.2,22.8 -54.6,2.9c-125,-200.4 -435.1,-962 -251.9,-1566.1c-41.2,538.6 197.7,1111.7 303.7,1281.5" fill="#1b755f" fill-rule="nonzero" id="path62"/>
    <path d="m24537,27083.4c840.1,656.2 2252.6,1896.3 2903.9,2809.5c12.6,-9.7 20.1,-27.6 13.6,-45.1c-108.5,-287.9 -76.3,-559.3 32.4,-617c20.7,-11 26.9,-39.9 13.3,-57.3c-193,-245.5 -181.5,-432.9 -94.5,-489.7c19.8,-12.9 25,-41.3 10,-57.4c-154.3,-166.2 -298.7,-432.8 -205.9,-567.2c13.3,-19.2 8.5,-45.1 -10.4,-53.6c-267.5,-119.5 -473,-488.9 -316.6,-575.2c24.5,-13.5 26.9,-50.3 4.9,-64c-281.1,-175.8 -531.2,-220.6 -420.5,-438.2c10.4,-20.5 2.3,-44.5 -17.3,-50.1c-415.1,-119 -775.4,-81.5 -683.5,-279.1c8.5,-18.2 2.5,-39.1 -13.5,-46.7c-253,-119.5 -929.5,-147.9 -1215.9,531.1" fill="#338e6b" fill-rule="nonzero" id="path64"/>
    <path d="m27324,29735.8c-977.4,-1161.5 -2131.1,-2153.9 -3350.4,-3012.3c-40.3,-22.9 1.2,-96.1 40.8,-69.6c1209.2,883.3 2347.9,1898.4 3309.6,3081.9" fill="#6ccc96" fill-rule="nonzero" id="path66"/>
    <path d="m26383.3,29714c-106.1,-315.5 -16.5,-665.7 7.1,-996.1c161.2,-121.9 657.4,-183.9 840.6,-137.6c-247.5,-31.1 -586.6,27.6 -824.6,140.7c-22.9,328.2 -115.8,674 -23.1,993" fill="#6ccc96" fill-rule="nonzero" id="path68"/>
    <path d="m25547.8,29444.9c-49.7,-338.6 -30.8,-691.9 -10.2,-1039.9c20.5,-139.8 3,-305.6 67.2,-433.1c400.4,-77.8 809.2,-241.8 1210.7,-237.8c-389.8,6 -826.9,182 -1206.3,254.2l0.1,0.2c-89.1,479.6 -100.9,981.7 -61.5,1456.4" fill="#6ccc96" fill-rule="nonzero" id="path70"/>
    <path d="m24438.6,29093.7c21.6,-394.3 97.8,-788.8 168.4,-1180.8c53.7,-212.4 62.9,-458.6 164.5,-651c394.8,-106.7 801.7,-290.7 1202.4,-265.4c-402.4,-14.1 -806.9,175.7 -1202.8,282.7l1.8,-0.7c-168.4,591.8 -267.3,1209.8 -334.3,1815.2" fill="#6ccc96" fill-rule="nonzero" id="path72"/>
    <path d="m26140,25380.1c-59.6,-229.6 -140.7,-456.5 -244.7,-679.1c-85,-181.6 -182.2,-353.5 -290.6,-515c-941.5,-1409.7 -4334.7,-1442 -4334.7,-1442l-36.8,649l-23.2,404.4l-19.2,336.2l-0.2,4.1l-39.4,692.4l-65.5,-34.6l-1113.9,-594.7l-1.9,-1.1l-1.3,1.5c-280.3,30.9 -576.6,72.8 -884.7,126c-17.5,2.6 -35.4,5.6 -53.1,9c-392.9,651 -591.4,1409.2 -559.9,2177.6c11.9,292.1 56.8,585.6 137.1,875.2c57.2,209.2 133.4,416.7 228.6,619.2c84.9,181.6 182,353.1 289.8,515.2c907.2,1358.9 2574,2001.8 4149.8,1621.8c0.7,-0.2 2,-0.1 3.4,-0.9c92.3,-22.6 184.6,-48.5 276,-78.2c156.5,-49.6 311.5,-110.5 463.6,-182.1c209.2,-97.9 404.9,-211.6 587.2,-339.9c272,-190.3 513.7,-411.8 722.7,-656.5c812.6,-952.2 1134.2,-2262 810.9,-3507.5" fill="#f4bb06" fill-rule="nonzero" id="path74"/>
    <path d="m22470.2,26047.1c-25,87 264.2,8.4 333.4,-52.3l1574.9,-1531.7c162.6,-137.8 157.6,-390.7 -11.4,-521.8c-290.5,-170.4 -970.2,-967.2 -1211.7,-319.4l-685.2,2425.2zm-5,666.9c-184.8,-47.5 -327.7,798.5 -796,2386.4c-58,215 86.5,433.8 308.1,461.2c411.7,33.2 1721.1,151.9 1462,-575.8c-598.7,-1403.8 -803.1,-2227.6 -974.1,-2271.8zm-265.3,-89.3c-26.8,-17.9 -69.6,2.4 -94.1,23.1l-1743.2,1542c-477.7,478.7 512.7,926.3 775.7,1105.3c182.3,91.6 403.1,-6.7 456.8,-204.2l612.2,-2315.9c15.9,-55.4 32.4,-127.1 -7.4,-150.3zm-348,-546.2l-709.3,-450l-1197.9,-760c-178.1,-105.1 -407.9,-22.4 -479.3,172c-55.6,252.4 -424,970.6 -235.5,1274.6c50.4,81.6 141,133.6 289,138.5l2391.7,-142.8c70.7,-2.7 -46.4,-102 -21.2,-152.4c20.3,-41.9 2,-56.1 -37.5,-79.9zm1120.5,157.5l2237.5,-122.5c693.5,-104.1 72.1,-1143.8 -116.3,-1491.4c-111.9,-177.6 -357.1,-212.7 -517.3,-76.7l-1724.4,1547.7c-40.6,29.7 33.1,178.9 120.5,142.9zm1979.8,2000.1c121.7,-151.9 79.8,-376.7 -88.1,-475.7l-1964.4,-1138.1c-46.4,-27.3 -119,29 -150.6,72.4c-42,54.7 -120.9,106.5 -81.7,185.2l935.2,2026.9c413.8,640.2 1050.4,-358.2 1349.6,-670.7zm-5708.1,-1285.4c132.9,307.4 337.3,1652.5 932.8,1229.9l1734.5,-1505.3c24.9,-20.9 29.5,-55.8 14,-84c-39.1,-52.5 -23.2,-162.4 -110,-159.6l-2268.7,94.8c-213.3,12.6 -360.1,218.8 -302.6,424.2zm6299.6,-366.7c29.5,-217.6 -146.5,-407.1 -365.7,-393.9l-2184.4,150.6c-31.8,1.9 -58.6,26.8 -61.6,58.5c-0.3,0.5 -9.3,97.1 13.2,110.3l1949.6,1183.1c591,270.7 564.4,-795.7 648.9,-1108.6zm-1460,3422.4c-2157.8,1098 -4772,-136.7 -5501.1,-2382.2c-21.9,-67 -41.7,-135.4 -60.4,-204c-97.1,-292.4 -155.2,-585.7 -177.7,-876.5c-61.1,-772.2 127.7,-1523.7 499.8,-2173.9c28.9,-5.6 57.9,-10.9 86.5,-16l100,-17.6c17.7,-3.4 35.6,-6.4 53.1,-9c308.1,-53.2 604.4,-95.1 884.7,-126c-31.9,32.1 -61.1,62.1 -86.8,87.9c-133.4,161.1 -90.2,403 89.9,509.3l1323.9,758.7l692.1,396.5c37.5,23.8 85.8,-21.1 66.1,-60l-288.2,-586.6l-575,-1169.3l0.2,-4.1l19.2,-336.2c58.8,118.9 114.4,232.8 167,342.2c213.1,443.3 377.8,808.1 508.2,1093.1c622.9,1356.1 480.8,890.7 1202.8,-1646.4c54.9,-201 -80.6,-403.4 -286.7,-432c-306.3,-34.8 -1285.3,-83.3 -1568.1,238.7l36.8,-649l15.2,-261l1.2,-25.7c220,-62.6 447.5,-106.8 681.5,-130.7c4326.3,-498.2 6212.5,5856.6 2115.8,7679.8" fill="#fffbe0" fill-rule="nonzero" id="path76"/>
    <path d="m24233,30151.3c-461.8,217.1 -1028.4,310.1 -1474.4,367l-38.9,4.3c-1770.6,211.6 -3339.9,-762.2 -4110.4,-2407.7c-234,-498.9 -380.2,-1017.8 -435.8,-1531.5c-81.8,-754.4 33.4,-1497.8 356.8,-2152.5c10.4,-2.5 20.8,-4.5 31.2,-6.6c69.6,-14.1 138.7,-27.6 207,-40.5c25.5,-4.9 50.6,-9.6 75.8,-14c28.9,-5.6 57.9,-10.9 86.5,-16c-99.9,169.3 -185.5,347.7 -257.2,535.4c-194.2,510.7 -269.1,1068.2 -225.9,1630.5c22,290.5 75.4,582.4 160.3,869.3c61.2,209 139.1,415.3 233.7,617.2c84.9,181.2 180.2,353.5 284.7,517.2c340.5,531.3 780.3,964.5 1294.6,1270.8c655.8,390.9 1407.6,557 2179.6,483.1c8.7,-0.9 17,-1.6 25.2,-2.7c21.4,-1.9 42.2,-4 63.4,-6.6l36.8,-4.7c275.8,-35 553.4,-101.2 829.6,-197.2c154.1,-52.7 307.8,-115.7 461.1,-187.5c208.5,-97.4 405.4,-209.8 589.7,-334.5c696.5,-470.8 1210.2,-1124.6 1474.4,-1889.6c191.4,-554.8 247.3,-1145 169.5,-1732.1c-1.2,-10.2 -2.5,-20.8 -4.1,-30.9c-23.9,-171 -59.6,-342.1 -106.2,-511.4c-63,-228.8 -146.1,-455.2 -250.1,-676.3c-84.9,-181.2 -179.9,-354.3 -285.2,-517.8c-181.6,-284.6 -393.3,-541.5 -631.8,-768.2c-802.1,-760.1 -1843.6,-1106.9 -2932.6,-976.5c-253.5,30.2 -755.1,41.7 -755.1,41.7l1.2,-25.7l4.4,-74.9l2.4,-41.3c251.4,-74.5 499.9,-129.3 716.8,-155.2c1200.1,-143.5 2309.2,258.7 3139.5,1045.7c394.3,373.8 725.1,833.6 973.6,1363.4c969.8,2071.1 338.5,4512.5 -1890.1,5556.3" fill="#ffea8c" fill-rule="nonzero" id="path78"/>
    <path d="m24181.2,30229.3c-476.7,223.5 -950.1,361 -1409.9,419.5c-13.6,2 -27,3.6 -40.3,5.1c-1826.3,218.3 -3444.6,-787.1 -4239.7,-2483.6c-237.5,-507 -380.2,-1036.4 -427.8,-1562.9c-68,-750.4 56.7,-1494.4 375.3,-2157.7c30.7,-6.4 61.1,-12.8 91.5,-18.8c10.4,-2.5 20.8,-4.5 31.2,-6.6c-43.3,88.1 -83,179.4 -118.8,273.8c-215.5,565.1 -282.4,1219.5 -213.7,1872.6c55.3,524.6 197.6,1048.9 421,1525.3c380.5,811.2 956.2,1463.5 1665.4,1885.8c718.2,427.8 1545.3,600.2 2391.9,499l38.1,-4.6c453.4,-58.2 1017,-184 1467.3,-395.1c1051.3,-492.7 1718.2,-1335.7 2070.8,-2355.9c344.1,-995.3 272.4,-2100.3 -201.5,-3111.2c-244.5,-523.1 -570,-979.3 -967.3,-1355.6c-845.4,-801.5 -1943.6,-1168 -3092,-1030.8c-243.2,29.4 -487.9,80.9 -731.9,154.8l2.4,-41.3l7.7,-144.2c235.4,-67.5 468.4,-114.2 698.3,-142c1237.4,-147.8 2381.6,266.6 3238,1078.4c406,385.6 747.8,859.8 1003.6,1406.4c1000.9,2136.3 238.5,4613.2 -2059.6,5689.6" fill="#f47d1f" fill-rule="nonzero" id="path80"/>
    <path d="m20329.3,27561.6c-1.1,6.7 -2.2,13.4 -3.4,20.1c-4,13.1 -11,24.4 -20.9,33.9c-34.1,25.9 -68.2,51.9 -102.3,77.9c-7.4,7.6 -16.2,12.9 -26.2,15.8c-9.6,4.7 -19.9,6.6 -30.8,5.8c-18.9,-0.7 -41.3,-9.8 -54,-24.3c-13.6,-15.5 -23.3,-35.9 -21.6,-57l3.4,-20.1c4,-13.1 11,-24.4 20.9,-33.9c34.1,-26 68.2,-51.9 102.3,-77.9c7.4,-7.7 16.2,-12.9 26.2,-15.8c9.6,-4.7 19.9,-6.6 30.8,-5.8c18.9,0.6 41.3,9.8 54,24.3c13.6,15.5 23.3,35.8 21.6,57" fill="#fff0c9" fill-rule="nonzero" id="path82"/>
    <path d="m21298.8,26816.4c-6.5,18.3 -18.9,37.8 -37.4,45.9c-64.8,28.4 -129.7,56.9 -194.6,85.3c-19.7,8.6 -39.5,12.7 -60.7,6.2c-18,-5.5 -37.5,-20.1 -45.9,-37.3c-9.1,-18.5 -13.3,-40.7 -6.3,-60.7c6.5,-18.3 18.9,-37.8 37.4,-45.9c64.9,-28.4 129.7,-56.9 194.6,-85.3c19.7,-8.6 39.5,-12.7 60.7,-6.2c18.1,5.5 37.5,20.1 45.9,37.3c9.1,18.5 13.4,40.7 6.3,60.7" fill="#fff0c9" fill-rule="nonzero" id="path84"/>
    <path d="m20885.1,28178c-29.7,43.2 -59.4,86.3 -89.2,129.5c-11.8,17.1 -28.1,30.2 -48.7,35.1c-18.7,4.5 -43.1,1.4 -59.3,-9.6c-16.8,-11.4 -31.3,-28.1 -35.2,-48.7c-3.8,-19.9 -2.2,-42.1 9.6,-59.3l89.2,-129.5c11.8,-17.1 28.1,-30.2 48.7,-35.1c18.8,-4.5 43.1,-1.4 59.3,9.6c16.8,11.4 31.3,28.1 35.2,48.7c3.8,19.9 2.3,42.1 -9.6,59.3" fill="#fff0c9" fill-rule="nonzero" id="path86"/>
    <path d="m21283.3,27944.7c-19.6,45.6 -39.2,91.2 -58.8,136.7c-2.7,10.1 -7.6,18.8 -14.6,26.1c-5.8,8.5 -13.4,15.2 -22.8,19.9c-9.4,5.6 -19.4,8.4 -30.1,8.5c-10.3,2 -20.5,1.2 -30.6,-2.3c-18.8,-6.6 -36.8,-18.9 -45.9,-37.3c-2.5,-6.6 -5,-13.1 -7.5,-19.7c-3.3,-13.8 -2.8,-27.5 1.3,-41l58.8,-136.7c2.7,-10.1 7.5,-18.8 14.6,-26.1c5.8,-8.5 13.3,-15.1 22.7,-19.9c9.4,-5.5 19.5,-8.4 30.2,-8.5c10.2,-2 20.4,-1.2 30.5,2.3c18.8,6.7 36.9,18.9 45.9,37.4c2.6,6.5 5.1,13.1 7.6,19.6c3.2,13.8 2.8,27.5 -1.3,41" fill="#fff0c9" fill-rule="nonzero" id="path88"/>
    <path d="m21560.8,28388.1c-21.1,97.6 -62.4,192.1 -119.2,274.2c-11.8,17.1 -28.1,30.3 -48.7,35.2c-18.8,4.4 -43.1,1.4 -59.3,-9.6c-33.8,-22.8 -50.6,-72 -25.6,-108.1c22.4,-32.4 41.7,-66.7 58.6,-102.3c19,-43.6 34,-88.8 44,-135.3c4,-18.3 21.5,-37.2 37.4,-45.9c17.1,-9.3 42,-12.8 60.7,-6.2c18.8,6.6 36.9,18.9 45.9,37.3c9.8,19.9 10.9,39.1 6.2,60.7" fill="#fff0c9" fill-rule="nonzero" id="path90"/>
    <path d="m22416.4,28220.9c-0.4,35.8 -0.7,71.7 -1.1,107.6c0,10.5 -2.5,20.2 -7.5,29.2c-3.4,9.6 -9,17.9 -16.8,24.8c-7.4,7.6 -16.2,12.9 -26.2,15.8c-9.6,4.6 -19.9,6.6 -30.8,5.8c-19.9,-1.6 -40.5,-8.8 -54,-24.3c-14.1,-16.1 -21.8,-35.3 -21.6,-57c0.3,-35.9 0.7,-71.8 1,-107.7c0,-10.5 2.5,-20.2 7.5,-29.2c3.4,-9.6 9,-17.8 16.8,-24.7c7.5,-7.7 16.2,-13 26.3,-15.8c9.6,-4.7 19.9,-6.7 30.8,-5.9c19.9,1.6 40.4,8.8 53.9,24.3c14.2,16.2 21.9,35.3 21.7,57.1" fill="#fff0c9" fill-rule="nonzero" id="path92"/>
    <path d="m22841.1,28805.5c1.7,84.5 3.5,168.9 5.3,253.4c0.8,41.1 -40.8,78.9 -81.4,75.6c-44.4,-3.6 -74.7,-37.3 -75.6,-81.3c-1.8,-84.5 -3.5,-169 -5.3,-253.4c-0.8,-41.2 40.8,-78.9 81.3,-75.7c44.5,3.6 74.8,37.3 75.7,81.4" fill="#fff0c9" fill-rule="nonzero" id="path94"/>
    <path d="m22706,27849.1c3,21.2 2,40.6 -9.5,59.4c-10.2,16.4 -29.5,31.5 -48.8,35.1c-19.9,3.8 -42,2.2 -59.3,-9.5c-16.3,-11.1 -32.3,-28.4 -35.2,-48.8c-7.8,-56.2 -15.6,-112.3 -23.5,-168.5c-2.9,-21.2 -2,-40.6 9.6,-59.4c10.1,-16.3 29.5,-31.5 48.7,-35.1c20,-3.8 42,-2.2 59.4,9.6c16.3,11 32.3,28.3 35.1,48.7c7.9,56.2 15.7,112.4 23.5,168.5" fill="#fff0c9" fill-rule="nonzero" id="path96"/>
    <path d="m24014.2,28488.3c2,10.3 1.2,20.4 -2.3,30.5c-2.7,10.1 -7.6,18.8 -14.6,26.1c-5.8,8.5 -13.4,15.1 -22.8,19.9c-18.5,9.1 -40.6,13.3 -60.6,6.2c-6.1,-2.8 -12.2,-5.5 -18.3,-8.3c-11.8,-7.3 -21,-17 -27.7,-29c-21,-30.7 -42,-61.4 -63,-92.1c-5.6,-9.4 -8.4,-19.4 -8.5,-30.1c-2,-10.3 -1.2,-20.5 2.3,-30.6c2.7,-10 7.5,-18.7 14.6,-26.1c5.8,-8.5 13.3,-15.1 22.7,-19.8c18.5,-9.1 40.7,-13.3 60.7,-6.2c6.1,2.7 12.2,5.5 18.3,8.2c11.7,7.3 21,17 27.6,29.1c21,30.7 42,61.4 63.1,92c5.5,9.4 8.4,19.5 8.5,30.2" fill="#fff0c9" fill-rule="nonzero" id="path98"/>
    <path d="m23473.2,27668.4c-32.7,28.6 -80,28.4 -111,-2.6c-56.5,-56.4 -113,-112.8 -169.4,-169.3c-29.2,-29 -28.8,-83.5 2.6,-111c32.7,-28.6 80,-28.4 111,2.7c56.5,56.4 113,112.8 169.4,169.2c29.1,29.1 28.8,83.6 -2.6,111" fill="#fff0c9" fill-rule="nonzero" id="path100"/>
    <path d="m24150.4,27870c-5.5,18.1 -20.1,37.5 -37.3,45.9c-18.5,9.1 -40.7,13.4 -60.7,6.3c-20.2,-7.1 -34.1,-19.5 -45.9,-37.4c-2.3,-3.4 -4.7,-6.6 -7,-10c-24.2,-32 -51.9,-61.1 -82.7,-86.8c-2.5,-1.9 -4.9,-3.8 -7.4,-5.7c-17.1,-12.6 -30.2,-27.4 -35.2,-48.7c-4.5,-18.8 -1.4,-43.1 9.6,-59.3c11.4,-16.9 28.1,-31.3 48.7,-35.2c19.4,-3.7 42.8,-2.7 59.3,9.6c29.8,22 58.4,46 83.8,72.9c25.6,26.9 48.2,56.8 68.6,87.7c10.7,16.2 11.7,42.8 6.2,60.7" fill="#fff0c9" fill-rule="nonzero" id="path102"/>
    <path d="m24705.4,27064.1c-1.5,19.9 -8.8,40.5 -24.3,54c-5.4,4 -10.9,8 -16.4,12c-12.6,6.8 -26.2,10.1 -40.6,9.6c-61.4,4.1 -122.8,8.1 -184.2,12.1c-18.5,1.3 -41.7,-11.4 -53.9,-24.3c-13.5,-14.1 -23.3,-37.2 -21.7,-57c1.6,-19.9 8.9,-40.5 24.3,-54l16.4,-12c12.7,-6.9 26.3,-10.1 40.7,-9.6c61.4,-4.1 122.7,-8.1 184.1,-12.1c18.5,-1.3 41.7,11.4 54,24.3c13.5,14.1 23.2,37.2 21.6,57" fill="#fff0c9" fill-rule="nonzero" id="path104"/>
    <path d="m24880.7,26648.5c-6.3,17.8 -18.9,38.6 -37.3,45.9c-72,28.3 -145.2,49 -222.2,57.3c-21.7,2.3 -40.1,2.3 -59.4,-9.6c-16.4,-10.1 -31.5,-29.5 -35.1,-48.7c-3.8,-20 -2.2,-42 9.5,-59.3c10.9,-16 28.6,-33.1 48.8,-35.2c66.8,-7.2 132.2,-22.9 195,-46.8c-3.4,1.3 -6.9,2.6 -10.4,3.9c19.8,-7.6 37.6,-12.1 58.9,-5.6c18.1,5.6 37.5,20.1 46,37.4c9,18.5 13.3,40.7 6.2,60.7" fill="#fff0c9" fill-rule="nonzero" id="path106"/>
    <path d="m24327,25778.8c-11,16.2 -28.4,32.4 -48.8,35.1c-35.1,4.8 -69.5,13.6 -102.9,25.5c-13.5,5.5 -26.9,11.2 -39.9,17.8c-18.5,9.5 -40.7,12.4 -60.7,6.3c-18,-5.6 -37.5,-20.1 -45.9,-37.4c-9.1,-18.5 -13.3,-40.7 -6.3,-60.7c6.8,-19 19,-36.5 37.4,-45.9c56.8,-29.1 118.8,-49.9 182.2,-58.4c21.2,-2.8 40.4,-2 59.3,9.6c16.4,10.1 31.5,29.5 35.1,48.7c3.9,20 2.2,42 -9.5,59.4" fill="#fff0c9" fill-rule="nonzero" id="path108"/>
    <path d="m24781.2,25177.1c-1.5,19.2 -8.4,41.7 -24.2,54c-52.4,40.7 -104.7,81.3 -157,122c-17.1,13.3 -34.5,22.5 -57,21.7c-18.9,-0.7 -41.3,-9.9 -54,-24.3c-13.6,-15.6 -23.3,-35.9 -21.6,-57.1c1.5,-19.2 8.4,-41.6 24.3,-54c52.3,-40.6 104.6,-81.3 156.9,-122c17.1,-13.3 34.5,-22.5 57,-21.6c18.9,0.6 41.4,9.8 54,24.3c13.6,15.5 23.4,35.8 21.6,57" fill="#fff0c9" fill-rule="nonzero" id="path110"/>
    <path d="m23293.5,24717.1c-16.8,54.1 -33.6,108.3 -50.4,162.4c-5.9,18.9 -20,36.4 -37.4,46c-17.1,9.3 -41.9,12.8 -60.7,6.2c-18.8,-6.7 -36.8,-18.9 -45.9,-37.3c-9.3,-19 -12.6,-40.2 -6.2,-60.7c16.8,-54.2 33.6,-108.4 50.4,-162.5c5.9,-18.9 20,-36.4 37.4,-45.9c17.1,-9.4 42,-12.9 60.7,-6.3c18.8,6.7 36.8,18.9 45.9,37.4c9.3,18.9 12.6,40.1 6.2,60.7" fill="#fff0c9" fill-rule="nonzero" id="path112"/>
    <path d="m23961.6,24370.7c-43.1,71 -86.3,142 -129.5,212.9c-10.4,17.2 -29.2,30.6 -48.7,35.2c-18.7,4.4 -43.1,1.4 -59.3,-9.6c-35.4,-24 -48.4,-70.5 -25.6,-108c43.2,-71 86.3,-141.9 129.5,-212.9c10.4,-17.1 29.3,-30.6 48.7,-35.2c18.8,-4.4 43.1,-1.4 59.3,9.6c35.4,24 48.4,70.5 25.6,108" fill="#fff0c9" fill-rule="nonzero" id="path114"/>
    <path d="m23652.3,24060.6c-13.4,19.3 -24.9,39.9 -35.2,61c-7.8,18 -14.9,36.4 -20.3,55.2c-5.4,18.8 -20.3,36.6 -37.3,46c-9.5,5.6 -19.5,8.4 -30.2,8.5c-10.3,2 -20.5,1.2 -30.5,-2.3c-18.8,-6.7 -36.9,-18.9 -46,-37.3c-9.4,-19.2 -12.2,-39.9 -6.2,-60.7c8.7,-30.2 20.8,-58.9 34.2,-87.3c10.8,-22.9 23.5,-44.8 37.9,-65.6c11.8,-17.1 28.1,-30.3 48.7,-35.2c18.7,-4.4 43.1,-1.4 59.3,9.6c16.8,11.4 31.3,28.2 35.2,48.7c3.8,19.9 2.3,42.2 -9.6,59.4" fill="#fff0c9" fill-rule="nonzero" id="path116"/>
    <path d="m22272.9,25239c-37,18.1 -87,8.2 -106.7,-31.1c-21.5,-43.2 -45.7,-85.1 -72.5,-125.2c-6.6,-9.9 -13.3,-19.7 -20.2,-29.3c-0.8,-1.2 -1.2,-1.8 -1.8,-2.6c-3.4,-4.5 -6.8,-9.1 -10.3,-13.6c-15,-19.5 -30.6,-38.5 -46.7,-57c-27,-30.9 -30.3,-82.3 2.6,-111c30.9,-27 82.2,-30.4 111,2.6c69,79.1 128.7,166.7 175.7,260.6c18.3,36.6 7.9,87.4 -31.1,106.6" fill="#fff0c9" fill-rule="nonzero" id="path118"/>
    <path d="m22513.8,24333.7c-7.3,51.2 -18.8,101 -38.3,149c-7.8,19.4 -18.4,35.6 -37.3,45.9c-17.1,9.4 -42,12.9 -60.7,6.2c-37.2,-13.1 -68.7,-57.3 -52.2,-98c14,-34.4 24,-70.1 30.9,-106.6c6.2,-43.6 7.4,-87.7 3.1,-131.6c0.6,5.2 1.1,10.5 1.6,15.7c-2.2,-21.2 -2.1,-39.3 9.7,-58.3c10.1,-16.4 29.4,-31.5 48.7,-35.1c19.9,-3.8 42,-2.2 59.3,9.5c16,10.9 33,28.6 35.2,48.8c5.5,51.7 7.2,102.8 0,154.5" fill="#fff0c9" fill-rule="nonzero" id="path120"/>
    <path d="m21882.3,24194.2c-41.8,8 -84.4,-15.5 -94.5,-58.3l-45.1,-190.5c-9.5,-40 16.6,-86.6 58.3,-94.5c41.8,-8 84.3,15.4 94.5,58.3l45.1,190.5c9.5,40 -16.6,86.6 -58.3,94.5" fill="#fff0c9" fill-rule="nonzero" id="path122"/>
    <path d="m21574.2,25424.2c-5.2,9.1 -12.1,16.3 -20.9,21.6c-8,7 -17.2,11.5 -27.9,13.6c-19.9,3.8 -42,2.1 -59.3,-9.6c-17,-11.5 -30.9,-28.1 -35.2,-48.7c-0.3,-1.8 -1,-3.5 -1.5,-5.3c-1.7,-3.6 -3.7,-7.1 -5.7,-10.5c-2.3,-2.6 -4.7,-5.2 -7.2,-7.6c-3.6,-2.4 -6.9,-5.1 -10.7,-7c-9.1,-5.2 -16.3,-12.1 -21.6,-20.9c-7,-7.9 -11.5,-17.2 -13.6,-27.8c-2.9,-10.5 -3,-20.8 -0.4,-31c0.8,-10.2 4.2,-19.7 10,-28.4c11.4,-16.8 28.1,-31.2 48.7,-35.1c7,-0.7 14,-1.4 21,-2.1c13.8,0.6 26.6,4.4 38.3,11.7c13.5,6.8 24.9,16.6 36.5,26.3c7,5.8 13.2,12.3 18.7,19.6c9.1,12 18.5,24 24.8,37.8c6.5,14 12.4,28.9 15.5,44.1c4.2,20 1.3,41.7 -9.5,59.3" fill="#fff0c9" fill-rule="nonzero" id="path124"/>
    <path d="m21284.8,26099.4c-1.6,19.9 -8.8,40.4 -24.3,54c-16,14 -35.4,22.1 -57,21.6c-35.9,-0.8 -71.8,-1.7 -107.7,-2.6c-19.5,-0.4 -40.5,-10.1 -53.9,-24.2c-7.7,-7.5 -12.9,-16.3 -15.8,-26.3c-4.7,-9.6 -6.7,-19.9 -5.9,-30.8c1.6,-19.9 8.9,-40.4 24.3,-54c16.1,-14 35.4,-22.1 57.1,-21.6c35.8,0.8 71.7,1.7 107.6,2.5c19.6,0.5 40.5,10.2 54,24.3c7.6,7.5 12.9,16.2 15.8,26.3c4.6,9.6 6.6,19.9 5.8,30.8" fill="#fff0c9" fill-rule="nonzero" id="path126"/>
    <path d="m20182.7,26029.1c1.9,10.3 1.1,20.4 -2.4,30.5c-6.6,18.8 -18.9,36.9 -37.3,46c-17.9,8.8 -41.4,14.1 -60.7,6.2c-7.6,-3.1 -15.6,-4.9 -23.6,-6.7c-4.9,-0.4 -9.9,-0.5 -14.8,-0.4c-6.6,1.2 -13,2.7 -19.3,4.8c-2.3,0.8 -4.6,1.5 -6.9,2.1l-0.4,0.1l0.3,-0.1c-4.1,0.9 -8.2,1.7 -12.4,1.8c-10.3,1.9 -20.5,1.1 -30.6,-2.4c-10,-2.7 -18.7,-7.5 -26.1,-14.6c-8.5,-5.7 -15.1,-13.3 -19.8,-22.7c-9.1,-18.5 -13.3,-40.7 -6.2,-60.7c2.7,-6.1 5.5,-12.2 8.2,-18.3c7.3,-11.7 17,-20.9 29.1,-27.6c14.8,-5.9 29.6,-12 45.3,-15.1c15.8,-3 32.2,-4.6 48.4,-4.6c15.7,0 31.2,2.9 46.6,5.8c9.7,1.8 19,4.7 28.1,8.4c10,2.7 18.7,7.5 26.1,14.6c8.5,5.8 15.1,13.4 19.8,22.7c5.6,9.4 8.5,19.5 8.6,30.2" fill="#fff0c9" fill-rule="nonzero" id="path128"/>
    <path d="m20636.1,25882.9c-12.9,36.7 -57.6,69.3 -98,52.2c-142.7,-60.6 -281.8,-129.3 -415.8,-207.3c-35.5,-20.7 -48.9,-73.5 -25.5,-108c24.3,-36 70.1,-47.7 108,-25.6c63.2,36.7 127.4,71.6 192.7,104.4c32.2,16.1 64.6,31.8 97.3,46.9c3.8,1.8 7.7,3.6 11.5,5.3c1.6,0.8 13.9,6.8 5.3,2.5c-9.6,-4.8 6.4,2.8 8.3,3.7c3.8,1.7 7.7,3.4 11.6,5.1c17.4,7.8 34.9,15.3 52.5,22.8c19.4,8.2 35.4,18.1 45.9,37.3c9.3,17.1 12.8,42 6.2,60.7" fill="#fff0c9" fill-rule="nonzero" id="path130"/>
    <path d="m20217.2,27042.2c-118.8,45.9 -237.6,91.9 -356.4,137.8c-20.6,8 -38.7,13 -60.7,6.3c-18.1,-5.6 -37.5,-20.1 -45.9,-37.4c-16.7,-34 -9.9,-90.8 31.1,-106.6c118.8,-45.9 237.6,-91.9 356.4,-137.8c20.6,-8 38.6,-13 60.7,-6.3c18.1,5.6 37.5,20.1 45.9,37.4c16.7,34 9.9,90.8 -31.1,106.6" fill="#fff0c9" fill-rule="nonzero" id="path132"/>
    <path d="m16917.5,24678.6c-286,83.8 -558.7,172.2 -815.2,262.8l-5.9,157.5c126.7,-46.1 258.4,-91 394.8,-135.4c26.1,-9 52.7,-17.7 79.7,-26.1c15,-4.8 30,-9.6 45,-14.3c27,-8.9 54.4,-17.4 82.2,-26c34.9,-11.1 70.3,-21.9 106.1,-32.7c17.6,-5.4 35.3,-10.8 53.4,-16.3c17.7,-5.4 35.7,-10.9 53.8,-16.4l6.1,-153.1" fill="#efefef" fill-rule="nonzero" id="path134"/>
    <path d="m16491.2,24963.5c-136.4,44.4 -268.1,89.3 -394.8,135.4c127.2,-45.4 258.4,-91 394.8,-135.4" fill="#ad689d" fill-rule="nonzero" id="path136"/>
    <path d="m16911.4,24831.7c-36.1,11 -72,21.5 -107.2,32.7c35.3,-10.8 71.1,-21.7 107.3,-32.3l-0.1,-0.4" fill="#ad689d" fill-rule="nonzero" id="path138"/>
    <path d="m16500.1,22257.1c-108.1,-0.2 -211.6,11 -297.7,30.6l-100.1,2653.7c256.5,-90.6 529.2,-179 815.2,-262.8l86.6,-2312.1l0.5,-9.8c-5.4,-101.2 -225.1,-98.8 -504.5,-99.6" fill="#ad689d" fill-rule="nonzero" id="path140"/>
    <path d="m16911.5,24832.1c-288.4,85.6 -561.1,175.6 -815.1,266.8l-30.6,806.1l-322.4,8542.5l806,30.2l326,-8683.8l36.1,-961.8" fill="#db70bd" fill-rule="nonzero" id="path142"/>
    <path d="m16202.4,22287.7l-0.4,0.1c-129.4,29.4 -220.7,78.1 -231.9,136.4l-0.3,0.5l-0.7,19.1l0,0.4l-450,11994.7l224.3,8.6l459,-12159.8" fill="#db70bd" fill-rule="nonzero" id="path144"/>
    <path d="m16102.3,24941.4c-78.3,27.4 -155.2,55.3 -230,83.5l-5.9,159.2c20,-7.6 40.4,-15.2 60.8,-22.9c28.8,-11.2 58.5,-22.3 88.2,-33c26.7,-9.9 53.8,-19.6 81,-29.3l5.9,-157.5" fill="#efefef" fill-rule="nonzero" id="path146"/>
    <path d="m16201.9,22292.7l0.1,-4.9c-129.4,29.4 -220.7,78.1 -231.9,136.4l-0.3,0.5l-0.7,19.1l0,0.4l-96.8,2580.7c74.8,-28.2 151.7,-56.1 230,-83.5l100.1,-2653.7c0,1.6 -0.1,3.3 -0.5,5" fill="#8c6082" fill-rule="nonzero" id="path148"/>
    <path d="m16096.4,25098.9c-78.5,27.9 -155.2,56.6 -230,85.2l-28.1,742.9l-319.2,8511.9l224.3,8.6l322.4,-8542.5l30.6,-806.1" fill="#c15da7" fill-rule="nonzero" id="path150"/>
    <path d="m16549.5,34475.9c-0.3,102.7 -225.4,159.6 -508.2,158.7c-282.7,-0.8 -522.3,-93.7 -522,-196.5c0.3,-102.8 240.4,-176.5 523.2,-175.7c282.7,0.9 507.3,110.7 507,213.5" fill="#eaa2d9" fill-rule="nonzero" id="path152"/>
    <path d="m16348.8,20001.3c-626.1,-1264.6 -2522.5,-365.5 -1939.8,919.5c626,1264.6 2522.4,365.5 1939.8,-919.5" fill="#ffffff" fill-rule="nonzero" id="path154"/>
    <path d="m16348.8,20001.3l-48.2,23.9c-102.4,-206.6 -238.2,-350.5 -390.4,-443.8c-152.2,-93.1 -321.5,-135.7 -492,-135.7c-265.9,-0.2 -534,104.7 -733.8,282c-99.9,88.7 -182.8,195.2 -240.6,315.4c-57.8,120.2 -90.8,254 -90.8,398.8c0,142.3 31.9,295.5 105,456.7l-49,22.2l48.2,-23.9c102.4,206.6 238.2,350.5 390.3,443.8c152.2,93.1 321.6,135.7 492,135.7c265.9,0.2 534,-104.7 733.8,-282c100,-88.7 182.8,-195.2 240.7,-315.4c57.8,-120.2 90.7,-254 90.8,-398.7c-0.1,-142.4 -32,-295.6 -105,-456.8l49,-22.2l-48.2,23.9l48.2,-23.9l49,-22.2c78.8,173.8 114.6,342.6 114.6,501.2c0,161.1 -37,311.4 -101.5,445.4c-96.8,201.1 -255,365.4 -443.3,479.6c-188.5,114.2 -407.5,178.7 -628.1,178.7c-188.3,0.1 -377.9,-47.3 -548.2,-151.5c-170.2,-104.2 -320.3,-265 -430.5,-487.8l-0.4,-0.8l-0.4,-0.9c-78.9,-173.8 -114.6,-342.6 -114.6,-501.1c0,-161.2 36.9,-311.5 101.4,-445.5c96.8,-201.1 255,-365.4 443.4,-479.6c188.4,-114.2 407.5,-178.7 628,-178.7c188.3,-0.1 378,47.3 548.2,151.5c170.3,104.2 320.4,265 430.6,487.8l0.4,0.8l0.4,0.9l-49,22.2" fill="#000000" fill-rule="nonzero" id="path156"/>
    <path d="m16188.6,20124.6c-319.5,-534.7 -1122.8,-73.1 -821.7,472.1c319.5,534.7 1122.7,73.1 821.7,-472.1" fill="#000000" fill-rule="nonzero" id="path158"/>
    <path d="m16139.4,20109.9c-82.9,-149.3 -315.5,-15.7 -228.3,131.1c82.9,149.3 315.5,15.7 228.3,-131.1" fill="#ffffff" fill-rule="nonzero" id="path160"/>
    <path d="m16052,20433.3c-49.8,-89.6 -189.3,-9.4 -137,78.7c49.8,89.6 189.3,9.4 137,-78.7" fill="#ffffff" fill-rule="nonzero" id="path162"/>
    <path d="m16958.8,19656.4c-411.7,-1349.7 1585.1,-1996 2042.3,-661.2c411.7,1349.7 -1585.1,1996 -2042.3,661.2" fill="#ffffff" fill-rule="nonzero" id="path164"/>
    <path d="m16958.8,19656.4l-51.5,15.7c-39.5,-129.5 -57.9,-253.7 -57.9,-371.1c0,-165.9 36.8,-318.2 101.3,-452.3c96.7,-201.4 254.9,-361.6 442.3,-471.3c187.6,-109.8 404.7,-169.6 622,-169.6c213,-0.1 426.6,57.7 610.1,183.7c91.7,63 175.8,142.9 248.1,240.5c72.5,97.5 133.2,212.6 178.8,345.8l0.3,0.9l0.3,0.8c39.5,129.6 57.9,253.7 57.9,371.1c0,166 -36.8,318.2 -101.3,452.4c-96.7,201.3 -254.9,361.5 -442.4,471.3c-187.5,109.7 -404.7,169.5 -622,169.6c-212.9,0 -426.5,-57.8 -610,-183.8c-91.7,-63 -175.8,-142.9 -248.2,-240.4c-72.4,-97.6 -133.1,-212.7 -178.7,-345.9l-0.3,-0.9l-0.3,-0.8l51.5,-15.7l50.9,-17.4c42.3,123.5 97.9,228.4 163.3,316.5c98.2,132.2 218.4,226.9 350.4,289.1c132,62.2 276.2,91.7 421.4,91.7c131.7,0 264.1,-24.3 388.4,-70.2c186.5,-68.9 354.4,-186.3 475,-341.8c60.3,-77.8 108.9,-165 142.5,-260.9c33.5,-95.8 52.1,-200.2 52.1,-312.8c0,-106.2 -16.5,-219.6 -53.1,-339.7l51.4,-15.7l-50.9,17.5c-42.3,-123.5 -97.9,-228.4 -163.4,-316.6c-98.1,-132.2 -218.3,-226.8 -350.3,-289.1c-132.1,-62.1 -276.2,-91.6 -421.5,-91.6c-131.6,0 -264.1,24.3 -388.4,70.2c-186.5,68.8 -354.3,186.3 -474.9,341.7c-60.3,77.8 -108.9,165.1 -142.5,260.9c-33.5,95.8 -52.2,200.3 -52.2,312.8c0,106.2 16.6,219.6 53.2,339.7l-51.4,15.7l50.9,-17.4l-50.9,17.4" fill="#000000" fill-rule="nonzero" id="path166"/>
    <path d="m17160,19636.3c-134.2,-608.3 766.9,-823.2 921.7,-220c134.2,608.3 -766.9,823.2 -921.7,220" fill="#000000" fill-rule="nonzero" id="path168"/>
    <path d="m17185.6,19591.8c-42,-165.5 218.9,-227.8 256.1,-61.1c42,165.5 -218.9,227.8 -256.1,61.1" fill="#ffffff" fill-rule="nonzero" id="path170"/>
    <path d="m17471.1,19767.2c-25.3,-99.3 131.3,-136.6 153.6,-36.6c25.2,99.3 -131.3,136.7 -153.6,36.6" fill="#ffffff" fill-rule="nonzero" id="path172"/>
    <path d="m16718.9,17413.5c-257.7,-689.2 -2059.1,-96.8 -1781,626.4c257.7,689.2 2059.1,96.8 1781,-626.4" fill="#000000" fill-rule="nonzero" id="path174"/>
    <path d="m16100.8,18228.3c-11.9,-62.9 -126.1,-232.6 -52,-286.5c97.9,-64.5 279.3,-88.9 304.7,-55.1l95,181l-347.7,160.6" fill="#ffffff" fill-rule="nonzero" id="path176"/>
    <path d="m15583.9,18353.1c-24.2,-262.3 -68.2,-250.1 198.8,-335.9c116.4,-48 153.5,212.3 193.2,271.8l-392,64.1" fill="#ffffff" fill-rule="nonzero" id="path178"/>
    <path d="m15759.3,17204c35.7,56.9 70.6,253.6 162.8,247.5c119.2,-11.8 272.7,-105.3 268,-146.3l-56.1,-194.7l-374.7,93.5" fill="#ffffff" fill-rule="nonzero" id="path180"/>
    <path d="m15282.6,17428.6c161,205.4 125.7,232.9 386.2,130.1c122.2,-36.7 -35.8,-256.6 -46.3,-323.4l-339.9,193.3" fill="#ffffff" fill-rule="nonzero" id="path182"/>
    <path d="m16718.9,17413.5l-61.4,23c-17.1,-45.7 -41.6,-83.7 -72.9,-116.3c-23.4,-24.4 -50.9,-45.7 -82.1,-64.1c-46.9,-27.5 -102.4,-48.4 -164.6,-62.2c-62.1,-13.8 -130.7,-20.6 -203.1,-20.6c-126.6,0 -264.7,20.8 -399.5,58.9c-101.2,28.5 -200.5,66.7 -292.1,112.4c-137.4,68.6 -257.2,154.6 -340.2,248.6c-41.5,46.9 -73.9,95.7 -95.6,144.9c-21.7,49.4 -33,99 -33,149.6c0,41.7 7.6,84.3 24.7,128.7l0.2,0.6c17.1,45.6 41.6,83.6 72.9,116.2c23.5,24.4 50.9,45.7 82.1,64.1c46.9,27.6 102.4,48.4 164.5,62.2c62.2,13.9 130.8,20.6 203.2,20.6c126.6,0.1 264.7,-20.8 399.5,-58.9c101.1,-28.5 200.5,-66.6 292.1,-112.4c137.4,-68.5 257.2,-154.6 340.2,-248.5c41.5,-47 73.9,-95.7 95.6,-145c21.7,-49.3 33,-98.9 33.1,-149.5c-0.1,-41.7 -7.7,-84.3 -24.7,-128.8l-0.3,-0.5l61.4,-23l61.2,-23.5c22.6,58.6 33.5,117.8 33.5,175.8c0,62.6 -12.7,123.4 -35.3,181c-39.7,100.8 -109.1,191.5 -196.6,271.6c-131.3,120 -304.1,217.1 -490,285.4c-185.9,68.1 -384.8,107.3 -569.7,107.4c-71.6,0 -141.1,-5.9 -207.1,-18.6c-98.8,-19.1 -190,-53.6 -266.4,-107.7c-38.1,-27.1 -72.5,-59.1 -101.6,-96.2c-29.2,-37.1 -53,-79.2 -70.4,-125.8l0.2,0.6c-22.6,-58.7 -33.5,-117.9 -33.4,-175.8c-0.1,-62.6 12.6,-123.5 35.2,-181c39.7,-100.9 109.1,-191.5 196.6,-271.6c131.3,-120 304.1,-217.1 490,-285.5c185.9,-68.1 384.8,-107.3 569.7,-107.4c71.6,0 141.1,5.9 207.1,18.6c98.8,19.2 190,53.6 266.4,107.8c38.2,27 72.5,59.1 101.6,96.2c29.2,37 53,79.2 70.4,125.8l-0.2,-0.6l-61.2,23.5" fill="#000000" fill-rule="nonzero" id="path184"/>
    <path d="m15059.7,19335.8c-158.1,-263.6 -1218.4,419.3 -1043.6,672.1c158,263.6 1218.3,-419.3 1043.6,-672.1" fill="#f47d1f" fill-rule="nonzero" id="path186"/>
    <path d="m17188.7,18326.6c-104,-289.2 1095.9,-677.6 1181,-382.3c104,289.3 -1095.9,677.7 -1181,382.3" fill="#f47d1f" fill-rule="nonzero" id="path188"/>
    <path d="m16253.6,22804.3c-721,44.2 -1468,-219 -1907.8,-812.4c275.8,614 944.7,1198.6 1659.6,1024.2c71,-11.5 446.1,-143.1 248.2,-211.8" fill="#000000" fill-rule="nonzero" id="path190"/>
    <path d="m18431.3,22522.3c864.5,172.2 1466.5,-769.9 1496.2,-1532.8c-183.6,635.6 -690.4,1135.3 -1303.9,1364.4c-65,26.5 -133.8,50.2 -199.1,75.8c-42.3,16.5 -36.9,82.6 6.8,92.6" fill="#000000" fill-rule="nonzero" id="path192"/>
    <path d="m15731.2,16651.2c75.2,-1.2 216.1,-61.5 231.3,44c0.3,31.9 -22.4,57.9 -51.1,56.8c-193.5,-3.3 -450,69.4 -555.5,237.5c-16.2,25.8 -48.2,31.5 -71.6,12.8c-94.6,-164.7 307.2,-334.7 446.9,-351.1" fill="#000000" fill-rule="nonzero" id="path194"/>
    <path d="m11511,21053.6l2219.3,2689.3c38.1,46.2 31.6,114.6 -14.7,152.8c-46.2,38.1 -114.6,31.6 -152.8,-14.7l-2219.3,-2689.2c-38.1,-46.3 -31.6,-114.7 14.7,-152.8c46.2,-38.2 114.6,-31.6 152.8,14.6" fill="#000000" fill-rule="nonzero" id="path196"/>
    <path d="m14029.6,24696.7c-41.9,-92.1 -89.6,-226 -129.9,-347.5c-11.7,8.5 -24.3,16.3 -37.6,23.7c36.7,173.6 83.3,387.4 114,505.3c15,58 -19.8,117.3 -77.8,132.3c-58,15.2 -117.2,-19.7 -132.3,-77.7c-29.2,-112 -71.1,-302.4 -106.4,-468.1c-5.6,53.4 -12.8,116 -21.8,190.5c-7.7,64.3 -15.1,125 -19.8,172.7c-5.8,59.7 -58.9,103.3 -118.6,97.4c-59.7,-5.9 -103.3,-59 -97.4,-118.6c4.9,-50.2 12.4,-112 20.3,-177.4c10.1,-83.8 24.6,-204.5 31,-290.7c-35.4,-37.1 -65.5,-85.4 -90.3,-144.1c-67.9,109.7 -141.7,201.5 -189.3,250.3c-41.8,42.9 -110.5,43.8 -153.5,2c-42.9,-41.8 -43.8,-110.6 -2,-153.5c86.8,-89 266.7,-342.3 289.7,-524.3c4.9,-38.9 29.9,-70 63.2,-85c32.2,-43.9 76.9,-79 136.2,-100.9c224.8,-83.1 398.1,60.8 481.2,285.6c20.3,54.8 33.2,109.4 38.1,161.8c31.1,103.2 127.7,416.4 200.6,576.1c24.8,54.6 0.8,118.9 -53.8,143.8c-54.5,24.9 -118.9,0.8 -143.8,-53.7" fill="#000000" fill-rule="nonzero" id="path198"/>
    <path d="m21472.6,21537.2c-22.9,55.4 -86.4,81.7 -141.8,58.8c-62.9,-26.1 -167,-81.3 -272.7,-155.3c0.3,63.8 -8.2,120.1 -26,168.3c39.9,76.6 101,181.7 143.3,254.6c33.1,57.1 64.4,111 88.8,155.1c28.9,52.5 9.9,118.5 -42.6,147.5c-52.4,28.9 -118.5,9.9 -147.5,-42.7c-23.2,-42 -53.9,-94.9 -86.4,-150.8c-37.7,-64.9 -69.1,-119.6 -95.3,-166.4c33,166.2 69.8,357.6 87.3,472.1c9,59.2 -31.6,114.8 -90.9,123.7c-59.3,9 -114.6,-31.6 -123.7,-90.9c-18.4,-120.5 -60.2,-335.6 -95.1,-509.7c-15.1,-1.4 -29.8,-3.8 -43.8,-7c11,127.8 20.2,269.8 18,371.1c-1.3,59.9 -50.8,107.5 -110.9,106.2c-59.9,-1.3 -107.4,-50.9 -106.2,-110.8c3.8,-175.7 -31.3,-502.3 -43.5,-609c-16.1,-49.9 -25.8,-105 -28.8,-163.2c-12.5,-239.4 89.7,-440 329.1,-452.5c63.2,-3.3 118,11.3 164.9,38.8c36.5,0.6 71.9,19.4 91.8,53.2c93,158 358.4,319.6 473.2,367.1c55.4,22.9 81.8,86.4 58.8,141.8" fill="#000000" fill-rule="nonzero" id="path200"/>
    <path d="m22099.3,18363.2l-1341.8,2770.5c-26.2,53.9 -91.1,76.5 -145,50.4c-54,-26.2 -76.5,-91.1 -50.4,-145l1341.8,-2770.5c26.2,-54 91.1,-76.5 145,-50.4c54,26.1 76.5,91.1 50.4,145" fill="#000000" fill-rule="nonzero" id="path202"/>
   </g>
  </g>
 </g>
</svg>