<?xml version="1.0"?>
<svg width="2200" height="4200" xmlns="http://www.w3.org/2000/svg" xmlns:svg="http://www.w3.org/2000/svg" version="1.1">

 <g class="layer">
  <title>Layer 1</title>
  <g id="g8" transform="matrix(1.33333, 0, 0, -1.33333, 0, 5333.33)">
   <g id="g10" transform="translate(-1140, 540) scale(0.1)">
    <path d="m19384.4,12487.3l196.1,-8025.6c1.1,-47.6 32.3,-88.7 77.8,-102.6l1414.3,-433.2c58.1,-17.9 119.7,14.8 137.5,73c17.8,58.1 -14.9,119.7 -73,137.5l-1338.5,410l-194.1,7946.2c-1.5,60.8 -51.9,108.9 -112.7,107.4c-60.8,-1.5 -108.9,-52 -107.4,-112.7" fill="#000000" fill-rule="nonzero" id="path12"/>
    <path d="m21148.6,3950c253.3,100.3 -442.1,1151.6 -1422.9,555c778.1,-248.6 1153.3,-491.5 1422.9,-555" fill="#000000" fill-rule="nonzero" id="path14"/>
    <path d="m16892.7,14022.3l-704.6,-9460l-1373.4,-3.4c-60.8,-0.2 -109.9,-49.6 -109.8,-110.4c0.2,-60.8 49.6,-110 110.4,-109.8l1475.3,3.7c57.5,0.1 105.3,44.6 109.5,101.9l712.1,9561.7c4.6,60.6 -40.9,113.4 -101.6,117.9c-60.6,4.5 -113.4,-41 -117.9,-101.6" fill="#000000" fill-rule="nonzero" id="path16"/>
    <path d="m14745.5,4395c-208.5,175.3 783.6,952.6 1525.4,76.5c-816.7,10.2 -1249.6,-101.5 -1525.4,-76.5" fill="#000000" fill-rule="nonzero" id="path18"/>
    <path d="m15078.5,15549.1l-3052.7,-3275.4c-41.4,-44.5 -39,-114.1 5.5,-155.6c44.5,-41.4 114.2,-39 155.6,5.5l3052.7,3275.4c41.4,44.5 39,114.1 -5.5,155.6c-44.5,41.4 -114.1,39 -155.6,-5.5" fill="#000000" fill-rule="nonzero" id="path20"/>
    <path d="m20461.3,15460.4l4412.7,2192.5c30.6,15.2 52.3,43.5 58.9,77.1l635.6,3182.6c11.9,59.6 -26.8,117.6 -86.4,129.5c-59.6,11.9 -117.6,-26.8 -129.5,-86.4l-625,-3129.6l-4364.3,-2168.5c-54.4,-27 -76.6,-93.1 -49.6,-147.6c27.1,-54.4 93.2,-76.6 147.6,-49.6" fill="#000000" fill-rule="nonzero" id="path22"/>
    <path d="m26499,20813.9c-100.9,18.8 -244.3,33 -373.8,43c5.5,13.6 10.2,27.9 14.1,42.8c179.9,6.3 401.8,12.6 525.3,11.3c60.8,-0.7 110.6,48 111.3,108.8c0.7,60.8 -48.1,110.6 -108.8,111.3c-117.5,1.3 -315.1,-3.9 -486.9,-9.6c51.3,18.5 111.1,40.9 182.4,68c61.3,23.3 119.2,45.3 165.1,61.6c57.3,20.3 87.2,83.3 66.9,140.6c-20.4,57.3 -83.3,87.2 -140.6,66.9c-48.1,-17.1 -107.2,-39.5 -169.6,-63.3c-80.1,-30.4 -195.4,-74.2 -278.6,-101.6c-45.2,25.8 -100.2,43.6 -163.9,53.8c91.4,93.6 163.6,188.7 200.1,247.4c32,51.7 16.1,119.6 -35.5,151.6c-52.1,32.2 -119.6,16.2 -151.6,-35.5c-66.5,-107.1 -271.9,-346.2 -445.4,-413.2c-37,-14.3 -61.6,-46.6 -68.3,-83c-35.2,-42.4 -58.9,-94.9 -66,-158.7c-26.9,-241.6 157.1,-377 398.7,-404c58.9,-6.5 115.8,-6 168.6,2c109.2,-5.4 441.1,-24 616.1,-56.7c59.7,-11.1 117.2,28.3 128.4,88.1c11.2,59.7 -28.2,117.2 -88,128.4" fill="#000000" fill-rule="nonzero" id="path24"/>
    <path d="m22898.9,25089.4l-315,-4398.1l-0.1,-1.7l-1.9,-25.1l-33.7,-472.2l-837.5,-11689.3c-5.8,-278.3 -606.5,-512.4 -1523.8,-644.5c-592.2,-85.2 -1316.7,-127.7 -2097.9,-112.1c-1991,40 -3597.4,443.5 -3588.2,901.3l0,0.9l-18.8,602l-0.3,0l-363.4,11583.5l0,0.3l-0.9,25.1l0,2l-138.3,4406.9c50,-555.5 2014.3,-1040.2 4439.7,-1088.8c937.7,-18.9 1809.6,30.2 2530.1,129.6c1142.8,157.3 1905.8,441 1950,780.2" fill="#e3e1e0" fill-rule="nonzero" id="path26"/>
    <path d="m22349.6,22100.7l-832.7,-12161.9c-7.4,-368.7 -995.4,-661.5 -2355.5,-742.1c-328.9,-19.7 -679.9,-26.6 -1043.8,-19.3c-1867.9,37.5 -3374.8,439.3 -3365.6,897.2l0,0.8l-344,12184.8c44.4,-527.4 1792.7,-984.7 3951.6,-1028c1789.4,-35.9 3978.7,778.4 3990,868.5" fill="#f5c80c" fill-rule="nonzero" id="path28"/>
    <path d="m22349.7,22102.7l0,-1.7l-1.9,-24.5c-64.6,-511.4 -1829.3,-887.8 -3988.1,-844.5c-2158.4,43.4 -3906.3,489.9 -3950.9,1003.6l0,0.3l-0.8,24.5l0,1.9c15.1,522.8 1799.6,910.7 3989.7,866.8c2190.7,-44 3958.7,-503.5 3952,-1026.4" fill="#ffea8c" fill-rule="nonzero" id="path30"/>
    <path d="m22900.8,25116l-1.7,-25l0,-1.6c-72.5,-553.3 -2054.8,-958.4 -4480.4,-909.7c-352.3,7.1 -694.8,23.5 -1023.3,48l-38.8,150.5c-19.1,1.6 -38.2,3.2 -56.9,4.8c-19.1,1.5 -37.7,3.1 -56.4,4.7c-37.8,3.1 -75.2,6.3 -112.1,9.8c-29.5,2.6 -58.5,5.2 -87.1,8.1c-15.9,1.5 -31.8,3 -47.7,4.6c-28.6,2.5 -56.8,5.5 -84.6,8.8c-144.7,14.9 -285,31.2 -420.4,49.9c-29,3.7 -58,7.5 -86.6,11.7c-31.8,4.2 -63.1,8.8 -94.5,13.8c-21.8,3.3 -43.7,6.5 -65.1,9.7l39.9,-156.5c-1350.6,197.1 -2272,542.6 -2305.8,920.8l-0.3,1.6l-0.7,25.1c11.3,566.5 2017.8,985.8 4481.6,936.4c2463.8,-49.5 4452.3,-549 4440.9,-1115.5" fill="#efefef" fill-rule="nonzero" id="path32"/>
    <path d="m22554.3,25122.8l-1.5,-21.2l-0.3,-1.5c-65.9,-473.2 -1893.7,-817.5 -4130.7,-772.6c-2237,44.9 -4049.3,462.3 -4096.1,937.8l-0.3,1.4l-0.6,21.3c9.7,484.9 1859.7,841 4132.2,795.4c2272.6,-45.6 4107,-475.7 4097.3,-960.6" fill="#e0c7b8" fill-rule="nonzero" id="path34"/>
    <path d="m22554.1,25123l-1.3,-21.5l-0.4,-1.2c-14.9,-108 -122.1,-209.4 -305.1,-301.3c-35.8,-17.6 -74,-35.2 -115,-52.3c-348.6,-144.3 -893.7,-260 -1563.9,-333.4c-626.2,-69.8 -1361.3,-101.7 -2146.7,-85.9c-368.6,7.4 -725.9,24.5 -1065.1,50.8c-19.1,1.6 -38.2,3.2 -56.9,4.8c-19.1,1.5 -37.7,3.1 -56.4,4.7c-37.8,3.1 -75.2,6.3 -112.1,9.8c-29.5,2.6 -58.5,5.2 -87.1,8.1c-15.9,1.5 -31.8,3 -47.7,4.6c-28.6,2.5 -56.8,5.5 -84.6,8.8c-144.7,14.9 -285,31.2 -420.4,49.9c-29,3.7 -58,7.5 -86.6,11.7c-31.8,4.2 -63.1,8.8 -94.5,13.8c-21.8,3.3 -43.7,6.5 -65.1,9.7c-20.6,3.2 -40.9,6.4 -61.1,9.6c-659.4,105.2 -1186.7,247.2 -1508.8,409c-78.5,39.4 -144.6,79.4 -197.5,120.7c-92.1,71.5 -144.4,146.2 -152.1,222.1l-0.3,1.2l-0.4,21.5c9.7,484.5 1859.6,840.8 4132,795.2c2272.3,-45.6 4106.8,-475.9 4097.1,-960.4" fill="#e3e1e0" fill-rule="nonzero" id="path36"/>
    <path d="m22132.2,24746.7c-348.5,-144.3 -893.6,-260.2 -1563.9,-333.5c-626,-69.6 -1361.2,-101.7 -2146.6,-85.9c-826.7,16.6 -1595.1,84 -2237.8,186.3c-659.4,105.3 -1186.5,247.4 -1508.7,409c674,278.3 2083.5,451.6 3709.7,419c1674.4,-33.6 3111.1,-276.1 3747.3,-594.9" fill="#cccbca" fill-rule="nonzero" id="path38"/>
    <path d="m18812.5,24323.4c-128.7,0 -259,1.3 -390.8,3.9c-800.5,16.1 -1546.5,79.8 -2176.5,176.7c-20.6,3.2 -41,6.4 -61.3,9.6c521.9,57.6 1119.4,89.8 1759,89.8c128,0 257.7,-1.3 388.8,-3.9c825.8,-16.6 1593.9,-84 2236.6,-186.3c-521,-57.9 -1117.6,-89.8 -1755.8,-89.8" fill="#c3c2c1" fill-rule="nonzero" id="path40"/>
    <path d="m22899.1,25089.4l-315.3,-4398l-0.1,-2l-1.7,-25.1l-33.7,-472l-837.6,-11689.2c-6,-278.2 -606.5,-512.7 -1523.9,-644.4c-592,-85.3 -1316.4,-128.1 -2097.9,-112.4c-1990.9,39.9 -3597.3,443.8 -3588.1,901.6l0,0.8l-7.1,223.5c2616.6,-177.5 3860.6,-103.4 4667.7,324.5c1360.1,80.6 2348.1,373.4 2355.5,742.1l832.7,12161.9c-11.3,-90.1 253.2,2290 260.6,2660.6c117.3,84.6 276.5,233.3 288.9,328.1" fill="#cccbca" fill-rule="nonzero" id="path42"/>
    <path d="m22349.6,22100.7l-832.7,-12161.9c-7.4,-368.7 -995.4,-661.5 -2355.5,-742.1c518.1,274.4 856.3,694.9 1261.7,1288.1c793.5,1161.7 1431.6,6838 1749.7,11359.4c104.4,80.8 165.5,166.4 176.8,256.5" fill="#ddab1f" fill-rule="nonzero" id="path44"/>
    <path d="m15258.1,20927c0,0 1183.3,-155.4 1641.2,-50.6c457.9,104.7 -491.5,-7377.9 -711.7,-7447.7c-1185,-375.1 -929.5,7498.3 -929.5,7498.3" fill="#fffbf5" fill-rule="nonzero" id="path46"/>
    <path d="m24826.5,30036.2c102.6,-217.6 186.7,-447 250.3,-688c51.8,-196.7 87.7,-393.7 108.1,-589.9c182.1,-1709.8 -2440.6,-3938.6 -2440.6,-3938.6l-450.1,481.7l-280.8,300l-233.3,249.5l-2.8,3l-480.3,513.8l-28.6,-69.4l-481.6,-1186.8l-0.7,-2.1l-2,0.4c-238.4,-158 -496.5,-317.8 -771.1,-476.4c-15.3,-9.5 -31.2,-18.7 -47.2,-27.6c-728.9,252 -1375.9,713.9 -1850.4,1332.9c-180.4,235.3 -336.1,493.2 -461.6,771c-91.3,200.1 -166.7,411.2 -224.1,630.8c-51.8,196.7 -87.5,393.3 -108.8,589.6c-175.7,1647.9 705.3,3231.2 2179.7,3958.5c0.8,0.3 1.6,1.2 3.3,1.6c86.5,42.3 175.3,82 265.8,118.2c154.1,63.1 314.4,116.3 479.4,159.3c226.6,59.6 452.9,98.1 678.2,116.5c335.5,28.4 667.6,12.9 989.5,-42.1c1251.4,-214 2352.6,-1025.7 2909.7,-2205.9" fill="#f4bb06" fill-rule="nonzero" id="path48"/>
    <path d="m21534.2,28172.5c-76,51.6 200.4,178.2 293.7,175.7l2221.7,-170.4c216.2,-1.7 376.6,-202.1 330,-413.9c-115.6,-321.5 -127.7,-1383.6 -736.6,-1035.8l-2108.8,1444.4zm-437,516.3c-113.1,-157 -773.9,409.3 -2170,1342.2c-184.9,129.9 -214.3,394.2 -59.5,559.4c299.2,293.2 1242.2,1236.2 1513,500.9c445.2,-1482.5 821,-2257 716.5,-2402.5zm-148.7,-241.9c-9.3,-31.3 -55.8,-43.3 -88.3,-43.1l-2359.6,69.3c-683,62.7 -202.1,1054.6 -113.4,1364.9c82.5,189.7 318.4,256.5 488.4,137.5l1981,-1406.6c48.4,-32.9 107.8,-78 91.9,-122zm83.6,-651.4l-260.3,-811.3l-439.7,-1370.1c-70.6,-197.6 -303.2,-282.4 -485.1,-177.3c-207.2,160.6 -960.8,480.8 -1011.2,840.1c-13.8,96.3 23,195.6 135.2,295.6l1956,1441.9c56.8,44 30.1,-109.5 82.4,-132.4c43.1,-19.4 38.1,-42.4 22.7,-86.5zm770.7,850.3l1822.7,1357.8c607.9,369.2 799,-844.4 877.9,-1237.5c28.2,-211.1 -139.9,-397.6 -353.1,-395.8l-2348.6,85.9c-51,-3.2 -90.5,160.9 1.1,189.6zm243.4,2844c193.5,-39.2 306.8,-241.7 240.4,-427.8l-791.3,-2162.4c-18.4,-51.4 -111.6,-54.7 -164.5,-41.5c-68.1,15.5 -163.2,4.5 -183.8,91.3l-587.8,2186.4c-93.4,767.6 1050.9,403.2 1487,354zm-3612.2,-4708.5c-96.1,325.8 -810.4,1506.5 -72.1,1563.9l2328.9,-46.3c33,0 59.3,-24.2 65.5,-56.3c3.7,-66.3 87.4,-141.5 17.9,-195.7l-1829,-1399.6c-174.3,-128.7 -422.6,-63.4 -511.2,134zm5146,3805.5c164.3,-150.3 150.3,-412.2 -29,-544.3l-1799.7,-1301.4c-26,-19.2 -63.1,-17.1 -86,5.7c-0.5,0.2 -70.2,69.5 -61.3,94.4l750.5,2187.9c284.6,594.7 956.5,-253.4 1225.5,-442.3zm-3360.1,1718.1c-2394.2,-545.9 -3629,-3205.6 -2738.6,-5428.5c26.4,-66.5 55.3,-132.6 85.4,-198.1c114.3,-291 259.4,-557.2 430.7,-798.3c454,-641.3 1089.1,-1104.2 1801.2,-1369.1c26.2,14.4 52.2,29.2 77.9,43.8l89.3,51.1c16,8.9 31.9,18.1 47.2,27.6c274.6,158.6 532.7,318.4 771.1,476.4c-45.7,4.3 -87.9,8.6 -124.8,12.1c-208.5,38.9 -331.9,255.4 -260.6,455.1l538.6,1450.9l281.8,758.4c13.7,42.9 80.5,39.3 90.4,-3.8l156.4,-644.2l311.4,-1284.4l2.8,-3l233.3,-249.5c-31.3,130.8 -61.9,255.6 -92.1,375c-121.8,483.8 -230.5,875 -314,1181.7c-395.4,1461.1 -203.8,1006.2 2006.4,-501.5c173.3,-121 199.1,-366.6 57.2,-522.7c-216.1,-226.1 -947.2,-899.7 -1376.7,-832.5l450.1,-481.7l181.4,-193.5l17.6,-19.2c212,94.1 418,207.4 615.9,340.7c3693.9,2421.6 1036.4,8597.5 -3339.3,7357.2" fill="#fffbe0" fill-rule="nonzero" id="path50"/>
    <path d="m20242.1,32514.8c-500.8,-130.8 -1002.6,-426.2 -1387,-671.7l-33.2,-21.8c-1516.8,-985.1 -2106.9,-2762.9 -1638.6,-4545.3c141.8,-540.6 364.8,-1039.8 655.2,-1476.1c426.2,-640.9 998.7,-1145.3 1675.9,-1445.3c9.6,4.8 19.1,10 28.5,15.1c63.5,34.3 126,68.6 187.7,102.9c22.9,12.8 45.6,25.4 68,38.3c26.2,14.4 52.2,29.2 77.9,43.8c-187.8,67 -370.4,150.4 -548.1,250c-483,271.8 -903.4,657.5 -1234.9,1123.6c-171.5,240.6 -319.5,502.7 -439.7,781.4c-88.1,202.6 -161.4,413.8 -218.8,632.6c-51.5,196.3 -89.2,392.4 -114.1,587.8c-79.8,635.1 -18.5,1258.2 183.3,1830.8c257,730.5 734.9,1348.1 1384.3,1791.9c7.3,5 14.3,9.8 21.4,14.3c17.9,12.4 35.5,24.3 53.7,36l31.7,20.3c237.6,151.8 496.8,280.5 774.4,385c154.3,59.1 315,109.9 481,153.5c225.7,59.5 452,99.8 676.6,122.3c848.5,85.6 1673.2,-90.1 2375.9,-514.5c509.4,-308 936.2,-731.5 1257,-1239.4c5.7,-8.7 11.5,-17.8 16.9,-26.7c92.4,-148.8 175.7,-305.3 249.4,-467.4c99.4,-219.2 181.7,-449.5 244.3,-689.3c51.5,-196.3 89.9,-392.9 114.1,-588.6c43.3,-339.7 45.2,-677.3 6.7,-1008.8c-131.3,-1113.1 -717.5,-2059.7 -1650.6,-2665.4c-217.1,-141.1 -615.3,-457.9 -615.3,-457.9l17.6,-19.2l52.1,-55.5l28.6,-30.7c244.3,105.3 473.4,224 659.3,344.6c1028.2,667.7 1631,1701.4 1766.8,2853.7c64.5,547.3 23.5,1120.3 -126.9,1694.5c-589.6,2243.3 -2666.9,3735.4 -5081.1,3101.2" fill="#ffea8c" fill-rule="nonzero" id="path52"/>
    <path d="m20151.1,32542c-516.6,-135.6 -974.7,-335.8 -1370.8,-588.9c-12,-7.3 -23.4,-14.7 -34.8,-22.2c-1564.6,-1016 -2172.4,-2850.2 -1690.1,-4688.4c144.3,-549.1 376.9,-1054.3 681.7,-1495.4c434.4,-628.8 1014.8,-1127.4 1693.7,-1437.3c28.2,15 56,29.7 83.6,44.8c9.6,4.8 19.1,10 28.5,15.1c-90.9,40.6 -181.1,85.9 -270.3,136.2c-534.9,300.2 -1012,766.7 -1382.6,1320.1c-297.7,444.6 -527.3,945.5 -662.7,1461.7c-230.3,879.1 -205.5,1761.2 72.8,2550.8c281.6,799.7 814.1,1471.2 1539.4,1942.1l32.6,21.2c391,249.1 911.9,517.2 1399.8,645.1c1138.9,299 2206,75.3 3143.3,-490.5c914.4,-552 1576.2,-1459.4 1863.6,-2554.7c149.2,-566.3 191.9,-1133.2 126.8,-1684.4c-138.1,-1173.5 -755.7,-2172.2 -1739.5,-2811.1c-208.5,-135 -432.7,-253.9 -670.7,-354.7l28.6,-30.7l99.8,-107.3c227.2,100.3 439,215.3 636.1,342.9c1060.1,688.4 1682.4,1754.5 1822.3,2943.1c65.9,564 24.3,1155.4 -131.5,1747.4c-607.6,2314.4 -2810.2,3749 -5299.6,3095.1" fill="#f47d1f" fill-rule="nonzero" id="path54"/>
    <path d="m18882.7,27962c-5.2,4.5 -10.4,9 -15.7,13.5c-11.6,7.5 -24.4,11.8 -38.3,12.8c-43.4,-1.9 -86.8,-3.8 -130.3,-5.8c-10.7,1.2 -21,-0.4 -30.7,-4.7c-10.5,-2.6 -19.8,-7.7 -27.8,-15.4c-14.2,-12.8 -25.8,-34.5 -26.2,-54c-0.5,-20.9 5.1,-43.1 20.2,-58.5l15.6,-13.5c11.7,-7.5 24.5,-11.8 38.3,-12.8c43.5,1.9 86.9,3.8 130.3,5.8c10.8,-1.2 21,0.4 30.7,4.7c10.6,2.6 19.8,7.8 27.8,15.4c14.3,12.8 25.8,34.5 26.3,54c0.5,20.9 -5.1,43.1 -20.2,58.5" fill="#fff0c9" fill-rule="nonzero" id="path56"/>
    <path d="m20122,28011.1c-17,10 -39.3,17.2 -59,11.5c-69,-20 -138,-40 -207,-60c-20.9,-6.1 -39,-15.7 -51.3,-34.5c-10.5,-16.1 -16.2,-40 -11.6,-59c5,-20.3 16.1,-40.3 34.6,-51.3c16.9,-10.1 39.3,-17.2 58.9,-11.5c69,20 138,40 207.1,59.9c20.9,6.1 39,15.8 51.3,34.6c10.5,16 16.1,40 11.5,58.9c-4.9,20.3 -16,40.4 -34.5,51.4" fill="#fff0c9" fill-rule="nonzero" id="path58"/>
    <path d="m18915.4,28803.2c-51.2,14.3 -102.4,28.6 -153.6,42.9c-20.3,5.7 -41.5,5.4 -60.8,-4.2c-17.4,-8.7 -34.4,-26.9 -39.9,-46c-5.7,-19.8 -6.1,-42.2 4.2,-60.8c10,-17.9 25.6,-34.3 46,-40l153.5,-42.9c20.3,-5.7 41.6,-5.4 60.8,4.2c17.5,8.7 34.5,26.9 40,46c5.7,19.8 6.1,42.3 -4.2,60.8c-10,17.9 -25.6,34.3 -46,40" fill="#fff0c9" fill-rule="nonzero" id="path60"/>
    <path d="m19377.1,28880.1c-44.9,22.7 -89.7,45.5 -134.6,68.3c-8.6,6 -18.1,9.7 -28.3,10.8c-10.1,2.9 -20.2,3.1 -30.6,0.7c-11,-1.8 -20.7,-6.1 -29.1,-12.9c-9.3,-5.2 -16.7,-12.4 -22.3,-21.7c-10.3,-17.4 -16.4,-38.6 -11.5,-58.9c2.3,-6.7 4.6,-13.5 6.9,-20.2c6.5,-12.8 15.7,-23.2 27.7,-31.1l134.6,-68.3c8.6,-6.1 18,-9.7 28.3,-10.9c10,-2.8 20.2,-3.1 30.6,-0.7c10.9,1.8 20.6,6.1 29,12.9c9.3,5.2 16.7,12.4 22.3,21.7c10.3,17.4 16.5,38.7 11.5,58.9c-2.3,6.8 -4.6,13.5 -6.9,20.2c-6.4,12.9 -15.6,23.3 -27.6,31.2" fill="#fff0c9" fill-rule="nonzero" id="path62"/>
    <path d="m19305.4,29405.7c-79.8,62.3 -173.5,109.1 -271,136.2c-20.3,5.7 -41.5,5.4 -60.8,-4.2c-17.5,-8.8 -34.5,-26.9 -40,-46c-11.4,-39.7 7.4,-88.9 50.2,-100.8c38.6,-10.7 75.9,-24.9 112.2,-41.7c43.1,-21.6 84.1,-47.1 122.2,-76.8c14.9,-11.6 40.8,-15 58.9,-11.5c19.4,3.8 41,17.3 51.3,34.6c10.3,17.4 16.5,38.7 11.5,58.9c-5.3,21.8 -16.9,37.5 -34.5,51.3" fill="#fff0c9" fill-rule="nonzero" id="path64"/>
    <path d="m20080.5,29831.1c-23.5,27.7 -47.1,55.4 -70.7,83.1c-6.8,8.2 -15.1,14.2 -24.8,17.9c-8.9,5.3 -18.6,8.1 -29.2,8.4c-10.7,1.1 -21,-0.4 -30.7,-4.7c-10.5,-2.6 -19.8,-7.8 -27.8,-15.5c-14.4,-14.1 -25.7,-33.1 -26.2,-54c-0.6,-21.7 5.9,-41.6 20.1,-58.5c23.6,-27.7 47.2,-55.4 70.8,-83.1c6.8,-8.2 15.1,-14.2 24.8,-17.9c8.9,-5.3 18.6,-8.1 29.1,-8.4c10.8,-1.1 21.1,0.4 30.8,4.7c10.5,2.6 19.8,7.8 27.7,15.5c14.5,14.1 25.8,33.1 26.3,54c0.5,21.7 -5.9,41.6 -20.2,58.5" fill="#fff0c9" fill-rule="nonzero" id="path66"/>
    <path d="m20031.7,30562.3c-53.5,67 -107,133.9 -160.5,200.9c-26,32.6 -82.9,35 -112.4,6.1c-32.3,-31.6 -34,-77.6 -6.1,-112.5c53.5,-67 107,-133.9 160.4,-200.9c26.1,-32.6 83,-35 112.5,-6c32.3,31.6 34,77.5 6.1,112.4" fill="#fff0c9" fill-rule="nonzero" id="path68"/>
    <path d="m20547.6,29729.6c-11.4,18.4 -24.8,32.9 -46,40c-18.5,6.2 -43.4,5.4 -60.8,-4.3c-18,-10 -34.1,-25.6 -40,-46c-5.5,-19.2 -6.7,-43.1 4.3,-60.8c30.3,-48.8 60.7,-97.7 91.1,-146.6c11.4,-18.3 24.8,-32.8 46,-40c18.5,-6.1 43.4,-5.3 60.8,4.3c18,10 34.1,25.6 40,46c5.5,19.2 6.8,43.1 -4.2,60.8c-30.4,48.9 -60.8,97.7 -91.2,146.6" fill="#fff0c9" fill-rule="nonzero" id="path70"/>
    <path d="m21151.7,31077.1c-5.2,9.3 -12.4,16.7 -21.7,22.3c-8.6,6.1 -18,9.7 -28.3,10.9c-10,2.8 -20.2,3.1 -30.6,0.6c-20.3,-4.9 -40.3,-16 -51.3,-34.5c-3,-6.1 -6,-12.2 -8.9,-18.4c-4.4,-13.3 -5.3,-26.8 -2.7,-40.6c3.6,-37.5 7.2,-75 10.7,-112.6c1.8,-10.9 6.1,-20.6 12.9,-29c5.2,-9.3 12.4,-16.7 21.7,-22.3c8.6,-6.1 18,-9.7 28.3,-10.8c10,-2.9 20.2,-3.1 30.6,-0.7c20.3,4.9 40.3,16 51.3,34.5c3,6.1 6,12.3 8.9,18.4c4.4,13.3 5.3,26.8 2.7,40.5c-3.6,37.6 -7.2,75.1 -10.7,112.7c-1.8,10.9 -6.1,20.6 -12.9,29" fill="#fff0c9" fill-rule="nonzero" id="path72"/>
    <path d="m21262.6,30087c-44,1.1 -80.7,-29.8 -84.7,-74.2c-7.4,-80.6 -14.8,-161.2 -22.1,-241.8c-3.8,-41.6 31.9,-83.8 74.2,-84.8c44,-1 80.7,29.8 84.7,74.2c7.4,80.6 14.7,161.2 22.1,241.8c3.8,41.6 -31.9,83.8 -74.2,84.8" fill="#fff0c9" fill-rule="nonzero" id="path74"/>
    <path d="m21659.3,30683.9c-16,10.5 -40,16.1 -58.9,11.5c-20.3,-4.9 -40.3,-16 -51.3,-34.5c-11.1,-18.7 -14,-37.3 -11.6,-59c0.5,-4 0.8,-8.2 1.1,-12.3c2,-40.6 -0.7,-81.3 -8.1,-121.3c-0.7,-3.1 -1.3,-6.2 -2,-9.3c-5.1,-20.9 -5.7,-40.9 4.2,-60.8c8.7,-17.5 26.9,-34.5 46,-40c19.8,-5.7 42.3,-6.1 60.8,4.2c17.6,9.8 35.1,25.7 40,46c8.9,36.5 15.6,73.8 18,111.3c2.4,37.5 0.6,75.5 -3.6,112.9c-2.2,19.5 -18.6,40.9 -34.6,51.3" fill="#fff0c9" fill-rule="nonzero" id="path76"/>
    <path d="m22615.1,30416.5c-14.1,14.4 -33.1,25.8 -54,26.3c-6.8,-0.5 -13.7,-0.9 -20.6,-1.3c-14.3,-2.9 -26.9,-9.2 -37.9,-18.9c-50.4,-36.7 -100.9,-73.5 -151.3,-110.2c-15.2,-11 -25.1,-36 -26.3,-54c-1.3,-19.7 6.1,-44.1 20.2,-58.5c14.2,-14.5 33.2,-25.8 54,-26.2l20.6,1.2c14.3,3 27,9.2 37.9,18.9c50.4,36.8 100.9,73.5 151.3,110.2c15.2,11.1 25.1,36 26.3,54c1.3,19.7 -6.1,44.1 -20.2,58.5" fill="#fff0c9" fill-rule="nonzero" id="path78"/>
    <path d="m23021.6,30206.5c-16.5,9.8 -39.8,17.9 -58.9,11.5c-74.5,-24.6 -145,-56 -210.3,-99.6c-18.4,-12.3 -32.7,-24.2 -40,-46c-6.2,-18.6 -5.4,-43.5 4.2,-60.8c10,-18.1 25.6,-34.2 46,-40c18.8,-5.5 43.7,-7.2 60.8,4.2c56.7,37.8 117.9,68.1 182.3,90.2c-3.5,-1.2 -7.1,-2.4 -10.6,-3.6c20.3,6.8 37.2,14.9 49.5,33.8c10.5,16.1 16.1,40 11.5,59c-4.9,20.3 -16,40.3 -34.5,51.3" fill="#fff0c9" fill-rule="nonzero" id="path80"/>
    <path d="m23155,29169.3c-19.1,5.5 -43.2,6.9 -60.8,-4.2c-30.5,-19.2 -63,-34.6 -96.7,-47.1c-14.1,-4.4 -28.3,-8.7 -42.7,-12c-20.5,-4.6 -39.7,-16.7 -51.3,-34.5c-10.5,-16.1 -16.1,-40 -11.5,-58.9c4.9,-20.4 16,-40.4 34.5,-51.4c17.6,-10.4 38.5,-16.1 58.9,-11.5c63.2,14.2 125,38.3 179.9,72.8c18.4,11.6 32.8,24.7 40,46c6.2,18.5 5.4,43.5 -4.3,60.8c-10,18.1 -25.6,34.1 -46,40" fill="#fff0c9" fill-rule="nonzero" id="path82"/>
    <path d="m23899.7,28995.6c-13.7,14 -33.6,27 -54,26.3c-67.2,-2.3 -134.3,-4.6 -201.5,-6.9c-22,-0.7 -41.5,-4.9 -58.5,-20.1c-14.3,-12.8 -25.8,-34.5 -26.3,-54c-0.5,-20.9 5.1,-43.1 20.2,-58.5c13.7,-14 33.6,-27 54,-26.3c67.2,2.3 134.3,4.6 201.5,6.8c22,0.8 41.5,5 58.5,20.2c14.3,12.8 25.8,34.5 26.3,54c0.5,20.9 -5.1,43.1 -20.2,58.5" fill="#fff0c9" fill-rule="nonzero" id="path84"/>
    <path d="m23039.4,27671c-48.3,31.3 -96.5,62.5 -144.8,93.8c-16.9,10.9 -39.2,15.4 -58.9,11.6c-19.4,-3.9 -41.1,-17.3 -51.4,-34.6c-10.3,-17.4 -16.4,-38.7 -11.5,-58.9c5.1,-20.8 16.3,-39.5 34.6,-51.4c48.2,-31.2 96.5,-62.5 144.8,-93.8c16.8,-10.9 39.2,-15.4 58.9,-11.5c19.4,3.8 41.1,17.2 51.3,34.5c10.4,17.4 16.5,38.7 11.6,59c-5.1,20.8 -16.3,39.4 -34.6,51.3" fill="#fff0c9" fill-rule="nonzero" id="path86"/>
    <path d="m23784.8,27835.1c-79.7,27.3 -159.4,54.5 -239.1,81.8c-19.3,6.5 -42.7,4.8 -60.8,-4.3c-17.5,-8.7 -34.5,-26.9 -40,-46c-12,-41.7 8.1,-86.4 50.2,-100.8c79.7,-27.2 159.5,-54.5 239.2,-81.7c19.2,-6.6 42.6,-4.8 60.8,4.2c17.5,8.7 34.5,26.9 40,46c12,41.7 -8.1,86.4 -50.3,100.8" fill="#fff0c9" fill-rule="nonzero" id="path88"/>
    <path d="m23745.3,27392.6c-23,6.4 -45.3,14.9 -67.1,24.6c-17.7,9.1 -35.2,18.7 -51.7,29.9c-16.4,11.1 -39.5,15.3 -58.9,11.5c-10.9,-1.7 -20.6,-6 -29.1,-12.9c-9.2,-5.1 -16.6,-12.4 -22.2,-21.6c-10.4,-17.4 -16.5,-38.7 -11.6,-59c5.2,-21 16.4,-39 34.6,-51.3c26.4,-17.9 54.5,-32.3 83.4,-45.8c23.2,-10.8 47.3,-19.6 72,-26.5c20.4,-5.6 41.6,-5.3 60.8,4.3c17.5,8.7 34.5,26.9 40,46c5.7,19.8 6.1,42.2 -4.2,60.8c-10,17.9 -25.6,34.3 -46,40" fill="#fff0c9" fill-rule="nonzero" id="path90"/>
    <path d="m21905.3,27414.7c-40.6,-9.8 -73.1,-50.1 -62.9,-93.4c11.3,-47.7 19.6,-96 24.8,-144.7c1.3,-11.9 2.4,-23.9 3.3,-35.9c0.1,-1.5 0.2,-2.2 0.3,-3.2c0.3,-5.7 0.6,-11.5 0.8,-17.3c1,-24.9 1.1,-49.8 0.6,-74.7c-1,-41.6 29.9,-83.8 74.2,-84.8c41.5,-1 83.7,29.7 84.7,74.2c2.4,106.3 -7.9,213.4 -32.3,317c-9.6,40.4 -50.6,73.3 -93.5,62.8" fill="#fff0c9" fill-rule="nonzero" id="path92"/>
    <path d="m22680.9,26865.9c-38.9,35.2 -80.2,66.5 -126.5,91.3c-18.7,10 -37.5,15.7 -59,11.5c-19.4,-3.8 -41,-17.3 -51.3,-34.6c-20.4,-34.4 -16.3,-89.2 23,-110.2c33.3,-17.8 64.3,-39.1 93.3,-63.1c33.1,-29.9 62.7,-63.4 87.9,-100.4c-3,4.4 -6,8.8 -9,13.2c12.1,-17.9 23.9,-31.9 45.4,-39.1c18.5,-6.2 43.5,-5.4 60.8,4.2c18,10.1 34.1,25.6 40,46c5.4,18.8 7.2,43.8 -4.2,60.8c-29.4,43.9 -61.1,84.8 -100.4,120.4" fill="#fff0c9" fill-rule="nonzero" id="path94"/>
    <path d="m22279.5,26347.2c-37.7,-21 -55.7,-66.9 -35.7,-106.8l88.6,-177.8c18.5,-37.3 69.1,-56.7 106.8,-35.8c37.7,21 55.6,66.9 35.7,106.8l-88.6,177.8c-18.6,37.3 -69.2,56.7 -106.8,35.8" fill="#fff0c9" fill-rule="nonzero" id="path96"/>
    <path d="m21240.7,27105.3c-10,3.7 -20.1,4.8 -30.3,3.3c-10.7,0.2 -20.9,-2.3 -30.5,-7.6c-18.1,-10 -34.2,-25.6 -40,-46c-5.8,-20 -5.8,-41.9 4.2,-60.8c0.9,-1.6 1.4,-3.4 2.2,-5.1c1,-3.9 1.8,-7.8 2.4,-11.8c-0.1,-3.6 -0.3,-7.1 -0.7,-10.7c-1.2,-4.1 -2.1,-8.4 -3.8,-12.4c-3.7,-9.9 -4.8,-20 -3.3,-30.2c-0.2,-10.8 2.3,-20.9 7.6,-30.6c4.5,-10 11.1,-18.1 19.8,-24.4c7.3,-7.4 16,-12.6 26.2,-15.6c19.8,-5.7 42.2,-6 60.8,4.3c5.9,4 11.7,8 17.6,12c10.4,9.4 17.9,20.7 22.4,34c6,14.1 8.6,29.1 11.3,44.2c1.6,9 2.3,18.2 1.8,27.4c-0.7,15.3 -1.2,30.7 -5.2,45.6c-4.1,15.1 -9.1,30.5 -16.5,44.4c-9.8,18.3 -26.2,33.3 -46,40" fill="#fff0c9" fill-rule="nonzero" id="path98"/>
    <path d="m20576.7,27443.4c-14.1,14.5 -33.1,25.8 -54,26.3c-21.6,0.5 -41.9,-5.8 -58.5,-20.2c-27.3,-24 -54.7,-48 -82.1,-71.9c-15,-13.1 -25,-34.3 -26.3,-54c-1.1,-10.8 0.5,-21 4.7,-30.7c2.6,-10.5 7.8,-19.8 15.5,-27.8c14.2,-14.5 33.1,-25.8 54,-26.3c21.6,-0.5 41.9,5.7 58.5,20.2c27.4,24 54.7,47.9 82.1,71.9c15,13.1 25,34.2 26.3,54c1.1,10.8 -0.4,21 -4.7,30.7c-2.6,10.5 -7.8,19.8 -15.5,27.8" fill="#fff0c9" fill-rule="nonzero" id="path100"/>
    <path d="m19763.8,26672.8c-5.2,9.3 -12.4,16.7 -21.7,22.3c-17.4,10.3 -38.7,16.5 -58.9,11.5c-19.7,-4.7 -41.5,-15.8 -51.4,-34.5c-3.9,-7.4 -8.9,-14 -14,-20.6c-3.6,-3.5 -7.4,-6.8 -11.3,-9.9c-5.9,-3.3 -11.9,-6.3 -18.1,-8.8c-2.3,-0.8 -4.6,-1.7 -6.8,-2.8l-0.4,-0.2l0.3,0.1c-3.7,-1.9 -7.4,-3.9 -10.8,-6.7c-9.2,-5.1 -16.7,-12.3 -22.3,-21.6c-6,-8.6 -9.7,-18.1 -10.8,-28.4c-2.9,-10 -3.1,-20.2 -0.7,-30.5c4.9,-20.4 16,-40.4 34.6,-51.4c6.1,-2.9 12.2,-5.9 18.3,-8.9c13.3,-4.4 26.8,-5.2 40.6,-2.6c15.3,5.1 30.8,9.8 45,17.7c14.3,7.9 28.2,17.3 40.8,27.8c12.2,10.2 22.4,22.6 32.5,34.8c6.3,7.7 11.8,16 16.4,24.8c6.1,8.6 9.7,18 10.9,28.3c2.8,10 3.1,20.2 0.7,30.6c-1.8,10.9 -6.1,20.6 -12.9,29" fill="#fff0c9" fill-rule="nonzero" id="path102"/>
    <path d="m20212,26853.4c-34,20.2 -90,16.6 -110.3,-23c-71.8,-139.8 -135.5,-283.7 -189.3,-431.5c-14.3,-39.2 9.6,-89.1 50.2,-100.8c42.4,-12.1 85.6,8.4 100.8,50.3c25.4,69.6 52.8,138.5 82.4,206.5c14.6,33.5 29.7,66.7 45.3,99.7c1.8,3.9 3.7,7.8 5.5,11.7c0.8,1.5 6.5,14.2 2.6,5.3c-4.4,-10 3,6.4 4,8.2c1.9,3.9 3.8,7.8 5.7,11.6c8.5,17.3 17.2,34.6 26.1,51.8c9.8,19 15.8,37.1 11.5,58.9c-3.8,19.4 -17.2,41.1 -34.5,51.3" fill="#fff0c9" fill-rule="nonzero" id="path104"/>
    <path d="m19132.7,27484.6c-122.4,-41.4 -244.8,-82.8 -367.2,-124.2c-21.2,-7.1 -38.5,-14.9 -51.3,-34.5c-10.5,-16 -16.2,-40 -11.6,-58.9c9.1,-37.4 51.3,-77.2 93.5,-62.9c122.4,41.4 244.8,82.7 367.2,124.1c21.2,7.2 38.6,15 51.4,34.6c10.4,16 16.1,40 11.5,58.9c-9.1,37.3 -51.3,77.1 -93.5,62.9" fill="#fff0c9" fill-rule="nonzero" id="path106"/>
    <path d="m24180.1,28185c-17.7,-0.7 -35.6,-1 -53.7,-1c-12.3,0 -24.3,-4.6 -33.4,-13c-1068.4,-972.6 -2512.2,490.6 -2780.5,883c-19.4,28.3 -4.5,66.4 28.4,75.4c322.6,89 -66.4,702.2 -192,1093.7c-11.9,37 22.1,72 59.6,62.3c438.4,-113.7 246.2,325.2 55.5,822.1c-12,31.3 10.1,64.4 43.6,66.8c230.4,15.8 188.6,502.1 58.2,965.4c-7.7,27.6 9.1,56.8 37.3,62.2c244.7,47 383.3,623.7 219.3,1015c-16,37.9 19.2,77.3 58.8,66.2c263.4,-74.3 366,-57.2 265.4,473c-4,21.3 5.3,39.3 20,49.5c852,-1414.5 1769.8,-4079.6 2213.5,-5620.6" fill="#217c5c" fill-rule="nonzero" id="path108"/>
    <path d="m21693.4,28972.4c-19.4,28.2 -4.5,66.3 28.4,75.4c322.6,89 -66.4,702.2 -192,1093.7c-11.9,36.9 22.1,72 59.6,62.2c438.4,-113.6 246.2,325.2 55.4,822.2c-11.9,31.2 131.5,27.7 214.1,66.6c209.1,98.3 -3,301.7 -133.4,765c-7.7,27.6 9.1,56.8 37.3,62.2c244.7,47 276.8,679.3 112.8,1070.6c-16,37.9 19.2,77.3 58.8,66.2c110.3,-31.2 322.1,-147.9 370.9,130.7c-113.2,224.1 -226.5,432.2 -338.7,618.4c-14.7,-10.2 -24,-28.2 -20,-49.5c100.6,-530.2 -2,-547.3 -265.4,-473c-39.6,11.1 -74.8,-28.3 -58.8,-66.2c164,-391.3 25.4,-968 -219.3,-1015c-28.2,-5.4 -45,-34.6 -37.3,-62.2c130.4,-463.3 172.2,-949.6 -58.2,-965.4c-33.5,-2.4 -55.6,-35.5 -43.6,-66.8c190.7,-496.9 382.9,-935.8 -55.5,-822.1c-37.5,9.7 -71.5,-25.3 -59.6,-62.3c125.6,-391.5 514.6,-1004.7 192,-1093.7c-32.9,-9 -47.8,-47.1 -28.4,-75.4c195.1,-285.2 1011.2,-1136.3 1852.8,-1206.2c-695,234.5 -1306.6,882.8 -1471.9,1124.6" fill="#1b755f" fill-rule="nonzero" id="path110"/>
    <path d="m24180.1,28185c-443.7,1541 -1361.5,4206.1 -2213.5,5620.6c18,12.5 43.8,13.4 62.8,-5.3c312.5,-309.4 667.9,-411.6 789.7,-289.6c23.1,23.1 62.2,16.2 77.9,-12.5c221,-405.5 461.5,-491.1 572.3,-399.2c25.1,20.9 63.1,12.7 76.6,-17.1c138.9,-308 408.2,-656.4 619.1,-598.6c30.1,8.3 60.5,-12.6 62.6,-43.8c29,-442.1 399.8,-932.5 579,-758.9c28.1,27.2 75.4,10.6 82.6,-27.8c93.5,-492 36.5,-868.9 359.9,-831.1c30.5,3.6 57,-21 55.2,-51.7c-38.6,-649.7 -248.9,-1137.2 40.9,-1115.1c26.7,2.1 50.2,-17.8 52.6,-44.5c35.4,-421.6 -235.2,-1390.7 -1217.7,-1425.4" fill="#338e6b" fill-rule="nonzero" id="path112"/>
    <path d="m22110.9,33555.4c1016.2,-2009 1740.1,-4174.8 2266,-6360.3c10.6,-69.2 121.3,-50.5 105.9,19.8c-561.7,2184.7 -1321,4341.6 -2371.9,6340.5" fill="#6ccc96" fill-rule="nonzero" id="path114"/>
    <path d="m21712.3,32217.5c348.2,-321.1 828.6,-385.1 1254.4,-531.4c226,161.1 528.6,826.8 553.4,1110.3c-73,-365.9 -300.4,-812 -550.1,-1086.1c-422.5,146.2 -899,203.1 -1257.7,507.2" fill="#6ccc96" fill-rule="nonzero" id="path116"/>
    <path d="m21671.9,30893.3c402.8,-253.9 855.1,-419.4 1301.5,-579.4c184.8,-47.1 385.1,-161.8 574.4,-140.6c279,522.1 670.2,1009.3 847,1577.4c-184.2,-546.2 -603.1,-1066.8 -865.7,-1562.3l-0.1,0.2c-642.8,135 -1278.7,391.3 -1857.1,704.7" fill="#6ccc96" fill-rule="nonzero" id="path118"/>
    <path d="m21610.8,29138.8c504.9,-183.9 1034.9,-290.8 1559.2,-404.3c291.1,-39.8 604.5,-160.6 892.1,-122c312.8,498.7 728.2,972.3 877.9,1550.9c-164.6,-574.9 -586.2,-1042 -899.8,-1542c-0.2,0.9 1,2.1 1.7,2.2c-819.6,84.3 -1640.5,280.6 -2431.1,515.2" fill="#6ccc96" fill-rule="nonzero" id="path120"/>
    <path d="m23850.2,28982.3c-2.9,13.1 -5.6,26.4 -8.1,39.9c-1.7,9.3 -6.4,17.7 -13.2,23.6c-792.5,693.4 -22.5,1929.9 200.4,2172.7c16,17.5 43.4,10.6 53.9,-13.1c103.7,-231.4 456.2,125.4 698.3,261.4c22.8,12.9 50.8,-8.7 49.5,-37.8c-14.7,-339.8 249.6,-148.9 552.6,47.2c19,12.3 44.1,-0.7 50.2,-25.4c42.4,-170.5 358.9,-86.8 647.9,60.6c17.3,8.7 38.9,-0.7 46.4,-21.2c65,-177.8 466.4,-219.1 703,-54.4c23,16 54,-6 52,-36.8c-12.8,-204.8 12.8,-279.6 350.3,-147.3c13.6,5.3 26.7,0.3 35.6,-9.6c-819.6,-789 -2458.9,-1762.2 -3418.8,-2259.8" fill="#217c5c" fill-rule="nonzero" id="path122"/>
    <path d="m24027.9,30925.1c16,17.5 43.3,10.6 53.9,-13c103.6,-231.5 456.2,125.3 698.3,261.3c22.8,12.9 50.8,-8.7 49.5,-37.8c-14.7,-339.8 249.6,-148.9 552.6,47.2c19,12.3 36.5,-95.2 73.7,-152.8c94.1,-145.6 199.6,34.8 488.6,182.2c17.2,8.8 38.9,-0.7 46.4,-21.1c65,-177.8 488.5,-133.6 725.1,31.1c22.9,16 53.9,-6 52,-36.8c-5.4,-85.8 -53.4,-256.6 138,-263c132.9,108.7 255.1,215.8 363,319.7c-8.9,9.9 -22,14.9 -35.6,9.6c-337.5,-132.3 -363.1,-57.5 -350.3,147.3c2,30.8 -29,52.8 -52,36.8c-236.6,-164.7 -638,-123.4 -703,54.4c-7.5,20.5 -29.1,29.9 -46.4,21.2c-289,-147.4 -605.5,-231.1 -647.9,-60.6c-6.1,24.7 -31.2,37.7 -50.2,25.4c-303,-196.1 -567.3,-387 -552.6,-47.2c1.3,29.1 -26.7,50.7 -49.5,37.8c-242.1,-136 -594.6,-492.8 -698.3,-261.4c-10.5,23.7 -37.9,30.6 -53.9,13.1c-162,-176.5 -613.1,-878 -543,-1514.4c59.2,544.6 404.2,1071.4 541.6,1221" fill="#1b755f" fill-rule="nonzero" id="path124"/>
    <path d="m23850.2,28982.3c959.9,497.6 2599.2,1470.8 3418.8,2259.8c10.7,-12.1 14.9,-31.3 5.1,-47.5c-161.8,-266.9 -180.3,-543.4 -82.6,-621.2c18.5,-14.8 19.3,-44.8 2.5,-59.6c-238.2,-208.8 -261.6,-397.8 -185.4,-470.6c17.3,-16.6 17.2,-45.8 -0.7,-59.1c-184.9,-137 -378.6,-375.8 -311,-527.1c9.6,-21.6 0,-46.6 -20.5,-51.5c-288.9,-69.4 -562.6,-399.3 -422.8,-514.5c21.9,-18 17.5,-55.1 -7,-64.7c-313.1,-122.9 -570.8,-121 -500.9,-358.5c6.5,-22.4 -6.1,-44.8 -26.7,-46.8c-435.9,-41.2 -788.1,63.3 -733.4,-150.8c5.1,-19.7 -4.8,-39.4 -22.2,-44.1c-274.5,-71.9 -954.2,25.8 -1113.2,756.2" fill="#338e6b" fill-rule="nonzero" id="path126"/>
    <path d="m27123.1,31107.3c-1190.9,-975.9 -2526,-1750.2 -3901.7,-2378.8c-44.4,-15.4 -16.7,-96.1 27.7,-77.1c1370.2,655.3 2694.7,1455.2 3874,2455.9" fill="#6ccc96" fill-rule="nonzero" id="path128"/>
    <path d="m26181.2,31260.9c-164.6,-294.8 -140.5,-660.7 -178.5,-994.5c138,-151.6 621.1,-305.9 812.4,-293.8c-252.6,15.1 -579.7,136.8 -795.9,293.9c38.4,331.4 10.2,693.6 162,994.4" fill="#6ccc96" fill-rule="nonzero" id="path130"/>
    <path d="m25298,31148.3c-112.5,-328.3 -159.6,-684.1 -203.9,-1034.9c-5.6,-143.2 -53.9,-305.2 -13.7,-444.3c384.7,-152.2 761.7,-392 1162.7,-462.8c-387.5,78.7 -790.5,335.6 -1155.2,478.3l0.1,0.2c0.5,494.8 82.4,997.6 210,1463.5" fill="#6ccc96" fill-rule="nonzero" id="path132"/>
    <path d="m24126.8,31004.8c-52,-397.1 -49.5,-804.6 -52.2,-1208.6c13.9,-221.8 -22.8,-468.9 42.6,-679.7c373.8,-180 745.2,-439.2 1149.4,-488.7c-403.9,61 -771.7,325.6 -1146.5,506l1.7,-1c-57.6,621.4 -41.1,1256 5,1872" fill="#6ccc96" fill-rule="nonzero" id="path134"/>
    <path d="m26898.8,25907c-32.4,-207.6 -83.9,-414.8 -156,-620.2c-58.9,-167.6 -129.5,-327.6 -210.9,-479.5c-705.8,-1325.6 -3694.3,-1652.7 -3694.3,-1652.7l-89.5,568.8l-56,354.5l-46.6,294.7l-0.5,3.6l-95.7,606.8l-54.6,-36.1l-929.7,-622.3l-1.5,-1.2l-1.3,1.2c-249.8,2.6 -514.7,13.4 -791,33.2c-15.7,0.7 -31.7,1.8 -47.6,3.2c-403.7,539.3 -645.4,1190.3 -685.2,1870.4c-15.2,258.6 -1.5,521.3 43.8,783.7c32,189.4 80.9,379 147,565.9c58.9,167.6 129.4,327.3 210.2,479.6c680.1,1277.8 2092.8,1991.3 3515.4,1794.9c0.7,-0.1 1.8,0.1 3.1,-0.4c83.3,-11.8 167,-26.5 250.2,-44.7c142.3,-29.9 284.3,-70 424.7,-119.6c193,-68 375.6,-151 547.5,-248.1c256.6,-143.8 489.1,-317.7 695,-515.1c800,-767.8 1198.8,-1894.2 1023.5,-3020.6" fill="#f4bb06" fill-rule="nonzero" id="path136"/>
    <path d="m23605,26172c-29.7,74.5 232.2,30.7 298.5,-16.8l1523.1,-1211.6c155.5,-107.1 173.3,-330.6 35.9,-461c-241.1,-175.8 -770.1,-938 -1040.1,-388.2l-817.4,2077.6zm-63.2,587.4c-158.6,-58 -359.1,675.1 -911.7,2033.7c-70.1,184.5 38.2,390 231,433.7c360,65.5 1503.9,285.4 1339.5,-379c-404.2,-1290.1 -511.9,-2034.3 -658.8,-2088.4zm-225.9,-102c-22.1,-18.1 -61.6,-4.1 -85.1,12.1l-1672.3,1205.9c-463.2,379.9 370.4,861.7 586.5,1042.6c152.6,96.8 355.9,29.6 420.6,-139.8l743.6,-1987.6c18.9,-47.5 39.7,-109.2 6.7,-133.2zm-258.7,-512.1l-585.7,-459.2l-989.1,-775.4c-147.8,-108.3 -357.6,-55.6 -437.6,109.5c-71.3,217.6 -459.3,818.3 -319.8,1102.8c37.2,76.5 112.5,130.2 242.5,147.6l2120.9,84.6c62.7,3.9 -31.9,-94 -5.2,-136.2c21.6,-35.1 6.7,-49.3 -26,-73.7zm973.9,237.4l1983.2,89c620.5,-30.8 164.2,-1002 28.7,-1325c-83,-166.4 -296,-219 -449.2,-113.2l-1656.4,1212.6c-38.4,22.7 13.4,160.7 93.7,136.6zm1569.2,1937.5c120.7,-123.2 103.5,-325.1 -35.8,-427.2l-1631.5,-1176.1c-38.5,-28.2 -107.5,15.1 -139.2,50.6c-41.8,44.5 -115.9,83.2 -88.2,156l645.9,1869.1c308.5,600.8 957.5,-223.3 1248.8,-472.4zm-4918.8,-1635.5c90.1,282.6 151.9,1486.4 714,1166.2l1661.5,-1174.3c23.8,-16.2 31,-46.6 19.8,-72.8c-29.8,-49.7 -6.1,-145.2 -83,-150.4l-2008.2,-116.1c-189.1,-7.7 -336.7,161.2 -304.1,347.4zm5585.6,231.1c45.2,-189.2 -93.3,-371.8 -287.6,-379.4l-1939,-59.5c-28.2,-1.2 -54,18.4 -59.4,46.2c-0.3,0.4 -16.7,84.7 1.9,98.3l1614.6,1214.5c497.1,290.7 567.5,-651.7 669.5,-920.1zm-1588.3,2888.4c-1998.7,778.1 -4194.6,-540.4 -4639.7,-2584.1c-13.4,-61 -24.8,-123 -35.3,-185.1c-59.8,-266.4 -85.3,-530 -79.5,-788.3c14.1,-686.2 246.7,-1332 631.9,-1872.4c26,-2.4 52,-4.5 77.7,-6.5l89.7,-6.8c15.9,-1.4 31.9,-2.5 47.6,-3.2c276.3,-19.8 541.2,-30.6 791,-33.2c-30.9,25.5 -59.3,49.3 -84.3,69.9c-131.7,130.2 -114.9,347.3 34.5,456.8l1100.2,785.4l575.3,410.4c31,24.3 77.5,-11.1 63.5,-47.1l-202.4,-542.4l-404,-1081.4l0.5,-3.6l46.6,-294.7c41.3,109.9 80.4,215.3 117,316.3c148.9,409.6 261.9,745.7 351.8,1008.4c429.8,1250.3 345.5,827.5 1205.3,-1345.5c66.1,-172.4 -35.6,-362.7 -214.7,-406.1c-267,-57.6 -1125.7,-186.5 -1403.4,72.4l89.5,-568.8l36.4,-228.8l3.3,-22.5c199.5,-35.8 403.9,-54.8 612.3,-55.3c3857.6,-58.4 4961.2,5709.6 1189.2,6956.2" fill="#fffbe0" fill-rule="nonzero" id="path138"/>
    <path d="m24797.7,29945.2c-426.2,150.7 -933.8,182.9 -1332,193.7l-34.7,0.4c-1579.5,30.7 -2877.1,-965.9 -3411.6,-2484.2c-162.3,-460.4 -245.6,-930.7 -249.3,-1388.5c-5.7,-672.2 161.3,-1317.4 504,-1866.1c9.3,-1.3 18.6,-2.2 28,-3.1c62.7,-6.2 124.7,-12.1 186.1,-17.5c22.9,-2 45.4,-4 68,-5.6c26,-2.4 52,-4.5 77.7,-6.5c-102.9,140.4 -194.1,290.2 -273.9,449.3c-216.1,433.1 -331.2,918 -342.6,1417.5c-6.2,258 15.2,520.1 64.8,780.5c35.6,189.6 86.1,378.3 151.7,564.6c58.9,167.2 127.7,327.5 205.5,480.9c253.3,498.4 603,919 1029.4,1234.3c543.7,402.3 1191.8,614.9 1878.9,617.7c7.7,0 15.1,0.1 22.4,-0.2c19,0.2 37.6,0.2 56.5,-0.2l32.8,-0.9c246.2,-6.6 496.7,-40.5 748.7,-100.9c140.5,-32.8 281.5,-74.9 422.9,-124.7c192.4,-67.5 375.9,-149.2 549.3,-243c655.5,-353.7 1165.8,-884.8 1466.1,-1535.9c217.5,-472.3 318.7,-987.6 301.9,-1512c-0.2,-9.1 -0.4,-18.6 -0.9,-27.6c-6.1,-152.9 -22.5,-306.9 -48.6,-460.2c-35.5,-207.2 -88.8,-414.1 -161,-618.2c-58.9,-167.2 -127.4,-328.2 -205.9,-481.5c-135,-266.9 -299,-512 -489.3,-732.8c-640.2,-740.7 -1527.8,-1138.1 -2499.3,-1118.9c-226.1,4.2 -669.3,-29.8 -669.3,-29.8l3.3,-22.5l10.5,-65.6l5.7,-36.2c228.3,-43.6 452.1,-70 645.6,-73.8c1070.6,-20.8 2012.9,431.3 2675.6,1198.1c314.7,364.2 565.8,798.7 738.3,1287.6c672.6,1911.1 -98.8,4007.8 -2155.3,4731.8" fill="#ffea8c" fill-rule="nonzero" id="path140"/>
    <path d="m24745.2,30009.4c-439.9,155 -869.3,234.6 -1279.8,245.7c-12.2,0.5 -24.1,0.7 -36,0.9c-1629.1,31.7 -2967.2,-997 -3518.9,-2562.5c-164.7,-467.8 -243.9,-947 -239.6,-1415.4c6.1,-667.5 181.6,-1312.4 520.8,-1869c27.7,-3 55,-6 82.4,-8.6c9.3,-1.3 18.6,-2.2 28,-3.1c-45.9,73.9 -88.9,150.9 -128.8,231c-239.7,479.1 -356.3,1050.2 -353.2,1631.9c2.6,467.4 81.9,942 236.9,1381.7c264,748.5 714.1,1374.3 1302.1,1808.9c595.5,440.4 1309.5,665.2 2064.7,650.4l33.9,-0.6c404.9,-11.4 912.8,-72.7 1328.3,-219.2c970.1,-341.8 1632.2,-1026.2 2032.9,-1894.6c390.8,-847.1 424.9,-1827.5 96.2,-2760.4c-169.5,-482.6 -416.3,-913.4 -733.5,-1280.1c-674.7,-781 -1610.5,-1200.7 -2634.9,-1180.8c-217,4.5 -437.3,28.4 -658.9,72.1l5.7,-36.2l19.6,-126.5c213.4,-38.8 422.9,-59.4 628,-63.7c1103.8,-21.4 2076.1,444.6 2759.5,1235.6c324,375.7 583.6,823.7 760.9,1328.1c694.4,1971.4 -195.7,4087.8 -2316.3,4834.4" fill="#f47d1f" fill-rule="nonzero" id="path142"/>
    <path d="m21584.4,27318.7c-1.6,5.8 -3.1,11.6 -4.7,17.4c-4.8,11.2 -11.9,20.5 -21.4,28c-32.4,19.9 -64.7,39.8 -97.1,59.7c-7.2,6.1 -15.4,10 -24.5,11.6c-8.9,3.3 -18.1,4.1 -27.7,2.4c-16.6,-2.2 -35.5,-12.3 -45.4,-26.1c-10.6,-14.9 -17.4,-33.7 -14.1,-52.2l4.8,-17.4c4.7,-11.2 11.8,-20.5 21.4,-28.1c32.3,-19.8 64.7,-39.7 97,-59.6c7.3,-6.1 15.4,-10 24.6,-11.6c8.8,-3.3 18.1,-4.1 27.6,-2.5c16.6,2.3 35.6,12.3 45.5,26.2c10.6,14.9 17.4,33.7 14,52.2" fill="#fff0c9" fill-rule="nonzero" id="path144"/>
    <path d="m22504.6,26747.1c-7.3,15.5 -19.9,31.7 -36.9,37.2c-59.7,19.3 -119.4,38.7 -179.1,58c-18.2,5.9 -36,7.8 -54.1,0.2c-15.4,-6.5 -31.2,-21 -37.2,-37c-6.4,-17.1 -8.2,-37 -0.2,-54c7.4,-15.6 20,-31.7 37,-37.2c59.7,-19.4 119.4,-38.7 179.1,-58.1c18.1,-5.9 35.9,-7.7 54.1,-0.1c15.4,6.4 31.2,21 37.2,36.9c6.3,17.1 8.1,37.1 0.1,54.1" fill="#fff0c9" fill-rule="nonzero" id="path146"/>
    <path d="m22020.1,27911c-30,35.4 -60,70.8 -90,106.2c-11.9,14.1 -27.4,24.3 -46,26.8c-16.9,2.2 -38.2,-2.6 -51.5,-13.7c-13.8,-11.5 -25.1,-27.6 -26.7,-46.1c-1.6,-17.8 1.7,-37.3 13.7,-51.4l90,-106.3c11.9,-14 27.4,-24.2 46,-26.7c16.9,-2.3 38.1,2.6 51.5,13.7c13.8,11.5 25.1,27.6 26.7,46c1.6,17.9 -1.7,37.4 -13.7,51.5" fill="#fff0c9" fill-rule="nonzero" id="path148"/>
    <path d="m22391.7,27740.4c-21.3,38.4 -42.6,76.9 -63.9,115.3c-3.3,8.6 -8.3,15.9 -15.2,21.7c-5.8,7 -13.1,12.2 -21.8,15.5c-8.8,4.1 -17.9,5.8 -27.3,4.9c-9.2,0.8 -18.2,-0.7 -26.7,-4.7c-16,-7.5 -30.9,-19.9 -37.2,-37c-1.7,-6 -3.3,-12 -5,-18c-1.6,-12.4 0,-24.5 4.8,-36l63.9,-115.4c3.2,-8.6 8.3,-15.8 15.1,-21.7c5.9,-7 13.2,-12.1 21.8,-15.5c8.8,-4.1 17.9,-5.7 27.4,-4.9c9.2,-0.8 18.1,0.8 26.7,4.8c16,7.5 30.8,19.9 37.2,36.9c1.6,6 3.3,12 4.9,18c1.6,12.5 0,24.5 -4.7,36.1" fill="#fff0c9" fill-rule="nonzero" id="path150"/>
    <path d="m22597.3,28155.7c-27.2,84.1 -72,163.8 -129.2,231.2c-12,14 -27.5,24.2 -46.1,26.7c-16.9,2.3 -38.1,-2.6 -51.4,-13.7c-27.7,-23.1 -38.3,-67.9 -13.1,-97.5c22.6,-26.6 42.7,-55.1 60.7,-85c20.6,-36.8 37.8,-75.3 50.7,-115.4c5.1,-15.8 22.2,-30.9 37,-37.2c15.9,-6.7 38.1,-7.6 54.1,-0.1c15.9,7.5 30.8,19.9 37.2,36.9c6.8,18.4 6.1,35.4 0.1,54.1" fill="#fff0c9" fill-rule="nonzero" id="path152"/>
    <path d="m23366.2,28083.5c-3.5,31.6 -6.9,63.2 -10.4,94.8c-0.9,9.3 -4,17.6 -9.2,25.1c-3.8,8.2 -9.5,15 -16.9,20.4c-7.3,6.1 -15.5,9.9 -24.6,11.6c-8.9,3.3 -18.1,4.1 -27.6,2.4c-17.4,-3.1 -34.9,-11.3 -45.5,-26.1c-11,-15.5 -16.1,-33.1 -14,-52.2c3.4,-31.6 6.9,-63.2 10.3,-94.8c1,-9.3 4,-17.7 9.3,-25.1c3.8,-8.2 9.5,-15 16.9,-20.4c7.3,-6.1 15.4,-10 24.6,-11.6c8.8,-3.3 18.1,-4.1 27.6,-2.4c17.4,3.1 34.9,11.3 45.5,26.1c11,15.5 16.1,33.1 14,52.2" fill="#fff0c9" fill-rule="nonzero" id="path154"/>
    <path d="m23689.1,28636.3c-5.8,74.6 -11.7,149.2 -17.6,223.8c-2.9,36.4 -42.9,66 -78.4,59.5c-38.8,-7 -62.5,-39.4 -59.5,-78.3c5.9,-74.7 11.8,-149.3 17.7,-223.9c2.8,-36.3 42.8,-66 78.3,-59.5c38.9,7.1 62.6,39.4 59.5,78.4" fill="#fff0c9" fill-rule="nonzero" id="path156"/>
    <path d="m23654.3,27781.3c0.7,18.9 -1.8,36 -13.7,51.5c-10.3,13.5 -28.8,25.2 -46,26.7c-18,1.6 -37.2,-1.8 -51.5,-13.7c-13.4,-11.2 -26,-27.8 -26.7,-46c-2,-50.2 -3.9,-100.5 -5.9,-150.7c-0.7,-18.9 1.8,-35.9 13.7,-51.4c10.3,-13.6 28.7,-25.2 46,-26.7c17.9,-1.6 37.2,1.7 51.5,13.6c13.4,11.2 26,27.9 26.7,46.1c2,50.2 3.9,100.4 5.9,150.6" fill="#fff0c9" fill-rule="nonzero" id="path158"/>
    <path d="m24751.2,28459.9c0.9,9.2 -0.7,18.1 -4.7,26.7c-3.3,8.6 -8.3,15.9 -15.2,21.7c-5.8,7 -13.1,12.2 -21.8,15.5c-17.1,6.4 -37,8.2 -54,0.2c-5.2,-3 -10.3,-6 -15.4,-8.9c-9.7,-7.5 -17,-16.8 -21.8,-28.1c-15.8,-28.9 -31.6,-57.8 -47.5,-86.7c-4.1,-8.7 -5.7,-17.9 -4.9,-27.3c-0.8,-9.2 0.8,-18.1 4.8,-26.7c3.2,-8.6 8.3,-15.9 15.2,-21.7c5.8,-7 13.1,-12.2 21.7,-15.5c17.1,-6.4 37.1,-8.2 54.1,-0.2c5.1,3 10.3,6 15.4,8.9c9.7,7.5 17,16.8 21.8,28.1c15.8,28.9 31.6,57.8 47.4,86.7c4.1,8.7 5.8,17.9 4.9,27.3" fill="#fff0c9" fill-rule="nonzero" id="path160"/>
    <path d="m24346.4,27689.5c-31.3,22.4 -72.9,18 -97.6,-12.1c-44.8,-54.7 -89.6,-109.4 -134.4,-164.1c-23.1,-28.1 -18,-76.2 12.1,-97.6c31.3,-22.3 73,-18 97.6,12.1c44.8,54.7 89.6,109.4 134.5,164.1c23,28.2 17.9,76.2 -12.2,97.6" fill="#fff0c9" fill-rule="nonzero" id="path162"/>
    <path d="m24925.7,27926.9c-6.4,15.4 -21,31.2 -36.9,37.2c-17.1,6.3 -37.1,8.1 -54.1,0.1c-17.1,-8 -28.4,-20.1 -37.2,-36.9c-1.7,-3.2 -3.5,-6.3 -5.2,-9.5c-18.6,-30.3 -40.4,-58.4 -65.3,-83.8c-2.1,-1.9 -4,-3.8 -6.1,-5.7c-13.9,-12.6 -24.1,-26.8 -26.7,-46c-2.3,-16.9 2.6,-38.1 13.7,-51.5c11.5,-13.8 27.6,-25.1 46,-26.7c17.5,-1.6 38,1.4 51.5,13.7c24.3,22 47.4,45.7 67.5,71.6c20.1,26 37.4,54.3 52.7,83.4c8,15.2 6.5,38.7 0.1,54.1" fill="#fff0c9" fill-rule="nonzero" id="path164"/>
    <path d="m25485.9,27265.3c-3.1,17.4 -11.3,34.8 -26.1,45.4c-5.2,3.1 -10.4,6.1 -15.6,9.2c-11.8,4.9 -24,6.5 -36.6,4.9c-54.5,-1.9 -109,-3.7 -163.5,-5.6c-16.4,-0.5 -35.7,-13.7 -45.4,-26.1c-10.6,-13.7 -17.2,-34.9 -14.1,-52.2c3.2,-17.4 11.4,-34.9 26.2,-45.5l15.5,-9.1c11.8,-4.9 24,-6.6 36.7,-4.9c54.5,1.8 109,3.7 163.4,5.5c16.4,0.5 35.8,13.7 45.5,26.2c10.6,13.6 17.2,34.9 14,52.2" fill="#fff0c9" fill-rule="nonzero" id="path166"/>
    <path d="m25677,26914.3c-7.2,15.2 -20,32.4 -37,37.2c-65.9,18.6 -132.2,30.4 -200.9,30.9c-19.3,0.2 -35.5,-1.4 -51.4,-13.6c-13.6,-10.4 -25.2,-28.8 -26.8,-46.1c-1.5,-17.9 1.8,-37.2 13.7,-51.4c11,-13.2 28.1,-26.6 46.1,-26.8c59.5,-0.4 118.6,-8.5 176,-24.1c-3.2,0.9 -6.3,1.8 -9.5,2.6c18.1,-5 34.2,-7.3 52.4,0.3c15.5,6.4 31.3,21 37.2,36.9c6.4,17.2 8.2,37.1 0.2,54.1" fill="#fff0c9" fill-rule="nonzero" id="path168"/>
    <path d="m25265.4,26098.9c-11.1,13.3 -27.9,26.1 -46,26.7c-31.5,1.1 -62.5,5.8 -93,13.4c-12.4,3.7 -24.8,7.5 -36.8,12.2c-17.1,6.7 -36.9,7.3 -54,0.1c-15.5,-6.4 -31.3,-21 -37.2,-36.9c-6.4,-17.1 -8.2,-37.1 -0.2,-54.1c7.6,-16.1 19.9,-30.5 37,-37.2c52.6,-20.6 109.1,-33.5 165.7,-35.4c19,-0.6 35.9,1.8 51.5,13.7c13.5,10.3 25.1,28.7 26.7,46c1.6,18 -1.8,37.2 -13.7,51.5" fill="#fff0c9" fill-rule="nonzero" id="path170"/>
    <path d="m25718.8,25608.5c-3,16.8 -11.1,35.9 -26.1,45.4c-49.7,31.3 -99.4,62.5 -149.1,93.8c-16.3,10.2 -32.5,16.7 -52.2,14c-16.6,-2.2 -35.6,-12.3 -45.5,-26.1c-10.6,-14.9 -17.4,-33.7 -14,-52.2c3,-16.8 11.1,-36 26.1,-45.5c49.7,-31.2 99.4,-62.5 149.1,-93.7c16.3,-10.3 32.5,-16.8 52.2,-14.1c16.6,2.3 35.6,12.3 45.5,26.2c10.6,14.8 17.4,33.7 14,52.2" fill="#fff0c9" fill-rule="nonzero" id="path172"/>
    <path d="m24447.8,25072c-19.6,46.3 -39.2,92.5 -58.7,138.8c-6.9,16.1 -20.8,30.3 -37,37.2c-15.9,6.7 -38.1,7.6 -54.1,0.1c-15.9,-7.5 -30.8,-19.9 -37.2,-36.9c-6.5,-17.5 -7.5,-36.5 -0.1,-54.1c19.6,-46.2 39.2,-92.5 58.8,-138.8c6.8,-16.1 20.7,-30.3 36.9,-37.2c15.9,-6.7 38.2,-7.6 54.1,-0.1c16,7.5 30.8,19.9 37.2,36.9c6.5,17.5 7.6,36.5 0.1,54.1" fill="#fff0c9" fill-rule="nonzero" id="path174"/>
    <path d="m25067.3,24825.5c-44.3,58.8 -88.6,117.5 -132.9,176.3c-10.7,14.2 -28.5,24.3 -46.1,26.7c-16.9,2.3 -38.1,-2.6 -51.4,-13.7c-29.1,-24.2 -36.5,-66.4 -13.1,-97.5c44.3,-58.7 88.6,-117.5 132.9,-176.3c10.7,-14.1 28.5,-24.3 46.1,-26.7c16.9,-2.2 38.1,2.6 51.4,13.7c29.1,24.3 36.5,66.5 13.1,97.5" fill="#fff0c9" fill-rule="nonzero" id="path176"/>
    <path d="m24821.9,24524.8c-13.5,15.9 -25.5,33 -36.4,50.7c-8.5,15.3 -16.3,30.8 -22.8,47c-6.4,16 -21.1,30.4 -37,37.2c-8.7,4.1 -17.8,5.7 -27.3,4.9c-9.2,0.8 -18.1,-0.8 -26.7,-4.8c-16,-7.5 -30.8,-19.9 -37.2,-37c-6.6,-17.7 -7.3,-36.2 -0.2,-54c10.4,-25.9 23.6,-50.1 37.9,-73.9c11.5,-19.2 24.6,-37.4 39.1,-54.5c12,-14.1 27.5,-24.2 46.1,-26.7c16.9,-2.3 38.1,2.5 51.4,13.6c13.9,11.6 25.1,27.6 26.8,46.1c1.5,17.8 -1.8,37.4 -13.7,51.4" fill="#fff0c9" fill-rule="nonzero" id="path178"/>
    <path d="m23502.1,25442.2c-34.2,12.8 -77.4,-0.4 -91.2,-36.8c-15.2,-39.9 -32.8,-78.9 -52.9,-116.7c-5,-9.3 -10,-18.5 -15.2,-27.6c-0.7,-1.2 -1,-1.7 -1.4,-2.4c-2.6,-4.3 -5.3,-8.7 -7.9,-13c-11.5,-18.5 -23.6,-36.5 -36.2,-54.3c-21.1,-29.6 -19.4,-75.2 12.1,-97.6c29.6,-21.1 75.1,-19.6 97.6,12.1c53.9,75.7 98.8,158.2 131.9,245.1c13,33.9 -0.7,77.8 -36.8,91.2" fill="#fff0c9" fill-rule="nonzero" id="path180"/>
    <path d="m23794.2,24665.4c-10.9,44.5 -25.5,87.4 -46.8,128c-8.7,16.4 -19.4,29.7 -37,37.2c-15.9,6.7 -38.1,7.6 -54.1,0.1c-31.6,-14.8 -55.4,-56.5 -37.3,-91c15.3,-29.1 27.3,-59.7 36.6,-91.3c9.2,-37.9 14.3,-76.6 14.3,-115.6c0,4.6 0,9.2 0,13.9c0,-18.9 1.7,-34.8 13.7,-50.5c10.3,-13.6 28.7,-25.2 46,-26.7c18,-1.6 37.2,1.8 51.5,13.6c13.1,11 26.6,28.1 26.7,46.1c0.3,46.1 -2.7,91.2 -13.6,136.2" fill="#fff0c9" fill-rule="nonzero" id="path182"/>
    <path d="m23249.8,24486.9c-37.6,3.3 -73,-21.1 -78.2,-59.7l-23,-172c-4.8,-36 22.3,-74.8 59.7,-78.2c37.6,-3.3 73,21.1 78.2,59.8l23,171.9c4.8,36.1 -22.3,74.9 -59.7,78.2" fill="#fff0c9" fill-rule="nonzero" id="path184"/>
    <path d="m22869.9,25544c-5.3,7.6 -12.1,13.3 -20.3,17.3c-7.6,5.4 -16.2,8.5 -25.7,9.5c-18,1.5 -37.3,-1.8 -51.5,-13.7c-14,-11.7 -24.7,-27.5 -26.7,-46.1c-0.2,-1.6 -0.7,-3.1 -0.9,-4.8c-1.2,-3.3 -2.6,-6.5 -4.1,-9.7c-1.8,-2.5 -3.7,-5 -5.7,-7.4c-2.9,-2.3 -5.6,-5 -8.8,-7.1c-7.6,-5.3 -13.3,-12.1 -17.3,-20.2c-5.4,-7.7 -8.5,-16.3 -9.4,-25.8c-1.7,-9.4 -0.9,-18.6 2.3,-27.4c1.7,-8.9 5.4,-16.9 11.3,-24.1c11.5,-13.8 27.6,-25 46.1,-26.7c6.2,0 12.4,0 18.6,0c12.1,1.7 23.1,6.3 32.8,13.7c11.3,7.3 20.5,16.8 29.9,26.4c5.6,5.7 10.5,12.1 14.7,18.9c7,11.5 14.2,22.9 18.6,35.6c4.4,12.9 8.3,26.5 9.8,40.2c1.9,18 -2.6,36.9 -13.7,51.4" fill="#fff0c9" fill-rule="nonzero" id="path186"/>
    <path d="m22555.4,26113.8c-3.2,17.4 -11.4,34.9 -26.2,45.4c-15.3,11 -33.1,16.4 -52.2,14.1c-31.5,-3.9 -63.1,-7.8 -94.6,-11.8c-17.2,-2.1 -34.8,-12.5 -45.4,-26.1c-6.1,-7.3 -10,-15.4 -11.7,-24.6c-3.2,-8.8 -4.1,-18.1 -2.4,-27.6c3.2,-17.4 11.3,-34.9 26.2,-45.5c15.3,-10.9 33.1,-16.4 52.2,-14c31.5,3.9 63,7.8 94.6,11.7c17.2,2.2 34.8,12.6 45.4,26.2c6.1,7.2 10,15.4 11.7,24.5c3.2,8.9 4,18.1 2.4,27.7" fill="#fff0c9" fill-rule="nonzero" id="path188"/>
    <path d="m21590,25954.8c0.8,9.2 -0.7,18.1 -4.7,26.7c-7.5,16 -19.9,30.9 -37,37.2c-16.6,6.2 -37.7,8.8 -54,0.2c-6.5,-3.4 -13.4,-5.7 -20.2,-8c-4.4,-0.8 -8.7,-1.3 -13.1,-1.6c-5.9,0.4 -11.7,1.2 -17.4,2.4c-2.1,0.6 -4.2,1 -6.3,1.3l-0.4,0.1l0.3,-0.1c-3.6,0.5 -7.3,0.8 -11.1,0.5c-9.2,0.8 -18.1,-0.8 -26.7,-4.8c-8.6,-3.2 -15.9,-8.3 -21.7,-15.1c-7,-5.9 -12.2,-13.1 -15.5,-21.8c-6.4,-17.1 -8.2,-37.1 -0.2,-54.1c3,-5.1 6,-10.2 9,-15.4c7.4,-9.7 16.8,-16.9 28,-21.8c13.6,-3.8 27.1,-8 41.2,-9.2c14.3,-1.3 28.9,-1.3 43.1,0.1c13.9,1.4 27.3,5.4 40.6,9.3c8.4,2.4 16.4,5.7 24,9.8c8.6,3.3 15.9,8.3 21.7,15.2c7,5.8 12.2,13.1 15.5,21.8c4.1,8.7 5.8,17.9 4.9,27.3" fill="#fff0c9" fill-rule="nonzero" id="path190"/>
    <path d="m22002.6,25865.8c-14.6,31.2 -56.9,56.1 -91,37.4c-120.5,-65.9 -237,-138.8 -348.2,-219.3c-29.6,-21.4 -36.7,-69.1 -13.1,-97.5c24.7,-29.6 66,-35.9 97.5,-13c52.4,37.9 106,74.3 160.7,108.9c26.9,17.1 54.2,33.8 81.6,50c3.3,1.9 6.5,3.8 9.7,5.7c1.3,0.8 11.7,7.2 4.5,2.6c-8.1,-5 5.3,3.1 6.9,4c3.3,1.9 6.5,3.7 9.8,5.6c14.7,8.3 29.4,16.5 44.3,24.6c16.4,9 29.6,19.1 37.2,37c6.7,15.9 7.6,38.1 0.1,54" fill="#fff0c9" fill-rule="nonzero" id="path192"/>
    <path d="m21531.3,26850.9c-108.8,30.1 -217.6,60.1 -326.3,90.2c-18.9,5.2 -35.2,8 -54.1,0.1c-15.4,-6.4 -31.3,-21 -37.2,-36.9c-11.7,-31.5 -0.7,-80.9 36.8,-91.3c108.8,-30 217.6,-60.1 326.4,-90.1c18.8,-5.2 35.2,-8.1 54,-0.2c15.4,6.5 31.3,21 37.2,37c11.7,31.4 0.7,80.9 -36.8,91.2" fill="#fff0c9" fill-rule="nonzero" id="path194"/>
    <path d="m17395.4,24227.7c-301.4,22 -590.8,51.3 -864.5,86.3l-39.5,154.9c135.4,-18.7 275.7,-35 420.4,-49.9c27.8,-3.3 56,-6.3 84.6,-8.8c15.9,-1.6 31.8,-3.1 47.7,-4.6c28.6,-2.9 57.6,-5.5 87.1,-8.1c36.9,-3.5 74.3,-6.7 112.1,-9.8c18.7,-1.6 37.3,-3.2 56.4,-4.7c18.7,-1.6 37.8,-3.2 56.9,-4.8l38.8,-150.5" fill="#efefef" fill-rule="nonzero" id="path196"/>
    <path d="m16911.8,24419c-144.7,14.9 -285,31.2 -420.4,49.9c135.9,-17.9 275.7,-35 420.4,-49.9" fill="#ad689d" fill-rule="nonzero" id="path198"/>
    <path d="m17356.6,24378.2c-38.2,3.2 -76,5.9 -113.3,9.5c37.3,-3.2 75.1,-6.3 113.3,-9.1l0,-0.4" fill="#ad689d" fill-rule="nonzero" id="path200"/>
    <path d="m17499.5,21737.7c-107.2,-23.3 -212.1,-34.4 -301.7,-33.4l-666.9,2609.7c273.7,-35 563.1,-64.3 864.5,-86.3l580.4,-2273.7l2.6,-9.6c16.3,-101.5 -202.1,-146.1 -478.9,-206.7" fill="#ad689d" fill-rule="nonzero" id="path202"/>
    <path d="m17356.6,24378.6c-304.2,23.3 -593.9,54.2 -865.2,90.3l-202.7,792.6l-2146.9,8400.5l792.6,202.3l2180.7,-8539.7l241.5,-946" fill="#db70bd" fill-rule="nonzero" id="path204"/>
    <path d="m17197.8,21704.3l-0.4,0.1c-134.6,1.5 -235.6,30.2 -259.2,85.6l-0.4,0.4l-4.7,18.8l0,0.4l-3011.9,11795.9l220.6,56.5l3056,-11957.7" fill="#db70bd" fill-rule="nonzero" id="path206"/>
    <path d="m16530.9,24314c-83.4,10.4 -165.6,21.6 -245.8,33.6l-39.9,156.5c21.4,-3.2 43.3,-6.5 65.1,-9.7c31,-5 62.7,-9.6 94.5,-13.8c28.6,-4.2 57.6,-7.9 86.6,-11.7l39.5,-154.9" fill="#efefef" fill-rule="nonzero" id="path208"/>
    <path d="m17196.3,21709.2l1.1,-4.8c-134.6,1.5 -235.6,30.2 -259.2,85.6l-0.4,0.4l-4.7,18.8l0,0.4l-648,2538c80.2,-12 162.4,-23.2 245.8,-33.6l666.9,-2609.7c-0.4,1.6 -0.8,3.2 -1.5,4.9" fill="#8c6082" fill-rule="nonzero" id="path210"/>
    <path d="m16491.4,24468.9c-83.8,10.8 -166,22.8 -246.2,35.2l-186.9,730.6l-2137.1,8370.8l220.6,56.5l2146.9,-8400.5l202.7,-792.6" fill="#c15da7" fill-rule="nonzero" id="path212"/>
    <path d="m14935,33862.6c-22.3,101.8 -257.6,110 -537.8,48.7c-280.2,-61.4 -497.9,-204.7 -475.6,-306.5c22.3,-101.8 276.1,-123.6 556.3,-62.3c280.2,61.3 479.4,218.3 457.1,320.1" fill="#eaa2d9" fill-rule="nonzero" id="path214"/>
    <path d="m12042.2,12109.2l2161.7,-1549.9c49.4,-35.4 118.2,-24.1 153.6,25.3c35.4,49.4 24.1,118.2 -25.3,153.6l-2161.7,1549.9c-49.4,35.4 -118.2,24.1 -153.6,-25.3c-35.4,-49.4 -24.1,-118.2 25.3,-153.6" fill="#000000" fill-rule="nonzero" id="path216"/>
    <path d="m15675.3,10490.5c9.2,60.1 -32.1,116.3 -92.2,125.5c-116,17.8 -312.4,40.3 -483.3,58.7c53.3,11.2 115.7,25 190,41.8c64,14.5 124.5,28.1 172.2,37.8c59.6,12.1 98.1,70.2 86,129.8c-12.2,59.6 -70.2,98.1 -129.8,86c-50.1,-10.2 -111.7,-24.1 -176.9,-38.8c-83.5,-18.9 -203.8,-46.1 -290.1,-61.5c-41.2,31.9 -93.1,57.2 -154.9,76.3c103.6,79.9 188.7,163.8 233,216.8c39,46.7 32.8,116.1 -13.9,155.1c-46.7,38.9 -116,32.7 -155,-13.9c-80.9,-96.8 -317.7,-304.6 -498.9,-346.6c-38.8,-9 -67.6,-37.5 -79.3,-72.6c-40.9,-37.1 -71.7,-85.7 -87.7,-147.9c-60.5,-235.4 102.6,-395.3 338.1,-455.9c57.3,-14.7 113.5,-22.1 166.7,-21.6c106.9,-20.6 433.5,-85.7 602.5,-142.7c57.7,-19.4 120.1,11.5 139.5,69.2c19.5,57.6 -11.6,120 -69.1,139.5c-97.4,32.8 -237.6,67 -364.6,95.2c7.4,12.6 14.1,26 20.1,40.3c179,-19.1 399.9,-44 522.1,-62.7c60.1,-9.2 116.3,32.1 125.5,92.2" fill="#000000" fill-rule="nonzero" id="path218"/>
    <path d="m18643.2,16060.7c66.7,-485.7 514.4,-825.3 1000.1,-758.6c756.6,77.3 1034.5,1120.1 437.2,1569.7c-302.9,-91.5 -800.8,-204.8 -1253.9,-139.5c-144.7,-182.9 -217.7,-422.3 -183.4,-671.6" fill="#ffffff" fill-rule="nonzero" id="path220"/>
    <path d="m18643.2,16060.7l-48.7,-6.7c32.1,-234.5 148.8,-437.2 314.8,-580.8c165.9,-143.6 381.6,-228.7 612.1,-228.7c42.4,0 85.4,2.9 128.6,8.9l-6.7,48.7l5,-48.9c125.4,12.8 239.2,50.9 338.5,107.8c149.2,85.4 265.8,212.8 345.1,360c79.2,147.2 121.4,314.4 121.4,481.6c0,132.4 -26.5,264.8 -82.8,386.7c-56.3,121.9 -142.5,233.1 -260.4,321.8l-20,15l-23.8,-7.2c-237.4,-71.8 -596.7,-156.9 -954.9,-156.8c-93.5,0 -186.8,5.8 -277.8,18.9l-28,4l-17.6,-22.2c-127.6,-161.2 -202.4,-364.3 -202.4,-580.3c0,-42.5 2.9,-85.4 8.9,-128.5l48.7,6.7l48.7,6.7c-5.3,38.7 -7.9,77.1 -7.9,115.1c0,193.2 66.8,374.8 181.2,519.3l-38.6,30.5l-7,-48.7c96.4,-13.9 194.3,-19.8 291.8,-19.8c373.6,0.1 740.2,87.6 983.3,160.9l-14.2,47.1l-29.6,-39.3c104.7,-78.9 180.3,-176.5 230.3,-284.4c49.8,-107.9 73.8,-226.2 73.8,-345.5c0.1,-200.8 -68.2,-403.7 -191.9,-560.5c-61.9,-78.4 -137.4,-145.5 -225.2,-195.7c-87.7,-50.3 -187.8,-83.9 -299.6,-95.4l-0.9,-0.1l-0.8,-0.1c-38.8,-5.3 -77.2,-7.9 -115.2,-7.9c-206.1,0 -399,76.1 -547.8,204.7c-148.6,128.8 -252.8,309.6 -281.7,519.8l-48.7,-6.7" fill="#000000" fill-rule="nonzero" id="path222"/>
    <path d="m18940.2,16284.2c-7.5,-633.5 934.3,-660.7 963.4,-27.9c7.6,633.5 -934.3,660.7 -963.4,27.9" fill="#000000" fill-rule="nonzero" id="path224"/>
    <path d="m19039.4,16296.8c-7.6,-173.5 265.2,-181.4 267.6,-7.7c7.6,173.5 -265.1,181.4 -267.6,7.7" fill="#ffffff" fill-rule="nonzero" id="path226"/>
    <path d="m19287.3,16530.7c-4.6,-104.1 159,-108.9 160.5,-4.7c4.6,104.1 -159,108.9 -160.5,4.7" fill="#ffffff" fill-rule="nonzero" id="path228"/>
    <path d="m15715.9,16394.1c-14.3,-490 371.4,-898.7 861.4,-912.9c759,-48.5 1205,934.3 689.9,1476.2c-313.9,-40.3 -823.6,-70.1 -1259.8,69c-172.9,-156.6 -284.2,-380.7 -291.5,-632.3" fill="#ffffff" fill-rule="nonzero" id="path230"/>
    <path d="m15715.9,16394.1l-48,1.4c-0.3,-9.2 -0.4,-18.4 -0.4,-27.6c0,-252 100.3,-482.2 264,-650.9c163.5,-168.7 390.9,-276.5 644.4,-283.8l1.4,48l-3,-47.9c19.1,-1.3 38.1,-1.9 56.9,-1.9c133.3,0 257.3,30.4 367.6,83.5c165.4,79.7 299.7,209.8 392.7,364.6c93.1,154.7 145.2,334.4 145.3,515.1c0,105.8 -18,212 -56.4,313.2c-38.4,101.2 -97.3,197.3 -178.5,282.6l-16.7,17.7l-24.2,-3.1c-137.2,-17.6 -312.4,-33.2 -502,-33.2c-238.9,-0.1 -500.6,24.9 -737,100.3l-26.3,8.4l-20.5,-18.5c-182.1,-164.9 -299.6,-401.5 -307.3,-666.5l48,-1.4l47.9,-1.4c7,238.1 112.2,449.9 275.8,598.1l-32.2,35.6l-14.6,-45.7c250.1,-79.7 520.6,-104.9 766.2,-104.9c194.8,0 373.9,15.9 514.3,33.9l-6.1,47.7l-34.8,-33.1c72.3,-76.1 124.2,-161 158.2,-250.6c34.1,-89.6 50.2,-184.1 50.2,-279.1c0.1,-216.1 -84.1,-434.5 -227.7,-597.2c-71.8,-81.4 -158.1,-148.9 -256,-196c-97.9,-47.1 -207.1,-73.9 -325.9,-74c-16.8,0 -33.7,0.6 -50.8,1.7l-0.8,0l-0.9,0c-227.8,6.7 -431.3,103.2 -578.3,254.7c-147,151.7 -236.9,357.8 -236.9,584.1c0,8.2 0.1,16.5 0.3,24.8l-47.9,1.4" fill="#000000" fill-rule="nonzero" id="path232"/>
    <path d="m16061.3,16562.9c-111.8,-623.6 812.7,-805.7 945.6,-186.3c111.9,623.6 -812.6,805.7 -945.6,186.3" fill="#000000" fill-rule="nonzero" id="path234"/>
    <path d="m16145.6,16561.8c-36.1,-169.9 231.6,-222.7 262.7,-51.8c36,169.9 -231.6,222.7 -262.7,51.8" fill="#ffffff" fill-rule="nonzero" id="path236"/>
    <path d="m16428.6,16751.6c-21.7,-101.9 139,-133.6 157.6,-31c21.6,101.9 -139,133.5 -157.6,31" fill="#ffffff" fill-rule="nonzero" id="path238"/>
    <path d="m19474.6,15050.1c63.8,-267.4 1152.3,29.2 1071.4,292c-63.7,267.5 -1152.3,-29.2 -1071.4,-292" fill="#f47d1f" fill-rule="nonzero" id="path240"/>
    <path d="m16868.6,15240.3c-34.7,-272.8 -1148.8,-94.6 -1096.5,175.4c34.6,272.7 1148.7,94.5 1096.5,-175.4" fill="#f47d1f" fill-rule="nonzero" id="path242"/>
    <path d="m18562.9,17602.8c375.5,-158 852,-162.6 1183.1,99.4c112.8,81.1 192.9,210.4 330.9,239.1c224.2,17.1 429.8,-124.3 627.8,-218.8c-220.2,184.5 -517.9,452.1 -825.4,308.4c-166.6,-86.5 -308.4,-202.6 -488.9,-249.6c-145.3,-42.1 -305.8,-57.9 -458.6,-68c-64.6,-20 -508.1,22.7 -368.9,-110.5" fill="#000000" fill-rule="nonzero" id="path244"/>
    <path d="m17549.6,17513.8c-99.1,255.1 -334.7,560.3 -607.2,630.5c-458.8,-5.5 -918.9,-168 -1365,18.2c235.8,-147.7 526.7,-194.2 802.8,-201.3c181.9,-18.1 392.2,27.6 559.6,-39.5c61.6,-60.1 596,-639.5 609.8,-407.9" fill="#000000" fill-rule="nonzero" id="path246"/>
    <path d="m19412,14286.8c-77.4,67.9 -166.6,112.6 -262,139.6c-95.6,27.1 -197.5,37.2 -303.6,37.2c-184.7,-0.1 -382.9,-30.3 -584.9,-59.9c-201.9,-29.6 -407.6,-58.7 -604.9,-58.6c-182.8,0 -357.7,24.7 -517.6,94.8c-80,35 -156.4,81.4 -229,142.3c-72.5,61 -141.2,136.5 -205,230.3c-18.3,26.8 -54.7,33.7 -81.5,15.5c-26.8,-18.2 -33.7,-54.7 -15.5,-81.5c69.4,-101.9 145.4,-185.9 226.6,-254.1c121.8,-102.4 255.4,-169 394.2,-209.5c138.9,-40.5 282.9,-55.1 427.8,-55.1c208.7,0 419.6,30.3 621.9,59.9c202.3,29.7 396,58.7 567.9,58.6c98.7,0 189.9,-9.5 271.5,-32.7c81.7,-23.3 153.6,-59.7 216.9,-115c24.4,-21.3 61.4,-18.9 82.8,5.5c21.3,24.4 18.8,61.4 -5.6,82.7" fill="#000000" fill-rule="nonzero" id="path248"/>
    <path d="m17262.1,13862.5c-57.8,34.6 -193.3,55.2 -155.1,142.6c14.9,24.4 44.4,33.4 65.6,19.1c145.6,-93.9 374.8,-159.7 534.3,-81.8c24.5,12 51.5,1.2 60.4,-24.1c-5.8,-169.8 -391.4,-109.3 -505.2,-55.8" fill="#000000" fill-rule="nonzero" id="path250"/>
   </g>
  </g>
 </g>
</svg>