<?xml version="1.0"?>
<svg width="2900" height="4900" xmlns="http://www.w3.org/2000/svg" xmlns:svg="http://www.w3.org/2000/svg" version="1.1">

 <g class="layer">
  <title>Layer 1</title>
  <g id="g8" transform="matrix(1.33333, 0, 0, -1.33333, 0, 5333.33)">
   <g id="g10" transform="translate(-930, 225) scale(0.1)">
    <path d="m22408.2,9954.3l228.2,-7195.3c2.3,-73.5 61.6,-132.3 135.1,-134.1l1832.3,-43.9c76.4,-1.8 139.9,58.6 141.7,135.1c1.8,76.4 -58.7,139.9 -135.1,141.7l-1701.4,40.8l-224,7064.4c-2.4,76.5 -66.4,136.5 -142.8,134c-76.4,-2.4 -136.4,-66.3 -134,-142.7" fill="#000000" fill-rule="nonzero" id="path12"/>
    <path d="m24694.8,2648.1c262.3,220.5 -985.6,1198.1 -1918.5,96.2c1027.2,12.9 1571.6,-127.7 1918.5,-96.2" fill="#000000" fill-rule="nonzero" id="path14"/>
    <path d="m19683.3,9965.4l-335.5,-6908c-2.5,-51.2 23.2,-99.2 67.2,-125.5l1500.7,-898.5c65.7,-39.3 150.7,-18 190,47.6c39.3,65.6 17.9,150.7 -47.7,189.9l-1429.6,855.9l331.5,6825.1c3.7,76.4 -55.2,141.3 -131.6,145c-76.4,3.8 -141.3,-55.2 -145,-131.5" fill="#000000" fill-rule="nonzero" id="path16"/>
    <path d="m21027.7,2050c336,67.1 -287.7,1524.5 -1635.7,1007.2c906.8,-482.8 1316.5,-868 1635.7,-1007.2" fill="#000000" fill-rule="nonzero" id="path18"/>
    <path d="m15458.5,16192.8l-1206.5,-5011.4l-2574.9,-1282.5c-68.4,-34.1 -96.3,-117.2 -62.2,-185.6c34.1,-68.5 117.2,-96.3 185.7,-62.2l2632.7,1311.2c36.7,18.3 63.3,51.6 72.9,91.5l1221.5,5074.2c17.9,74.3 -27.8,149.1 -102.2,167c-74.3,17.9 -149.1,-27.8 -167,-102.2" fill="#000000" fill-rule="nonzero" id="path20"/>
    <path d="m11849.7,9038.5c37.2,53.4 68.9,114.7 94.1,182.2c106.9,286.5 59.4,569.9 -227.1,676.8c-129.4,48.3 -249.5,23.8 -352.1,-43.8c-39.9,6.3 -82.1,-4.2 -114.4,-33.3c-183.7,-165.7 -484.4,-192 -597.6,-201.9c-76.1,-6.7 -132.5,-73.8 -125.8,-150c4.8,-55 41.1,-99.6 89.6,-117.7c18.6,-7 39.2,-10 60.4,-8.2c111.5,9.8 248.8,27.6 386.6,70.1c-21.7,-72.1 -31.1,-139 -28.1,-200.4c-78,-77.9 -192.6,-182.5 -272.1,-255c-62.1,-56.7 -120.8,-110.2 -167.2,-154.5c-55.4,-52.8 -57.5,-140.4 -4.7,-195.8c14.9,-15.6 32.7,-27 51.7,-34.1c48.1,-18 104.3,-8.4 144,29.4c44.3,42.3 101.9,94.8 162.8,150.4c88.3,80.5 158.6,145.4 215.1,199.4c3.6,-3 7.3,-5.9 11.1,-8.8c-123.7,-195.4 -265,-426.4 -333.4,-565.5c-33.7,-68.6 -5.4,-151.6 63.2,-185.3c4.2,-2.1 8.5,-4 12.8,-5.6c65.8,-24.5 140.9,4.3 172.5,68.7c67.3,136.9 217.6,380.4 343,577.4c8.3,-1.1 16.3,-1.3 24.5,-1.9c-60.4,-145 -126.5,-314.3 -164.5,-444.7c-20.5,-70 17,-143.3 84.3,-168.4c3.3,-1.2 6.5,-2.3 9.9,-3.2c73.4,-21.4 150.2,20.7 171.6,94.2c75.2,257.9 281.9,708.1 284,712.6c2.5,5.6 4,11.2 5.8,16.9" fill="#000000" fill-rule="nonzero" id="path22"/>
    <path d="m30487.8,14870.6c-147.7,-1.6 -396.1,-13.7 -611.9,-25.7c63.9,24.7 138.7,54.7 227.3,90.6c76.5,31 148.7,60.3 206,82.1c71.4,27.2 107.3,107.2 80.2,178.6c-27.2,71.5 -107.1,107.4 -178.7,80.2c-60,-22.8 -133.6,-52.6 -211.5,-84.3c-99.8,-40.4 -243.5,-98.7 -347.4,-135.5c-58,31.4 -128.3,52.3 -209.6,63.3c119.5,124.9 208.1,251.2 246.6,316.4c38.9,65.9 17,150.8 -48.8,189.7c-65.9,38.8 -150.8,16.9 -189.7,-48.9c-72.3,-122.7 -294.4,-405.8 -518.8,-498.3c-46.4,-19.1 -76.4,-60.7 -83.6,-106.9c-59.8,-59.5 -99.5,-137 -108.2,-234.5c-27.1,-304.6 208.1,-469.7 512.7,-496.8c74,-6.6 145.3,-4.2 211.3,7.2c136.9,-3.7 555.5,-17.8 776.9,-54.1c21.1,-3.4 42,-1.9 61.3,3.8c49.4,14.5 88.8,56.2 97.7,110.5c12.3,75.4 -38.8,146.6 -114.3,159c-127.5,20.9 -308.6,34.8 -471.9,43.8c6.5,17.2 12.1,35.2 16.7,54.1c226.1,12.9 505.3,27.1 660.7,28.8c13.1,0.2 25.7,2.1 37.6,5.6c58,17 100.1,71 99.4,134.4c-0.9,76.4 -63.5,137.8 -140,136.9" fill="#000000" fill-rule="nonzero" id="path24"/>
    <path d="m29218.9,14692l-3266.5,407.5l-3071,2256.3c-61.6,45.3 -148.3,32.1 -193.5,-29.6c-45.3,-61.6 -32.1,-148.2 29.6,-193.5l3100,-2277.7c18.9,-13.9 41.6,-22.9 64.9,-25.8l3302.2,-412c75.9,-9.4 145.1,44.4 154.6,120.3c9.4,75.9 -44.4,145 -120.3,154.5" fill="#000000" fill-rule="nonzero" id="path26"/>
    <path d="m22145.8,28473.5l810,-5151.9l0.4,-2l4.5,-29.4l87.1,-553.1l2152.5,-13693c67.5,-322.2 -562.3,-752.2 -1584,-1149c-659.7,-256.1 -1483.2,-498.4 -2387.6,-688.7c-2304.8,-484.9 -4263.5,-448.4 -4375.1,81.6l-0.2,1l-182.1,688.7l-0.4,0l-3508.1,13250.7l0,0.3l-7.8,28.7l-0.5,2.3l-1334.7,5041.3c205.8,-626.9 2598.5,-661.4 5406.3,-70.7c1085.5,228.4 2077.1,517.5 2880.8,824.2c1274.9,486 2078.5,1016.4 2038.9,1419" fill="#e3e1e0" fill-rule="nonzero" id="path28"/>
    <path d="m22310,24883.3l2284,-14236.4c89.8,-426.8 -970.6,-1027.7 -2516.3,-1483.3c-373.8,-110.4 -776.4,-212 -1197.6,-300.6c-2162.4,-455 -4006,-393.8 -4117.5,136.2l-0.2,0.9l-3646.1,13948.8c191.8,-595.9 2328.4,-656.5 4827.6,-130.6c2071.6,435.8 4377.1,1958 4366.1,2065" fill="#f5c80c" fill-rule="nonzero" id="path30"/>
    <path d="m22309.6,24885.5l0.4,-1.9l4.4,-28.7c61.9,-606.6 -1871.2,-1510.9 -4370.4,-2036.8c-2498.6,-525.7 -4631.8,-477.2 -4820.2,102.8l0,0.3l-7.6,28l-0.4,2.3c-122.1,606.4 1830.7,1529.3 4366.2,2062.7c2536.1,533.6 4695.9,475.7 4827.6,-128.7" fill="#ffea8c" fill-rule="nonzero" id="path32"/>
    <path d="m22140.9,28504.8l4.8,-29.3l0.3,-1.9c64.2,-656.9 -2112,-1652.3 -4920,-2243.1c-407.9,-85.8 -807,-158.3 -1192,-217.6l-84.9,163.1c-22.4,-3.3 -44.8,-6.6 -66.8,-9.7c-22.4,-3.3 -44.3,-6.5 -66.3,-9.7c-44.3,-6.4 -88.3,-12.7 -131.8,-18.5c-34.6,-4.9 -68.7,-9.7 -102.5,-13.9c-18.7,-2.5 -37.4,-5 -56.1,-7.5c-33.7,-4.7 -67,-8.8 -100,-12.4c-170.6,-21.4 -336.6,-40 -497.6,-54.6c-34.4,-3.4 -68.9,-6.8 -102.9,-9.6c-37.8,-3.6 -75.1,-6.7 -112.6,-9.3c-26,-2.1 -52.1,-4.2 -77.6,-6.2l87.7,-169.7c-1608.8,-133 -2762.7,19.3 -2902.5,446.1l-0.9,1.8l-7.5,28.7c-138,655.8 2062.3,1674.1 4914.5,2274.2c2852.3,600.2 5276.8,554.9 5414.7,-100.9" fill="#efefef" fill-rule="nonzero" id="path34"/>
    <path d="m21739.8,28420.2l4,-24.8l0,-1.8c50.4,-562.9 -1964.1,-1447.2 -4553.7,-1992c-2589.7,-544.9 -4789.4,-547.3 -4970.1,-11.8l-0.7,1.6l-6.4,24.4c-118.1,561.3 1918.7,1465 4549.5,2018.5c2630.8,553.5 4859.3,547.2 4977.4,-14.1" fill="#e0c7b8" fill-rule="nonzero" id="path36"/>
    <path d="m21739.5,28420.3l4.3,-25.1l-0.1,-1.4c11.6,-128.5 -84.8,-273.9 -271.3,-428.6c-36.5,-29.9 -75.8,-60.3 -118.5,-90.9c-363.2,-259.3 -960.5,-538 -1713.1,-801.3c-703,-247.5 -1541.5,-480.2 -2450.8,-671.6c-426.8,-89.7 -843,-165.3 -1240.9,-225.4c-22.4,-3.3 -44.8,-6.6 -66.8,-9.7c-22.4,-3.3 -44.3,-6.5 -66.3,-9.7c-44.3,-6.4 -88.3,-12.7 -131.8,-18.5c-34.6,-4.9 -68.7,-9.7 -102.5,-13.9c-18.7,-2.5 -37.4,-5 -56.1,-7.5c-33.7,-4.7 -67,-8.8 -100,-12.4c-170.6,-21.4 -336.6,-40 -497.6,-54.6c-34.4,-3.4 -68.9,-6.8 -102.9,-9.6c-37.8,-3.6 -75.1,-6.7 -112.6,-9.3c-26,-2.1 -52.1,-4.2 -77.6,-6.2c-24.7,-1.8 -48.9,-3.5 -73,-5.3c-787.9,-54.6 -1433.3,-31.5 -1847.7,69c-100.9,24.5 -187.7,52.9 -259.7,86.3c-125.3,57.9 -205.4,130.1 -234.5,215.4l-0.7,1.3l-6.2,24.7c-118,560.9 1918.6,1464.8 4549.2,2018.3c2630.6,553.5 4859.2,546.9 4977.2,-14" fill="#e3e1e0" fill-rule="nonzero" id="path38"/>
    <path d="m21353.8,27874.2c-363,-259.2 -960.4,-538.1 -1713.2,-801.4c-702.7,-247.1 -1541.3,-480.1 -2450.6,-671.4c-957,-201.4 -1860.5,-328.6 -2628.3,-382.2c-787.9,-54.6 -1433.2,-31.4 -1847.5,68.9c702.4,500.5 2280.3,1076.1 4162.9,1472.2c1938.3,407.8 3658.6,511.6 4476.7,313.9" fill="#cccbca" fill-rule="nonzero" id="path40"/>
    <path d="m14561.7,26019.2c703.3,246.7 1541.8,480.3 2452.1,671.8c956,201.1 1859,328.3 2626.8,381.8c-702.7,-247.1 -1541.3,-480.1 -2450.6,-671.4c-957,-201.4 -1860.5,-328.6 -2628.3,-382.2" fill="#c3c2c1" fill-rule="nonzero" id="path42"/>
    <path d="m22146.1,28473.6l809.6,-5151.9l0.5,-2.3l4.7,-29.3l87,-553l2152.3,-13692.8c67.3,-322.3 -562.1,-752.6 -1584.1,-1149.1c-659.3,-256.1 -1482.8,-498.7 -2387.4,-689c-2304.8,-484.9 -4263.6,-448 -4375.1,82l-0.2,0.9l-67.8,255.7c3062.5,493.2 4476.2,910.5 5292.1,1618.8c1545.7,455.6 2606.1,1056.5 2516.3,1483.3l-2284,14236.4c11,-107 -319,2706.1 -409.3,3135.3c112.6,128.7 256.4,342.5 245.4,455" fill="#cccbca" fill-rule="nonzero" id="path44"/>
    <path d="m22310,24883.3l2284,-14236.4c89.8,-426.8 -970.6,-1027.7 -2516.3,-1483.3c523.8,454.3 801.4,1029.1 1110.3,1820.8c604.6,1550.3 -174.1,8261.3 -1013.3,13556.1c98.7,120.9 146.3,235.8 135.3,342.8" fill="#ddab1f" fill-rule="nonzero" id="path46"/>
    <path d="m14451.4,21639.4c0,0 1405,136.6 1904.7,379.4c499.7,242.8 1401.3,-8632.7 1166.2,-8771.7c-1265.5,-748.3 -3070.9,8392.3 -3070.9,8392.3" fill="#fffbf5" fill-rule="nonzero" id="path48"/>
    <path d="m23897.5,31215.1c-1.3,20.9 -2.3,42.1 -2.9,63.4c-0.3,14.7 -6.3,28.6 -16.4,39.1c-1184.3,1232 499.4,2986 954.7,3315.9c32.8,23.8 78.3,7.4 90.1,-31.2c115.6,-378.6 828.1,101.1 1287,262.2c43.3,15.2 85.8,-23.9 75.4,-68.5c-120.2,-522 392.4,-280.7 973.9,-39.2c36.6,15.1 76.5,-10 80.3,-49.4c26.1,-272 599.7,-206.9 1143.3,-37.9c32.4,10 67.4,-8.9 74.7,-42.1c63.4,-287.8 749.8,-433.2 1207.1,-226.7c44.4,20.1 92.1,-20.2 80.2,-67.4c-79.4,-313.8 -55.9,-434.5 567.8,-298.6c25.1,5.5 46.6,-5 59.2,-22.1c-1645,-1052.7 -4766.7,-2223.4 -6574.4,-2797.5" fill="#217c5c" fill-rule="nonzero" id="path50"/>
    <path d="m24748.6,34180.5c32.8,23.8 78.3,7.5 90.1,-31.1c115.6,-378.7 828.1,101 1286.9,262.1c43.4,15.2 85.9,-23.8 75.5,-68.5c-120.3,-522 392.4,-280.6 973.9,-39.2c36.5,15.1 37,-154.5 85.6,-251c122.9,-244 356.7,13.3 900.3,182.4c32.4,10 67.4,-9 74.7,-42.1c63.4,-287.9 812,-305.5 1269.4,-99c44.3,20.1 92,-20.2 80.1,-67.4c-33.3,-131.5 -164.5,-385.6 166.5,-434.4c261.3,141.1 503.7,281.7 720.3,420.3c-12.6,17.1 -34.1,27.6 -59.2,22.1c-623.7,-135.9 -647.2,-15.2 -567.8,298.6c11.9,47.2 -35.8,87.5 -80.2,67.4c-457.3,-206.5 -1143.7,-61.1 -1207.1,226.7c-7.3,33.2 -42.3,52.1 -74.7,42.1c-543.6,-169 -1117.2,-234.1 -1143.3,37.9c-3.8,39.4 -43.7,64.5 -80.3,49.4c-581.5,-241.5 -1094.1,-482.8 -973.9,39.2c10.4,44.6 -32.1,83.7 -75.4,68.5c-458.9,-161.1 -1171.4,-640.8 -1287,-262.2c-11.8,38.6 -57.3,55 -90.1,31.2c-330.9,-239.8 -1311,-1232.1 -1366.7,-2229.4c255.1,829.3 1001.9,1573.2 1282.4,1776.4" fill="#1b755f" fill-rule="nonzero" id="path52"/>
    <path d="m23897.5,31215.1c1807.7,574.1 4929.4,1744.8 6574.4,2797.5c15.3,-20.8 17.2,-51.4 -4.3,-74.4c-355.7,-379.4 -465.1,-802.8 -317,-943c28,-26.5 21.1,-73 -12.3,-92.5c-472.3,-274.3 -565.9,-561.4 -453.7,-689.4c25.5,-29.1 17.1,-74.3 -17.7,-91.1c-359.6,-174.1 -763,-503.8 -687.8,-751.2c10.8,-35.4 -13,-71.9 -49.9,-75.4c-521.7,-48.6 -1089.6,-502.7 -878.7,-709c33.1,-32.3 15.1,-88.8 -30.2,-98.6c-578.6,-126.3 -1026.1,-71.1 -971,-452.2c5.2,-35.9 -23,-68 -59.3,-66.9c-769.5,24.9 -1352.6,257.7 -1317.1,-84.1c3.3,-31.5 -19.4,-60 -50.9,-63.6c-497.4,-55.5 -1651.9,233.4 -1724.5,1393.9" fill="#338e6b" fill-rule="nonzero" id="path54"/>
    <path d="m30180.7,33834c-2342.7,-1266 -4880.1,-2191.4 -7447.3,-2883.4c-81.4,-14.7 -55.8,-145 26.8,-124.6c2565,734.3 5090.8,1701.3 7420.5,3008" fill="#6ccc96" fill-rule="nonzero" id="path56"/>
    <path d="m28586,34262.3c-368.4,-422 -428.7,-992.1 -588,-1500.1c197.7,-262.1 994.5,-598.5 1330.5,-618.8c-434.9,74.7 -969.6,329.2 -1301.7,615.7c159.2,504.2 211.3,1069.3 559.2,1503.2" fill="#6ccc96" fill-rule="nonzero" id="path58"/>
    <path d="m27019.1,34267.5c-287.3,-484.3 -468.4,-1024.4 -643.3,-1557.4c-49.7,-220 -179,-460.5 -147.8,-683.5c626.3,-313.2 1214.9,-760.1 1892.2,-950.8c-651.7,200.2 -1280.6,678.8 -1874.9,973.3l0.2,0.2c139,764.2 421.6,1524.4 773.6,2218.2" fill="#6ccc96" fill-rule="nonzero" id="path60"/>
    <path d="m24942.8,34283.5c-201.3,-602.9 -310.6,-1232.9 -428,-1856.4c-37.7,-345.5 -170.5,-719.9 -115.6,-1058.7c599.7,-353.9 1173,-829.8 1861.9,-988.2c-685.1,176.1 -1250.9,659.6 -1852.1,1014.4c1.1,0.2 2.6,-1.2 2.7,-2c73.3,971.7 279.1,1948.6 531.1,2890.9" fill="#6ccc96" fill-rule="nonzero" id="path62"/>
    <path d="m23075.6,32515.9c-11.8,10.6 -23.6,21.5 -35.4,32.7c-8,7.7 -18.4,12.5 -28.9,13.5c-1240,117 -1356.7,1835.9 -1310.8,2223.1c3.3,27.8 34.3,40.1 60.7,24.7c259.6,-150.4 351,435.8 489.1,733.8c13.1,28.2 54.8,26.7 73.7,-2.1c221,-336.1 342.4,29.9 497.5,427.6c9.7,25 42.7,29.9 65.7,10.4c158.7,-134.2 404.4,165 579.7,506.4c10.5,20.3 37.8,26.2 59.1,11.7c185.4,-125.6 599.1,112.4 712.2,434.2c10.9,31.2 55.8,31.5 75.3,0.6c129.4,-205.3 205.7,-259.4 437.9,101c9.4,14.5 25.5,18.8 40.8,15.4c-240.4,-1323.9 -1139.9,-3391.6 -1716.6,-4533" fill="#217c5c" fill-rule="nonzero" id="path64"/>
    <path d="m21902.1,34502.7c3.3,27.9 34.3,40.1 60.8,24.7c259.5,-150.3 350.9,435.9 489.1,733.9c13,28.1 54.7,26.7 73.6,-2.1c221,-336.1 342.4,29.9 497.5,427.6c9.7,24.9 100.9,-66.1 176.4,-95.6c191,-74.6 167.4,171.5 342.7,512.8c10.5,20.3 37.8,26.2 59.1,11.8c185.4,-125.6 561.1,209.7 674.2,531.5c10.9,31.2 55.8,31.5 75.3,0.7c54.2,-86.1 126.3,-283.2 314.3,-157c52.3,196.3 95.5,383.6 127.1,557.9c-15.3,3.4 -31.4,-0.9 -40.8,-15.4c-232.2,-360.4 -308.5,-306.3 -437.9,-101c-19.5,30.9 -64.4,30.6 -75.3,-0.6c-113.1,-321.8 -526.8,-559.8 -712.2,-434.2c-21.3,14.5 -48.6,8.6 -59.1,-11.7c-175.3,-341.4 -421,-640.6 -579.7,-506.4c-23,19.5 -56,14.6 -65.7,-10.4c-155.1,-397.7 -276.5,-763.7 -497.5,-427.6c-18.9,28.8 -60.6,30.3 -73.7,2.1c-138.1,-298 -229.5,-884.2 -489.1,-733.8c-26.4,15.4 -57.4,3.1 -60.7,-24.7c-33.4,-281.5 19.2,-1266.6 526.6,-1828.6c-319.8,563.5 -353.3,1307.6 -325,1546.1" fill="#1b755f" fill-rule="nonzero" id="path66"/>
    <path d="m23075.6,32515.9c576.7,1141.4 1476.2,3209.1 1716.6,4533c18.7,-4.1 36,-19.7 37.8,-42c29.4,-368 202.9,-646 350.5,-653.2c27.9,-1.3 49.5,-29.5 43.6,-55.4c-84,-365.1 24.2,-562.6 147.7,-579.7c28,-3.9 48.1,-32.1 40.1,-57.2c-82.5,-259.3 -103.1,-622.4 66.3,-720.8c24.3,-14.1 32.2,-44.7 16.1,-63.6c-229.3,-266.4 -263.6,-772.2 -49.8,-786.1c33.5,-2.1 55,-40.8 38.1,-66.9c-215.4,-334.5 -463.9,-510.9 -232.6,-690.5c21.8,-16.9 25.2,-47.1 6.8,-63.2c-389.8,-341.2 -799.9,-484.6 -599.3,-652.1c18.5,-15.4 22.7,-41.2 9.2,-57.6c-213.6,-258.9 -933.3,-635.4 -1591.1,-44.7" fill="#338e6b" fill-rule="nonzero" id="path68"/>
    <path d="m24745.5,36818.7c-467.4,-1760.1 -1212.6,-3426.6 -2097.6,-4981.3c-31.9,-45.5 50.5,-103.7 80,-54.7c861.2,1576.5 1578.5,3260.1 2017.6,5036" fill="#6ccc96" fill-rule="nonzero" id="path70"/>
    <path d="m23735.6,36314.4c46.1,-396.6 322.2,-731 516.7,-1077.6c237.3,-49.9 807.5,136.3 982.7,280.1c-252.8,-160.1 -650.8,-269.6 -966.9,-268.5c-192.5,344.5 -470,672.4 -532.5,1066" fill="#6ccc96" fill-rule="nonzero" id="path72"/>
    <path d="m22966.3,35595.4c119.1,-392.8 320.1,-766.7 520.3,-1133.9c93.6,-141.2 159.3,-330.1 294.2,-435.7c474.3,120.1 1001.8,150.9 1435.5,360.3c-426.2,-192.5 -990.5,-224.8 -1439.1,-340.2l0,0.2c-341.8,475 -611.1,1014 -810.9,1549.3" fill="#6ccc96" fill-rule="nonzero" id="path74"/>
    <path d="m21941.8,34647.6c224.9,-417 509.2,-806.2 786,-1195.6c166.8,-203.2 302.6,-465.7 511.1,-622.6c483.2,85.9 1018.8,94.1 1440.8,326.2c-429.6,-220.8 -965.6,-221.5 -1450,-307.6l2.3,0.2c-485.1,556.3 -908.2,1176.5 -1290.2,1799.4" fill="#6ccc96" fill-rule="nonzero" id="path76"/>
    <path d="m25685.8,31486c52.6,-279.6 80.4,-567.3 81.3,-862.1c0.6,-240.5 -17.1,-476.7 -52.3,-707.4c-301.6,-2011.2 -3968.3,-3779.8 -3968.3,-3779.8l-371.4,685.6l-231.8,427.2l-192.6,355.1l-2.4,4.3l-396.4,731.4l-53.4,-70.9l-905.3,-1214.6l-1.5,-2.3l-2.1,1c-320.1,-109.7 -663.1,-215.5 -1024.7,-315.2c-20.3,-6.2 -41.2,-12 -62.3,-17.4c-759,505.9 -1361.8,1227.5 -1720.1,2077.6c-136.3,323.1 -237.6,664.7 -298.4,1020c-44.7,256.3 -68.1,520.4 -68.3,788.9c-0.5,240.5 17.3,476.2 51.5,707.2c290.4,1938.5 1771.1,3487.8 3675.6,3880.4c0.9,0.2 2.2,0.9 4.2,0.8c111.7,22.6 225.1,41.6 339.5,56.1c195.2,26.1 394.6,39.2 596.2,39.3c277.1,0.5 547.7,-22.9 811,-69.1c392.5,-67.5 767.9,-184.4 1119.9,-343.3c1368.4,-618.3 2386.6,-1875.7 2672.1,-3392.8" fill="#f4bb06" fill-rule="nonzero" id="path78"/>
    <path d="m21361.8,30335.1c-71.6,81.7 282.5,144.2 388.5,113.6l2492,-857.9c246.9,-66.5 370.7,-343.6 254.2,-572.2c-228.2,-333.4 -558.9,-1545.5 -1152.1,-965.7l-1982.6,2282.2zm-346.2,721.3c-176.3,-145.9 -763.6,699.3 -2083.2,2183.6c-172.8,203.8 -127.6,515 98.8,658c429.9,246.3 1790.5,1044.2 1881.1,121.9c67.3,-1829.5 266.3,-2828.1 103.3,-2963.5zm-242.3,-232.4c-20,-33.1 -76.8,-33 -114,-23.1l-2679.9,783.3c-763,275.4 83.3,1267.3 277.4,1595.9c151,192.5 440.9,198.7 600.1,11.8l1847.6,-2201c45.6,-52 100.1,-121.4 68.8,-166.9zm-98.7,-770.6l-540,-850.9l-911.9,-1436.9c-139.7,-205 -431.3,-232.7 -608.1,-58.1c-189.3,245.5 -956.2,836.8 -906.8,1263.1c13,114.3 84.8,217 242.9,297.9l2668.9,1066.9c78.2,33.3 1.8,-134.4 54.9,-176.1c43.5,-35.2 30.9,-60 0.1,-105.9zm1135.8,743.3l2491.2,1010.2c805.9,241.3 662.5,-1204.7 635.6,-1678.2c-30.7,-249.9 -278.8,-413.3 -522.2,-347.6l-2662.5,798.9c-59.2,11.6 -55.5,211.2 57.9,216.7zm1127,3182.4c209.7,-102.6 279.1,-368.1 147.4,-561.3l-1550.7,-2238.9c-36.4,-53.3 -144,-29.3 -200.5,1.7c-73.5,37.9 -185.6,53.8 -183.2,159.2l-20.5,2677.8c122.1,906.3 1323.1,147.9 1807.5,-38.5zm-5538.9,-4311.3c-12.8,401.6 -478.1,1965.9 384.1,1811.4l2651.7,-747.7c37.6,-9.9 60.5,-45.5 58.1,-84.1c-15.6,-76.9 57.8,-188 -37.9,-229.3l-2510.9,-1056.2c-237.9,-95.3 -502.6,53.5 -545.1,305.9zm7024.9,2820.3c143.3,-221.1 49.1,-516.7 -195.6,-614.4l-2447.9,-952.5c-35.5,-14.2 -77.3,-0.8 -96.8,32.1c-0.5,0.4 -59.6,100.6 -42,126.4l1511.7,2280.2c503.2,595.8 1019.1,-575.4 1270.6,-871.8zm-3333.1,2968.8c-2903,89.4 -5109.7,-2586.3 -4753.9,-5396.1c10.5,-83.9 23.9,-168.2 38.7,-252.2c44,-367.1 130.7,-715.1 254.8,-1042.2c328.3,-869.4 917.1,-1588.7 1653.1,-2104.2c34.3,8.6 68.5,17.7 102.2,26.8l117.4,31.9c21.1,5.4 42,11.2 62.3,17.4c361.6,99.7 704.6,205.5 1024.7,315.2c-51.1,18.6 -98.1,36.2 -139.2,51.1c-227,106.7 -303.8,391.4 -162.6,598.7l1049.3,1499.9l548.8,784c28.5,44.9 103.9,20.9 102.3,-31.4l-13.1,-783.9l-26.8,-1563l2.4,-4.3l192.6,-355.1c3.1,159 5.3,311.1 6.4,456.6c4.8,590.1 -2.8,1070.3 -6.9,1446.2c-16.6,1790.2 66.9,1212.4 2146.8,-1172.5c162.2,-190.2 118.5,-479 -90.5,-615.4c-314.8,-194.2 -1352.5,-747 -1824,-542.1l371.4,-685.6l149.9,-275.5l14.4,-27.3c270.8,44.5 540.3,112.7 806.5,206.3c4950.3,1669.6 3751.1,9530.8 -1627,9416.7" fill="#fffbe0" fill-rule="nonzero" id="path80"/>
    <path d="m21178.3,35690.5c-612.1,-0.3 -1274.6,-188.8 -1787.8,-355l-44.5,-15.1c-2029.9,-675 -3235.6,-2533.6 -3231.4,-4713.3c1,-661.1 107.3,-1299 309.5,-1885c296.6,-860.6 801.5,-1608.7 1487,-2154.1c12.4,2.7 24.8,5.7 37.1,8.8c82.9,20.3 164.7,40.9 245.5,61.8c30.1,7.7 59.8,15.4 89.3,23.6c34.3,8.6 68.5,17.7 102.2,26.8c-194.9,132.7 -379,282.6 -552.8,449.6c-471.6,455.2 -837.8,1022.1 -1078.1,1654.4c-124.6,326.6 -215.7,670.8 -270.2,1025.5c-40.3,258.2 -61.2,521.8 -61.6,789.3c-0.5,240.1 14.9,475.8 44.8,706.8c98,750.7 354.2,1445.6 755.9,2040.8c512.1,759.3 1243.3,1323.7 2119,1637.9c9.8,3.5 19.2,6.9 28.7,9.9c24.1,8.9 47.9,17.3 72.2,25.3l42.3,13.7c317.2,102.8 652.3,172.9 1001.2,209.7c194.2,21.6 393.2,31.7 596.3,32.1c276,0.8 547.2,-20.6 810.9,-61.9c996.6,-155.1 1888.1,-602.3 2565.7,-1297.6c491.2,-504.5 853.4,-1116.5 1069,-1793.5c3.9,-11.7 7.9,-23.8 11.3,-35.6c61.4,-197.9 110.1,-401.8 146,-609.4c48.4,-280.5 74,-568.7 74,-861.7c0.5,-240.1 -14.3,-476.6 -45,-707.8c-51.7,-401.7 -150.3,-788.7 -293.3,-1156.6c-482.3,-1234.8 -1435.6,-2143.3 -2684.3,-2558.2c-290.5,-96.7 -840.8,-340.5 -840.8,-340.5l14.4,-27.3l43.1,-79l23.6,-43.6c311,47.6 608.7,115 857.4,197.7c1376,457.5 2374.3,1460.6 2873.4,2739c237.1,607.1 361.2,1275.2 360.3,1977.2c-5.5,2743.5 -1938,5070.9 -4890.3,5065.3" fill="#ffea8c" fill-rule="nonzero" id="path82"/>
    <path d="m21082.3,35748.7c-631.7,-1 -1215.7,-93.6 -1744.6,-265c-15.9,-4.8 -31.2,-9.9 -46.4,-15.1c-2093.9,-696 -3336.7,-2614 -3333,-4861.7c1.2,-671.6 116.8,-1319.1 334,-1914.9c309.6,-849.3 825.2,-1593.1 1509.8,-2150.3c36.7,8.7 72.9,17.3 109,26.3c12.4,2.7 24.8,5.7 37.1,8.8c-92,73.5 -181.7,152.4 -268.7,236.6c-522.7,503.1 -929.6,1179.3 -1188.6,1923.2c-208.1,597.8 -321.5,1239.5 -322.4,1870.7c-1.4,1074.9 290.2,2077.1 844.2,2897.7c561,831.3 1370.6,1441 2341.3,1763.7l43.7,14.4c521.8,168.5 1197.9,319.9 1794.5,320.8c1392.7,2.4 2547.3,-571.9 3451.3,-1499.2c881.9,-904.5 1368.6,-2140.5 1370.8,-3479.8c1.8,-692.7 -118.4,-1354.2 -357.4,-1965.6c-508.2,-1301.9 -1513,-2260.7 -2829.5,-2698.5c-279,-92.3 -571,-161.5 -873.5,-205.9l23.6,-43.6l82.2,-152.6c289.9,47 566.7,115.4 830.4,202.6c1418.6,471.7 2448.9,1506.2 2963.6,2824.8c243.7,625.9 372.5,1315.2 370.8,2039.2c-5,2830.2 -2098,5129.2 -5142.2,5123.4" fill="#f47d1f" fill-rule="nonzero" id="path84"/>
    <path d="m18264.3,30885.3c-4.7,6.6 -9.3,13.3 -13.9,20c-11.2,12.1 -24.5,20.9 -40.1,26.1c-50.2,10.8 -100.5,21.5 -150.8,32.3c-12,4.5 -24.2,5.8 -36.6,3.7c-12.8,0.2 -24.9,-2.9 -36.4,-9.3c-20.1,-10.4 -39.8,-31.8 -46.1,-54c-6.8,-23.8 -7.1,-50.9 5.6,-73l13.9,-20c11.1,-12.2 24.5,-20.9 40.1,-26.1c50.2,-10.8 100.5,-21.6 150.8,-32.3c12,-4.5 24.2,-5.8 36.6,-3.8c12.8,-0.1 24.9,3 36.4,9.4c20.1,10.4 39.8,31.8 46.1,54c6.8,23.8 7,50.9 -5.6,73" fill="#fff0c9" fill-rule="nonzero" id="path86"/>
    <path d="m19697.3,30571.7c-16.4,16.5 -39.8,31.4 -64,30.7c-85,-2.2 -169.9,-4.5 -254.9,-6.8c-25.8,-0.7 -49.3,-6.4 -69,-24.3c-16.8,-15.2 -30.4,-40.9 -30.8,-64c-0.4,-24.7 6.3,-50.9 24.2,-69c16.4,-16.6 39.8,-31.4 64,-30.8c85,2.3 169.9,4.6 254.9,6.9c25.8,0.7 49.3,6.3 69,24.2c16.8,15.2 30.4,41 30.8,64c0.4,24.7 -6.3,51 -24.2,69.1" fill="#fff0c9" fill-rule="nonzero" id="path88"/>
    <path d="m18552.6,31838.3c-54.3,31.6 -108.6,63.3 -162.9,94.9c-21.5,12.6 -46,18.5 -70.9,13.3c-22.6,-4.8 -47.5,-20.5 -59.4,-40.7c-12.5,-21 -19.6,-46.6 -13.3,-70.9c6,-23.5 19.1,-46.9 40.7,-59.5l162.9,-94.9c21.6,-12.6 46,-18.5 70.9,-13.3c22.6,4.7 47.5,20.5 59.5,40.7c12.4,21 19.5,46.5 13.2,70.9c-6,23.5 -19,46.9 -40.7,59.5" fill="#fff0c9" fill-rule="nonzero" id="path90"/>
    <path d="m19104,31788.5c-44.6,39.4 -89.1,78.9 -133.7,118.3c-8,9.5 -17.8,16.5 -29.2,20.9c-10.6,6.2 -22.2,9.6 -34.8,9.9c-13.1,1.2 -25.4,-0.8 -37.1,-6.1c-12.1,-3.1 -22.8,-9.2 -32,-18.1c-17,-16.9 -30.3,-39.4 -30.7,-64c0.6,-8.5 1.2,-16.8 1.8,-25.2c3.6,-16.7 11,-31.3 22.4,-43.9l133.7,-118.3c8,-9.6 17.8,-16.5 29.2,-20.9c10.6,-6.3 22.2,-9.6 34.8,-9.9c13,-1.3 25.4,0.7 37.1,6.1c12.1,3.1 22.8,9.2 31.9,18.1c17.1,16.9 30.4,39.4 30.8,64c-0.6,8.4 -1.2,16.8 -1.8,25.2c-3.6,16.6 -11.1,31.3 -22.4,43.9" fill="#fff0c9" fill-rule="nonzero" id="path92"/>
    <path d="m19178.7,32411.5c-72.7,95.1 -165.9,176.6 -269.5,236.7c-21.6,12.5 -45.9,18.5 -70.8,13.3c-22.6,-4.8 -47.5,-20.5 -59.5,-40.7c-24.9,-42 -18.1,-104 27.4,-130.4c40.9,-23.7 79.4,-51.1 115.9,-81.1c42.9,-37.7 82.2,-79 116.9,-124.3c13.7,-17.8 42.3,-29.4 64,-30.8c23.4,-1.4 52.2,7.5 69.1,24.3c17,16.8 30.4,39.3 30.8,64c0.4,26.5 -8.2,48 -24.3,69" fill="#fff0c9" fill-rule="nonzero" id="path94"/>
    <path d="m20192.8,32667.1c-18.7,38.7 -37.4,77.5 -56.1,116.3c-5.4,11.4 -13.1,20.7 -23.1,27.9c-8.6,8.6 -18.9,14.7 -30.9,18.3c-12,4.5 -24.2,5.7 -36.5,3.7c-12.9,0.1 -25,-3 -36.4,-9.4c-20.8,-11.9 -39.4,-30.3 -46.2,-54c-7.1,-24.7 -5.7,-49.4 5.6,-72.9c18.7,-38.8 37.4,-77.6 56.1,-116.4c5.4,-11.3 13.1,-20.6 23.1,-27.8c8.6,-8.7 18.9,-14.8 30.9,-18.3c12,-4.5 24.2,-5.8 36.6,-3.7c12.8,-0.2 24.9,2.9 36.4,9.3c20.7,11.9 39.4,30.3 46.1,54c7.1,24.7 5.7,49.5 -5.6,73" fill="#fff0c9" fill-rule="nonzero" id="path96"/>
    <path d="m20355.1,33518.6c-41.3,92.6 -82.5,185.2 -123.8,277.8c-20,45 -84.5,64.8 -126.9,40.5c-46.4,-26.6 -62,-78.7 -40.5,-127c41.2,-92.5 82.5,-185.1 123.7,-277.7c20.1,-45.1 84.6,-64.8 127,-40.5c46.3,26.5 62,78.6 40.5,126.9" fill="#fff0c9" fill-rule="nonzero" id="path98"/>
    <path d="m20697.1,32411.6c-7.6,24.5 -18.6,45 -40.7,59.5c-19.4,12.6 -48.1,19.1 -70.9,13.3c-23.6,-6.1 -46.6,-19.1 -59.5,-40.8c-12,-20.3 -20.6,-47.3 -13.2,-70.8c20.2,-65 40.4,-130 60.5,-195c7.7,-24.4 18.6,-45 40.8,-59.5c19.3,-12.6 48.1,-19.1 70.8,-13.2c23.6,6 46.7,19.1 59.5,40.7c12.1,20.3 20.6,47.3 13.3,70.8c-20.2,65 -40.4,130 -60.6,195" fill="#fff0c9" fill-rule="nonzero" id="path100"/>
    <path d="m21790.5,33773.7c-3.1,12.1 -9.2,22.8 -18.2,31.9c-8,9.6 -17.7,16.5 -29.1,20.9c-10.7,6.3 -22.3,9.6 -34.9,9.9c-24.7,0.4 -50.9,-6.3 -69,-24.2c-5.2,-6.1 -10.4,-12.3 -15.6,-18.4c-9.1,-13.9 -14.1,-29.1 -15.2,-45.6c-7.1,-44.1 -14.2,-88.1 -21.3,-132.1c-1.3,-13.1 0.7,-25.4 6,-37.1c3.2,-12.2 9.2,-22.8 18.2,-32c8,-9.5 17.8,-16.5 29.2,-20.9c10.6,-6.2 22.2,-9.5 34.8,-9.8c24.7,-0.5 50.9,6.3 69.1,24.2c5.2,6.1 10.4,12.2 15.6,18.3c9,13.9 14,29.1 15.1,45.7c7.1,44 14.3,88 21.4,132.1c1.2,13 -0.8,25.4 -6.1,37.1" fill="#fff0c9" fill-rule="nonzero" id="path102"/>
    <path d="m21622.1,32607.4c-50.1,14.3 -101.3,-10.1 -119.2,-59.6c-32.4,-90.1 -64.9,-180.2 -97.4,-270.3c-16.7,-46.4 11.5,-105.4 59.6,-119.1c50.1,-14.4 101.3,10 119.2,59.6c32.4,90.1 64.9,180.1 97.4,270.2c16.7,46.4 -11.5,105.4 -59.6,119.2" fill="#fff0c9" fill-rule="nonzero" id="path104"/>
    <path d="m22254.2,33172.2c-15.2,16.7 -41,30.4 -64,30.7c-24.7,0.5 -51,-6.3 -69.1,-24.2c-18.2,-18 -27.1,-38.6 -30.7,-64c-0.7,-4.8 -1.7,-9.6 -2.5,-14.4c-9.9,-47.1 -25.1,-92.9 -45.5,-136.5c-1.7,-3.3 -3.3,-6.7 -5.1,-10c-12,-22.4 -18.7,-45.1 -13.2,-70.9c4.7,-22.6 20.4,-47.5 40.7,-59.5c20.9,-12.4 46.5,-19.5 70.8,-13.2c23,5.9 47.8,18.9 59.5,40.7c21.1,39.1 39.8,79.7 53.8,121.9c13.9,42.3 23.2,86.3 29.5,130.3c3.4,23 -9.1,52.4 -24.2,69.1" fill="#fff0c9" fill-rule="nonzero" id="path106"/>
    <path d="m23268.4,32581c-12,20.8 -30.3,39.4 -54,46.1c-8,1.6 -16,3.2 -24,4.7c-17.2,1 -33.6,-2.5 -49,-10.3c-68.7,-27 -137.4,-54 -206.1,-80.9c-20.7,-8.2 -39.4,-33.7 -46.1,-54c-7.4,-22.2 -6.2,-52.3 5.6,-73c11.9,-20.7 30.3,-39.4 54,-46.1l23.9,-4.7c17.3,-1 33.6,2.5 49,10.3c68.7,27 137.4,54 206.1,81c20.7,8.1 39.4,33.7 46.2,53.9c7.4,22.2 6.2,52.3 -5.6,73" fill="#fff0c9" fill-rule="nonzero" id="path108"/>
    <path d="m23670.9,32219.4c-16,16.1 -40.2,32.3 -64,30.8c-92.6,-6.1 -182.6,-21 -270.4,-51.4c-24.7,-8.5 -44.7,-17.9 -59.5,-40.7c-12.7,-19.3 -19.2,-48.1 -13.3,-70.8c6.1,-23.7 19.1,-46.7 40.7,-59.5c19.9,-11.9 47.9,-21.3 70.9,-13.3c76.1,26.3 155.2,42.7 235.6,48.8c-4.5,-0.3 -8.9,-0.7 -13.3,-1c25.3,1.8 47,6.1 66.8,24c16.7,15.2 30.4,41 30.7,64c0.5,24.7 -6.3,51 -24.2,69.1" fill="#fff0c9" fill-rule="nonzero" id="path110"/>
    <path d="m23514.2,30992.5c-20.2,12 -47.4,20.7 -70.9,13.3c-40.6,-12.9 -82.4,-20.9 -124.7,-25c-17.5,-0.9 -34.9,-1.6 -52.4,-1c-24.9,0.8 -50.5,-7.4 -69.1,-24.3c-16.7,-15.2 -30.4,-40.9 -30.7,-63.9c-0.5,-24.8 6.3,-51 24.2,-69.1c17,-17.2 39.2,-30 64,-30.8c76.5,-2.5 154.4,6.6 227.5,29.7c24.6,7.8 45,18.5 59.5,40.7c12.7,19.4 19.2,48.2 13.3,70.9c-6.1,23.6 -19.1,46.7 -40.7,59.5" fill="#fff0c9" fill-rule="nonzero" id="path112"/>
    <path d="m24314.7,30571.5c-11.5,20.1 -30.5,40.9 -54,46.2c-77.5,17.4 -155.1,34.9 -232.6,52.3c-25.4,5.7 -49,6.7 -73,-5.7c-20.2,-10.4 -39.8,-31.7 -46.2,-53.9c-6.8,-23.8 -7,-50.9 5.7,-73c11.4,-20 30.4,-40.9 53.9,-46.2c77.6,-17.4 155.1,-34.8 232.7,-52.3c25.4,-5.6 49,-6.7 73,5.7c20.1,10.4 39.8,31.8 46.1,54c6.8,23.7 7,50.8 -5.6,72.9" fill="#fff0c9" fill-rule="nonzero" id="path114"/>
    <path d="m22934.9,29312.1c-45.9,50.2 -91.8,100.4 -137.7,150.6c-16.1,17.5 -40.3,29.3 -64,30.8c-23.4,1.4 -52.2,-7.5 -69.1,-24.3c-17,-16.8 -30.4,-39.3 -30.8,-64c-0.4,-25.3 6.8,-50 24.3,-69c45.9,-50.2 91.8,-100.4 137.7,-150.6c16,-17.5 40.3,-29.3 64,-30.8c23.3,-1.4 52.2,7.5 69.1,24.3c17,16.8 30.3,39.3 30.8,64c0.4,25.3 -6.9,50 -24.3,69" fill="#fff0c9" fill-rule="nonzero" id="path116"/>
    <path d="m23837,29277.6c-83.1,54.9 -166.2,109.9 -249.3,164.9c-20.1,13.3 -47.4,18.2 -70.9,13.3c-22.6,-4.8 -47.5,-20.5 -59.5,-40.7c-26.1,-44.2 -16.4,-101.3 27.5,-130.4c83.1,-55 166.2,-109.9 249.3,-164.9c20,-13.3 47.4,-18.2 70.8,-13.3c22.6,4.8 47.5,20.5 59.5,40.7c26.2,44.1 16.5,101.3 -27.4,130.4" fill="#fff0c9" fill-rule="nonzero" id="path118"/>
    <path d="m23659.7,28782.9c-24.4,14.2 -47.4,30.5 -69.4,48.2c-17.6,15.6 -34.7,31.9 -50.2,49.6c-15.5,17.6 -40.7,29.3 -64,30.8c-13.1,1.2 -25.4,-0.8 -37.1,-6.1c-12.2,-3.2 -22.8,-9.2 -32,-18.2c-17,-16.8 -30.3,-39.3 -30.8,-64c-0.4,-25.5 7.1,-49.5 24.3,-69c24.9,-28.3 52.7,-53.3 81.7,-77.3c23.4,-19.3 48.4,-36.6 74.6,-51.8c21.6,-12.5 46,-18.5 70.9,-13.3c22.6,4.8 47.5,20.5 59.5,40.7c12.4,21 19.5,46.6 13.2,70.9c-6,23.5 -19,46.9 -40.7,59.5" fill="#fff0c9" fill-rule="nonzero" id="path120"/>
    <path d="m21560.4,29357.2c-49.4,0.8 -98.6,-35.6 -99.8,-88.3c-1.4,-57.9 -6.2,-115.6 -14.7,-172.9c-2.1,-14.1 -4.5,-28.1 -7,-42.1c-0.3,-1.8 -0.5,-2.6 -0.7,-3.7c-1.4,-6.7 -2.7,-13.4 -4.2,-20.1c-6.3,-28.8 -13.6,-57.4 -21.6,-85.7c-13.5,-47.4 9.2,-104.7 59.6,-119.1c47.3,-13.6 104.7,9 119.1,59.6c34.5,121 54.6,246.6 57.6,372.4c1.1,49.2 -36.1,99 -88.3,99.9" fill="#fff0c9" fill-rule="nonzero" id="path122"/>
    <path d="m22284.4,28497.6c-34,51.9 -72,100.1 -117.6,142.2c-18.4,17 -38.2,29.2 -64,30.8c-23.3,1.4 -52.1,-7.5 -69.1,-24.2c-33.6,-33.3 -45.2,-97.4 -6.5,-133.1c32.8,-30.3 61.9,-63.9 87.9,-100c29,-44.2 52.9,-91.3 70.7,-141.2c-2.1,6 -4.2,11.9 -6.3,17.8c8.4,-24.1 17.8,-43.6 40.2,-58.3c19.4,-12.6 48.1,-19.1 70.9,-13.2c23.6,6 46.7,19.1 59.5,40.7c11.8,19.9 21.2,47.9 13.3,70.8c-20.5,59 -44.7,115.3 -79,167.7" fill="#fff0c9" fill-rule="nonzero" id="path124"/>
    <path d="m21670.3,28023.6c-49.5,-12.7 -83.7,-59.8 -72.8,-111.5l48.3,-229.9c10.2,-48.2 62.3,-85.5 111.6,-72.8c49.5,12.8 83.7,59.9 72.8,111.6l-48.4,229.9c-10.1,48.2 -62.2,85.5 -111.5,72.7" fill="#fff0c9" fill-rule="nonzero" id="path126"/>
    <path d="m20707.4,29201.3c-10.2,7.2 -21.4,11.5 -33.6,12.8c-12.2,3.4 -24.6,3.6 -37.2,0.4c-23.6,-6 -46.7,-19.1 -59.5,-40.7c-12.6,-21.1 -19.2,-46.2 -13.3,-70.8c0.5,-2.2 0.6,-4.4 1,-6.5c0,-4.8 -0.3,-9.6 -0.8,-14.3c-1.2,-4.1 -2.4,-8.1 -3.9,-12c-2.7,-4.4 -5,-9 -8.1,-13.1c-7.2,-10.2 -11.5,-21.4 -12.8,-33.6c-3.5,-12.2 -3.6,-24.6 -0.5,-37.2c2.2,-12.8 7.3,-24.1 15.4,-33.9c6.1,-10.6 14.6,-19.1 25.3,-25.6c21,-12.4 46.6,-19.6 70.9,-13.3c7.9,2.8 15.8,5.6 23.8,8.5c14.7,7.6 26.6,18.4 35.7,32.2c11.1,14.4 18.5,30.8 26.1,47.2c4.6,9.9 8.1,20.2 10.3,30.9c3.7,17.7 7.8,35.5 7.6,53.7c-0.2,18.5 -1.3,37.7 -5.7,55.8c-5.7,23.9 -19.9,45.9 -40.7,59.5" fill="#fff0c9" fill-rule="nonzero" id="path128"/>
    <path d="m20048.4,29786.3c-11.9,20.8 -30.3,39.4 -54,46.2c-24.5,7 -49.7,5.9 -72.9,-5.7c-38.5,-19.2 -77,-38.5 -115.5,-57.7c-21,-10.6 -38.8,-31.8 -46.2,-54c-4.5,-12 -5.7,-24.2 -3.7,-36.6c-0.2,-12.8 2.9,-24.9 9.4,-36.4c11.9,-20.8 30.2,-39.4 53.9,-46.2c24.6,-7 49.7,-5.9 73,5.7c38.5,19.3 77,38.5 115.5,57.8c21,10.5 38.8,31.7 46.2,53.9c4.5,12 5.7,24.2 3.7,36.6c0.2,12.8 -3,25 -9.4,36.4" fill="#fff0c9" fill-rule="nonzero" id="path130"/>
    <path d="m18888.1,29146.9c-3.2,12.2 -9.2,22.8 -18.2,32c-16.8,17 -39.3,30.3 -64,30.7c-24,0.4 -52.2,-5.8 -69,-24.2c-6.7,-7.3 -14.5,-13.3 -22.2,-19.3c-5.2,-3 -10.5,-5.6 -16,-8c-7.6,-2.1 -15.4,-3.7 -23.3,-4.7c-2.9,-0.3 -5.8,-0.6 -8.6,-1.2l-0.5,-0.1l0.4,0c-4.9,-1.1 -9.7,-2.3 -14.4,-4.4c-12.1,-3.1 -22.8,-9.2 -31.9,-18.1c-9.6,-8.1 -16.5,-17.8 -20.9,-29.2c-6.3,-10.6 -9.6,-22.2 -9.9,-34.8c-0.4,-24.7 6.3,-51 24.2,-69.1c6.1,-5.2 12.3,-10.4 18.4,-15.6c13.9,-9 29.1,-14.1 45.6,-15.2c19.1,1.3 38.2,2.1 56.9,6.9c18.7,4.7 37.4,11.4 54.9,19.6c17,8.1 32.4,19.2 47.6,30.2c9.5,6.9 18.3,14.8 26.2,23.4c9.5,8.1 16.5,17.8 20.8,29.2c6.3,10.6 9.6,22.2 10,34.8c1.2,13.1 -0.8,25.4 -6.1,37.1" fill="#fff0c9" fill-rule="nonzero" id="path132"/>
    <path d="m19454.9,29219.9c-32.8,33.2 -97.9,45.8 -133.1,6.5c-123.9,-138.6 -239.7,-284.2 -345.3,-437.3c-28,-40.7 -15.6,-104.9 27.4,-130.4c44.9,-26.6 100.5,-15.9 130.4,27.5c49.7,72.1 101.7,142.8 155.8,211.7c26.7,34 53.9,67.6 81.6,100.7c3.3,3.9 6.5,7.8 9.8,11.7c1.3,1.5 11.7,14.4 4.5,5.3c-8,-10.1 5.5,6.3 7.1,8.2c3.3,3.9 6.6,7.7 9.9,11.6c15,17.3 30.1,34.4 45.4,51.4c16.9,18.9 29.1,37.8 30.7,64c1.5,23.4 -7.4,52.2 -24.2,69.1" fill="#fff0c9" fill-rule="nonzero" id="path134"/>
    <path d="m18408,30264.2c-152.5,-10.8 -304.9,-21.7 -457.3,-32.5c-26.5,-1.9 -48.6,-5.6 -69.1,-24.2c-16.8,-15.2 -30.4,-41 -30.8,-64c-0.7,-45.5 35.7,-103.6 88.3,-99.9c152.4,10.9 304.8,21.7 457.3,32.5c26.4,1.9 48.5,5.7 69,24.3c16.8,15.2 30.4,41 30.8,64c0.8,45.4 -35.7,103.5 -88.2,99.8" fill="#fff0c9" fill-rule="nonzero" id="path136"/>
    <path d="m16034,26012.9c-353.3,-55.1 -694.5,-98.5 -1019.2,-131.2l-86.8,168c161,14.6 327,33.2 497.6,54.6c33,3.6 66.3,7.7 100,12.4c18.7,2.5 37.4,5 56.1,7.5c33.8,4.2 67.9,9 102.5,13.9c43.6,5.8 87.5,12.1 131.8,18.5c22,3.2 43.9,6.4 66.3,9.7c22,3.1 44.4,6.4 66.8,9.7l84.9,-163.1" fill="#efefef" fill-rule="nonzero" id="path138"/>
    <path d="m15425.6,26104.3c-170.6,-21.4 -336.6,-40 -497.6,-54.6c161.3,15.6 327,33.2 497.6,54.6" fill="#ad689d" fill-rule="nonzero" id="path140"/>
    <path d="m15949.1,26176c-44.8,-6.6 -89.1,-13.5 -133.1,-19.4c43.9,6.4 88.3,12.8 133,19.8l0.1,-0.4" fill="#ad689d" fill-rule="nonzero" id="path142"/>
    <path d="m16818,23171.4c-117.3,-55.5 -235.3,-96.2 -338.8,-118.9l-1464.4,2829.2c324.7,32.7 665.9,76.1 1019.2,131.2l1275.2,-2465.3l5.5,-10.4c45.9,-112.5 -193.8,-222.2 -496.7,-365.8" fill="#ad689d" fill-rule="nonzero" id="path144"/>
    <path d="m15949,26176.4c-356.7,-54.3 -698.8,-96 -1021,-126.7l-445,859.3l-4714.26,9107.3l859.36,444.6l4790.4,-9258.9l530.5,-1025.6" fill="#db70bd" fill-rule="nonzero" id="path146"/>
    <path d="m16479.2,23052.5l-0.4,-0.1c-155.5,-34.2 -279.5,-28 -321.5,29.6l-0.5,0.3l-10.6,20.4l-0.1,0.5l-6616.46,12789.2l239.1,123.9l6710.46,-12963.8" fill="#db70bd" fill-rule="nonzero" id="path148"/>
    <path d="m15014.8,25881.7c-98.9,-10.2 -196.6,-19.2 -292.2,-26.8l-87.7,169.7c25.5,2 51.6,4.1 77.6,6.2c37,2.5 74.8,5.7 112.6,9.3c34,2.8 68.5,6.2 102.9,9.6l86.8,-168" fill="#efefef" fill-rule="nonzero" id="path150"/>
    <path d="m16476.2,23057.6l2.6,-5.2c-155.5,-34.2 -279.5,-28 -321.5,29.6l-0.5,0.3l-10.6,20.4l-0.1,0.5l-1423.5,2751.7c95.6,7.6 193.3,16.6 292.2,26.8l1464.4,-2829.2c-0.8,1.7 -1.7,3.5 -3,5.1" fill="#8c6082" fill-rule="nonzero" id="path152"/>
    <path d="m14928,26049.7c-99.5,-9.9 -197.4,-18 -293.1,-25.1l-410.2,792l-4695.06,9075.8l239.1,123.9l4714.26,-9107.3l445,-859.3" fill="#c15da7" fill-rule="nonzero" id="path154"/>
    <path d="m10629.2,36459c-52.8,111.4 -326.2,58.1 -632.69,-87.3c-306.49,-145.4 -519.08,-368.6 -466.23,-480c52.85,-111.4 351.12,-68.8 657.62,76.6c306.5,145.4 494.2,379.3 441.3,490.7" fill="#eaa2d9" fill-rule="nonzero" id="path156"/>
    <path d="m22354.8,19667.2c30.9,-146.5 31.6,-292.3 6.5,-431.1c-549,-45.3 -1199.3,-330.8 -1675.2,-762.3c-859.2,470.1 -641.1,1886.6 341.7,2057.8c605.2,127.8 1199.2,-259.2 1327,-864.4" fill="#ffffff" fill-rule="nonzero" id="path158"/>
    <path d="m22354.8,19667.2l-51.5,-10.9c15.7,-74.4 23.2,-148.4 23.2,-221.4c0,-64.2 -5.8,-127.5 -17,-189.4l51.8,-9.4l-4.4,52.5c-281.7,-23.4 -586.7,-107.8 -882.2,-240.9c-295.5,-133.1 -581.4,-315.1 -823.9,-535l35.3,-38.9l25.3,46.1c-173.5,95 -299.8,229.7 -383.7,385.7c-83.8,155.9 -124.7,333.4 -124.7,512.2c-0.1,241.8 75,485.2 216.6,678.3c70.8,96.6 158.1,180.8 261,246.7c103,65.8 221.7,113.5 356.2,136.9l0.9,0.2l0.9,0.2c74.5,15.7 148.6,23.3 221.7,23.3c246.7,0 481,-86.2 666.9,-235.2c185.8,-149 323,-360.5 376.1,-611.9l51.5,10.9l51.5,10.8c-58.2,275.8 -209.2,508.8 -413.3,672.3c-204,163.6 -461.4,258.3 -732.7,258.3c-80.3,0 -161.8,-8.3 -243.4,-25.5l10.9,-51.5l-9.1,51.8c-148,-25.7 -280.3,-78.7 -394.8,-152c-171.8,-109.9 -303.5,-265.1 -392,-441.6c-88.5,-176.5 -134.1,-374.5 -134.2,-572c0.1,-194.7 44.5,-389.3 137.3,-562c92.6,-172.8 234.2,-323.4 425.9,-428.2l32.8,-18l27.8,25.2c233.3,211.6 510.5,388.2 796.4,517c285.9,128.8 580.5,209.9 847.7,231.9l40.2,3.3l7.3,39.7c12.3,68 18.7,137.6 18.7,208.2c0,80.2 -8.3,161.6 -25.5,243.1l-51.5,-10.8" fill="#000000" fill-rule="nonzero" id="path160"/>
    <path d="m21764.9,19337.2c-123.4,182.6 166.1,372.2 284.2,186.1c123.4,-182.5 -166.1,-372.2 -284.2,-186.1zm-234.5,282.2c-74,109.6 99.7,223.4 170.5,111.7c74.1,-109.5 -99.7,-223.3 -170.5,-111.7zm530.4,-30.9c-451.7,664.8 -1451.8,9.8 -1022.9,-670c29.2,-43 60.8,-80.2 94,-112.5c329.6,202.6 692.7,344.1 1031.7,404c8.7,119.2 -20.7,248.4 -102.8,378.5" fill="#000000" fill-rule="nonzero" id="path162"/>
    <path d="m22049.1,19523.3c-118.1,186.1 -407.6,-3.5 -284.2,-186.1c118.1,-186.1 407.6,3.6 284.2,186.1" fill="#ffffff" fill-rule="nonzero" id="path164"/>
    <path d="m21700.9,19731.1c-70.8,111.7 -244.5,-2.1 -170.5,-111.7c70.8,-111.6 244.6,2.2 170.5,111.7" fill="#ffffff" fill-rule="nonzero" id="path166"/>
    <path d="m19084.7,18368.5c14.7,-149 -0.6,-294 -40.8,-429.1c-550.6,15.1 -1228.3,-197.4 -1748.6,-574.1c-802.5,561.5 -430.4,1945.6 565.2,2007.9c615.6,60.7 1163.6,-389.1 1224.2,-1004.7" fill="#ffffff" fill-rule="nonzero" id="path168"/>
    <path d="m19084.7,18368.5l-52.3,-5.2c3.5,-35.5 5.2,-70.8 5.2,-105.8c0,-104.7 -15.4,-206.6 -44.1,-303.1l50.4,-15l1.5,52.6c-18.9,0.5 -37.9,0.7 -57,0.7c-276.8,0 -579.5,-53.8 -877.2,-153.5c-297.7,-99.8 -590.5,-245.7 -846.8,-431.3l30.9,-42.6l30.1,43.1c-142.8,100 -245.7,226.5 -313.6,367.6c-67.8,141 -100.3,296.7 -100.3,453.7c-0.1,262.1 91,527.3 255.5,729.6c82.2,101.3 182.6,186.9 299.2,249.6c116.6,62.6 249.4,102.5 397.6,111.8l1,0.1l0.9,0.1c35.6,3.5 70.9,5.2 106,5.2c271.1,0 522.6,-102.9 713.3,-274.7c190.7,-172 320.2,-412.3 347.4,-688.1l52.3,5.2l52.4,5.2c-29.8,302.5 -172.3,567.2 -381.6,755.8c-209.3,188.7 -485.9,301.8 -783.8,301.8c-38.5,0 -77.3,-1.8 -116.4,-5.7l5.2,-52.4l-3.3,52.6c-163.1,-10.2 -311.3,-54.5 -440.9,-124.2c-194.4,-104.6 -347,-265.9 -450.7,-453.9c-103.8,-188.1 -159.3,-403.3 -159.3,-618c0,-171.5 35.4,-342.8 110.7,-499.3c75.1,-156.5 190.4,-297.9 348.1,-408.2l30.7,-21.5l30.3,22c246.7,178.6 530.4,320.1 818.5,416.7c288.1,96.6 580.6,148.1 843.8,148.1c18.2,0 36.2,-0.2 54.1,-0.7l40.3,-1.1l11.6,38.7c31.5,106.1 48.4,218.1 48.4,333.1c0,38.4 -1.8,77.2 -5.7,116.2l-52.4,-5.2" fill="#000000" fill-rule="nonzero" id="path170"/>
    <path d="m18462.2,18105.2c-102.6,195 206,351.8 302.9,153.9c102.7,-195 -205.9,-351.8 -302.9,-153.9zm-202.1,306.3c-61.6,117 123.5,211 181.7,92.3c61.6,-117 -123.6,-211.1 -181.7,-92.3zm523.8,-88.9c-376.1,710.3 -1442,168.9 -1090.2,-553.8c24.3,-46 51.6,-86.4 81.1,-122.2c349.8,165.3 726.2,266.1 1069.7,288.5c21.8,117.5 6.7,249.1 -60.6,387.5" fill="#000000" fill-rule="nonzero" id="path172"/>
    <path d="m18462.2,18105.2c97,-197.9 405.6,-41.1 302.9,153.9c-96.9,197.9 -405.5,41.1 -302.9,-153.9" fill="#ffffff" fill-rule="nonzero" id="path174"/>
    <path d="m18441.8,18503.8c-58.2,118.7 -243.3,24.7 -181.7,-92.3c58.1,-118.8 243.3,-24.7 181.7,92.3" fill="#ffffff" fill-rule="nonzero" id="path176"/>
    <path d="m21227.7,18342.5c114,-189 435.9,87.3 936.4,214.8c553.6,141 866.1,163.2 769.5,536.9c-139.8,554.9 -2007.3,-276.3 -1705.9,-751.7" fill="#f47d1f" fill-rule="nonzero" id="path178"/>
    <path d="m18723.7,17374c19.6,-219.8 -403.3,-187 -882.5,-379.8c-530,-213.2 -795.3,-379.9 -938.1,-21.2c-214.9,530.2 1783,962.7 1820.6,401" fill="#f47d1f" fill-rule="nonzero" id="path180"/>
    <path d="m16703.8,20767c-547.7,-517.6 -880.1,-1274.3 -741.8,-2032.4c-271,648 -239.1,1574.3 403.5,1994.4c59.4,45.8 427.2,237.7 338.3,38" fill="#000000" fill-rule="nonzero" id="path182"/>
    <path d="m18330.5,16485.7c47,9 96.3,13.2 147.9,13.2c113.6,0 238.7,-20.5 373.1,-52.7c201.6,-48.1 423.2,-122.2 659.7,-184.9c236.5,-62.6 488.4,-113.9 752.1,-114c160.7,0 325.8,19.2 493.3,66.7c251.3,71.1 507.2,206.1 761.6,430.1c254.6,224 508.3,536.5 760,964.7c23.2,39.5 10,90.4 -29.5,113.6c-39.6,23.2 -90.4,10 -113.7,-29.5c-163.2,-277.7 -325.9,-502.9 -486.7,-684.1c-241.4,-271.9 -478,-444.8 -708.3,-550.6c-230.4,-105.6 -455.3,-144.8 -676.7,-144.9c-161.3,0 -320.7,21.1 -477.2,53.3c-234.8,48.2 -462.8,121.5 -681,183.9c-109.1,31.1 -215.8,59.5 -320.2,80.3c-104.4,20.8 -206.5,34.1 -306.5,34.1c-60.6,0 -120.4,-4.9 -179.1,-16.2c-45,-8.6 -74.5,-52.1 -65.9,-97.1c8.6,-45 52.1,-74.5 97.1,-65.9" fill="#000000" fill-rule="nonzero" id="path184"/>
    <path d="m20120.9,21508.4c698.6,598.2 1727.6,48.8 2144.4,-630.2c-474.5,465.6 -1159.7,670.5 -1813.9,583.3c-93.2,-9.7 -187.8,-25.2 -280.3,-39.9c-49.8,-13.6 -88.2,51.3 -50.2,86.8" fill="#000000" fill-rule="nonzero" id="path186"/>
    <path d="m21236.8,15998.8c49,61.3 188.6,139.3 111.2,219.1c-26.3,20.6 -62.2,18.3 -79.5,-6c-120.7,-161.9 -344.2,-327.5 -550.3,-307.5c-31.7,3.1 -56.8,-19.7 -56.2,-51c68.5,-183.3 477.3,41.7 574.8,145.4" fill="#000000" fill-rule="nonzero" id="path188"/>
   </g>
  </g>
 </g>
</svg>