<?xml version="1.0"?>
<svg width="2300" height="3200" xmlns="http://www.w3.org/2000/svg" xmlns:svg="http://www.w3.org/2000/svg" enable-background="new 0 0 4000 4000" version="1.1" xml:space="preserve">

 <g class="layer">
  <title>Layer 1</title>
  <rect fill="none" height="4000" id="bg" width="4000"/>
  <g id="svg_1">
   <g id="svg_2">
    <g id="svg_3">
     <polyline fill="none" id="svg_4" points="1449.3759765625,2349.10205078125 1857.072998046875,2186.02294921875 2057.35693359375,2501.51708984375 2132.152099609375,2342.759033203125 " stroke="#000000" stroke-linecap="round" stroke-linejoin="round" stroke-miterlimit="10" stroke-width="33"/>
     <path d="m2142.52,2330.63c-11.23,-31.27 -146.96,50.06 -77.35,171.86c35.4,-94.16 67.92,-139.16 77.35,-171.86z" id="svg_5"/>
    </g>
    <g id="svg_6">
     <polyline fill="none" id="svg_7" points="1075.654052734375,2362.69189453125 783.470947265625,2790.77392578125 1057.0770263671875,3047.294921875 879.3089599609375,3081.70703125 " stroke="#000000" stroke-linecap="round" stroke-linejoin="round" stroke-miterlimit="10" stroke-width="33"/>
     <path d="m867.1,3090c-29.11,-16.03 72.64,-137.2 181.92,-49.24c-98.57,20.09 -148.14,45.1 -181.92,49.24z" id="svg_8"/>
    </g>
   </g>
   <g id="svg_9">
    <polyline fill="none" id="svg_10" points="1289.569091796875,1602.094970703125 1698.89208984375,1564.010009765625 1740.989013671875,1262.8780517578125 " stroke="#000000" stroke-linecap="round" stroke-linejoin="round" stroke-miterlimit="10" stroke-width="33"/>
    <path d="m1717.44,1247.65c-8.2,-17.52 -3.35,-34.43 8.03,-48.35c11.09,-22.77 16.16,-56.01 16.27,-70.91c0.05,-6.74 5.55,-12.16 12.28,-12.11c6.74,0.04 12.17,5.54 12.12,12.28c-0.07,9.48 -1.92,26.85 -6.34,45.28c11.19,-5.11 21.53,-7.55 30.83,-7.02c7.7,-9.2 17.24,-21.5 24.03,-30.26c5.67,-7.31 11.02,-14.21 15.46,-19.68c4.24,-5.24 11.92,-6.04 17.16,-1.8c5.23,4.25 6.03,11.93 1.79,17.16c-4.27,5.27 -9.54,12.07 -15.12,19.27c-7.95,10.25 -14.42,18.49 -19.8,25.11c1.1,0.98 2.16,2.04 3.2,3.17c20.71,-13.65 45.89,-30.01 60.79,-38.88c5.84,-3.46 13.28,-1.55 16.73,4.24c3.44,5.79 1.54,13.28 -4.24,16.72c-14.58,8.68 -40.01,25.22 -60.74,38.88c1.54,4.21 2.47,8.32 2.83,12.31c16.19,-8.27 34.52,-17.16 47.98,-22.28c6.3,-2.4 13.35,0.77 15.74,7.06c2.19,5.75 -0.25,12.12 -5.48,15.01c-0.5,0.28 -51.9,24.22 -69.69,33.72c-6.84,8.02 -16.33,14.82 -27.53,20.05c-30.51,14.27 -62.04,11.54 -76.3,-18.97z" id="svg_11"/>
   </g>
   <g id="svg_12">
    <g id="svg_13">
     <polyline fill="none" id="svg_14" points="848.7950439453125,1700.73095703125 607.6259765625,2179.72900390625 294.7490234375,2113.172119140625 " stroke="#000000" stroke-linecap="round" stroke-linejoin="round" stroke-miterlimit="10" stroke-width="33"/>
     <path d="m320.38,2094.59c-10.42,-16.31 -27.29,-21.27 -45.14,-19.11c-25.17,-2.82 -55.96,-16.34 -68.6,-24.22c-5.72,-3.57 -13.24,-1.83 -16.81,3.89c-3.57,5.71 -1.83,13.24 3.89,16.81c8.04,5.01 23.7,12.75 41.63,18.89c-10.3,6.71 -17.9,14.14 -22.43,22.27c-11.9,1.58 -27.39,3.05 -38.43,4.1c-9.2,0.87 -17.9,1.69 -24.89,2.51c-6.7,0.78 -11.49,6.85 -10.71,13.54c0.79,6.69 6.85,11.48 13.54,10.7c6.73,-0.79 15.3,-1.6 24.36,-2.46c12.92,-1.22 23.34,-2.27 31.81,-3.27c0.24,1.45 0.57,2.92 0.97,4.4c-22.62,10.18 -49.92,22.69 -65.39,30.52c-6.04,3.08 -8.42,10.39 -5.37,16.4c3.04,6.01 10.38,8.42 16.39,5.37c15.14,-7.66 42.73,-20.28 65.36,-30.47c2.73,3.54 5.7,6.53 8.88,8.97c-15.66,9.25 -32.97,19.97 -44.51,28.6c-5.39,4.03 -6.5,11.68 -2.46,17.07c3.68,4.93 10.37,6.28 15.61,3.41c0.5,-0.27 48.24,-30.87 65.79,-40.8c10.43,-1.49 21.26,-5.87 31.67,-12.52c28.39,-18.13 42.97,-46.22 24.84,-74.6z" id="svg_15"/>
    </g>
   </g>
   <g id="svg_16">
    <g id="svg_17">
     <g id="svg_18">
      <path d="m1229.11,811.79l104.46,415.85l0.05,0.16l0.58,2.37l11.22,44.65l277.63,1105.26c7.91,25.89 -40.47,65.75 -121.19,105.81c-52.12,25.86 -117.76,51.79 -190.4,74.07c-185.13,56.77 -345.79,68.28 -358.84,25.71l-0.03,-0.08l-20.01,-55.05l-0.03,0.01l-385.35,-1059.01l0,-0.03l-0.85,-2.3l-0.06,-0.18l-146.61,-402.9c21.49,49.8 217.67,34.91 443.2,-34.24c87.19,-26.74 166.25,-57.75 229.78,-88.82c100.79,-49.23 162.66,-98.61 156.45,-131.28z" fill="#E3E1E0" id="svg_19"/>
     </g>
     <g id="svg_20">
      <path d="m1269.13,1104.55l292.41,1148.78c10.52,34.28 -71.86,91.33 -195.05,140.09c-29.79,11.8 -62.01,23.1 -95.84,33.48c-173.69,53.26 -325.1,61.9 -338.15,19.33l-0.02,-0.07l-401.82,-1115.16c20.11,47.37 195.5,36.52 396.25,-25.04c166.4,-51.03 343.91,-192.74 342.22,-201.41z" fill="#F5C80C" id="svg_21"/>
     </g>
     <g id="svg_22">
      <path d="m1269.07,1104.37l0.05,0.15l0.58,2.32c9.56,49.21 -142.03,137.57 -342.78,199.13c-200.69,61.54 -375.72,73.37 -395.44,27.27l-0.01,-0.03l-0.82,-2.23l-0.06,-0.19c-14.48,-48.74 138.58,-138.77 342.24,-201.22c203.71,-62.47 380.99,-73.71 396.24,-25.2z" fill="#FFEA8C" id="svg_23"/>
     </g>
     <g id="svg_24">
      <path d="m1228.47,809.26l0.61,2.37l0.04,0.15c10.11,53.31 -160.7,150.93 -386.25,220.09c-32.77,10.05 -64.91,18.94 -96,26.65l-8.15,-12.73c-1.81,0.43 -3.63,0.87 -5.4,1.29c-1.81,0.43 -3.58,0.86 -5.36,1.28c-3.58,0.85 -7.13,1.7 -10.65,2.5c-2.8,0.65 -5.56,1.3 -8.29,1.89c-1.51,0.34 -3.03,0.69 -4.54,1.03c-2.73,0.63 -5.42,1.22 -8.09,1.75c-13.82,3.02 -27.27,5.77 -40.35,8.16c-2.79,0.53 -5.59,1.07 -8.35,1.55c-3.07,0.58 -6.11,1.1 -9.15,1.59c-2.12,0.37 -4.23,0.73 -6.31,1.09l8.43,13.24c-130.74,22.8 -226.35,18.87 -240.96,-15.04c-0.01,-0.04 -0.04,-0.11 -0.08,-0.14l-0.83,-2.3c-16.15,-52.67 156.47,-152.34 385.57,-222.6c229.1,-70.25 427.96,-84.49 444.11,-31.82z" fill="#EFEFEF" id="svg_25"/>
     </g>
     <g id="svg_26">
      <path d="m1196.26,819.16l0.5,2.01c-0.01,0.05 0.01,0.09 0.02,0.14c8.29,45.72 -150.11,133.03 -358.12,196.82s-388.11,80.27 -406.87,37.76c-0.02,-0.04 -0.03,-0.09 -0.07,-0.13l-0.7,-1.94c-13.83,-45.09 146.25,-134.16 357.57,-198.97c211.32,-64.79 393.84,-80.78 407.67,-35.69z" fill="#E0C7B8" id="svg_27"/>
     </g>
     <g id="svg_28">
      <path d="m1196.23,819.15l0.54,2.02c-0.03,0.05 -0.01,0.09 0,0.13c1.9,10.43 -4.92,23.05 -19.04,37.1c-2.77,2.71 -5.77,5.49 -9.03,8.32c-27.82,23.92 -74.67,51.16 -134.34,78.29c-55.73,25.47 -122.67,50.74 -195.7,73.13c-34.28,10.51 -67.81,19.78 -99.94,27.65c-1.81,0.44 -3.62,0.87 -5.4,1.29c-1.81,0.44 -3.58,0.86 -5.36,1.28c-3.58,0.86 -7.13,1.7 -10.65,2.5c-2.8,0.65 -5.56,1.3 -8.29,1.89c-1.51,0.35 -3.03,0.69 -4.54,1.03c-2.72,0.63 -5.42,1.22 -8.09,1.75c-13.82,3.02 -27.27,5.77 -40.35,8.16c-2.79,0.54 -5.58,1.07 -8.35,1.55c-3.07,0.58 -6.1,1.1 -9.15,1.59c-2.12,0.37 -4.23,0.73 -6.31,1.09c-2.01,0.33 -3.97,0.65 -5.94,0.97c-64.11,10.3 -117.13,13.2 -151.8,8.03c-8.44,-1.26 -15.76,-2.94 -21.91,-5.15c-10.68,-3.81 -17.78,-9.12 -20.79,-15.89c-0.01,-0.04 -0.02,-0.08 -0.07,-0.1l-0.69,-1.98c-13.81,-45.05 146.26,-134.15 357.55,-198.94c211.3,-64.8 393.83,-80.76 407.65,-35.71z" fill="#E3E1E0" id="svg_29"/>
     </g>
     <g id="svg_30">
      <path d="m1168.69,866.72c-27.81,23.92 -74.65,51.18 -134.35,78.31c-55.71,25.43 -122.65,50.72 -195.68,73.12c-76.87,23.57 -149.91,40.68 -212.39,50.75c-64.11,10.3 -117.12,13.18 -151.78,8.03c53.81,-46.17 178.74,-104.99 329.96,-151.36c155.7,-47.74 295.79,-68.98 364.24,-58.85z" fill="#CCCBCA" id="svg_31"/>
     </g>
     <g id="svg_32" opacity="0.2">
      <path d="m838.66,1018.15c-76.87,23.57 -149.91,40.68 -212.39,50.75c55.77,-25.41 122.7,-50.74 195.81,-73.16c76.79,-23.55 149.79,-40.64 212.26,-50.71c-55.71,25.43 -122.65,50.72 -195.68,73.12z" fill="#C6C5C4" id="svg_33"/>
     </g>
     <g id="svg_34">
      <path d="m1229.12,811.78l104.44,415.85l0.06,0.18l0.6,2.37l11.22,44.63l277.61,1105.26c7.89,25.88 -40.46,65.78 -121.21,105.81c-52.09,25.86 -117.72,51.81 -190.38,74.09c-185.13,56.77 -345.79,68.25 -358.84,25.68l-0.03,-0.07l-7.44,-20.44c247.11,-63.06 359.78,-107.69 421.34,-171.72c123.19,-48.76 205.57,-105.81 195.05,-140.09l-292.41,-1148.78c1.69,8.67 -46.16,-219.23 -56.73,-253.7c8.26,-11.37 18.46,-29.94 16.72,-39.07z" fill="#CCCBCA" id="svg_35"/>
      <path d="m1269.13,1104.55l292.41,1148.78c10.52,34.28 -71.86,91.33 -195.05,140.09c39.52,-41.08 58,-90.2 77.43,-157.31c38.02,-131.42 -75.42,-675.16 -183.33,-1102.5c7.18,-10.63 10.23,-20.39 8.54,-29.06z" fill="#DDAB1F" id="svg_36"/>
     </g>
     <g id="svg_37">
      <path d="m649.67,1428.34c0,0 114.03,-21.58 153.15,-45.17c39.12,-23.58 178.66,696.48 160.43,709.61c-98.08,70.64 -313.58,-664.44 -313.58,-664.44z" fill="#FFFBF5" id="svg_38"/>
     </g>
    </g>
    <g id="svg_39">
     <g id="svg_40">
      <path d="m1352.23,574.33c-0.26,-1.7 -0.49,-3.42 -0.7,-5.17c-0.14,-1.19 -0.73,-2.29 -1.63,-3.08c-106.1,-92.11 18.78,-248.19 53.62,-278.57c2.51,-2.19 6.36,-1.19 7.61,1.88c12.27,30.15 67.06,-14.4 103.44,-30.99c3.43,-1.57 7.2,1.32 6.68,5.05c-5.98,43.63 34.21,20.07 80.03,-4c2.88,-1.51 6.34,0.25 6.94,3.45c4.16,22.08 50.64,12.5 93.9,-5.37c2.58,-1.06 5.59,0.24 6.43,2.9c7.32,23.1 64.6,29.92 100.52,9.63c3.48,-1.98 7.69,0.97 7.06,4.92c-4.18,26.28 -1.36,35.99 48.71,20.25c2.01,-0.64 3.85,0.06 5.01,1.37c-126.91,98.37 -373.85,217.34 -517.62,277.73z" fill="#217C5C" id="svg_41"/>
      <path d="m1399.97,325.22c2.51,-2.19 6.36,-1.19 7.61,1.89c12.27,30.14 67.06,-14.41 103.44,-31c3.43,-1.56 7.2,1.32 6.68,5.05c-5.98,43.63 34.21,20.08 80.03,-4c2.89,-1.51 4.18,12.38 8.87,19.92c11.87,19.07 29.11,-3.73 72.37,-21.6c2.58,-1.06 5.59,0.24 6.43,2.9c7.32,23.1 68.75,19 104.67,-1.29c3.48,-1.98 7.69,0.97 7.06,4.92c-1.75,11.01 -10.61,32.79 16.85,34.33c20.35,-13.48 39.16,-26.79 55.87,-39.74c-1.16,-1.31 -3,-2.01 -5.01,-1.37c-50.07,15.74 -52.89,6.03 -48.71,-20.25c0.63,-3.95 -3.58,-6.9 -7.06,-4.92c-35.92,20.29 -93.2,13.47 -100.52,-9.63c-0.84,-2.66 -3.85,-3.96 -6.43,-2.9c-43.26,17.87 -89.74,27.45 -93.89,5.37c-0.61,-3.2 -4.06,-4.96 -6.95,-3.45c-45.82,24.07 -86.01,47.63 -80.03,4c0.52,-3.73 -3.25,-6.62 -6.68,-5.05c-36.38,16.59 -91.17,61.14 -103.44,30.99c-1.25,-3.07 -5.1,-4.07 -7.61,-1.88c-25.32,22.08 -98.22,110.59 -95.4,192.66c14.74,-69.79 70.39,-136.23 91.85,-154.95z" fill="#1B755F" id="svg_42"/>
      <path d="m1352.23,574.33c143.77,-60.39 390.71,-179.36 517.61,-277.73c1.42,1.59 1.8,4.08 0.2,6.12c-26.32,33.7 -32.14,69.18 -18.97,79.56c2.49,1.97 2.27,5.83 -0.32,7.67c-36.64,25.95 -42.18,50.16 -32.05,59.8c2.31,2.2 1.95,5.96 -0.78,7.6c-28.15,16.92 -58.74,46.89 -50.75,66.6c1.14,2.82 -0.53,5.99 -3.53,6.54c-42.35,7.84 -85.49,49.23 -66.69,64.56c2.94,2.4 1.89,7.16 -1.75,8.3c-46.44,14.62 -83.49,13.41 -76.16,44.21c0.69,2.9 -1.38,5.74 -4.36,5.92c-63.19,3.66 -112.66,-11.09 -107.23,16.64c0.51,2.56 -1.14,5.05 -3.69,5.58c-40.32,8.23 -136.99,-6.88 -151.53,-101.37z" fill="#338E6B" id="svg_43"/>
     </g>
     <g id="svg_44">
      <path d="m1847.33,313.38c-182.46,121.01 -383.37,215.56 -588.45,291.23c-6.56,1.81 -3.5,12.29 3.11,10c204.6,-79.11 404.25,-176.99 585.34,-301.23z" fill="#6CCC96" id="svg_45"/>
      <g id="svg_46">
       <path d="m1713.58,290.11c-27.04,37.29 -27.76,84.41 -37.04,127.19c18.13,20 85.86,41.64 113.52,40.81c-36.16,-2.89 -81.83,-19.77 -111.14,-40.77c9.3,-42.46 9.38,-89.12 34.66,-127.23z" fill="#6CCC96" id="svg_47"/>
       <path d="m1585.24,301.29c-19.94,41.78 -30.77,87.34 -41.14,132.28c-2.44,18.38 -11.25,39.03 -7.05,57.07c53.6,21 105.1,53.24 161.98,63.84c-54.84,-11.57 -109.89,-46.1 -160.73,-65.82l0.02,-0.01c5.72,-63.61 23.23,-127.94 46.92,-187.36z" fill="#6CCC96" id="svg_48"/>
       <path d="m1415.11,315.35c-12.02,50.86 -16.31,103.26 -21.3,155.18c-0.53,28.57 -8.63,60.21 -1.63,87.54c51.72,24.54 102.19,59.26 159.77,67.13c-57.4,-9.35 -107.3,-44.75 -159.16,-69.35c0.09,-0.02 0.22,0.08 0.23,0.14c-1.19,-80.1 8.43,-161.62 22.09,-240.64z" fill="#6CCC96" id="svg_49"/>
      </g>
     </g>
    </g>
    <g id="svg_50">
     <g id="svg_51">
      <path d="m1275.31,473.91c-1.05,-0.78 -2.09,-1.59 -3.14,-2.42c-0.71,-0.57 -1.6,-0.88 -2.47,-0.89c-102.4,-0.4 -124.68,-140.28 -123.79,-172.32c0.06,-2.31 2.51,-3.54 4.79,-2.48c22.37,10.39 25.52,-38.28 34.62,-63.7c0.86,-2.4 4.28,-2.6 6.04,-0.38c20.59,25.89 27.82,-4.98 37.57,-38.69c0.62,-2.12 3.28,-2.76 5.31,-1.34c13.98,9.82 31.89,-16.51 43.72,-45.75c0.7,-1.74 2.9,-2.43 4.75,-1.4c16.11,8.91 48.22,-13.64 55.1,-40.82c0.66,-2.64 4.34,-3 6.16,-0.62c12.12,15.86 18.76,19.72 35.11,-11.51c0.66,-1.25 1.95,-1.72 3.22,-1.56c-9.88,110.19 -68.23,286.15 -106.99,383.88z" fill="#217C5C" id="svg_52"/>
      <path d="m1164.51,319.91c0.06,-2.3 2.51,-3.53 4.79,-2.47c22.37,10.39 25.52,-38.29 34.62,-63.71c0.86,-2.4 4.28,-2.59 6.04,-0.37c20.59,25.88 27.82,-4.98 37.57,-38.7c0.62,-2.11 8.76,4.67 15.16,6.52c16.19,4.7 12.43,-15.28 24.26,-44.52c0.71,-1.74 2.9,-2.43 4.75,-1.4c16.11,8.91 44.39,-21.33 51.27,-48.52c0.66,-2.63 4.34,-2.99 6.16,-0.61c5.08,6.64 12.44,22.25 26.9,10.52c2.83,-16.46 4.97,-32.11 6.27,-46.62c-1.28,-0.16 -2.56,0.31 -3.22,1.56c-16.35,31.23 -22.99,27.37 -35.11,11.51c-1.82,-2.38 -5.5,-2.02 -6.16,0.62c-6.88,27.18 -38.99,49.73 -55.1,40.82c-1.85,-1.03 -4.05,-0.34 -4.75,1.4c-11.83,29.24 -29.74,55.57 -43.72,45.75c-2.03,-1.42 -4.69,-0.78 -5.31,1.34c-9.75,33.71 -16.98,64.58 -37.57,38.69c-1.76,-2.22 -5.18,-2.02 -6.04,0.38c-9.1,25.42 -12.25,74.1 -34.62,63.7c-2.28,-1.06 -4.73,0.17 -4.79,2.48c-0.65,23.29 10.95,103.56 56.66,145.82c-30.36,-43.77 -38.61,-104.44 -38.06,-124.19z" fill="#1B755F" id="svg_53"/>
      <path d="m1275.31,473.91c38.76,-97.73 97.11,-273.69 106.99,-383.88c1.56,0.2 3.1,1.35 3.41,3.16c5.13,29.91 21.4,51.4 33.53,50.89c2.3,-0.1 4.28,2.05 3.99,4.21c-4.18,30.52 6.14,45.89 16.38,46.38c2.33,0.11 4.18,2.27 3.71,4.39c-4.84,21.84 -3.84,51.72 10.77,58.53c2.09,0.97 2.96,3.41 1.78,5.08c-16.8,23.51 -15.87,65.19 1.75,64.73c2.76,-0.07 4.8,2.94 3.61,5.2c-15.16,28.98 -34.2,45.27 -13.93,58.26c1.9,1.22 2.41,3.68 1.02,5.13c-29.39,30.82 -61.91,45.6 -44.24,57.83c1.63,1.12 2.16,3.2 1.18,4.65c-15.57,22.78 -71.72,58.94 -129.95,15.44z" fill="#338E6B" id="svg_54"/>
     </g>
     <g id="svg_55">
      <path d="m1380.19,109.23c-25.24,147.57 -73.92,289.55 -134.88,423.4c-2.27,3.96 4.9,8.12 6.95,3.89c58.85,-135.46 105.12,-278.63 127.93,-427.29z" fill="#6CCC96" id="svg_56"/>
      <g id="svg_57">
       <path d="m1301.23,157.99c6.71,32.14 31.79,57.48 50.29,84.42c19.79,2.33 65.1,-17.14 78.38,-30.22c-19.51,14.99 -51.29,26.9 -77.18,29.15c-18.31,-26.78 -43.46,-51.58 -51.49,-83.35z" fill="#6CCC96" id="svg_58"/>
       <path d="m1243.56,222.56c12.66,31.29 31.88,60.41 50.99,89c8.72,10.86 15.5,25.85 27.32,33.49c37.94,-13.34 80.91,-19.77 114.87,-40.13c-33.47,18.92 -79.44,25.75 -115.32,38.52l0,-0.02c-31.5,-36.37 -57.54,-78.51 -77.86,-120.86z" fill="#6CCC96" id="svg_59"/>
       <path d="m1166.69,307.76c21.5,32.48 47.66,62.24 73.21,92.08c15.17,15.4 28.22,35.89 46.46,47.19c38.92,-10.61 82.72,-15.25 115.55,-37.38c-33.54,21.27 -77.42,25.29 -116.44,35.93c0.03,-0.06 0.15,-0.06 0.19,-0.03c-43.85,-41.97 -83.08,-89.62 -118.97,-137.79z" fill="#6CCC96" id="svg_60"/>
      </g>
     </g>
    </g>
    <g id="orange_00000120556449599455270760000005063508728020818083_">
     <path d="m1496.66,538.91c6.38,22.51 10.78,45.86 13.04,69.99c1.83,19.7 2.12,39.16 0.95,58.31c-9.81,166.91 -296.94,338.88 -296.94,338.88l-35.49,-53.39l-22.15,-33.27l-18.4,-27.64l-0.22,-0.34l-37.88,-56.95l-3.85,6.2l-65.13,106.16l-0.1,0.19c-0.05,-0.03 -0.13,-0.04 -0.18,-0.07c-25.4,11.35 -52.7,22.56 -81.57,33.4c-1.62,0.66 -3.29,1.29 -4.97,1.89c-65.9,-35.8 -120.6,-90.43 -156.23,-157.38c-13.56,-25.45 -24.37,-52.67 -31.98,-81.32c-5.57,-20.65 -9.43,-42.1 -11.44,-64.08c-1.82,-19.69 -2.11,-39.13 -1.02,-58.29c9.43,-160.88 119.2,-298.7 272.24,-344.94c0.07,-0.03 0.17,-0.1 0.33,-0.11c8.98,-2.67 18.13,-5.07 27.39,-7.1c15.78,-3.58 32.01,-6.13 48.52,-7.63c22.69,-2.1 45.02,-2.18 66.92,-0.35c32.64,2.63 64.24,9.42 94.24,19.82c116.63,40.49 209.31,135.92 243.92,258.02z" fill="#F4BB06" id="svg_61"/>
     <path d="m1090.97,247.8c-238.36,14.17 -399.24,249.59 -349.3,477.03c1.48,6.8 3.2,13.6 5.03,20.37c6.32,29.73 16,57.58 28.59,83.45c33.31,68.75 86.85,123.29 150.93,160.05c2.74,-0.96 5.48,-1.96 8.17,-2.95l9.38,-3.48c1.68,-0.6 3.35,-1.23 4.97,-1.89c28.87,-10.84 56.17,-22.04 81.57,-33.4c-4.32,-1.14 -8.3,-2.23 -11.78,-3.15c-19.38,-7.05 -27.77,-29.79 -17.74,-47.81l74.81,-130.59l39.13,-68.25c2.01,-3.9 8.35,-2.48 8.62,1.81l4.72,64.28l9.38,128.18l0.23,0.34l18.4,27.65c-0.93,-13.05 -1.87,-25.51 -2.86,-37.44c-3.97,-48.35 -8.15,-87.61 -11.27,-118.37c-14.61,-146.45 -3.5,-99.77 184.46,80.12c14.7,14.37 13.26,38.34 -2.85,51.06c-24.34,18.23 -105.22,71.18 -145.34,57.89l35.49,53.39l14.31,21.45l1.38,2.12c21.84,-5.64 43.41,-13.23 64.52,-22.86c392.97,-173.36 236.58,-808.17 -202.95,-759zm294.91,218.41c13.36,17.04 7.84,41.94 -11.47,51.75l-193.39,96.12c-2.81,1.42 -6.33,0.64 -8.16,-1.91c-0.05,-0.03 -5.63,-7.8 -4.38,-10.04l106.9,-197.9c36.79,-52.51 87.71,39.57 110.5,61.98zm-554.34,282.94c-4.02,-32.79 -53.7,-157.44 18.04,-151.17l222.66,41.6c3.16,0.53 5.3,3.27 5.38,6.45c-0.7,6.41 6.13,14.97 -1.4,19.06l-197.78,105.07c-18.77,9.56 -41.55,-0.66 -46.9,-21.01zm421.62,-394.03c17.93,6.85 25.57,28.08 16.23,44.88l-110.4,194.79c-2.59,4.64 -11.58,3.47 -16.44,1.36c-6.29,-2.57 -15.59,-3.04 -16.17,-11.69l-21.51,-219.1c3.29,-75.12 107.24,-21.91 148.29,-10.24zm-68.72,268.92l196.5,-101.16c64.2,-25.72 63.17,93.75 64.47,132.71c-0.66,20.7 -19.77,35.91 -40.19,32.33l-223.92,-45.7c-4.93,-0.51 -6.1,-16.88 3.14,-18.18zm-87.5,69.28l-37.91,73.67l-64.03,124.4c-9.93,17.83 -33.6,22.25 -49.37,9.27c-17.31,-18.71 -84.49,-61.45 -83.6,-96.71c0.22,-9.46 5.34,-18.4 17.69,-26.2l210.63,-107.12c6.16,-3.3 1.14,11 5.8,14.02c3.82,2.56 2.97,4.68 0.79,8.67zm2.38,-63.83c-1.39,2.86 -6.04,3.27 -9.17,2.73l-225.23,-44.29c-64.51,-16.91 -2.56,-104.39 10.9,-132.73c10.94,-16.88 34.63,-19.53 49.05,-5.41l167.58,166.54c4.12,3.92 9.1,9.2 6.87,13.16zm18.12,-20.82c-13.36,13.24 -67.71,-51.61 -186.75,-163.37c-15.66,-15.41 -14.26,-41.23 3.22,-54.61c33.38,-23.36 138.88,-98.76 153.13,-23.91c19.06,149.3 42.75,229.6 30.4,241.89zm33.68,56.49c-6.46,-6.16 22.07,-13.89 30.98,-12.17l210.4,51.79c20.7,3.62 32.89,25.39 25.04,44.97c-16.22,28.99 -34.32,130.69 -87.18,87.61l-179.24,-172.2z" fill="#FFFBE0" id="svg_62"/>
     <path d="m1096.45,228.02c-50.12,4.55 -102.97,24.89 -143.76,42.3l-3.53,1.57c-161.21,70.29 -246.18,231.41 -229.69,409.85c4.97,54.12 18.4,105.57 39.29,152.05c30.66,68.28 77.53,125.79 137.71,165.37c0.99,-0.3 1.98,-0.65 2.97,-0.99c6.63,-2.28 13.18,-4.57 19.64,-6.87c2.41,-0.86 4.78,-1.71 7.14,-2.6c2.75,-0.96 5.48,-1.96 8.17,-2.95c-16.94,-9.42 -33.13,-20.33 -48.59,-32.72c-41.99,-33.78 -76.17,-77.49 -100.53,-127.49c-12.61,-25.81 -22.63,-53.32 -29.71,-81.97c-5.22,-20.83 -8.87,-42.27 -10.89,-64.17c-1.82,-19.65 -2.3,-39.06 -1.57,-58.2c2.47,-62.2 18.3,-120.99 46.79,-172.7c36.31,-65.97 92,-117.59 161.38,-149.8c0.78,-0.36 1.52,-0.71 2.28,-1.02c1.91,-0.91 3.79,-1.77 5.72,-2.61l3.37,-1.44c25.2,-10.77 52.13,-18.98 80.42,-24.58c15.74,-3.21 31.97,-5.51 48.59,-7.04c22.6,-2.11 44.95,-2.37 66.86,-0.94c82.75,5.32 159.06,35.34 219.69,87.25c43.95,37.68 78.14,85.11 100.8,138.94c0.41,0.93 0.83,1.9 1.19,2.84c6.49,15.75 11.99,32.08 16.47,48.81c6.04,22.61 10.27,46.02 12.44,70.02c1.81,19.65 2.36,39.12 1.55,58.28c-1.26,33.27 -6.46,65.69 -15.45,96.88c-30.35,104.68 -101.68,186.12 -200.85,229.33c-23.07,10.08 -66.33,34.11 -66.33,34.11l1.38,2.13l4.12,6.15l2.25,3.4c25.12,-6.2 48.99,-13.93 68.75,-22.54c109.27,-47.64 183.59,-137.17 215,-245.54c14.91,-51.47 20.13,-107.1 14.86,-164.57c-20.77,-224.6 -196.23,-400.86 -437.93,-378.54z" fill="#FFEA8C" id="svg_63"/>
     <path d="m1088.16,223.96c-51.72,4.76 -98.85,16.66 -140.89,34.62c-1.26,0.5 -2.48,1.04 -3.69,1.57c-166.29,72.5 -253.86,238.75 -236.92,422.76c5.08,54.98 19.33,107.15 41.54,154.33c31.63,67.24 79.35,124.33 139.53,164.88c2.94,-0.98 5.85,-1.95 8.74,-2.96c0.99,-0.3 1.98,-0.65 2.97,-0.99c-8.08,-5.34 -16.01,-11.13 -23.75,-17.38c-46.52,-37.33 -84.85,-89.68 -111.57,-148.68c-21.46,-47.4 -35.5,-99.11 -40.25,-150.79c-8.07,-88 8.39,-172.22 47.68,-243.52c39.77,-72.21 101.56,-128.13 178.65,-161.74l3.47,-1.51c41.48,-17.66 95.72,-35.06 144.56,-39.55c114.02,-10.5 212.81,27.97 293.7,97.21c78.9,67.53 127.91,165.13 138,274.78c5.28,56.7 0.33,111.76 -14.71,163.6c-31.97,110.36 -107.15,196.3 -211.71,241.89c-22.15,9.63 -45.55,17.46 -69.99,23.33l2.26,3.4l7.85,11.89c23.39,-6 45.55,-13.65 66.49,-22.74c112.67,-49.13 189.37,-141.46 221.76,-253.24c15.32,-53.06 20.76,-110.45 15.26,-169.72c-21.36,-231.7 -209.76,-404.45 -458.98,-381.44z" fill="#F47D1F" id="svg_64"/>
     <g id="svg_65">
      <path d="m893.42,643.05c-0.43,-0.51 -0.86,-1.03 -1.29,-1.54c-1,-0.91 -2.15,-1.53 -3.47,-1.84c-4.19,-0.51 -8.39,-1.02 -12.59,-1.53c-1.01,-0.28 -2.02,-0.29 -3.02,-0.03c-1.05,0.08 -2.02,0.42 -2.91,1.03c-1.57,1 -3.03,2.9 -3.38,4.76c-0.38,2 -0.2,4.22 1,5.94l1.29,1.54c1,0.91 2.16,1.52 3.47,1.84c4.2,0.51 8.39,1.02 12.59,1.52c1.02,0.28 2.02,0.3 3.02,0.04c1.05,-0.08 2.02,-0.43 2.91,-1.04c1.58,-1 3.03,-2.9 3.38,-4.76c0.39,-1.99 0.2,-4.21 -1,-5.93z" fill="#FFF0C9" id="svg_66"/>
      <path d="m1013.08,658.12c-1.46,-1.24 -3.49,-2.28 -5.47,-2.05c-6.94,0.82 -13.88,1.63 -20.82,2.45c-2.1,0.25 -3.99,0.89 -5.47,2.5c-1.26,1.36 -2.19,3.58 -2.05,5.46c0.15,2.03 0.9,4.13 2.5,5.48c1.46,1.24 3.49,2.28 5.47,2.05c6.93,-0.82 13.87,-1.64 20.81,-2.45c2.11,-0.25 4,-0.89 5.48,-2.5c1.26,-1.37 2.18,-3.58 2.04,-5.47c-0.15,-2.03 -0.89,-4.13 -2.49,-5.47z" fill="#FFF0C9" id="svg_67"/>
      <path d="m909.98,562.88c-4.68,-2.19 -9.36,-4.38 -14.05,-6.57c-1.85,-0.87 -3.9,-1.17 -5.9,-0.56c-1.81,0.56 -3.73,2.03 -4.57,3.77c-0.86,1.81 -1.25,3.96 -0.56,5.9c0.67,1.88 1.91,3.7 3.77,4.57l14.05,6.57c1.85,0.87 3.9,1.18 5.9,0.56c1.81,-0.55 3.74,-2.02 4.57,-3.77c0.86,-1.81 1.25,-3.96 0.56,-5.9c-0.67,-1.88 -1.91,-3.7 -3.77,-4.57z" fill="#FFF0C9" id="svg_68"/>
      <path d="m955.49,562.87c-3.94,-2.9 -7.88,-5.79 -11.82,-8.69c-0.73,-0.72 -1.58,-1.22 -2.54,-1.5c-0.92,-0.43 -1.89,-0.62 -2.93,-0.55c-1.08,-0.01 -2.07,0.25 -2.99,0.77c-0.97,0.35 -1.8,0.92 -2.48,1.73c-1.27,1.5 -2.2,3.44 -2.05,5.46c0.12,0.69 0.23,1.37 0.34,2.05c0.41,1.34 1.13,2.48 2.16,3.43l11.82,8.7c0.73,0.72 1.58,1.22 2.54,1.49c0.92,0.44 1.89,0.62 2.93,0.56c1.07,0 2.07,-0.26 2.99,-0.78c0.97,-0.34 1.8,-0.92 2.48,-1.72c1.27,-1.5 2.2,-3.45 2.05,-5.47c-0.12,-0.68 -0.23,-1.36 -0.34,-2.05c-0.42,-1.33 -1.14,-2.48 -2.16,-3.43z" fill="#FFF0C9" id="svg_69"/>
      <path d="m957,511.3c-6.66,-7.24 -14.9,-13.23 -23.82,-17.38c-1.86,-0.87 -3.9,-1.18 -5.9,-0.56c-1.82,0.55 -3.74,2.03 -4.57,3.77c-1.73,3.63 -0.71,8.65 3.21,10.47c3.53,1.64 6.88,3.6 10.09,5.79c3.79,2.76 7.32,5.85 10.5,9.31c1.25,1.36 3.68,2.1 5.46,2.05c1.93,-0.06 4.22,-1 5.48,-2.5c1.27,-1.5 2.2,-3.45 2.05,-5.47c-0.17,-2.17 -1.03,-3.87 -2.5,-5.48z" fill="#FFF0C9" id="svg_70"/>
      <path d="m1038.14,482.88c-1.82,-3.04 -3.64,-6.08 -5.46,-9.11c-0.52,-0.9 -1.22,-1.6 -2.1,-2.11c-0.76,-0.65 -1.65,-1.07 -2.66,-1.27c-1.01,-0.28 -2.02,-0.3 -3.02,-0.04c-1.05,0.08 -2.02,0.43 -2.91,1.04c-1.62,1.13 -3,2.77 -3.38,4.76c-0.4,2.08 -0.1,4.09 1,5.93c1.82,3.04 3.64,6.08 5.46,9.11c0.52,0.89 1.22,1.6 2.09,2.11c0.77,0.65 1.66,1.07 2.67,1.27c1.01,0.28 2.02,0.29 3.02,0.04c1.05,-0.08 2.02,-0.43 2.91,-1.04c1.61,-1.13 3,-2.77 3.38,-4.76c0.4,-2.08 0.1,-4.09 -1,-5.93z" fill="#FFF0C9" id="svg_71"/>
      <path d="m1045.12,411.95c-4.06,-7.28 -8.12,-14.55 -12.19,-21.83c-1.97,-3.54 -7.4,-4.68 -10.69,-2.38c-3.6,2.52 -4.5,6.9 -2.38,10.7c4.07,7.27 8.13,14.55 12.19,21.82c1.98,3.55 7.4,4.68 10.7,2.38c3.6,-2.52 4.49,-6.9 2.37,-10.69z" fill="#FFF0C9" id="svg_72"/>
      <path d="m1081.33,500.06c-0.81,-1.95 -1.86,-3.55 -3.78,-4.57c-1.68,-0.89 -4.08,-1.21 -5.9,-0.56c-1.89,0.67 -3.68,1.91 -4.57,3.77c-0.84,1.75 -1.34,4.03 -0.56,5.9c2.13,5.17 4.27,10.34 6.4,15.52c0.81,1.94 1.86,3.55 3.77,4.57c1.68,0.89 4.09,1.21 5.91,0.56c1.88,-0.67 3.68,-1.91 4.56,-3.77c0.84,-1.76 1.34,-4.03 0.57,-5.9c-2.13,-5.18 -4.27,-10.35 -6.4,-15.52z" fill="#FFF0C9" id="svg_73"/>
      <path d="m1160.77,380.44c-0.35,-0.98 -0.92,-1.8 -1.72,-2.49c-0.73,-0.72 -1.58,-1.21 -2.55,-1.49c-0.91,-0.43 -1.89,-0.62 -2.92,-0.55c-2.03,0.15 -4.13,0.89 -5.48,2.49c-0.38,0.54 -0.76,1.08 -1.14,1.62c-0.64,1.21 -0.94,2.49 -0.9,3.85c-0.26,3.66 -0.52,7.32 -0.77,10.98c-0.01,1.08 0.25,2.07 0.77,2.99c0.34,0.97 0.92,1.8 1.72,2.48c0.73,0.72 1.58,1.22 2.54,1.49c0.92,0.44 1.89,0.62 2.93,0.56c2.03,-0.15 4.12,-0.9 5.47,-2.5c0.39,-0.54 0.77,-1.08 1.15,-1.62c0.63,-1.2 0.93,-2.49 0.9,-3.85c0.26,-3.65 0.51,-7.31 0.77,-10.97c0.01,-1.08 -0.25,-2.08 -0.77,-2.99z" fill="#FFF0C9" id="svg_74"/>
      <path d="m1155.61,477.18c-4.2,-0.8 -8.22,1.57 -9.31,5.76c-1.99,7.62 -3.98,15.23 -5.98,22.85c-1.02,3.92 1.73,8.54 5.76,9.32c4.21,0.8 8.22,-1.58 9.32,-5.77c1.99,-7.61 3.98,-15.23 5.98,-22.84c1.02,-3.93 -1.73,-8.55 -5.77,-9.32z" fill="#FFF0C9" id="svg_75"/>
      <path d="m1203.19,426.25c-1.37,-1.26 -3.58,-2.18 -5.47,-2.04c-2.03,0.15 -4.12,0.89 -5.47,2.49c-1.36,1.62 -1.94,3.36 -2.05,5.47c-0.02,0.4 -0.06,0.8 -0.09,1.2c-0.47,3.93 -1.37,7.79 -2.72,11.51c-0.11,0.29 -0.22,0.58 -0.34,0.86c-0.82,1.93 -1.2,3.83 -0.56,5.9c0.55,1.82 2.03,3.74 3.77,4.57c1.81,0.86 3.96,1.26 5.9,0.56c1.84,-0.65 3.77,-1.9 4.57,-3.77c1.43,-3.36 2.67,-6.82 3.5,-10.38c0.83,-3.57 1.26,-7.24 1.45,-10.89c0.11,-1.91 -1.13,-4.22 -2.49,-5.48z" fill="#FFF0C9" id="svg_76"/>
      <path d="m1290.61,467.15c-1.13,-1.61 -2.77,-3 -4.76,-3.38c-0.67,-0.06 -1.33,-0.13 -2,-0.2c-1.42,0.05 -2.73,0.45 -3.94,1.21c-5.42,2.71 -10.85,5.43 -16.27,8.15c-1.64,0.82 -2.98,3.05 -3.38,4.76c-0.44,1.87 -0.12,4.33 1,5.93c1.13,1.62 2.77,3 4.76,3.38l2,0.21c1.42,-0.05 2.73,-0.46 3.94,-1.21c5.42,-2.72 10.85,-5.43 16.27,-8.15c1.64,-0.82 2.98,-3.06 3.38,-4.76c0.44,-1.87 0.12,-4.33 -1,-5.94z" fill="#FFF0C9" id="svg_77"/>
      <path d="m1326.25,493.78c-1.43,-1.2 -3.54,-2.35 -5.47,-2.05c-7.54,1.18 -14.8,3.07 -21.77,6.21c-1.96,0.88 -3.52,1.8 -4.57,3.77c-0.89,1.68 -1.21,4.09 -0.56,5.9c0.67,1.89 1.91,3.69 3.77,4.57c1.72,0.82 4.08,1.39 5.9,0.57c6.04,-2.72 12.4,-4.65 18.93,-5.74c-0.35,0.05 -0.72,0.12 -1.08,0.17c2.07,-0.33 3.81,-0.84 5.3,-2.46c1.26,-1.37 2.18,-3.58 2.04,-5.46c-0.15,-2.03 -0.89,-4.13 -2.49,-5.48z" fill="#FFF0C9" id="svg_78"/>
      <path d="m1322.5,595.4c-1.75,-0.83 -4.04,-1.34 -5.9,-0.56c-3.23,1.35 -6.59,2.31 -10.03,2.97c-1.42,0.2 -2.85,0.39 -4.28,0.47c-2.05,0.11 -4.08,0.97 -5.48,2.49c-1.26,1.37 -2.18,3.58 -2.05,5.47c0.15,2.03 0.9,4.13 2.5,5.48c1.52,1.28 3.43,2.16 5.47,2.04c6.28,-0.36 12.6,-1.68 18.41,-4.12c1.95,-0.81 3.55,-1.84 4.57,-3.77c0.89,-1.68 1.21,-4.08 0.56,-5.9c-0.67,-1.89 -1.91,-3.68 -3.77,-4.57z" fill="#FFF0C9" id="svg_79"/>
      <path d="m1391.16,623.94c-1.09,-1.55 -2.8,-3.12 -4.76,-3.38c-6.48,-0.85 -12.96,-1.7 -19.44,-2.56c-2.12,-0.28 -4.06,-0.18 -5.93,1.01c-1.57,0.99 -3.03,2.89 -3.38,4.75c-0.38,2 -0.2,4.22 1,5.94c1.09,1.56 2.8,3.12 4.76,3.38c6.48,0.85 12.96,1.71 19.44,2.56c2.12,0.28 4.06,0.19 5.93,-1c1.57,-1 3.03,-2.9 3.38,-4.76c0.38,-2 0.2,-4.22 -1,-5.94z" fill="#FFF0C9" id="svg_80"/>
      <path d="m1287.51,737.28c-4.13,-3.77 -8.27,-7.54 -12.4,-11.31c-1.44,-1.32 -3.51,-2.1 -5.47,-2.05c-1.92,0.06 -4.21,1 -5.47,2.5c-1.27,1.5 -2.2,3.45 -2.05,5.47c0.16,2.07 0.93,4.04 2.5,5.47c4.13,3.77 8.26,7.54 12.39,11.31c1.44,1.32 3.51,2.11 5.47,2.05c1.92,-0.05 4.21,-1 5.48,-2.5c1.26,-1.5 2.19,-3.44 2.04,-5.46c-0.15,-2.08 -0.93,-4.05 -2.49,-5.48z" fill="#FFF0C9" id="svg_81"/>
      <path d="m1361.63,733.43c-7.21,-3.88 -14.43,-7.77 -21.64,-11.66c-1.74,-0.93 -4.01,-1.14 -5.9,-0.56c-1.81,0.56 -3.73,2.03 -4.57,3.77c-1.81,3.81 -0.6,8.42 3.21,10.47c7.21,3.89 14.43,7.78 21.64,11.66c1.74,0.94 4.01,1.14 5.9,0.56c1.81,-0.55 3.74,-2.02 4.57,-3.77c1.81,-3.81 0.6,-8.42 -3.21,-10.47z" fill="#FFF0C9" id="svg_82"/>
      <path d="m1350.77,775.25c-2.1,-0.98 -4.11,-2.15 -6.04,-3.44c-1.56,-1.14 -3.07,-2.35 -4.48,-3.68c-1.4,-1.33 -3.55,-2.11 -5.47,-2.05c-1.08,-0.01 -2.07,0.25 -2.99,0.77c-0.97,0.35 -1.8,0.92 -2.48,1.72c-1.27,1.51 -2.2,3.45 -2.05,5.47c0.16,2.1 0.95,4.01 2.5,5.48c2.25,2.13 4.71,3.97 7.27,5.72c2.05,1.41 4.23,2.64 6.49,3.69c1.86,0.87 3.9,1.18 5.9,0.56c1.81,-0.55 3.73,-2.02 4.57,-3.77c0.86,-1.81 1.25,-3.95 0.56,-5.9c-0.67,-1.88 -1.91,-3.7 -3.78,-4.57z" fill="#FFF0C9" id="svg_83"/>
      <path d="m1174.63,743.77c-4.06,0.3 -7.81,3.64 -7.52,7.96c0.31,4.75 0.35,9.52 0.07,14.27c-0.07,1.17 -0.15,2.34 -0.26,3.5c-0.01,0.15 -0.02,0.21 -0.02,0.31c-0.07,0.56 -0.13,1.12 -0.2,1.68c-0.3,2.4 -0.69,4.79 -1.14,7.17c-0.75,3.98 1.53,8.51 5.76,9.32c3.98,0.76 8.51,-1.51 9.32,-5.76c1.93,-10.17 2.64,-20.6 1.95,-30.93c-0.27,-4.03 -3.68,-7.84 -7.96,-7.52z" fill="#FFF0C9" id="svg_84"/>
      <path d="m1240.27,808.79c-3.16,-4 -6.63,-7.66 -10.68,-10.78c-1.64,-1.25 -3.34,-2.1 -5.47,-2.04c-1.92,0.05 -4.21,1 -5.48,2.49c-2.5,2.98 -2.98,8.31 0.45,10.95c2.91,2.23 5.55,4.77 7.95,7.53c2.7,3.41 5,7.09 6.83,11.04c-0.22,-0.47 -0.44,-0.94 -0.65,-1.41c0.87,1.91 1.78,3.44 3.73,4.48c1.67,0.89 4.08,1.21 5.9,0.56c1.89,-0.67 3.68,-1.91 4.57,-3.77c0.82,-1.72 1.38,-4.08 0.56,-5.9c-2.12,-4.68 -4.51,-9.11 -7.71,-13.15z" fill="#FFF0C9" id="svg_85"/>
      <path d="m1193.49,852.14c-3.95,1.42 -6.4,5.53 -5.13,9.68l5.66,18.46c1.19,3.88 5.73,6.54 9.68,5.14c3.95,-1.41 6.4,-5.53 5.13,-9.68l-5.66,-18.46c-1.19,-3.87 -5.73,-6.54 -9.68,-5.14z" fill="#FFF0C9" id="svg_86"/>
      <path d="m1105.94,762.85c-0.9,-0.52 -1.85,-0.78 -2.86,-0.8c-1.02,-0.19 -2.04,-0.12 -3.04,0.24c-1.89,0.67 -3.69,1.91 -4.57,3.77c-0.88,1.83 -1.23,3.93 -0.57,5.9c0.06,0.17 0.08,0.35 0.13,0.53c0.04,0.39 0.05,0.78 0.04,1.17c-0.06,0.34 -0.14,0.68 -0.23,1.01c-0.19,0.38 -0.34,0.77 -0.56,1.13c-0.52,0.89 -0.79,1.84 -0.8,2.85c-0.2,1.03 -0.12,2.04 0.23,3.05c0.28,1.03 0.78,1.92 1.52,2.66c0.58,0.82 1.33,1.46 2.26,1.91c1.81,0.86 3.95,1.26 5.9,0.56c0.63,-0.29 1.25,-0.58 1.88,-0.86c1.15,-0.74 2.04,-1.71 2.69,-2.91c0.8,-1.26 1.29,-2.66 1.79,-4.06c0.3,-0.84 0.51,-1.71 0.61,-2.6c0.17,-1.48 0.37,-2.97 0.23,-4.46c-0.16,-1.51 -0.39,-3.07 -0.88,-4.52c-0.64,-1.91 -1.97,-3.61 -3.77,-4.57z" fill="#FFF0C9" id="svg_87"/>
      <path d="m1047.64,719.83c-1.12,-1.62 -2.76,-3.01 -4.76,-3.39c-2.06,-0.39 -4.11,-0.12 -5.93,1.01c-3.01,1.86 -6.02,3.72 -9.03,5.58c-1.64,1.02 -2.94,2.89 -3.38,4.76c-0.28,1.02 -0.29,2.02 -0.03,3.02c0.08,1.05 0.42,2.02 1.03,2.91c1.13,1.62 2.77,3.01 4.76,3.39c2.07,0.39 4.12,0.12 5.94,-1.01c3.01,-1.86 6.02,-3.72 9.03,-5.58c1.64,-1.02 2.93,-2.89 3.38,-4.76c0.28,-1.02 0.29,-2.02 0.03,-3.02c-0.08,-1.06 -0.43,-2.03 -1.04,-2.91z" fill="#FFF0C9" id="svg_88"/>
      <path d="m957.37,780.77c-0.35,-0.97 -0.92,-1.8 -1.72,-2.48c-1.51,-1.27 -3.45,-2.2 -5.47,-2.05c-1.97,0.14 -4.23,0.86 -5.48,2.49c-0.49,0.65 -1.08,1.2 -1.67,1.75c-0.4,0.28 -0.82,0.54 -1.25,0.77c-0.61,0.23 -1.24,0.42 -1.87,0.56c-0.24,0.04 -0.47,0.09 -0.69,0.17c-0.02,0 -0.03,0 -0.05,0.01c0.01,-0.01 0.02,-0.01 0.03,-0.01c-0.39,0.13 -0.78,0.26 -1.14,0.47c-0.97,0.34 -1.8,0.92 -2.48,1.72c-0.72,0.73 -1.22,1.58 -1.5,2.54c-0.43,0.92 -0.62,1.89 -0.55,2.93c0.15,2.02 0.9,4.12 2.5,5.47c0.54,0.38 1.07,0.76 1.61,1.15c1.21,0.63 2.49,0.93 3.85,0.9c1.56,-0.24 3.12,-0.45 4.61,-0.98c1.49,-0.53 2.98,-1.21 4.35,-2.02c1.33,-0.78 2.51,-1.81 3.67,-2.82c0.73,-0.64 1.39,-1.34 1.97,-2.11c0.72,-0.73 1.22,-1.58 1.5,-2.54c0.43,-0.92 0.62,-1.89 0.55,-2.93c0.01,-1.08 -0.25,-2.07 -0.77,-2.99z" fill="#FFF0C9" id="svg_89"/>
      <path d="m1003.24,770.59c-2.93,-2.47 -8.36,-3.02 -10.94,0.45c-9.12,12.27 -17.53,25.06 -25.04,38.37c-2,3.54 -0.5,8.7 3.21,10.47c3.87,1.85 8.34,0.56 10.47,-3.21c3.54,-6.28 7.27,-12.45 11.19,-18.49c1.94,-2.98 3.91,-5.93 5.94,-8.85c0.24,-0.34 0.48,-0.68 0.72,-1.03c0.09,-0.13 0.84,-1.26 0.32,-0.47c-0.58,0.89 0.4,-0.56 0.52,-0.72c0.24,-0.34 0.49,-0.68 0.73,-1.02c1.1,-1.53 2.21,-3.04 3.33,-4.55c1.25,-1.67 2.11,-3.31 2.05,-5.47c-0.06,-1.92 -1,-4.21 -2.5,-5.48z" fill="#FFF0C9" id="svg_90"/>
      <path d="m909.79,692.84c-12.41,2.01 -24.81,4.03 -37.21,6.04c-2.15,0.35 -3.93,0.82 -5.48,2.5c-1.26,1.37 -2.18,3.58 -2.04,5.47c0.27,3.72 3.69,8.22 7.96,7.52c12.4,-2.02 24.81,-4.03 37.21,-6.05c2.15,-0.35 3.93,-0.82 5.47,-2.49c1.26,-1.37 2.19,-3.58 2.05,-5.47c-0.28,-3.73 -3.69,-8.22 -7.96,-7.52z" fill="#FFF0C9" id="svg_91"/>
     </g>
    </g>
    <g id="svg_92">
     <g id="svg_93">
      <path d="m746.87,1058.52c-28.51,7.12 -56.13,13.2 -82.48,18.28l-8.35,-13.11c13.08,-2.39 26.53,-5.14 40.35,-8.16c2.67,-0.53 5.36,-1.12 8.09,-1.75c1.51,-0.34 3.03,-0.68 4.54,-1.03c2.73,-0.59 5.49,-1.24 8.29,-1.89c3.52,-0.8 7.07,-1.64 10.65,-2.5c1.78,-0.42 3.55,-0.85 5.36,-1.28c1.77,-0.42 3.59,-0.86 5.4,-1.29l8.15,12.73z" fill="#EFEFEF" id="svg_94"/>
      <path d="m696.39,1055.53c-13.82,3.02 -27.27,5.77 -40.35,8.16c13.09,-2.47 26.53,-5.14 40.35,-8.16z" fill="#AD689D" id="svg_95"/>
      <path d="m738.72,1045.79c-3.62,0.87 -7.2,1.76 -10.76,2.57c3.55,-0.85 7.14,-1.7 10.75,-2.61l0.01,0.04z" fill="#AD689D" id="svg_96"/>
      <path d="m832.11,1285.38c-9.19,5.41 -18.55,9.61 -26.86,12.24l-140.86,-220.82c26.35,-5.08 53.97,-11.16 82.48,-18.28l122.67,192.41l0.53,0.81c4.59,8.88 -14.23,19.64 -37.96,33.64z" fill="#AD689D" id="svg_97"/>
      <path d="m738.71,1045.75c-28.81,7.1 -56.51,13.04 -82.67,17.94l-42.8,-67.06l-453.43,-710.82l67.07,-42.77l460.79,722.66l51.04,80.05z" fill="#DB70BD" id="svg_98"/>
      <path d="m805.25,1297.62c-0.04,0.01 -0.04,0.01 -0.04,0.01c-12.48,3.95 -22.68,4.37 -26.54,-0.04c0,0 -0.01,-0.04 -0.05,-0.02l-1.01,-1.6c-0.01,-0.03 -0.01,-0.03 -0.01,-0.03l-636.45,-998.22l18.66,-11.92l645.44,1011.82z" fill="#DB70BD" id="svg_99"/>
      <path d="m664.39,1076.8c-8.02,1.57 -15.95,3.03 -23.73,4.37l-8.43,-13.25c2.08,-0.36 4.19,-0.72 6.31,-1.09c3.01,-0.47 6.08,-1.01 9.15,-1.59c2.76,-0.48 5.56,-1.01 8.35,-1.55l8.35,13.11z" fill="#EFEFEF" id="svg_100"/>
      <path d="m804.97,1297.22l0.24,0.41c-12.48,3.95 -22.68,4.37 -26.54,-0.04c0,0 -0.01,-0.04 -0.05,-0.02l-1.01,-1.6c-0.01,-0.03 -0.01,-0.03 -0.01,-0.03l-136.94,-214.78c7.78,-1.33 15.71,-2.79 23.74,-4.36l140.85,220.82c-0.08,-0.13 -0.17,-0.27 -0.28,-0.4z" fill="#8C6082" id="svg_101"/>
      <path d="m656.04,1063.69c-8.07,1.55 -16.03,2.93 -23.81,4.23l-39.45,-61.82l-451.63,-708.38l18.66,-11.92l453.43,710.83l42.8,67.06z" fill="#C15DA7" id="svg_102"/>
     </g>
     <path d="m226.99,243.19c-5.15,-8.73 -27.14,-2.34 -51.16,11.83c-24.02,14.18 -39.78,34.03 -34.62,42.76c5.15,8.73 29.26,3.03 53.27,-11.14c24.02,-14.18 37.66,-34.72 32.51,-43.45z" fill="#EAA2D9" id="svg_103"/>
    </g>
   </g>
   <g id="svg_104">
    <g id="svg_105">
     <path d="m1032.3,1488.45c48.73,136.72 -153.36,212.63 -206.7,77.66c-48.72,-136.72 153.36,-212.63 206.7,-77.66z" fill="#FFFFFF" id="svg_106" stroke="#000000" stroke-miterlimit="10" stroke-width="9.46"/>
     <g id="svg_107">
      <path d="m1007.54,1522.5c17.37,61.32 -75.74,88.15 -93.66,26.99c-17.37,-61.32 75.75,-88.15 93.66,-26.99z" id="svg_108"/>
      <path d="m1005.11,1527.19c5.11,16.81 -21.4,24.45 -26.01,7.5c-5.11,-16.81 21.4,-24.45 26.01,-7.5z" fill="#FFFFFF" id="svg_109"/>
      <path d="m974.95,1510.52c3.07,10.09 -12.84,14.67 -15.61,4.5c-3.06,-10.08 12.84,-14.67 15.61,-4.5z" fill="#FFFFFF" id="svg_110"/>
     </g>
    </g>
    <g id="svg_111">
     <path d="m1312.93,1354.79c48.73,136.72 -153.35,212.63 -206.69,77.66c-48.73,-136.72 153.35,-212.63 206.69,-77.66z" fill="#FFFFFF" id="svg_112" stroke="#000000" stroke-miterlimit="10" stroke-width="9.46"/>
     <g id="svg_113">
      <path d="m1288.17,1388.84c17.37,61.32 -75.74,88.15 -93.66,26.98c-17.37,-61.31 75.75,-88.14 93.66,-26.98z" id="svg_114"/>
      <path d="m1285.74,1393.53c5.11,16.81 -21.4,24.45 -26.01,7.5c-5.11,-16.81 21.4,-24.45 26.01,-7.5z" fill="#FFFFFF" id="svg_115"/>
      <path d="m1255.58,1376.86c3.07,10.09 -12.84,14.67 -15.61,4.5c-3.06,-10.08 12.84,-14.67 15.61,-4.5z" fill="#FFFFFF" id="svg_116"/>
     </g>
    </g>
    <path d="m989.32,1631.34c8.19,30.54 -118.12,60.1 -124.32,29.1c-8.19,-30.54 118.12,-60.09 124.32,-29.1z" fill="#F47D1F" id="svg_117"/>
    <path d="m1233.52,1511.37c13.95,28.38 128.47,-32.56 112.71,-59.97c-13.94,-28.37 -128.46,32.56 -112.71,59.97z" fill="#F47D1F" id="svg_118"/>
    <g id="svg_119">
     <path d="m1017.98,1710.47c57.46,62.37 212.74,101.04 263.18,-8.56c24.48,-35.94 9.55,-148.46 -1.57,-145.9c-36.19,43.72 -96.92,129.93 -257.98,142.17c-6.11,0.23 -9.23,9.12 -3.63,12.29z" id="svg_120"/>
     <path d="m1147.98,1757.85c47,5.68 102.93,-19.91 122,-65.08c-48.18,-18.05 -113.4,13.85 -122,65.08z" fill="#C13D3D" id="svg_121"/>
     <path d="m1122.9,1756.42c59.91,16.62 126.6,-4.3 154.17,-64c-2.31,-2.24 3.68,-9.61 1.44,-11.82c-10.78,-4.5 -22.62,3.19 -27.63,12.84c-3.29,-2.12 -22.76,11.87 -20.94,16.45c-2.05,-2.56 -27.36,13 -24.98,16.73c-4.11,-4.92 -29.08,7.86 -26.77,12.12c-2.6,-4.08 -24.98,2.89 -24.6,6.52c-14.46,-5.96 -25.73,4.71 -30.69,11.16z" fill="#FFFFFF" id="svg_122"/>
     <path d="m1237.22,1617.88c0,0 -85.59,63.99 -145.04,77.99c11.38,16.16 33.87,24.74 58.63,6.91c5.36,2.4 28.9,-10.12 31.43,-15.25c4.92,1.1 29.88,-12.48 35,-19.96c26.35,-11.8 32.97,-26.82 19.98,-49.69z" fill="#FFFFFF" id="svg_123"/>
     <path d="m1017.98,1710.47c57.46,62.37 212.74,101.04 263.18,-8.56c24.48,-35.94 9.55,-148.46 -1.57,-145.9c-36.19,43.72 -96.92,129.93 -257.98,142.17c-6.11,0.23 -9.23,9.12 -3.63,12.29zm26.73,-1.59c91.59,-11.8 179.83,-55.58 231.78,-126.39c26.88,98.17 -30.99,197.52 -144.42,172.76c-28.25,-4.91 -76.65,-27.71 -87.36,-46.37z" id="svg_124"/>
    </g>
    <path d="m851.97,1346.96c-64.09,37.56 -112.8,102.87 -116.34,178.75c-13.89,-75.14 20.1,-177.41 106.04,-188.13c6.64,-1.94 18.89,1.74 10.3,9.38z" id="svg_125"/>
    <path d="m1078.86,1215.65c38.81,-81.93 153.52,-73.86 218.34,-29.52c-66.08,-24.83 -140.91,-11.49 -198.53,27.68c-5.53,3.35 -20.86,16.42 -19.81,1.84z" id="svg_126"/>
    <path d="m1251.95,1784.82c5.47,-5.48 20,-11.58 13.3,-20.25c-2.35,-2.3 -5.89,-2.48 -7.86,-0.28c-13.6,14.53 -37.31,28.3 -57.28,24.08c-3.07,-0.64 -5.79,1.32 -6.07,4.38c7.22,18.91 45.4,1.39 57.91,-7.93z" id="svg_127"/>
   </g>
  </g>
 </g>
</svg>