<?xml version="1.0"?>
<svg width="2500" height="4200" xmlns="http://www.w3.org/2000/svg" xmlns:svg="http://www.w3.org/2000/svg" version="1.1">

 <g class="layer">
  <title>Layer 1</title>
  <g id="g8" transform="matrix(1.33333, 0, 0, -1.33333, 0, 5333.33)">
   <g id="g10" transform="translate(0, -4.54747e-13) scale(0.1)">
    <path d="m8638.37,16078.3l629.1,-6270.2l-1404.5,44.8c-63,2 -115.7,-47.4 -117.7,-110.4c-2,-63 47.4,-115.7 110.4,-117.7l1534.7,-48.9c33,-1.1 64.5,12 87,36.1c22.5,24.1 33.4,56.4 30.1,89.3l-642,6399.8c-6.3,62.7 -62.2,108.4 -124.9,102.1c-62.7,-6.3 -108.5,-62.2 -102.2,-124.9" fill="#000000" fill-rule="nonzero" id="path12"/>
    <path d="m7789.27,9690.5c-211.3,187.3 837.8,965.5 1582.3,37.6c-845.8,32.9 -1297.3,-71.1 -1582.3,-37.6" fill="#000000" fill-rule="nonzero" id="path14"/>
    <path d="m11602.37,15337.9l519.9,-5460.9c4.3,-45.2 35.1,-83.6 78.3,-97.7l1439.5,-467.9c59.9,-19.5 124.2,13.3 143.7,73.2c19.5,60 -13.3,124.3 -73.2,143.8l-1368.2,444.8l-512.8,5386.3c-6,62.7 -61.7,108.7 -124.4,102.8c-62.7,-6 -108.7,-61.7 -102.8,-124.4" fill="#000000" fill-rule="nonzero" id="path16"/>
    <path d="m13719.37,9312.5c264.8,97.9 -430.4,1203.7 -1460.9,609.2c800.1,-276.3 1183.1,-537 1460.9,-609.2" fill="#000000" fill-rule="nonzero" id="path18"/>
    <path d="m5305.37,21319.7l-938.2,-4568.2l-1899.4,-1417.6c-50.5,-37.7 -60.8,-109.2 -23.2,-159.7c37.7,-50.5 109.2,-60.9 159.7,-23.2l1934.2,1443.6c22.3,16.6 37.9,41.2 43.5,68.5l946.9,4610.7c12.6,61.7 -27.1,122.1 -88.8,134.7c-61.8,12.7 -122.1,-27.1 -134.7,-88.8" fill="#000000" fill-rule="nonzero" id="path20"/>
    <path d="m2565.77,15343.4c-105.1,99.6 -236.5,105.1 -362.2,57.2c-187.8,-24.9 -435.7,17.6 -541.8,52.1c-47.9,15.5 -99.4,-10.7 -115,-58.6c-15.6,-48 10.7,-99.5 58.6,-115.1c67.5,-21.9 195.1,-49.7 336.4,-61.9c-62.7,-67.4 -104.4,-135 -122.6,-202.3c-83.6,-32.9 -193.4,-71.5 -271.7,-99.1c-65.2,-22.9 -126.8,-44.6 -176.2,-63.2c-47.1,-17.7 -71,-70.4 -53.2,-117.6c17.7,-47.1 70.4,-71 117.6,-53.2c47.4,17.9 108.1,39.2 172.4,61.8c91.6,32.2 165.3,58.7 225.1,81.2c4.3,-10.1 9.3,-20.1 14.9,-30.2c-145.8,-114.8 -321.5,-254.9 -419.6,-339.6c-38.3,-33.3 -42.4,-90.6 -9.4,-128.8c32.9,-38.1 90.6,-42.3 128.7,-9.4c96.1,83 273.6,224.4 419.5,339.3c26.2,-20.9 53.2,-37.2 80.6,-49.2c-96.9,-95.3 -203.3,-204.5 -271.4,-287.9c-31.9,-39.1 -26.1,-96.6 12.9,-128.4c35.6,-29.1 86.6,-26.9 119.5,3.4c3.1,2.9 6.1,6.1 8.9,9.5c97.1,118.9 285.6,301.7 395.1,405.5c73,29.7 143.7,81 207.3,148.1c173.3,182.9 228.5,413.1 45.6,586.4" fill="#000000" fill-rule="nonzero" id="path22"/>
    <path d="m10994.57,22423.8l3350.8,-3369c16.4,-16.6 37,-27.5 60,-31.7l2624,-489.2c62,-11.5 121.5,29.4 133.1,91.3c11.5,61.9 -29.3,121.5 -91.3,133.1l-2589.1,482.6l-3325.7,3343.8c-44.4,44.6 -116.7,44.8 -161.3,0.4c-44.7,-44.4 -44.9,-116.7 -0.5,-161.3" fill="#000000" fill-rule="nonzero" id="path24"/>
    <path d="m17180.17,18840.1c141.2,31.5 256.8,-31.2 340.1,-136.9c148.4,-117.8 383,-208.6 491.7,-233.4c49.1,-11.3 79.8,-60.2 68.6,-109.4c-11.2,-49.1 -60.2,-79.8 -109.3,-68.6c-69.1,15.8 -193,57.4 -320.5,119.5c19.2,-90 20.3,-169.5 1.4,-236.5c54.8,-71.1 129.2,-160.7 182.3,-224.5c44.2,-53.2 85.9,-103.4 118.7,-144.7c31.4,-39.4 24.8,-96.9 -14.6,-128.2c-39.5,-31.4 -96.9,-24.8 -128.3,14.6c-31.5,39.7 -72.7,89.2 -116.2,141.6c-62.1,74.7 -111.8,135.2 -151.5,185.2c-8.9,-6.4 -18.4,-12.5 -28.3,-18.2c66.2,-173.4 145.1,-383.8 185.8,-506.9c15.8,-48.2 -10.2,-99.5 -58.1,-115.3c-47.8,-15.8 -99.5,10.1 -115.3,58c-39.8,120.5 -119.5,333 -185.8,506.4c-33.2,-4.4 -64.7,-4.5 -94.4,-0.7c34.2,-131.6 69.5,-279.9 85.1,-386.5c7.4,-49.9 -27.1,-96.2 -77,-103.6c-45.5,-6.6 -88.1,21.5 -100.8,64.3c-1.2,4.2 -2.1,8.4 -2.8,12.8c-22.3,151.8 -90.1,405.5 -130.8,550.8c-47.5,62.9 -81.8,143.2 -102,233.5c-54.8,245.9 16,471.8 262,526.7" fill="#000000" fill-rule="nonzero" id="path26"/>
    <path d="m11241.07,31797.6l709.7,-4514.2l0.4,-1.7l3.9,-25.8l76.3,-484.7l1886.1,-11998c59.1,-282.4 -492.7,-659.1 -1388,-1006.8c-578,-224.5 -1299.6,-436.7 -2092,-603.5c-2019.6,-424.9 -3735.8,-392.9 -3833.6,71.5l-0.1,0.9l-159.7,603.5l-0.3,-0.1l-3073.8,11610.6l-0.1,0.3l-6.8,25.1l-0.4,2.1l-1169.5,4417.2c180.3,-549.3 2276.9,-579.5 4737.1,-61.9c951.1,200.1 1820,453.4 2524.2,722.2c1117.1,425.8 1821.2,890.5 1786.6,1243.3" fill="#e3e1e0" fill-rule="nonzero" id="path28"/>
    <path d="m11384.87,28651.8l2001.3,-12474.3c78.7,-373.9 -850.4,-900.4 -2204.8,-1299.6c-327.5,-96.8 -680.3,-185.8 -1049.4,-263.4c-1894.7,-398.7 -3510.1,-345.1 -3607.8,119.3l-0.2,0.8l-3194.8,12222.2c168.1,-522.1 2040.2,-575.2 4230.1,-114.4c1815.1,381.9 3835.2,1715.6 3825.6,1809.4" fill="#f5c80c" fill-rule="nonzero" id="path30"/>
    <path d="m11384.57,28653.7l0.3,-1.7l3.9,-25.1c54.2,-531.5 -1639.6,-1323.9 -3829.4,-1784.7c-2189.4,-460.6 -4058.5,-418.1 -4223.6,90.1l0,0.3l-6.6,24.5l-0.4,2c-107,531.3 1604.1,1340 3825.7,1807.4c2222.2,467.6 4114.7,416.8 4230.1,-112.8" fill="#ffea8c" fill-rule="nonzero" id="path32"/>
    <path d="m11236.77,31825l4.1,-25.7l0.4,-1.6c56.1,-575.6 -1850.7,-1447.8 -4311.1,-1965.5c-357.4,-75.2 -707.1,-138.6 -1044.5,-190.6l-74.3,142.9c-19.7,-2.9 -39.3,-5.8 -58.5,-8.6c-19.7,-2.8 -38.9,-5.6 -58.1,-8.4c-38.9,-5.6 -77.4,-11.2 -115.5,-16.3c-30.3,-4.2 -60.2,-8.4 -89.8,-12.1c-16.4,-2.2 -32.8,-4.4 -49.2,-6.6c-29.5,-4.1 -58.7,-7.7 -87.6,-10.8c-149.5,-18.8 -295,-35.1 -436.1,-47.9c-30.1,-3 -60.3,-5.9 -90.1,-8.4c-33.1,-3.2 -65.8,-5.9 -98.7,-8.1c-22.8,-1.9 -45.6,-3.7 -68,-5.5l76.9,-148.7c-1409.7,-116.5 -2420.7,17 -2543.3,390.9l-0.7,1.6l-6.6,25.2c-120.9,574.6 1807,1466.8 4306.2,1992.7c2499.2,525.8 4623.6,486.1 4744.5,-88.5" fill="#efefef" fill-rule="nonzero" id="path34"/>
    <path d="m10885.27,31750.9l3.5,-21.8l0,-1.5c44.1,-493.3 -1721,-1268 -3990.1,-1745.5c-2269.1,-477.4 -4196.5,-479.5 -4354.8,-10.3l-0.6,1.4l-5.6,21.4c-103.5,491.8 1681.1,1283.6 3986.3,1768.7c2305.2,485 4257.8,479.5 4361.3,-12.4" fill="#e0c7b8" fill-rule="nonzero" id="path36"/>
    <path d="m10885.07,31751l3.8,-22l-0.2,-1.3c10.2,-112.5 -74.3,-239.9 -237.7,-375.5c-32,-26.2 -66.4,-52.8 -103.8,-79.6c-318.2,-227.2 -841.6,-471.4 -1501.1,-702.1c-616,-216.9 -1350.7,-420.8 -2147.4,-588.5c-373.9,-78.7 -738.7,-144.9 -1087.3,-197.5c-19.7,-2.9 -39.3,-5.8 -58.5,-8.6c-19.7,-2.8 -38.9,-5.6 -58.1,-8.4c-38.9,-5.6 -77.4,-11.2 -115.5,-16.3c-30.3,-4.2 -60.2,-8.4 -89.8,-12.1c-16.4,-2.2 -32.8,-4.4 -49.2,-6.6c-29.5,-4.1 -58.7,-7.7 -87.6,-10.8c-149.5,-18.8 -295,-35.1 -436.1,-47.9c-30.1,-3 -60.3,-5.9 -90.1,-8.4c-33.1,-3.2 -65.8,-5.9 -98.7,-8.1c-22.8,-1.9 -45.6,-3.7 -68,-5.5c-21.6,-1.6 -42.8,-3.1 -64,-4.6c-690.3,-47.8 -1255.8,-27.6 -1618.9,60.4c-88.4,21.5 -164.5,46.4 -227.6,75.7c-109.7,50.7 -180,113.9 -205.4,188.7l-0.7,1.1l-5.4,21.7c-103.4,491.4 1681.1,1283.5 3986.1,1768.4c2305,485 4257.8,479.2 4361.2,-12.2" fill="#e3e1e0" fill-rule="nonzero" id="path38"/>
    <path d="m10547.07,31272.5c-318.1,-227.1 -841.5,-471.5 -1501.2,-702.2c-615.7,-216.5 -1350.5,-420.7 -2147.2,-588.4c-838.5,-176.4 -1630.2,-287.9 -2303,-334.8c-690.4,-47.8 -1255.8,-27.5 -1618.8,60.4c615.4,438.5 1998,942.9 3647.6,1289.9c1698.4,357.4 3205.7,448.3 3922.6,275.1" fill="#cccbca" fill-rule="nonzero" id="path40"/>
    <path d="m4595.67,29647.1c616.3,216.2 1351,420.8 2148.6,588.6c837.6,176.3 1628.8,287.7 2301.6,334.6c-615.7,-216.5 -1350.5,-420.7 -2147.2,-588.4c-838.5,-176.4 -1630.2,-287.9 -2303,-334.8" fill="#c3c2c1" fill-rule="nonzero" id="path42"/>
    <path d="m11241.27,31797.7l709.4,-4514.2l0.4,-2l4.2,-25.7l76.2,-484.5l1885.9,-11998c59,-282.3 -492.5,-659.4 -1388.1,-1006.8c-577.7,-224.4 -1299.2,-437 -2091.9,-603.7c-2019.4,-424.9 -3735.8,-392.6 -3833.5,71.8l-0.1,0.8l-59.4,224.1c2683.3,432.1 3922.1,797.7 4637,1418.4c1354.4,399.2 2283.5,925.7 2204.8,1299.6l-2001.3,12474.3c9.6,-93.8 -279.5,2371.2 -358.6,2747.2c98.6,112.7 224.6,300.1 215,398.7" fill="#cccbca" fill-rule="nonzero" id="path44"/>
    <path d="m11384.87,28651.8l2001.3,-12474.3c78.7,-373.9 -850.4,-900.4 -2204.8,-1299.6c459,398 702.2,901.7 972.8,1595.4c529.8,1358.4 -152.5,7238.7 -887.8,11878.1c86.5,106 128.1,206.6 118.5,300.4" fill="#ddab1f" fill-rule="nonzero" id="path46"/>
    <path d="m4499.07,25809.4c0,0 1231,119.7 1668.9,332.5c437.8,212.7 1227.9,-7564.2 1021.8,-7686c-1108.8,-655.7 -2690.7,7353.5 -2690.7,7353.5" fill="#fffbf5" fill-rule="nonzero" id="path48"/>
    <path d="m12775.87,34199.9c-1.1,18.2 -2,36.8 -2.5,55.5c-0.3,12.8 -5.5,25.1 -14.4,34.3c-1037.7,1079.5 437.6,2616.3 836.6,2905.4c28.7,20.8 68.6,6.5 78.9,-27.3c101.3,-331.8 725.6,88.5 1127.7,229.7c37.9,13.3 75.1,-20.9 66.1,-60c-105.4,-457.4 343.8,-245.9 853.3,-34.4c32,13.3 67,-8.7 70.4,-43.3c22.9,-238.3 525.5,-181.2 1001.8,-33.1c28.4,8.7 59.1,-7.9 65.4,-36.9c55.6,-252.2 657,-379.6 1057.7,-198.7c38.9,17.6 80.7,-17.7 70.3,-59c-69.6,-275 -49,-380.8 497.5,-261.7c22,4.8 40.8,-4.3 51.8,-19.3c-1441.4,-922.4 -4176.6,-1948.2 -5760.6,-2451.2" fill="#217c5c" fill-rule="nonzero" id="path50"/>
    <path d="m13521.67,36798.2c28.7,20.8 68.6,6.6 78.9,-27.3c101.3,-331.8 725.6,88.5 1127.7,229.7c37.9,13.3 75.2,-20.9 66.1,-60c-105.4,-457.4 343.8,-245.9 853.3,-34.4c32.1,13.3 32.4,-135.4 75,-219.9c107.7,-213.8 312.6,11.7 788.9,159.8c28.4,8.8 59,-7.9 65.4,-36.9c55.6,-252.2 711.5,-267.7 1112.3,-86.7c38.9,17.6 80.7,-17.7 70.2,-59.1c-29.1,-115.2 -144.1,-337.8 145.9,-380.6c229,123.6 441.4,246.9 631.1,368.3c-11,15 -29.8,24.1 -51.8,19.3c-546.5,-119.1 -567.1,-13.3 -497.5,261.7c10.4,41.3 -31.4,76.6 -70.3,59c-400.7,-180.9 -1002.1,-53.5 -1057.7,198.7c-6.3,29 -37,45.6 -65.4,36.9c-476.3,-148.1 -978.9,-205.2 -1001.8,33.1c-3.4,34.6 -38.4,56.6 -70.4,43.3c-509.5,-211.5 -958.7,-423 -853.3,34.4c9,39.1 -28.2,73.3 -66.1,60c-402.1,-141.2 -1026.4,-561.5 -1127.7,-229.7c-10.3,33.8 -50.2,48.1 -78.9,27.3c-290,-210.1 -1148.8,-1079.6 -1197.6,-1953.4c223.5,726.6 877.9,1378.4 1123.7,1556.5" fill="#1b755f" fill-rule="nonzero" id="path52"/>
    <path d="m12775.87,34199.9c1584,503 4319.2,1528.8 5760.6,2451.2c13.5,-18.3 15.2,-45 -3.8,-65.2c-311.6,-332.5 -407.5,-703.5 -277.7,-826.3c24.6,-23.2 18.5,-64 -10.7,-81c-413.9,-240.4 -495.9,-492 -397.6,-604.1c22.4,-25.5 15,-65.1 -15.5,-79.8c-315.1,-152.6 -668.5,-441.4 -602.7,-658.3c9.5,-31 -11.3,-63 -43.7,-66c-457.1,-42.6 -954.7,-440.5 -769.9,-621.3c29,-28.3 13.2,-77.8 -26.5,-86.4c-507,-110.7 -899.1,-62.2 -850.8,-396.2c4.6,-31.4 -20.1,-59.6 -52,-58.6c-674.2,21.8 -1185.2,225.8 -1154.1,-73.7c2.9,-27.6 -17,-52.6 -44.6,-55.7c-435.8,-48.6 -1447.4,204.5 -1511,1221.4" fill="#338e6b" fill-rule="nonzero" id="path54"/>
    <path d="m18281.37,36494.6c-2052.8,-1109.3 -4276.1,-1920.2 -6525.4,-2526.5c-71.4,-12.9 -49,-127.1 23.4,-109.2c2247.5,643.4 4460.7,1490.7 6502,2635.7" fill="#6ccc96" fill-rule="nonzero" id="path56"/>
    <path d="m16884.07,36869.9c-322.8,-369.8 -375.6,-869.3 -515.2,-1314.5c173.2,-229.6 871.4,-524.4 1165.8,-542.1c-381.1,65.4 -849.6,288.3 -1140.6,539.4c139.5,441.8 185.1,937 490,1317.2" fill="#6ccc96" fill-rule="nonzero" id="path58"/>
    <path d="m15511.17,36874.4c-251.8,-424.3 -410.5,-897.6 -563.7,-1364.6c-43.5,-192.7 -156.8,-403.5 -129.5,-598.9c548.7,-274.4 1064.4,-666 1658,-833.1c-571.1,175.4 -1122.2,594.8 -1642.9,852.8l0.2,0.2c121.8,669.6 369.4,1335.7 677.9,1943.6" fill="#6ccc96" fill-rule="nonzero" id="path60"/>
    <path d="m13691.77,36888.5c-176.3,-528.3 -272.1,-1080.4 -375,-1626.7c-33,-302.7 -149.4,-630.8 -101.3,-927.7c525.5,-310.1 1027.8,-727 1631.4,-865.8c-600.2,154.3 -1096,577.9 -1622.8,888.8c1,0.2 2.3,-1 2.3,-1.7c64.3,851.4 244.6,1707.4 465.4,2533.1" fill="#6ccc96" fill-rule="nonzero" id="path62"/>
    <path d="m12055.77,35339.6c-10.4,9.3 -20.7,18.9 -31,28.7c-7,6.8 -16.1,10.9 -25.4,11.8c-1086.5,102.5 -1188.8,1608.7 -1148.5,1947.9c2.8,24.4 30,35.1 53.2,21.7c227.4,-131.8 307.5,381.9 428.6,643c11.4,24.6 47.9,23.4 64.5,-1.8c193.6,-294.6 300,26.1 435.9,374.6c8.5,21.9 37.5,26.1 57.6,9.1c139,-117.6 354.3,144.6 507.9,443.7c9.2,17.8 33.1,23 51.8,10.3c162.4,-110.1 525,98.5 624,380.4c9.6,27.3 49,27.6 66,0.6c113.4,-180 180.2,-227.3 383.8,88.5c8.1,12.7 22.3,16.4 35.7,13.4c-210.7,-1160 -998.9,-2971.7 -1504.1,-3971.9" fill="#217c5c" fill-rule="nonzero" id="path64"/>
    <path d="m11027.47,37080.5c2.9,24.4 30.1,35.1 53.3,21.7c227.4,-131.8 307.5,381.9 428.5,643c11.4,24.7 48,23.4 64.5,-1.8c193.7,-294.5 300.1,26.1 435.9,374.6c8.6,21.9 88.5,-57.9 154.6,-83.7c167.4,-65.4 146.7,150.2 300.3,449.3c9.2,17.8 33.1,23 51.8,10.3c162.4,-110 491.6,183.8 590.7,465.7c9.6,27.4 49,27.7 66,0.6c47.5,-75.3 110.7,-248.1 275.4,-137.5c45.8,172 83.7,336.1 111.4,488.8c-13.4,3 -27.6,-0.7 -35.7,-13.4c-203.6,-315.8 -270.4,-268.5 -383.8,-88.5c-17,27 -56.4,26.7 -66,-0.6c-99,-281.9 -461.6,-490.5 -624,-380.4c-18.7,12.7 -42.6,7.5 -51.8,-10.3c-153.6,-299.1 -368.9,-561.3 -507.9,-443.7c-20.1,17 -49.1,12.8 -57.6,-9.1c-135.9,-348.5 -242.3,-669.2 -435.9,-374.6c-16.6,25.2 -53.1,26.4 -64.5,1.8c-121.1,-261.1 -201.2,-774.8 -428.6,-643c-23.2,13.4 -50.4,2.7 -53.2,-21.7c-29.3,-246.6 16.8,-1109.8 461.4,-1602.2c-280.2,493.7 -309.6,1145.7 -284.8,1354.7" fill="#1b755f" fill-rule="nonzero" id="path66"/>
    <path d="m12055.77,35339.6c505.2,1000.2 1293.4,2811.9 1504.1,3971.9c16.4,-3.6 31.5,-17.2 33.1,-36.8c25.8,-322.4 177.8,-566 307.1,-572.3c24.5,-1.2 43.4,-25.9 38.2,-48.5c-73.6,-319.9 21.2,-493 129.4,-508c24.6,-3.4 42.2,-28.1 35.2,-50.1c-72.3,-227.2 -90.4,-545.4 58.1,-631.6c21.2,-12.4 28.2,-39.2 14,-55.7c-200.8,-233.4 -230.9,-676.7 -43.5,-688.8c29.3,-1.8 48.1,-35.7 33.3,-58.6c-188.7,-293.1 -406.5,-447.7 -203.8,-605c19.1,-14.8 22.1,-41.4 6,-55.5c-341.5,-298.9 -700.9,-424.5 -525.1,-571.3c16.2,-13.5 19.8,-36.1 8,-50.5c-187.1,-226.9 -817.7,-556.8 -1394.1,-39.2" fill="#338e6b" fill-rule="nonzero" id="path68"/>
    <path d="m13518.97,39109.8c-409.5,-1542.2 -1062.5,-3002.4 -1838,-4364.7c-27.9,-39.8 44.2,-90.9 70.1,-47.9c754.6,1381.3 1383.1,2856.5 1767.9,4412.6" fill="#6ccc96" fill-rule="nonzero" id="path70"/>
    <path d="m12634.07,38668c40.4,-347.6 282.3,-640.6 452.7,-944.2c207.9,-43.8 707.5,119.3 861.1,245.4c-221.5,-140.4 -570.3,-236.3 -847.3,-235.3c-168.6,301.9 -411.8,589.2 -466.5,934.1" fill="#6ccc96" fill-rule="nonzero" id="path72"/>
    <path d="m11959.97,38038c104.3,-344.2 280.4,-671.8 455.9,-993.6c82,-123.7 139.6,-289.2 257.7,-381.7c415.6,105.2 877.9,132.2 1257.9,315.7c-373.4,-168.7 -867.9,-197.1 -1261,-298.1l0,0.1c-299.5,416.3 -535.5,888.5 -710.5,1357.6" fill="#6ccc96" fill-rule="nonzero" id="path74"/>
    <path d="m11062.27,37207.4c197,-365.3 446.2,-706.3 688.7,-1047.5c146.2,-178.1 265.2,-408.1 447.9,-545.6c423.3,75.3 892.6,82.5 1262.4,285.9c-376.4,-193.6 -846.1,-194.1 -1270.5,-269.6l2,0.2c-425.1,487.4 -795.8,1030.9 -1130.5,1576.6" fill="#6ccc96" fill-rule="nonzero" id="path76"/>
    <path d="m14342.87,34437.2c46.1,-245 70.4,-497.1 71.2,-755.4c0.5,-210.8 -15,-417.7 -45.8,-619.8c-264.3,-1762.2 -3477.1,-3311.9 -3477.1,-3311.9l-325.4,600.7l-203.2,374.3l-168.8,311.1l-2,3.8l-347.4,640.9l-46.8,-62.2l-793.2,-1064.2l-1.3,-2l-1.8,0.9c-280.5,-96.1 -581,-188.9 -897.9,-276.2c-17.8,-5.4 -36.1,-10.6 -54.6,-15.3c-665,443.3 -1193.2,1075.6 -1507.2,1820.4c-119.4,283.2 -208.1,582.5 -261.4,893.8c-39.2,224.6 -59.7,456 -59.9,691.3c-0.4,210.7 15.1,417.2 45.1,619.6c254.5,1698.6 1551.9,3056.1 3220.7,3400.1c0.8,0.2 1.9,0.8 3.6,0.8c97.9,19.7 197.3,36.4 297.5,49c171,23 345.7,34.4 522.4,34.5c242.8,0.5 479.9,-20.1 710.6,-60.5c343.9,-59.2 672.9,-161.6 981.4,-300.8c1199,-541.8 2091.1,-1643.6 2341.3,-2972.9" fill="#f4bb06" fill-rule="nonzero" id="path78"/>
    <path d="m10554.07,33428.8c-62.7,71.6 247.5,126.3 340.4,99.5l2183.6,-751.7c216.3,-58.2 324.8,-301.1 222.7,-501.4c-200,-292.1 -489.7,-1354.2 -1009.5,-846.1l-1737.2,1999.7zm-303.4,632c-154.4,-127.8 -669.1,612.8 -1825.3,1913.3c-151.4,178.6 -111.8,451.3 86.6,576.5c376.7,215.9 1568.9,915 1648.2,106.9c59,-1603.1 233.4,-2478.1 90.5,-2596.7zm-212.2,-203.7c-17.5,-29 -67.3,-28.9 -99.9,-20.2l-2348.2,686.3c-668.6,241.4 72.9,1110.5 243,1398.4c132.4,168.7 386.3,174.1 525.8,10.3l1619,-1928.5c39.9,-45.6 87.7,-106.3 60.3,-146.3zm-86.5,-675.2l-473.2,-745.5l-799,-1259.1c-122.4,-179.6 -377.9,-203.9 -532.8,-50.9c-165.9,215.1 -837.9,733.3 -794.6,1106.7c11.4,100.2 74.3,190.2 212.9,261.1l2338.5,934.8c68.5,29.2 1.6,-117.7 48,-154.3c38.2,-30.8 27.1,-52.5 0.2,-92.8zm995.2,651.4l2182.8,885.1c706.1,211.4 580.5,-1055.6 556.9,-1470.5c-26.9,-219 -244.3,-362.1 -457.5,-304.5l-2332.9,700c-51.9,10.1 -48.7,185 50.7,189.9zm987.4,2788.5c183.8,-90 244.6,-322.6 129.3,-491.9l-1358.8,-1961.7c-31.9,-46.8 -126.2,-25.7 -175.7,1.4c-64.4,33.2 -162.6,47.1 -160.5,139.5l-18,2346.3c107,794.2 1159.3,129.7 1583.7,-33.6zm-4853.3,-3777.8c-11.2,351.9 -418.9,1722.6 336.6,1587.3l2323.5,-655.2c33,-8.7 53,-39.9 50.9,-73.7c-13.7,-67.4 50.7,-164.7 -33.2,-200.9l-2200.1,-925.5c-208.4,-83.5 -440.4,46.9 -477.7,268zm6155.5,2471.2c125.5,-193.7 42.9,-452.7 -171.4,-538.3l-2145,-834.6c-31.1,-12.4 -67.7,-0.7 -84.8,28.2c-0.4,0.3 -52.2,88.1 -36.7,110.7l1324.5,1997.9c440.9,522.1 893,-504.1 1113.4,-763.9zm-2920.6,2601.4c-2543.7,78.3 -4477.2,-2266.2 -4165.5,-4728.2c9.2,-73.5 21,-147.4 33.9,-221c38.6,-321.6 114.5,-626.5 223.3,-913.2c287.7,-761.8 803.6,-1392 1448.5,-1843.7c30,7.6 60,15.5 89.5,23.4l102.9,28c18.5,4.7 36.8,9.9 54.6,15.3c316.9,87.3 617.4,180.1 897.9,276.2c-44.8,16.3 -86,31.7 -122,44.7c-198.9,93.6 -266.2,343 -142.5,524.6l919.4,1314.3l480.9,686.9c25,39.4 91,18.3 89.7,-27.5l-11.5,-686.8l-23.5,-1369.6l2,-3.8l168.8,-311.1c2.8,139.3 4.7,272.6 5.7,400.1c4.2,517.1 -2.5,937.8 -6.1,1267.2c-14.6,1568.6 58.6,1062.3 1881,-1027.4c142.2,-166.6 103.9,-419.7 -79.2,-539.2c-275.8,-170.2 -1185.1,-654.6 -1598.2,-475l325.4,-600.7l131.3,-241.4l12.7,-24c237.2,39 473.4,98.8 706.6,180.8c4337.6,1462.9 3286.8,8351.1 -1425.6,8251.1" fill="#fffbe0" fill-rule="nonzero" id="path80"/>
    <path d="m10393.27,38121.3c-536.4,-0.3 -1116.8,-165.4 -1566.5,-311.1l-39,-13.2c-1778.6,-591.4 -2835.1,-2220 -2831.4,-4129.9c0.9,-579.3 94,-1138.2 271.2,-1651.7c259.9,-754.1 702.2,-1409.5 1302.9,-1887.4c10.9,2.3 21.7,5 32.6,7.7c72.5,17.8 144.2,35.8 215,54.1c26.4,6.8 52.4,13.5 78.3,20.7c30,7.6 60,15.5 89.5,23.4c-170.8,116.3 -332.1,247.7 -484.3,394c-413.3,398.9 -734.1,895.6 -944.7,1449.7c-109.1,286.1 -189,587.7 -236.7,898.5c-35.4,226.2 -53.6,457.3 -54,691.6c-0.4,210.4 13,416.9 39.2,619.3c85.9,657.8 310.4,1266.7 662.4,1788.2c448.7,665.4 1089.3,1159.9 1856.7,1435.2c8.6,3 16.8,6 25.1,8.6c21.2,7.9 42,15.2 63.3,22.2l37.1,12c277.9,90.1 571.5,151.5 877.2,183.7c170.2,19 344.6,27.9 522.5,28.2c241.9,0.7 479.4,-18.1 710.5,-54.2c873.3,-135.9 1654.5,-527.8 2248.2,-1137c430.4,-442.1 747.7,-978.3 936.6,-1571.5c3.4,-10.3 6.9,-20.9 10,-31.2c53.7,-173.4 96.4,-352.1 127.9,-534c42.4,-245.7 64.8,-498.3 64.8,-755.1c0.4,-210.3 -12.5,-417.5 -39.4,-620.1c-45.3,-352 -131.7,-691.1 -257,-1013.5c-422.6,-1081.9 -1257.9,-1878 -2352,-2241.5c-254.6,-84.7 -736.8,-298.3 -736.8,-298.3l12.7,-24l37.7,-69.2l20.7,-38.2c272.5,41.7 533.3,100.8 751.3,173.2c1205.6,400.9 2080.4,1279.9 2517.7,2400c207.7,532 316.5,1117.4 315.7,1732.5c-4.8,2403.9 -1698.1,4443.2 -4285,4438.3" fill="#ffea8c" fill-rule="nonzero" id="path82"/>
    <path d="m10309.17,38172.3c-553.5,-0.9 -1065.2,-82 -1528.7,-232.2c-13.9,-4.2 -27.3,-8.7 -40.7,-13.2c-1834.6,-609.9 -2923.6,-2290.5 -2920.4,-4260c1.1,-588.4 102.4,-1155.8 292.7,-1677.9c271.3,-744.1 723,-1395.9 1322.9,-1884.1c32.1,7.6 63.9,15.2 95.5,23.1c10.9,2.3 21.7,5 32.6,7.7c-80.6,64.4 -159.3,133.5 -235.5,207.2c-458,440.9 -814.6,1033.4 -1041.5,1685.3c-182.3,523.7 -281.7,1086 -282.5,1639.1c-1.2,941.8 254.3,1820 739.7,2539c491.5,728.4 1201,1262.7 2051.5,1545.3l38.3,12.7c457.2,147.7 1049.6,280.3 1572.4,281.1c1220.3,2.1 2232,-501.1 3024.1,-1313.6c772.7,-792.6 1199.2,-1875.6 1201.1,-3049.1c1.6,-606.9 -103.7,-1186.6 -313.2,-1722.3c-445.2,-1140.8 -1325.6,-1980.9 -2479.2,-2364.5c-244.4,-80.9 -500.3,-141.5 -765.4,-180.4l20.7,-38.2l72,-133.7c254,41.2 496.6,101.1 727.6,177.5c1243,413.4 2145.8,1319.7 2596.8,2475.2c213.5,548.4 326.4,1152.4 324.9,1786.7c-4.4,2479.9 -1838.3,4494.3 -4505.7,4489.3" fill="#f47d1f" fill-rule="nonzero" id="path84"/>
    <path d="m7839.97,33910.8c-4.1,5.9 -8.1,11.7 -12.2,17.6c-9.7,10.6 -21.4,18.3 -35.1,22.9c-44,9.4 -88.1,18.8 -132.1,28.3c-10.6,3.9 -21.2,5 -32.1,3.2c-11.2,0.2 -21.9,-2.6 -31.9,-8.2c-17.6,-9.1 -34.9,-27.8 -40.4,-47.3c-6,-20.8 -6.2,-44.5 4.9,-63.9l12.2,-17.6c9.7,-10.6 21.4,-18.2 35.1,-22.9c44,-9.4 88.1,-18.8 132.1,-28.2c10.6,-4 21.2,-5.1 32.1,-3.3c11.2,-0.2 21.9,2.6 31.9,8.2c17.6,9.1 34.9,27.9 40.4,47.3c6,20.8 6.2,44.6 -4.9,63.9" fill="#fff0c9" fill-rule="nonzero" id="path86"/>
    <path d="m9095.57,33636.1c-14.4,14.5 -34.9,27.5 -56.1,26.9c-74.4,-2 -148.8,-4 -223.3,-6c-22.6,-0.6 -43.2,-5.6 -60.5,-21.2c-14.7,-13.4 -26.6,-35.9 -27,-56.1c-0.3,-21.7 5.6,-44.7 21.3,-60.5c14.3,-14.5 34.8,-27.6 56.1,-27c74.4,2 148.8,4 223.3,6c22.6,0.6 43.2,5.6 60.5,21.3c14.7,13.3 26.6,35.9 26.9,56c0.4,21.7 -5.5,44.7 -21.2,60.6" fill="#fff0c9" fill-rule="nonzero" id="path88"/>
    <path d="m8092.57,34745.9c-47.5,27.7 -95.1,55.4 -142.7,83.2c-18.9,11 -40.3,16.2 -62.1,11.6c-19.8,-4.2 -41.6,-18 -52.1,-35.7c-10.9,-18.4 -17.2,-40.8 -11.7,-62.1c5.3,-20.6 16.7,-41.1 35.7,-52.1l142.8,-83.2c18.8,-11 40.3,-16.2 62,-11.6c19.9,4.1 41.7,17.9 52.2,35.6c10.9,18.4 17.1,40.8 11.6,62.1c-5.3,20.6 -16.7,41.1 -35.7,52.2" fill="#fff0c9" fill-rule="nonzero" id="path90"/>
    <path d="m8575.67,34702.3c-39,34.5 -78,69.1 -117.1,103.6c-7,8.4 -15.6,14.5 -25.5,18.3c-9.3,5.5 -19.5,8.4 -30.6,8.7c-11.4,1.1 -22.2,-0.7 -32.5,-5.3c-10.6,-2.8 -19.9,-8.1 -28,-15.9c-14.9,-14.8 -26.6,-34.5 -26.9,-56.1c0.5,-7.4 1.1,-14.7 1.6,-22.1c3.1,-14.6 9.6,-27.4 19.6,-38.4l117.1,-103.7c7.1,-8.4 15.6,-14.5 25.6,-18.3c9.3,-5.5 19.5,-8.4 30.5,-8.7c11.5,-1.1 22.3,0.7 32.5,5.4c10.7,2.7 20,8 28,15.9c14.9,14.7 26.6,34.5 27,56c-0.6,7.4 -1.1,14.7 -1.6,22.1c-3.2,14.6 -9.7,27.4 -19.7,38.5" fill="#fff0c9" fill-rule="nonzero" id="path92"/>
    <path d="m8641.17,35248.2c-63.7,83.3 -145.4,154.7 -236.1,207.4c-18.9,10.9 -40.3,16.2 -62.1,11.6c-19.8,-4.2 -41.6,-17.9 -52.1,-35.7c-21.9,-36.8 -15.9,-91.1 24,-114.2c35.8,-20.8 69.6,-44.8 101.6,-71.1c37.5,-33 72,-69.2 102.4,-108.9c12,-15.6 37.1,-25.8 56.1,-26.9c20.5,-1.3 45.7,6.5 60.5,21.2c14.9,14.7 26.6,34.5 27,56.1c0.4,23.2 -7.1,42 -21.3,60.5" fill="#fff0c9" fill-rule="nonzero" id="path94"/>
    <path d="m9529.77,35472.1c-16.4,34 -32.8,67.9 -49.2,101.9c-4.7,10 -11.4,18.1 -20.2,24.4c-7.6,7.6 -16.6,13 -27.1,16c-10.5,4 -21.2,5.1 -32,3.3c-11.2,0.2 -21.9,-2.6 -31.9,-8.2c-18.2,-10.4 -34.5,-26.5 -40.5,-47.3c-6.2,-21.7 -4.9,-43.3 5,-63.9c16.4,-34 32.8,-68 49.2,-101.9c4.7,-10 11.4,-18.2 20.2,-24.5c7.5,-7.5 16.6,-12.9 27,-16c10.5,-3.9 21.2,-5 32.1,-3.3c11.2,-0.1 21.9,2.6 31.9,8.3c18.2,10.4 34.5,26.5 40.4,47.2c6.2,21.7 5,43.4 -4.9,64" fill="#fff0c9" fill-rule="nonzero" id="path96"/>
    <path d="m9671.97,36218.2c-36.2,81.1 -72.3,162.3 -108.4,243.4c-17.6,39.5 -74.1,56.8 -111.3,35.5c-40.6,-23.3 -54.3,-68.9 -35.5,-111.2c36.2,-81.1 72.3,-162.3 108.5,-243.4c17.6,-39.5 74,-56.8 111.2,-35.5c40.6,23.3 54.3,68.9 35.5,111.2" fill="#fff0c9" fill-rule="nonzero" id="path98"/>
    <path d="m9971.67,35248.2c-6.7,21.5 -16.3,39.5 -35.7,52.2c-17,11 -42.2,16.7 -62.1,11.6c-20.7,-5.3 -40.9,-16.7 -52.1,-35.7c-10.6,-17.8 -18.1,-41.4 -11.6,-62.1c17.6,-56.9 35.3,-113.8 53,-170.8c6.7,-21.4 16.3,-39.5 35.7,-52.1c17,-11.1 42.2,-16.8 62.1,-11.7c20.7,5.4 40.9,16.8 52.1,35.7c10.6,17.8 18.1,41.5 11.7,62.1c-17.7,56.9 -35.4,113.9 -53.1,170.8" fill="#fff0c9" fill-rule="nonzero" id="path100"/>
    <path d="m10929.67,36441.7c-2.7,10.7 -8,20 -15.9,28c-7,8.4 -15.6,14.5 -25.5,18.3c-9.3,5.5 -19.5,8.4 -30.6,8.7c-21.6,0.3 -44.6,-5.6 -60.5,-21.3c-4.5,-5.3 -9.1,-10.7 -13.7,-16c-7.9,-12.2 -12.3,-25.5 -13.2,-40c-6.3,-38.6 -12.5,-77.2 -18.7,-115.8c-1.2,-11.4 0.6,-22.2 5.3,-32.5c2.7,-10.6 8,-20 15.9,-28c7,-8.3 15.6,-14.4 25.6,-18.3c9.3,-5.5 19.4,-8.4 30.5,-8.6c21.6,-0.4 44.6,5.5 60.5,21.2c4.5,5.3 9.1,10.7 13.7,16.1c7.9,12.1 12.3,25.5 13.2,40c6.3,38.5 12.5,77.1 18.8,115.7c1.1,11.4 -0.7,22.3 -5.4,32.5" fill="#fff0c9" fill-rule="nonzero" id="path102"/>
    <path d="m10782.17,35419.8c-43.9,12.5 -88.8,-8.9 -104.4,-52.3c-28.5,-78.9 -56.9,-157.8 -85.4,-236.7c-14.7,-40.7 10.1,-92.4 52.2,-104.4c43.9,-12.6 88.8,8.8 104.4,52.2c28.5,78.9 56.9,157.8 85.4,236.8c14.6,40.6 -10.1,92.3 -52.2,104.4" fill="#fff0c9" fill-rule="nonzero" id="path104"/>
    <path d="m11335.97,35914.7c-13.3,14.7 -35.9,26.6 -56,26.9c-21.7,0.4 -44.7,-5.5 -60.6,-21.2c-16,-15.8 -23.7,-33.8 -26.9,-56.1c-0.6,-4.2 -1.5,-8.4 -2.2,-12.6c-8.7,-41.3 -22,-81.4 -39.8,-119.6c-1.5,-2.9 -2.9,-5.9 -4.5,-8.8c-10.6,-19.6 -16.4,-39.5 -11.6,-62.1c4.1,-19.8 17.9,-41.6 35.6,-52.1c18.4,-10.9 40.8,-17.1 62.1,-11.6c20.2,5.2 41.9,16.6 52.2,35.6c18.4,34.3 34.9,69.9 47.1,106.9c12.2,37.1 20.3,75.6 25.9,114.1c2.9,20.2 -8,46 -21.3,60.6" fill="#fff0c9" fill-rule="nonzero" id="path106"/>
    <path d="m12224.67,35396.6c-10.5,18.3 -26.6,34.6 -47.3,40.5c-7,1.4 -14,2.7 -21,4.1c-15.1,0.8 -29.5,-2.2 -43,-9c-60.2,-23.7 -120.3,-47.3 -180.5,-71c-18.2,-7.1 -34.6,-29.5 -40.5,-47.2c-6.5,-19.5 -5.4,-45.9 5,-64c10.4,-18.2 26.5,-34.5 47.2,-40.4l21,-4.1c15.2,-0.9 29.5,2.2 43,9c60.2,23.7 120.4,47.3 180.6,70.9c18.1,7.2 34.5,29.6 40.4,47.3c6.5,19.4 5.4,45.9 -4.9,63.9" fill="#fff0c9" fill-rule="nonzero" id="path108"/>
    <path d="m12577.37,35079.8c-14,14.2 -35.2,28.3 -56.1,27c-81.1,-5.3 -160,-18.4 -237,-45c-21.6,-7.5 -39.1,-15.7 -52.1,-35.7c-11.1,-16.9 -16.8,-42.1 -11.6,-62.1c5.3,-20.7 16.7,-40.9 35.6,-52.1c17.5,-10.3 42,-18.6 62.1,-11.6c66.7,23.1 136.1,37.4 206.5,42.7c-3.9,-0.2 -7.8,-0.5 -11.7,-0.8c22.2,1.6 41.2,5.3 58.6,21c14.6,13.4 26.6,35.9 26.9,56.1c0.4,21.7 -5.5,44.6 -21.2,60.5" fill="#fff0c9" fill-rule="nonzero" id="path110"/>
    <path d="m12440.07,34004.8c-17.8,10.5 -41.6,18.1 -62.1,11.6c-35.6,-11.2 -72.2,-18.2 -109.3,-21.9c-15.3,-0.7 -30.6,-1.4 -45.9,-0.9c-21.8,0.8 -44.3,-6.4 -60.6,-21.2c-14.6,-13.3 -26.6,-35.9 -26.9,-56.1c-0.4,-21.6 5.5,-44.6 21.2,-60.5c14.9,-15 34.4,-26.2 56.1,-26.9c67.1,-2.3 135.3,5.7 199.4,26c21.5,6.8 39.4,16.2 52.1,35.7c11.1,16.9 16.8,42.1 11.6,62.1c-5.3,20.6 -16.7,40.9 -35.6,52.1" fill="#fff0c9" fill-rule="nonzero" id="path112"/>
    <path d="m13141.47,33635.9c-10.1,17.6 -26.7,35.9 -47.3,40.5c-68,15.3 -135.9,30.5 -203.9,45.8c-22.2,5 -42.9,5.9 -63.9,-5c-17.7,-9 -34.9,-27.8 -40.5,-47.2c-5.9,-20.8 -6.1,-44.6 5,-64c10,-17.5 26.6,-35.8 47.2,-40.4c68,-15.3 136,-30.6 203.9,-45.8c22.2,-5 42.9,-5.9 64,4.9c17.6,9.1 34.9,27.9 40.4,47.3c6,20.8 6.2,44.6 -4.9,63.9" fill="#fff0c9" fill-rule="nonzero" id="path114"/>
    <path d="m11932.47,32532.4c-40.2,44 -80.5,88 -120.7,132c-14.1,15.3 -35.3,25.6 -56.1,26.9c-20.4,1.3 -45.7,-6.5 -60.5,-21.2c-14.9,-14.8 -26.6,-34.5 -27,-56.1c-0.3,-22.2 6,-43.8 21.3,-60.5c40.2,-44 80.4,-88 120.7,-132c14,-15.3 35.2,-25.6 56,-26.9c20.5,-1.3 45.7,6.6 60.6,21.2c14.9,14.8 26.6,34.5 26.9,56.1c0.4,22.2 -5.9,43.8 -21.2,60.5" fill="#fff0c9" fill-rule="nonzero" id="path116"/>
    <path d="m12722.87,32502.1c-72.8,48.2 -145.6,96.4 -218.4,144.5c-17.6,11.7 -41.5,16 -62.1,11.7c-19.8,-4.2 -41.6,-18 -52.1,-35.7c-23,-38.7 -14.5,-88.8 24,-114.2c72.8,-48.2 145.6,-96.3 218.4,-144.5c17.6,-11.6 41.6,-16 62.1,-11.7c19.8,4.2 41.6,18 52.2,35.7c22.9,38.7 14.4,88.8 -24.1,114.2" fill="#fff0c9" fill-rule="nonzero" id="path118"/>
    <path d="m12567.57,32068.7c-21.4,12.4 -41.6,26.7 -60.8,42.2c-15.5,13.7 -30.4,28 -44.1,43.5c-13.5,15.4 -35.6,25.7 -56,27c-11.5,1.1 -22.3,-0.7 -32.5,-5.4c-10.7,-2.7 -20,-8 -28,-15.9c-14.9,-14.7 -26.6,-34.5 -27,-56.1c-0.4,-22.4 6.2,-43.4 21.2,-60.5c21.8,-24.8 46.2,-46.6 71.7,-67.6c20.5,-17 42.3,-32.1 65.3,-45.5c18.9,-11 40.3,-16.2 62.1,-11.6c19.8,4.2 41.6,17.9 52.1,35.7c10.9,18.3 17.2,40.7 11.7,62c-5.3,20.6 -16.8,41.1 -35.7,52.2" fill="#fff0c9" fill-rule="nonzero" id="path120"/>
    <path d="m10728.07,32571.9c-43.3,0.7 -86.3,-31.2 -87.4,-77.3c-1.2,-50.8 -5.4,-101.4 -13,-151.6c-1.8,-12.3 -3.8,-24.6 -6.1,-36.8c-0.2,-1.6 -0.4,-2.3 -0.5,-3.3c-1.3,-5.9 -2.5,-11.8 -3.7,-17.6c-5.6,-25.3 -11.9,-50.3 -19,-75.1c-11.8,-41.5 8.1,-91.8 52.2,-104.4c41.5,-11.9 91.8,7.9 104.4,52.2c30.2,106.1 47.8,216.1 50.5,326.4c1,43.1 -31.6,86.7 -77.4,87.5" fill="#fff0c9" fill-rule="nonzero" id="path122"/>
    <path d="m11362.47,31818.7c-29.8,45.5 -63.1,87.7 -103,124.6c-16.2,14.9 -33.5,25.6 -56.1,27c-20.5,1.3 -45.7,-6.6 -60.5,-21.2c-29.5,-29.2 -39.7,-85.3 -5.8,-116.6c28.7,-26.5 54.3,-56 77.1,-87.6c25.4,-38.8 46.3,-80.1 61.9,-123.7c-1.8,5.2 -3.7,10.4 -5.5,15.6c7.4,-21.2 15.6,-38.3 35.2,-51.1c17,-11.1 42.2,-16.8 62.1,-11.7c20.7,5.4 40.9,16.8 52.2,35.7c10.3,17.4 18.6,42 11.6,62.1c-18,51.7 -39.1,101 -69.2,146.9" fill="#fff0c9" fill-rule="nonzero" id="path124"/>
    <path d="m10824.37,31403.4c-43.4,-11.1 -73.3,-52.5 -63.8,-97.7l42.4,-201.5c8.9,-42.2 54.5,-74.9 97.7,-63.7c43.4,11.1 73.3,52.5 63.8,97.7l-42.4,201.5c-8.9,42.2 -54.5,74.9 -97.7,63.7" fill="#fff0c9" fill-rule="nonzero" id="path126"/>
    <path d="m9980.67,32435.3c-9,6.3 -18.8,10.1 -29.5,11.2c-10.7,3 -21.5,3.2 -32.6,0.4c-20.7,-5.3 -40.9,-16.7 -52.1,-35.7c-11,-18.5 -16.8,-40.5 -11.6,-62c0.4,-1.9 0.5,-3.9 0.9,-5.8c0,-4.1 -0.4,-8.3 -0.8,-12.5c-1,-3.5 -2.1,-7 -3.4,-10.5c-2.3,-3.8 -4.3,-7.8 -7.1,-11.4c-6.3,-9 -10.1,-18.8 -11.2,-29.5c-3,-10.7 -3.2,-21.6 -0.4,-32.6c1.9,-11.2 6.4,-21.1 13.5,-29.6c5.3,-9.4 12.7,-16.9 22.2,-22.5c18.3,-10.9 40.7,-17.1 62,-11.7c7,2.5 13.9,5 20.9,7.4c12.9,6.8 23.3,16.2 31.3,28.3c9.7,12.6 16.2,27 22.9,41.4c4,8.6 7,17.7 9,27c3.2,15.5 6.8,31.1 6.7,47.1c-0.2,16.2 -1.2,33 -5,48.8c-5,21 -17.5,40.3 -35.7,52.2" fill="#fff0c9" fill-rule="nonzero" id="path128"/>
    <path d="m9403.27,32947.9c-10.5,18.2 -26.5,34.5 -47.3,40.4c-21.5,6.2 -43.6,5.3 -63.9,-4.9c-33.8,-16.9 -67.5,-33.7 -101.2,-50.6c-18.5,-9.2 -34,-27.8 -40.5,-47.3c-4,-10.5 -5,-21.2 -3.3,-32c-0.1,-11.3 2.6,-21.9 8.2,-31.9c10.5,-18.2 26.6,-34.6 47.3,-40.5c21.5,-6.1 43.6,-5.2 64,5c33.7,16.8 67.4,33.7 101.2,50.6c18.4,9.2 33.9,27.8 40.4,47.2c4,10.6 5.1,21.2 3.3,32.1c0.1,11.2 -2.6,21.9 -8.2,31.9" fill="#fff0c9" fill-rule="nonzero" id="path130"/>
    <path d="m8386.57,32387.6c-2.8,10.7 -8.1,20 -15.9,28.1c-14.8,14.9 -34.5,26.6 -56.1,26.9c-21,0.4 -45.7,-5.1 -60.5,-21.2c-5.9,-6.4 -12.7,-11.7 -19.5,-17c-4.5,-2.5 -9.2,-4.9 -13.9,-7c-6.8,-1.8 -13.6,-3.2 -20.5,-4.1c-2.5,-0.2 -5,-0.5 -7.5,-1l-0.5,-0.1l0.4,0c-4.3,-0.9 -8.5,-2 -12.6,-3.8c-10.6,-2.8 -20,-8.1 -28,-15.9c-8.3,-7.1 -14.5,-15.6 -18.3,-25.6c-5.5,-9.3 -8.4,-19.5 -8.7,-30.5c-0.3,-21.7 5.6,-44.7 21.3,-60.5c5.3,-4.6 10.7,-9.2 16,-13.7c12.2,-7.9 25.5,-12.3 40,-13.3c16.8,1.1 33.5,1.8 49.8,6c16.5,4.2 32.8,10 48.1,17.2c15,7.1 28.5,16.8 41.8,26.5c8.3,6 16,12.9 22.9,20.5c8.4,7 14.5,15.5 18.3,25.5c5.5,9.3 8.4,19.5 8.7,30.5c1.1,11.5 -0.7,22.3 -5.3,32.5" fill="#fff0c9" fill-rule="nonzero" id="path132"/>
    <path d="m8883.17,32451.6c-28.7,29.1 -85.8,40.2 -116.6,5.7c-108.6,-121.4 -210,-249.1 -302.6,-383.2c-24.5,-35.6 -13.6,-91.9 24.1,-114.2c39.3,-23.3 88,-14 114.2,24c43.6,63.3 89.1,125.2 136.5,185.6c23.4,29.8 47.2,59.2 71.5,88.2c2.9,3.4 5.8,6.8 8.6,10.2c1.2,1.4 10.2,12.6 4,4.7c-7,-8.9 4.7,5.6 6.2,7.2c2.9,3.4 5.8,6.8 8.7,10.1c13.1,15.2 26.4,30.2 39.7,45.1c14.8,16.6 25.6,33.1 27,56.1c1.2,20.5 -6.6,45.7 -21.3,60.5" fill="#fff0c9" fill-rule="nonzero" id="path134"/>
    <path d="m7965.87,33366.7c-133.6,-9.5 -267.2,-19 -400.7,-28.5c-23.2,-1.7 -42.6,-5 -60.5,-21.3c-14.7,-13.3 -26.7,-35.9 -27,-56c-0.7,-39.8 31.3,-90.8 77.3,-87.5c133.6,9.5 267.2,19 400.7,28.5c23.2,1.6 42.6,4.9 60.5,21.2c14.7,13.3 26.7,35.9 27,56.1c0.7,39.8 -31.3,90.7 -77.3,87.5" fill="#fff0c9" fill-rule="nonzero" id="path136"/>
    <path d="m5885.67,29641.6c-309.5,-48.3 -608.5,-86.3 -893,-115l-76.1,147.2c141.1,12.8 286.6,29.1 436.1,47.9c28.9,3.1 58.1,6.7 87.6,10.8c16.4,2.2 32.8,4.4 49.2,6.6c29.6,3.7 59.5,7.9 89.8,12.1c38.1,5.1 76.6,10.7 115.5,16.3c19.2,2.8 38.4,5.6 58.1,8.4c19.2,2.8 38.8,5.7 58.5,8.6l74.3,-142.9" fill="#efefef" fill-rule="nonzero" id="path138"/>
    <path d="m5352.67,29721.7c-149.5,-18.8 -295,-35.1 -436.1,-47.9c141.4,13.7 286.6,29.1 436.1,47.9" fill="#ad689d" fill-rule="nonzero" id="path140"/>
    <path d="m5811.37,29784.5c-39.3,-5.8 -78.1,-11.8 -116.6,-17c38.4,5.6 77.3,11.2 116.5,17.4l0.1,-0.4" fill="#ad689d" fill-rule="nonzero" id="path142"/>
    <path d="m6572.77,27151.8c-102.8,-48.6 -206.2,-84.3 -296.9,-104.2l-1283.2,2479c284.5,28.7 583.5,66.7 893,115l1117.4,-2160.2l4.9,-9.1c40.1,-98.6 -169.9,-194.7 -435.2,-320.5" fill="#ad689d" fill-rule="nonzero" id="path144"/>
    <path d="m5811.27,29784.9c-312.6,-47.7 -612.3,-84.2 -894.7,-111.1l-389.9,752.9l-4130.7,7980.1l753,389.5l4197.4,-8112.8l464.9,-898.6" fill="#db70bd" fill-rule="nonzero" id="path146"/>
    <path d="m6275.87,27047.6l-0.4,-0.1c-136.2,-29.9 -244.9,-24.5 -281.7,25.9l-0.5,0.3l-9.2,17.9l-0.1,0.4l-5797.5,11206.2l209.5,108.6l5879.9,-11359.2" fill="#db70bd" fill-rule="nonzero" id="path148"/>
    <path d="m4992.67,29526.6c-86.6,-8.9 -172.3,-16.8 -256,-23.5l-76.9,148.7c22.4,1.8 45.2,3.6 68,5.5c32.5,2.2 65.6,4.9 98.7,8.1c29.8,2.5 60,5.4 90.1,8.4l76.1,-147.2" fill="#efefef" fill-rule="nonzero" id="path150"/>
    <path d="m6273.27,27052.1l2.2,-4.6c-136.2,-29.9 -244.9,-24.5 -281.7,25.9l-0.5,0.3l-9.2,17.9l-0.1,0.4l-1247.3,2411.1c83.7,6.7 169.4,14.6 256,23.5l1283.2,-2479c-0.8,1.5 -1.5,3.1 -2.6,4.5" fill="#8c6082" fill-rule="nonzero" id="path152"/>
    <path d="m4916.57,29673.8c-87.1,-8.6 -172.9,-15.7 -256.8,-22l-359.4,694l-4113.9,7952.4l209.5,108.6l4130.7,-7980.1l389.9,-752.9" fill="#c15da7" fill-rule="nonzero" id="path154"/>
    <path d="m1149.97,38794.7c-46.3,97.6 -285.9,50.9 -554.4,-76.6c-268.6,-127.4 -454.8,-322.9 -408.5,-420.5c46.3,-97.6 307.6,-60.3 576.2,67.1c268.5,127.4 433,332.4 386.7,430" fill="#eaa2d9" fill-rule="nonzero" id="path156"/>
    <path d="m10004.17,18534.4c458,40.8 796.3,445.2 755.5,903.3c-6.6,73.9 -22.7,144.6 -46.8,211.2c-370.2,78.2 -898.7,295.8 -1163,455.8c-292.6,-150.3 -480.1,-467.1 -449.1,-814.9c40.9,-458 445.3,-796.3 903.4,-755.4" fill="#ffffff" fill-rule="nonzero" id="path158"/>
    <path d="m10004.17,18534.4l4.2,-47c228.5,20.3 429.3,126.6 572.4,283.9c143.2,157.3 229.4,366.1 229.4,591.5c0,26.2 -1.2,52.6 -3.5,79.1c-7,78 -23.9,152.7 -49.4,223c-5.6,15.3 -18.7,26.8 -34.6,30.1c-181.1,38.2 -404.1,111.5 -613.6,195c-104.8,41.7 -206.3,85.9 -297.7,129.5c-91.5,43.6 -172.9,86.7 -237.1,125.5c-14,8.5 -31.4,9.1 -45.9,1.6c-143.5,-73.6 -263,-185.1 -346.6,-320.2c-83.7,-135 -131.5,-293.8 -131.5,-461.8c0,-26.1 1.1,-52.4 3.5,-78.9c20.4,-228.6 126.7,-429.4 284,-572.5c157.3,-143.2 366.1,-229.4 591.5,-229.4c26.1,0 52.5,1.2 79.1,3.6l-4.2,47l-4.2,47c-23.8,-2.2 -47.4,-3.2 -70.7,-3.2c-201.2,0 -387.3,76.8 -527.9,204.8c-140.7,128 -235.4,306.7 -253.6,511c-2.1,23.7 -3.1,47.3 -3.1,70.6c0,150 42.6,291.5 117.3,412.1c74.7,120.7 181.5,220.3 309.5,286l-21.6,42l-24.4,-40.4c67.9,-41.1 151.7,-85.3 245.2,-129.9c140.4,-66.9 302.6,-134.8 465.2,-193.5c162.6,-58.7 325.3,-108.2 467.3,-138.2l9.7,46.2l-44.3,-16.1c22.7,-62.8 37.8,-129.5 44.1,-199.3c2.1,-23.7 3.1,-47.3 3.1,-70.7c0,-201.2 -76.8,-387.3 -204.8,-527.9c-128,-140.6 -306.7,-235.3 -511,-253.5l4.2,-47" fill="#000000" fill-rule="nonzero" id="path160"/>
    <path d="m9535.67,18874.7c-36,226.8 118.7,439.9 345.5,476c226.9,36 440,-118.7 476,-345.6c36,-226.8 -118.7,-439.9 -345.5,-476c-226.9,-36 -440,118.7 -476,345.6" fill="#000000" fill-rule="nonzero" id="path162"/>
    <path d="m9615.67,18866.6c-10,63 33,122.2 96,132.2c63,10 122.2,-33 132.2,-96c10,-63 -33,-122.2 -96,-132.2c-63,-10 -122.2,32.9 -132.2,96" fill="#ffffff" fill-rule="nonzero" id="path164"/>
    <path d="m9774.37,19107.1c-6,37.8 19.8,73.3 57.6,79.3c37.8,6 73.3,-19.7 79.3,-57.6c6,-37.8 -19.7,-73.3 -57.5,-79.3c-37.9,-6 -73.4,19.8 -79.4,57.6" fill="#ffffff" fill-rule="nonzero" id="path166"/>
    <path d="m6925.57,17738c458.1,40.8 796.4,445.2 755.5,903.4c-38.9,436.4 -407.7,764 -838.7,758.7c-222.7,-369.6 -511,-753.5 -819.4,-914.5c44.7,-454.1 447.2,-788.2 902.6,-747.6" fill="#ffffff" fill-rule="nonzero" id="path168"/>
    <path d="m6925.57,17738l4.2,-47c228.5,20.3 429.3,126.6 572.4,283.9c143.3,157.3 229.4,366.1 229.4,591.5c0,26.2 -1.1,52.6 -3.5,79.1c-20.4,228.6 -126.6,429.4 -284,572.5c-157.3,143.2 -366.1,229.3 -591.5,229.3c-3.6,0 -7.2,0 -10.9,0c-16.3,-0.3 -31.4,-8.9 -39.8,-22.9c-110.4,-183.2 -236.9,-369.7 -373,-529.2c-68,-79.7 -138.4,-152.7 -210.1,-215.2c-71.7,-62.5 -144.7,-114.5 -217.6,-152.6c-17.1,-8.9 -27.1,-27.3 -25.2,-46.5c22.3,-226.5 129.1,-425.1 286.2,-566.7c156.9,-141.6 364.6,-226.8 588.5,-226.8c26.2,0 52.6,1.2 79.1,3.6l-4.2,47l-4.2,47c-23.7,-2.1 -47.3,-3.2 -70.7,-3.2c-199.9,0 -385,75.9 -525.3,202.5c-140.3,126.6 -235.5,303.4 -255.5,505.9l-46.9,-4.6l21.8,-41.9c81.3,42.5 160,98.9 236,165.2c114.1,99.4 222.3,221.3 323.3,353.2c100.9,131.9 194.5,273.9 278.7,413.6l-40.4,24.4l0.6,-47.2c3.2,0.1 6.3,0.1 9.6,0.1c201.2,0 387.4,-76.8 528,-204.8c140.6,-128 235.3,-306.7 253.5,-511c2.1,-23.8 3.1,-47.4 3.1,-70.8c0,-201.2 -76.8,-387.3 -204.7,-527.9c-128.1,-140.6 -306.8,-235.3 -511.1,-253.5l4.2,-47" fill="#000000" fill-rule="nonzero" id="path170"/>
    <path d="m6448.47,18075.5c-36.1,226.9 118.7,440 345.5,476c226.9,36 440,-118.7 476,-345.6c36,-226.8 -118.7,-439.9 -345.6,-475.9c-226.8,-36 -439.9,118.7 -475.9,345.5" fill="#000000" fill-rule="nonzero" id="path172"/>
    <path d="m6537.07,18070.2c-10,63 33,122.2 96,132.2c63,10 122.2,-33 132.2,-96c10,-63 -33,-122.2 -96,-132.2c-63,-10 -122.2,32.9 -132.2,96" fill="#ffffff" fill-rule="nonzero" id="path174"/>
    <path d="m6695.77,18310.7c-6,37.8 19.8,73.3 57.6,79.3c37.8,6 73.3,-19.8 79.3,-57.6c6,-37.8 -19.7,-73.3 -57.5,-79.3c-37.9,-6 -73.4,19.8 -79.4,57.6" fill="#ffffff" fill-rule="nonzero" id="path176"/>
    <path d="m10164.17,18334.1c63.1,-97.2 320.7,-42.1 575.5,123.2c254.8,165.3 410.2,378.1 347.1,475.4c-63.1,97.2 -320.8,42 -575.5,-123.3c-254.8,-165.3 -410.2,-378.1 -347.1,-475.3" fill="#f47d1f" fill-rule="nonzero" id="path178"/>
    <path d="m7001.17,17556.4c-9.7,-115.4 -262.9,-188.3 -565.6,-162.7c-302.6,25.5 -540,139.9 -530.2,255.4c9.8,115.5 263,188.4 565.6,162.8c302.6,-25.6 540,-140 530.2,-255.5" fill="#f47d1f" fill-rule="nonzero" id="path180"/>
    <path d="m9363.97,21087.1c473.7,-495.1 1195.9,-629.4 1848.1,-717.1c-191.8,75.6 -386.9,145.8 -572.9,235c-131.3,44.6 -1340.3,750.6 -1275.2,482.1" fill="#000000" fill-rule="nonzero" id="path182"/>
    <path d="m6488.27,20475.6c-461.8,-513.7 -687.9,-1193.2 -1200.8,-1666.5c584.5,370.8 1116.9,940.2 1277.6,1629.7c8.6,42.5 -49.6,70 -76.8,36.8" fill="#000000" fill-rule="nonzero" id="path184"/>
    <path d="m10545.67,17570.7c-1.9,0.7 -152.9,61.2 -399.2,121.7c-246.2,60.4 -587.9,120.9 -971.5,120.9c-329.8,0 -690.9,-44.7 -1048.4,-173.6c-357.4,-128.8 -711,-342.2 -1023.3,-677.3c-21.9,-23.4 -20.6,-60.2 2.8,-82.1c23.5,-21.8 60.2,-20.5 82.1,2.9c299.4,321 635.8,523.8 977.8,647.2c342,123.3 689.6,166.8 1009,166.8c371.4,0 704.3,-58.8 943.8,-117.6c119.8,-29.4 216.2,-58.8 282.4,-80.7c33.1,-11 58.7,-20.1 75.8,-26.4c8.6,-3.1 15.1,-5.6 19.4,-7.3c2.1,-0.8 3.7,-1.4 4.7,-1.8l1.1,-0.4l0.3,-0.1l0,0c29.7,-12 63.5,2.5 75.5,32.2c11.9,29.8 -2.5,63.6 -32.3,75.6" fill="#000000" fill-rule="nonzero" id="path186"/>
    <path d="m8968.17,17338.3c55,-5.4 108.2,-15.9 156.8,-30.5c24.1,-7.2 37.6,-35.2 30.1,-62.4c-7.5,-27.3 -33,-44 -57.2,-36.2c-164.3,49 -400.5,48.5 -530.7,-69.7c-20,-18.1 -48.7,-15.3 -64.2,6.3c-15.4,21.6 -11.7,53.7 8.3,71.9c117.2,106.4 294.5,136.3 456.9,120.6" fill="#000000" fill-rule="nonzero" id="path188"/>
   </g>
  </g>
 </g>
</svg>