<?xml version="1.0"?>
<svg width="2800" height="4100" xmlns="http://www.w3.org/2000/svg" xmlns:svg="http://www.w3.org/2000/svg" version="1.1">

 <g class="layer">
  <title>Layer 1</title>
  <g id="g8" transform="matrix(1.33333, 0, 0, -1.33333, 0, 5333.33)">
   <g id="g10" transform="translate(-757.5, 468.75) scale(0.1)">
    <path d="m25915.9,12628.1l-759.1,-5117.6c-3.4,-22.8 0.6,-46.2 11.5,-66.5l994.1,-1866.5l-1238,-443.8c-56.1,-20.1 -85.2,-81.8 -65.1,-137.9c20.1,-56.1 81.8,-85.2 137.8,-65.1l1355.5,485.9c29.4,10.5 53,33.5 64.2,62.6c11.3,29.1 9.3,62 -5.4,89.6l-1036.1,1945.2l754,5082.5c8.7,58.9 -32,113.7 -90.9,122.4c-58.9,8.8 -113.7,-31.9 -122.5,-90.8" fill="#000000" fill-rule="nonzero" id="path12"/>
    <path d="m24912.5,4956.4c-250.5,92.1 404.8,1138.3 1379.6,578.2c-755.7,-262.4 -1117.2,-509.5 -1379.6,-578.2" fill="#000000" fill-rule="nonzero" id="path14"/>
    <path d="m21618.4,11479.2l1790.7,-4041.9l-1345.7,-1885.6c-21.1,-29.6 -25.9,-67.7 -12.7,-101.6c13.1,-34 42.3,-58.8 77.9,-66.5l1380.3,-296.2c58.2,-12.5 115.5,24.6 128,82.8c12.5,58.2 -24.6,115.5 -82.8,128l-1219.8,261.8l1286.1,1802.1c22.1,31.1 26.2,71.4 10.8,106.3l-1815.7,4098.2c-24.1,54.4 -87.8,79 -142.2,54.9c-54.5,-24.1 -79,-87.8 -54.9,-142.3" fill="#000000" fill-rule="nonzero" id="path16"/>
    <path d="m23588.5,5128.6c233.6,129.1 -573,1063.6 -1451.4,361.9c786.8,-144.6 1181.6,-333.8 1451.4,-361.9" fill="#000000" fill-rule="nonzero" id="path18"/>
    <path d="m25238.9,17680.2l2372.6,-2942l-2965.6,911.1c-57,17.5 -117.3,-14.5 -134.8,-71.4c-17.5,-56.9 14.5,-117.2 71.4,-134.7l3302.4,-1014.6c45.5,-14 94.3,3.2 121,42.6c26.6,39.4 24.5,91.1 -5.4,128.2l-2593.7,3216.2c-37.4,46.4 -105.3,53.6 -151.6,16.2c-46.4,-37.3 -53.7,-105.2 -16.3,-151.6" fill="#000000" fill-rule="nonzero" id="path20"/>
    <path d="m16195.2,24902.4l1113.8,-4172.6l0.3,-1.7l6.5,-23.8l119.5,-448l2960.4,-11089.9c57,-266.6 677.9,-381.1 1584.6,-339.1c585.4,27.3 1290.1,119.9 2038.8,279c1907.8,405.4 3378.7,1089.6 3285.4,1528.4l-0.1,0.8l-93,582.6l0.3,0l-1785.7,11209.6l0,0.3l-3.8,24.3l-0.4,1.9l-679.4,4264.7c54.4,-543.6 -1745.8,-1371.9 -4069.9,-1865.8c-898.5,-191 -1746.3,-304.6 -2457.7,-341.7c-1128.3,-59.4 -1914.5,72.8 -2019.6,391" fill="#e3e1e0" fill-rule="nonzero" id="path22"/>
    <path d="m17274.5,22128.8l3043,-11545.6c75.1,-353.2 1079.4,-452.7 2402.6,-279.6c320,41.7 659,99.8 1007.6,173.9c1789.9,380.4 3165.4,1044.7 3072.1,1483.4l-0.1,0.7l-1915.2,11784.5c54.5,-515.5 -1543,-1277.6 -3611.7,-1717.3c-1714.7,-364.4 -3970.7,15.3 -3998.3,100" fill="#f5c80c" fill-rule="nonzero" id="path24"/>
    <path d="m17274.1,22130.6l0.3,-1.6l6.3,-23.2c156.5,-480.1 1923.3,-516.8 3992,-77.2c2068.2,439.6 3667.3,1191.4 3615.5,1693.7l-0.1,0.3l-3.7,23.7l-0.4,1.9c-110.8,500.1 -1898.9,544.3 -3997.6,98.3c-2099.2,-446.2 -3715.2,-1214.1 -3612.3,-1715.9" fill="#ffea8c" fill-rule="nonzero" id="path26"/>
    <path d="m16188.5,24927.7l6.2,-23.8l0.3,-1.5c171.7,-518.9 2153.2,-543.2 4477.5,-49.2c337.6,71.8 664.1,150.7 975.6,234.9l9.5,151.9c18.1,5 36.2,10.1 53.9,15c18,5.1 35.7,10 53.4,15c35.8,10 71.1,19.9 106,30.1c27.9,7.9 55.3,15.7 82.3,23.8c15,4.4 30,8.8 45,13.2c27.1,7.7 53.7,15.8 79.8,24.1c136.4,41 268.4,82.6 395.2,125.5c27.2,8.9 54.4,17.9 81.1,27.2c29.8,9.9 59.1,20.1 88.4,30.7c20.4,7.2 40.8,14.3 60.8,21.3l-9.5,-157.9c1262.8,438.6 2085.5,940.8 2048.3,1310.9l0,1.6l-3.9,24.3c-115.4,542.8 -2122.8,576.3 -4483.7,74.5c-2360.9,-501.7 -4181.6,-1348.8 -4066.2,-1891.6" fill="#efefef" fill-rule="nonzero" id="path28"/>
    <path d="m16520.5,24998.1l5.4,-20.1l0.5,-1.4c150.6,-443.1 1972.4,-437.3 4115.9,18.2c2143.6,455.6 3810,1191.1 3767.4,1657.2l-0.1,1.5l-3.3,20.5c-98.7,464.7 -1943.9,466.2 -4121.5,3.4c-2177.7,-462.8 -3863,-1214.6 -3764.3,-1679.3" fill="#e0c7b8" fill-rule="nonzero" id="path30"/>
    <path d="m16520.7,24998.3l5.2,-20.4l0.6,-1.1c34.2,-101.2 156,-178.9 349.1,-233.6c37.6,-10.3 77.6,-20.2 120.2,-29.1c361.9,-74.6 907.6,-85.4 1565.8,-32.4c615.3,48.2 1328.2,153.1 2080.8,313c353.3,75.1 693.8,157.4 1015.2,245.3c18.1,5 36.2,10.1 53.9,15c18,5.1 35.7,10 53.4,15c35.8,10 71.1,19.9 106,30.1c27.9,7.9 55.3,15.7 82.3,23.8c15,4.4 30,8.8 45,13.2c27.1,7.7 53.7,15.8 79.8,24.1c136.4,41 268.4,82.6 395.2,125.5c27.2,8.9 54.4,17.9 81.1,27.2c29.8,9.9 59.1,20.1 88.4,30.7c20.4,7.2 40.8,14.3 60.8,21.3c19.3,6.9 38.2,13.7 57.1,20.5c614.9,222.8 1095.9,456.6 1375.9,671.6c68.2,52.4 124.4,103 167.8,152.5c75.4,85.8 111.9,167.3 105.3,241.6l0.1,1.3l-3.6,20.7c-98.7,464.3 -1943.8,466.1 -4121.3,3.3c-2177.4,-462.8 -3862.7,-1214.8 -3764.1,-1679.1" fill="#e3e1e0" fill-rule="nonzero" id="path32"/>
    <path d="m16995.9,24714.1c361.8,-74.6 907.6,-85.5 1565.9,-32.6c614.9,48.6 1328.1,153.2 2080.7,313.2c792.1,168.3 1518.9,374.8 2118.3,591.7c614.9,222.8 1095.7,456.7 1375.8,671.5c-699.6,143.5 -2087.4,50.4 -3645.7,-280.8c-1604.4,-341 -2941.8,-839.1 -3495,-1263" fill="#cccbca" fill-rule="nonzero" id="path34"/>
    <path d="m18561.8,24681.5c599.4,216.9 1325.7,423.4 2117,591.5c753.5,160.2 1466.7,264.4 2082,313.4c-19,-6.8 -38.1,-13.7 -57.3,-20.5c-588.1,-209.4 -1293.9,-408.2 -2061,-571.2c-752.6,-160 -1465.8,-264.6 -2080.7,-313.2" fill="#c3c2c1" fill-rule="nonzero" id="path36"/>
    <path d="m16195,24902.4l1114.1,-4172.5l0.4,-1.9l6.2,-23.8l119.5,-447.9l2960.5,-11089.8c57,-266.5 677.9,-381.4 1584.7,-339c585.1,27.1 1289.9,119.5 2038.8,278.6c1907.7,405.5 3378.5,1090 3285.3,1528.7l-0.1,0.8l-34.5,216.3c-2484.2,-653.1 -3694.6,-811.1 -4549.8,-548.3c-1323.2,-173.1 -2327.5,-73.6 -2402.6,279.6l-3043,11545.6c27.6,-84.7 -665.6,2156.1 -741.1,2511.2c-128.4,59.8 -309,173.5 -338.4,262.4" fill="#cccbca" fill-rule="nonzero" id="path38"/>
    <path d="m17274.5,22128.8l3043,-11545.6c75.1,-353.2 1079.4,-452.7 2402.6,-279.6c-548.9,168.4 -951.8,510.6 -1451.1,1006.5c-977.5,971.3 -2637.6,6313.9 -3777.1,10604.5c-115.3,58.4 -189.8,129.5 -217.4,214.2" fill="#ddab1f" fill-rule="nonzero" id="path40"/>
    <path d="m24312.5,22306.9c0,0 -1109.6,-367.5 -1569.4,-351.2c-459.8,16.4 1832.8,-7006.5 2057.5,-7032.9c1209.1,-142.4 -488.1,7384.1 -488.1,7384.1" fill="#fffbf5" fill-rule="nonzero" id="path42"/>
    <path d="m13949.8,26391.1c-6,16.3 -12.4,32.6 -19.1,49c-4.6,11.2 -4.8,23.7 -0.6,35.1c483.7,1329.9 -1379.2,2093.6 -1834.6,2190.7c-32.7,7 -61.7,-20.6 -57.7,-53.7c39.4,-325.5 -660.9,-201.2 -1062.4,-233c-37.9,-3 -57,-46.8 -34.2,-77.2c266.1,-354.9 -203,-344 -724.24,-356.1c-32.75,-0.8 -54.55,-33.2 -44.24,-64.3c71.4,-214.7 -384.77,-357.7 -853.06,-412c-27.87,-3.2 -48.03,-29.3 -42.43,-56.9c48.48,-239.2 -422.47,-579.4 -838.03,-576.3c-40.31,0.3 -62.95,-46.2 -38.1,-77.9c165.33,-211 187.96,-310.3 -329.87,-416.5c-20.81,-4.2 -33.6,-19.4 -37.4,-36.5c1598.53,-245.7 4354.77,-85.7 5915.97,85.6" fill="#217c5c" fill-rule="nonzero" id="path44"/>
    <path d="m12311.2,28351.2c-32.7,7 -61.7,-20.6 -57.7,-53.8c39.4,-325.4 -660.9,-201.1 -1062.4,-232.9c-37.9,-3 -57,-46.8 -34.2,-77.2c266.1,-354.9 -203,-344 -724.2,-356.1c-32.8,-0.8 23.7,-129.4 19.3,-218.8c-11.3,-225.9 -274.58,-109.5 -742.86,-163.7c-27.88,-3.3 -48.03,-29.4 -42.43,-56.9c48.48,-239.2 -512.46,-503.5 -928.01,-500.5c-40.31,0.3 -62.95,-46.2 -38.1,-77.9c69.25,-88.4 253.8,-236.8 19.57,-384.7c-245.21,19.2 -475.88,44.4 -686.34,76.8c3.8,17.1 16.59,32.3 37.4,36.5c517.83,106.2 495.2,205.5 329.87,416.5c-24.85,31.7 -2.21,78.2 38.1,77.9c415.56,-3.1 886.51,337.1 838.03,576.3c-5.6,27.6 14.56,53.7 42.43,56.9c468.29,54.3 924.46,197.3 853.06,412c-10.31,31.1 11.49,63.5 44.24,64.3c521.24,12.1 990.34,1.2 724.24,356.1c-22.8,30.4 -3.7,74.2 34.2,77.2c401.5,31.8 1101.8,-92.5 1062.4,233c-4,33.1 25,60.7 57.7,53.7c331.1,-70.6 1405.8,-493.4 1782.3,-1229.9c-471.1,542.5 -1286,855.4 -1566.6,915.2" fill="#1b755f" fill-rule="nonzero" id="path46"/>
    <path d="m13949.8,26391.1c-1561.2,-171.3 -4317.44,-331.3 -5915.97,-85.6c-4.63,-21 4.17,-44.7 28.24,-54.9c396.54,-168.1 621.3,-452 556.14,-607.8c-12.37,-29.5 8.49,-62.4 40.28,-65.9c449.6,-49.4 616.7,-235.5 574.64,-370c-9.57,-30.5 11.99,-61.9 44.01,-63c330.67,-11.3 746.57,-125.7 772.62,-338.3c3.7,-30.4 33.93,-50.1 63.03,-40.3c411.31,138.1 993.61,-15.4 903.01,-242.4c-14.2,-35.5 18.4,-72.2 55.9,-64.5c480.5,98.4 800.8,290.2 886.9,-16.9c8.1,-28.9 40.2,-43.8 67.3,-30.7c574.4,276.7 937.8,648.6 1025.6,377.8c8,-25 34.8,-38.9 59.8,-31.1c395.2,124.8 1172.6,730.5 838.5,1633.6" fill="#338e6b" fill-rule="nonzero" id="path48"/>
    <path d="m8314.2,26267.8c2198.3,-173.2 4429.9,-23.4 6605.7,313.3c66.6,16.1 90.9,-91.1 21.5,-103.4c-2188.4,-303.8 -4425.1,-418.4 -6627.2,-209.9" fill="#6ccc96" fill-rule="nonzero" id="path50"/>
    <path d="m9378.14,27126.8c420.42,-196.1 657.18,-607.5 948.06,-938.9c-61.8,-264.7 -552.36,-786.5 -799.98,-914.5c304.29,202.3 623.9,574.3 779.28,902.5c-289.6,328.4 -518.46,738.9 -927.36,950.9" fill="#6ccc96" fill-rule="nonzero" id="path52"/>
    <path d="m10562.8,27656c380,-270.5 698.1,-618.7 1009.2,-963.7c111.4,-149.9 289.9,-288.7 341.1,-468c-369.2,-447 -665.1,-982.8 -1114.1,-1354.3c426.4,370.1 742.2,943.3 1093.5,1365.6l-0.3,0c-361.4,532.1 -830.2,1013 -1329.4,1420.4" fill="#6ccc96" fill-rule="nonzero" id="path54"/>
    <path d="m12129.7,28364.1c354.5,-389 648.5,-829.5 946.4,-1262.2c144.4,-249 370.5,-488 442.4,-762.9c-335.4,-469 -610,-1021.5 -1078.5,-1372.4c459.7,363 726,918.7 1062.3,1388.9c-0.9,-0.2 -1.5,-1.7 -1.3,-2.3c-381.3,711.2 -864.6,1381.9 -1371.3,2010.9" fill="#6ccc96" fill-rule="nonzero" id="path56"/>
    <path d="m14136.1,27651.6c5.4,12 10.7,24.2 15.8,36.6c3.5,8.6 9.7,15.7 17.4,19.9c899.7,504.3 411.9,1845 247.3,2122.8c-11.8,20 -39.4,18.8 -54.3,-1.7c-146.1,-200.8 -411.9,212.4 -616.3,391.7c-19.3,17 -50.5,1.9 -55.1,-26.2c-54.7,-328.6 -269.3,-92.2 -520,156.9c-15.8,15.7 -42.4,8.3 -53.3,-14.1c-75.1,-154.8 -361.5,-10.6 -608.7,189.1c-14.7,11.8 -37.4,7.2 -48.7,-10.9c-98.2,-157.3 -491.3,-115.8 -684.8,90c-18.7,19.9 -52.9,5.1 -57.2,-24.8c-29.2,-198.9 -68.8,-265.4 -365.5,-70.3c-11.9,7.8 -25.6,5.7 -36,-2c625.8,-921.9 2000.1,-2186 2819.4,-2857" fill="#217c5c" fill-rule="nonzero" id="path58"/>
    <path d="m14358.6,29549.4c-11.8,20 -39.4,18.9 -54.3,-1.6c-146.1,-200.9 -411.8,212.3 -616.3,391.7c-19.3,16.9 -50.4,1.9 -55.1,-26.3c-54.7,-328.6 -269.3,-92.2 -520,157c-15.8,15.6 -54.3,-83.9 -101.6,-131.5c-119.6,-120.5 -184.2,73.7 -431.4,273.4c-14.7,11.9 -37.4,7.2 -48.7,-10.9c-98.2,-157.3 -495.1,-29.3 -688.6,176.5c-18.8,20 -52.9,5.1 -57.3,-24.8c-12.2,-83.3 -0.7,-256.7 -185.4,-224.2c-105.4,131.1 -200.8,258.5 -283.2,379.9c10.4,7.7 24.1,9.8 36,2c296.7,-195.1 336.3,-128.6 365.5,70.3c4.3,29.9 38.5,44.7 57.2,24.8c193.5,-205.8 586.6,-247.3 684.8,-90c11.3,18.1 34,22.7 48.7,10.9c247.2,-199.7 533.6,-343.9 608.7,-189.1c10.9,22.4 37.5,29.8 53.3,14.1c250.7,-249.1 465.3,-485.5 520,-156.9c4.6,28.1 35.8,43.2 55.1,26.2c204.4,-179.3 470.2,-592.5 616.3,-391.7c14.9,20.5 42.5,21.7 54.3,1.7c119.6,-201.9 410.1,-965.5 214.2,-1561.2c53.3,533.9 -170.8,1108.6 -272.2,1279.7" fill="#1b755f" fill-rule="nonzero" id="path60"/>
    <path d="m14136.1,27651.6c-819.3,671 -2193.6,1935.1 -2819.4,2857c-12.8,-9.4 -20.7,-27 -14.5,-44.5c101,-288.5 62.9,-557.2 -46.5,-612.1c-20.7,-10.4 -27.6,-39 -14.4,-56.6c186,-248.2 170.3,-434.1 82.5,-488.5c-20,-12.3 -25.7,-40.4 -11.3,-56.7c149.5,-168.7 286.8,-436.7 191.5,-568.1c-13.6,-18.8 -9.4,-44.6 9.2,-53.4c262.8,-124.9 458.4,-496.4 301.1,-578.6c-24.6,-12.8 -27.9,-49.3 -6.4,-63.4c275.3,-181.1 522.6,-231.4 407.6,-444.9c-10.8,-20.1 -3.2,-44.2 16.1,-50.2c409.5,-127.6 768.1,-98.7 672.3,-292.8c-8.8,-17.9 -3.3,-38.8 12.4,-46.7c248.5,-124.5 919.7,-168.3 1219.8,499.5" fill="#338e6b" fill-rule="nonzero" id="path62"/>
    <path d="m11429.2,30349.9c943.9,-1176.1 2066.9,-2188.1 3258.2,-3068.7c39.4,-23.7 -3.4,-95.5 -42.2,-68.2c-1180.6,905 -2288.1,1939.4 -3216,3136.9" fill="#6ccc96" fill-rule="nonzero" id="path64"/>
    <path d="m12362.9,30306.6c98.1,-315.8 1.1,-661.5 -30,-989.2c-162.9,-117.3 -657,-167.5 -838,-117.3c245.2,-36.5 583.3,14 822.3,120.8c30.2,325.4 130.4,666.7 45.7,985.7" fill="#6ccc96" fill-rule="nonzero" id="path66"/>
    <path d="m13186.5,30020.1c41.5,-337.4 14.7,-687.9 -13.8,-1033c-23.6,-138.3 -10,-303.4 -76.7,-428.6c-399.4,-68 -809.2,-221.6 -1207.8,-208.4c387.2,-2.9 825.4,161.8 1203.8,224.8l-0.1,0.2c99.6,474.3 122.8,972.7 94.6,1445" fill="#6ccc96" fill-rule="nonzero" id="path68"/>
    <path d="m14280,29645.8c-30.5,-391.1 -115.3,-781.1 -194.4,-1168.8c-58.2,-209.8 -73,-454.1 -178.3,-642.8c-394.6,-96.9 -802.9,-270.2 -1200.3,-235.9c399.4,-23.3 805.4,156 1201.1,253.1l-1.8,-0.7c180.8,583.9 293.3,1195.4 373.7,1795.1" fill="#6ccc96" fill-rule="nonzero" id="path70"/>
    <path d="m12504.9,25996.7c53.9,-229.3 129.3,-456.5 227.4,-680c80.2,-182.3 172.8,-355.2 276.8,-518.1c902.6,-1421.8 4271.9,-1531.8 4271.9,-1531.8l51.4,643.7l32.3,401.1l26.8,333.5l0.4,4l55,686.7l64.2,-35.8l1092.6,-616.2l1.9,-1.2l1.3,1.5c279.1,24.2 574.3,59 881.5,104.8c17.5,2.1 35.3,4.7 53,7.7c405.2,637.5 619.7,1386 606.1,2149.8c-5.1,290.4 -43,582.9 -116.1,872.4c-52,209 -122.8,416.8 -212.7,620.2c-80.2,182.3 -172.7,354.8 -276,518.3c-869.8,1370.5 -2510.3,2047.3 -4084.1,1706c-0.7,-0.1 -1.9,0 -3.4,-0.7c-92.1,-20.4 -184.4,-44 -275.9,-71.4c-156.5,-45.6 -311.9,-102.6 -464.6,-170.1c-210,-92.5 -407,-200.9 -590.9,-324.2c-274.6,-182.7 -519.7,-397 -733,-635.3c-828.8,-927 -1178.3,-2220.5 -885.9,-3464.9" fill="#f4bb06" fill-rule="nonzero" id="path72"/>
    <path d="m15428.7,24182.1c-254.8,-637.9 -911.5,169.1 -1196.1,345c-164.9,134 -164,385.4 0.6,518.5l1599.4,1484.9c70,58.8 359.1,130.2 332.3,44.3l-736.2,-2392.7zm-158.7,5333.5c-240.6,728.8 1057.1,580.8 1465.2,538.3c219.4,-32.3 358,-252.9 295.4,-465.1c-501.6,-1566.2 -663,-2403.1 -845.4,-2351.8c-168.8,47.9 -352.9,870.7 -915.2,2278.6zm1172.7,-2223.9l661.3,2286c57.8,194.9 279.4,287.4 458.3,192.3c257.1,-183.8 1230.4,-651.2 745,-1115.5l-1766.7,-1491.5c-24.8,-20 -67.8,-39.1 -94,-20.7c-39,24 -21,94.8 -3.9,149.4zm301.6,-619.6c26.1,49.4 -87.9,150.7 -17.6,151.7l2378.6,86.9c146.9,-8.3 235.6,-62 283.8,-144.2c180.3,-306.2 -202.2,-1011 -263.2,-1260.4c-75.3,-191.5 -305.4,-268.3 -480,-159.9l-1172.1,782.4l-694.2,463.3c-38.7,24.4 -56.5,39 -35.3,80.2zm-957.4,-42.8l-1748.2,-1497.5c-162.3,-131.4 -404.9,-90.8 -511.9,88.2c-179.2,349.4 -772.5,1396.3 -81.4,1483.8l2225,70.2c87.7,33.8 157.5,-116.1 116.5,-144.7zm-680.9,2811.6l882.1,-2034.5c37.2,-79 -42.4,-128.6 -85.3,-182c-32.4,-42.3 -105.8,-96.6 -151.3,-68.4l-1924.7,1175.4c-164.5,102.2 -201,326.5 -76.6,474.5c304.3,303.5 959.5,1280.4 1355.8,635zm3973.4,-2457.2l-2255.3,-41.9c-86.4,-0.8 -68,107.9 -105.6,161c-14.8,28.3 -9.4,63 15.8,83.1l1757.3,1455.1c601,406 773.1,-934.5 898,-1242.9c52.4,-205.3 -98.1,-406.8 -310.2,-414.4zm-5284.7,1281.1l1909,-1219.8c22.1,-13.7 10.9,-109.3 10.6,-109.8c-3.7,-31.5 -30.8,-55.6 -62.5,-56.7l-2172.9,-99.4c-218,-8.1 -388.4,184.2 -354.1,399.6c91.1,308.8 89.1,1368.5 669.9,1086.1zm2783.5,-5396.5c233,18.4 460,57 679.9,114.1l1.7,25.5l21.2,258.9l51.4,643.7c-288.3,-313.3 -1259.4,-242.6 -1562.9,-201c-204,33.2 -333.9,237.2 -274.8,435.6c775.4,2503.1 645,2968.6 1232.5,1607.5c122.9,-286 278.1,-652.2 479.6,-1097.4c49.6,-109.8 102.3,-224.2 157.9,-343.6l26.8,333.5l0.4,4l-544.3,1174.6l-272.7,589.1c-18.7,39.1 30.3,82.6 67,58.1l678.3,-409.6l1297.4,-784.1c176.4,-109.6 213.7,-350.9 77.6,-507.8c-26.2,-25.1 -55.9,-54.1 -88.3,-85.3c279.1,24.2 574.3,59 881.5,104.8c17.5,2.1 35.3,4.7 53,7.7l99.7,15.2c28.5,4.4 57.4,9 86.3,13.9c384.5,637.1 589.2,1379.2 546.3,2147.5c-15.6,289.3 -66.6,581.9 -156.3,874.6c-17,68.6 -35.1,136.9 -55.3,204c-672.5,2246.9 -3240.4,3533.1 -5408.6,2492.3c-4110.6,-1716.5 -2383.3,-8071.1 1924.7,-7675.8" fill="#fffbe0" fill-rule="nonzero" id="path74"/>
    <path d="m12503.6,25216.6c234.6,-531.8 552.6,-996.1 935.6,-1376.4c806.5,-800.6 1898.7,-1225.6 3094,-1110.7c216,20.8 464,69.5 715.5,137.7l3.2,41l6.2,74.2l1.7,25.5c0,0 -498.4,0.2 -750.8,-24c-1084.6,-104.5 -2111,263.9 -2890.1,1037.2c-231.7,230.7 -436,490.7 -609.8,777.5c-100.8,164.7 -191.2,338.9 -271.4,520.8c-98.2,221.9 -175.5,448.7 -232.8,677.3c-42.4,169.3 -73.9,340 -93.7,510.4c-1.4,10.1 -2.4,20.6 -3.4,30.8c-63.7,584.9 5.4,1169.7 208.2,1716.4c280,753.6 805.1,1391.1 1507.8,1842.6c185.8,119.7 384,226.8 593.3,318.7c153.8,67.8 307.9,126.9 462.2,175.6c276.5,89.1 553.8,148.4 828.4,176.9l36.7,3.8c21.1,2.1 41.9,3.7 63.1,5c8.2,1 16.4,1.5 25.1,2.2c768.4,55.6 1511.2,-126.6 2153.5,-530c503.8,-315.9 930.7,-756.3 1256.6,-1291.8c100,-165 190.7,-338.3 270.8,-520.2c89.3,-202.7 162,-409.3 217.9,-618.3c77.8,-286.9 124.1,-578.1 139.3,-867.1c29.9,-559.4 -57.3,-1111.4 -261.8,-1614.1c-75.6,-184.8 -164.7,-360 -267.8,-525.8c28.5,4.4 57.4,9 86.3,13.9c25.1,3.8 50.2,7.9 75.6,12.1c68.1,11.3 137,23.1 206.5,35.5c10.4,1.8 20.8,3.6 31.1,5.8c336.2,642.8 467.8,1378.5 403.8,2129.6c-43.3,511.5 -176.7,1030.2 -397.5,1531c-727.5,1651.9 -2263.6,2655.2 -4026.9,2485.7l-38.7,-3.4c-444.3,-46.2 -1009.2,-125.6 -1472.8,-330.5c-2237.4,-985.5 -2920.4,-3395.7 -2004.9,-5474.9" fill="#ffea8c" fill-rule="nonzero" id="path76"/>
    <path d="m12385.5,25164.4c241.4,-548.7 570,-1027.5 964.4,-1419.7c831.8,-826 1958.7,-1263.9 3191,-1145.5c228.9,22.3 461.4,63.3 696.7,124.9l11.1,143.1l3.2,41c-243.9,-67.8 -488.2,-113.4 -730.4,-136.9c-1143.6,-109.9 -2225.9,279.3 -3047.1,1094.7c-386,382.9 -698.7,843.5 -929.6,1368.6c-447.3,1014.9 -493.1,2113.9 -128.5,3094.5c373.6,1005.1 1055.4,1827 2110.8,2292.1c452,199.4 1014.7,311.4 1466.3,358.7l37.9,3.7c843.1,81.1 1660.6,-109.2 2364.1,-550.6c694.6,-435.6 1251.3,-1096.8 1610.6,-1911.1c210.9,-478.3 340.2,-1002.2 383,-1524.6c53.3,-650.1 -28.2,-1298.6 -255.3,-1854.8c-37.6,-92.9 -79.2,-182.7 -124.2,-269.2c10.4,1.8 20.8,3.6 31.1,5.8c30.4,5.3 60.7,10.9 91.4,16.7c331.6,651.3 472.6,1387.4 422.3,2134.3c-35.2,523.9 -164.8,1053 -389,1561.9c-750.7,1703.2 -2334.7,2738.9 -4153.5,2564.1c-13.3,-1.3 -26.6,-2.5 -40.2,-4.2c-458,-47.5 -931.2,-173.2 -1409.9,-384.1c-2307,-1016.2 -3121.2,-3458.7 -2176.2,-5603.4" fill="#f47d1f" fill-rule="nonzero" id="path78"/>
    <path d="m18325.9,28029.8c1.3,6.6 2.5,13.2 3.8,19.8c4.4,12.9 11.5,24 21.6,33.2c34.4,25 68.9,50 103.3,75c7.6,7.5 16.4,12.5 26.5,15.1c9.7,4.4 19.9,6.1 30.7,5.1c18.7,-1.1 40.8,-10.7 53,-25.4c13.2,-15.7 22.4,-36.1 20.2,-57.1l-3.8,-19.9c-4.3,-12.9 -11.5,-24 -21.5,-33.2c-34.5,-25 -69,-50 -103.4,-75c-7.6,-7.4 -16.4,-12.4 -26.5,-15.1c-9.6,-4.4 -19.9,-6.1 -30.7,-5.1c-18.7,1.2 -40.8,10.8 -53,25.4c-13.1,15.7 -22.4,36.2 -20.2,57.2" fill="#fff0c9" fill-rule="nonzero" id="path80"/>
    <path d="m17345.9,27311.9c6.9,18.1 19.6,37.2 38.2,44.8c65.1,26.7 130.2,53.5 195.3,80.2c19.7,8.1 39.5,11.7 60.4,4.8c17.8,-5.9 36.7,-20.8 44.7,-38.1c8.6,-18.6 12.3,-40.7 4.8,-60.4c-6.8,-18.1 -19.5,-37.2 -38.1,-44.8c-65.1,-26.7 -130.2,-53.5 -195.3,-80.2c-19.7,-8.1 -39.5,-11.8 -60.4,-4.8c-17.8,5.9 -36.7,20.8 -44.7,38.1c-8.7,18.6 -12.4,40.7 -4.9,60.4" fill="#fff0c9" fill-rule="nonzero" id="path82"/>
    <path d="m17788.1,28654.7c30.5,42.2 61,84.4 91.5,126.5c12.1,16.8 28.6,29.5 49.2,33.8c18.7,4 42.9,0.4 58.7,-10.8c16.5,-11.8 30.4,-28.7 33.8,-49.2c3.3,-19.9 1.3,-42 -10.8,-58.7l-91.6,-126.6c-12.1,-16.7 -28.6,-29.4 -49.2,-33.8c-18.7,-3.9 -42.8,-0.4 -58.7,10.9c-16.4,11.7 -30.4,28.7 -33.8,49.2c-3.3,19.8 -1.3,41.9 10.9,58.7" fill="#fff0c9" fill-rule="nonzero" id="path84"/>
    <path d="m17387.3,28432.2c20.5,44.8 41,89.6 61.5,134.4c2.9,9.9 8,18.5 15.1,25.6c6,8.3 13.6,14.7 23.1,19.2c9.4,5.3 19.5,7.9 30.1,7.8c10.3,1.7 20.4,0.7 30.3,-3c18.5,-7.1 36.2,-19.7 44.8,-38.2c2.3,-6.5 4.6,-13.1 7,-19.7c2.9,-13.8 2.1,-27.3 -2.2,-40.7l-61.6,-134.4c-2.9,-9.9 -7.9,-18.4 -15.1,-25.6c-5.9,-8.3 -13.6,-14.7 -23,-19.2c-9.5,-5.3 -19.6,-7.9 -30.2,-7.8c-10.2,-1.7 -20.3,-0.7 -30.3,3c-18.5,7.1 -36.2,19.7 -44.7,38.2c-2.4,6.5 -4.7,13.1 -7.1,19.7c-2.8,13.8 -2.1,27.3 2.3,40.7" fill="#fff0c9" fill-rule="nonzero" id="path86"/>
    <path d="m17121.8,28878.9c23.2,96.4 66.5,189.4 124.7,269.6c12.2,16.7 28.6,29.4 49.3,33.8c18.7,4 42.8,0.4 58.6,-10.9c33,-23.4 48.6,-72.6 23,-107.9c-23,-31.7 -43,-65.3 -60.6,-100.3c-19.8,-42.9 -35.8,-87.3 -46.9,-133.3c-4.3,-18.1 -22.1,-36.5 -38.1,-44.7c-17.2,-9 -42,-11.9 -60.4,-4.8c-18.6,7 -36.2,19.6 -44.8,38.1c-9.2,19.9 -9.9,39.1 -4.8,60.4" fill="#fff0c9" fill-rule="nonzero" id="path88"/>
    <path d="m16268.3,28732.5c1.2,35.6 2.3,71.2 3.5,106.9c0.3,10.4 3,20 8.1,28.8c3.7,9.4 9.4,17.5 17.3,24.2c7.5,7.4 16.4,12.5 26.4,15.1c9.7,4.4 19.9,6.1 30.7,5.1c19.8,-2.1 40,-9.7 53.1,-25.4c13.6,-16.4 20.9,-35.5 20.2,-57.1c-1.2,-35.7 -2.4,-71.3 -3.5,-106.9c-0.3,-10.5 -3,-20.1 -8.2,-28.9c-3.6,-9.4 -9.3,-17.5 -17.2,-24.2c-7.6,-7.4 -16.4,-12.4 -26.5,-15.1c-9.6,-4.4 -19.9,-6.1 -30.7,-5.1c-19.7,2.1 -39.9,9.7 -53,25.4c-13.7,16.4 -20.9,35.6 -20.2,57.2" fill="#fff0c9" fill-rule="nonzero" id="path90"/>
    <path d="m15860,29322.8c0.2,84 0.3,167.9 0.5,251.9c0.1,40.8 42.3,77.4 82.6,73.2c44,-4.6 73.3,-38.8 73.2,-82.5c-0.2,-84 -0.4,-167.9 -0.6,-251.8c-0.1,-40.9 -42.3,-77.5 -82.5,-73.3c-44,4.6 -73.3,38.8 -73.2,82.5" fill="#fff0c9" fill-rule="nonzero" id="path92"/>
    <path d="m15972.1,28370c-2.5,21 -1.1,40.3 10.9,58.7c10.4,16 30,30.6 49.1,33.8c20,3.3 41.8,1.1 58.7,-10.9c16,-11.4 31.5,-29 33.9,-49.2c6.5,-56 12.9,-112 19.5,-168c2.4,-21 1,-40.3 -10.9,-58.7c-10.5,-16 -30,-30.6 -49.2,-33.8c-19.9,-3.3 -41.8,-1.1 -58.7,10.9c-16,11.4 -31.5,28.9 -33.8,49.2c-6.5,56 -13,112 -19.5,168" fill="#fff0c9" fill-rule="nonzero" id="path94"/>
    <path d="m14687.5,29034.8c-1.7,10.2 -0.6,20.3 3.1,30.3c2.9,9.9 7.9,18.4 15.1,25.6c5.9,8.3 13.6,14.7 23,19.1c18.6,8.6 40.7,12.3 60.4,4.8c6,-2.8 12,-5.7 18,-8.6c11.5,-7.5 20.4,-17.4 26.8,-29.5c20.2,-31 40.3,-61.9 60.4,-92.9c5.4,-9.4 8,-19.5 7.9,-30.1c1.7,-10.2 0.7,-20.3 -3.1,-30.3c-2.9,-9.9 -7.9,-18.4 -15.1,-25.6c-5.9,-8.3 -13.6,-14.7 -23,-19.1c-18.6,-8.6 -40.7,-12.3 -60.4,-4.8c-6,2.8 -12,5.7 -18,8.6c-11.5,7.5 -20.4,17.4 -26.8,29.5c-20.1,31 -40.3,61.9 -60.4,92.9c-5.4,9.4 -8,19.5 -7.9,30.1" fill="#fff0c9" fill-rule="nonzero" id="path96"/>
    <path d="m15206,28208.1c33.2,27.7 80.1,26.4 110.2,-5.2c54.8,-57.3 109.6,-114.6 164.4,-171.9c28.2,-29.6 26.6,-83.7 -5.2,-110.2c-33.1,-27.7 -80.1,-26.4 -110.2,5.1c-54.8,57.4 -109.6,114.7 -164.3,172c-28.3,29.5 -26.7,83.7 5.1,110.2" fill="#fff0c9" fill-rule="nonzero" id="path98"/>
    <path d="m14538.1,28423.9c5.9,17.8 20.8,36.7 38.1,44.7c18.6,8.6 40.7,12.3 60.4,4.9c19.9,-7.6 33.5,-20.2 44.8,-38.2c2.1,-3.4 4.5,-6.7 6.7,-10.1c23.3,-32.4 50.1,-61.9 80.2,-88.1c2.4,-1.9 4.7,-4 7.2,-5.9c16.6,-12.9 29.3,-27.9 33.8,-49.2c4,-18.7 0.4,-42.8 -10.9,-58.7c-11.7,-16.4 -28.7,-30.4 -49.2,-33.8c-19.4,-3.2 -42.5,-1.6 -58.7,10.9c-29,22.6 -56.9,47 -81.6,74.3c-24.7,27.4 -46.4,57.6 -66,88.8c-10.3,16.3 -10.7,42.7 -4.8,60.4" fill="#fff0c9" fill-rule="nonzero" id="path100"/>
    <path d="m13968.3,27636.3c2.1,19.7 9.7,39.9 25.4,53c5.5,3.9 11.1,7.7 16.6,11.6c12.7,6.5 26.3,9.3 40.6,8.6c61,2.6 122.1,5.2 183.1,7.8c18.4,0.8 41.2,-12.3 53.1,-25.4c13,-14.3 22.2,-37.5 20.2,-57.1c-2.1,-19.8 -9.7,-40 -25.4,-53.1l-16.6,-11.5c-12.7,-6.6 -26.3,-9.4 -40.6,-8.7c-61,-2.6 -122.1,-5.2 -183.1,-7.8c-18.4,-0.8 -41.2,12.3 -53.1,25.4c-13,14.3 -22.2,37.6 -20.2,57.2" fill="#fff0c9" fill-rule="nonzero" id="path102"/>
    <path d="m13784.7,27227.5c6.7,17.6 19.6,38 38.2,44.8c72.1,26.4 145.3,45.3 222,51.7c21.5,1.9 39.8,1.4 58.7,-10.8c16,-10.5 30.6,-30 33.8,-49.2c3.3,-20 1.1,-41.8 -10.9,-58.7c-11.1,-15.7 -29.1,-32.2 -49.2,-33.8c-66.5,-5.6 -131.9,-19.7 -194.8,-42.1c3.5,1.3 6.9,2.5 10.4,3.8c-19.8,-7.2 -37.6,-11.2 -58.6,-4.3c-17.8,5.9 -36.8,20.9 -44.8,38.2c-8.6,18.6 -12.3,40.7 -4.8,60.4" fill="#fff0c9" fill-rule="nonzero" id="path104"/>
    <path d="m14314.7,26351c11.3,15.9 28.9,31.6 49.2,33.8c35,3.9 69.3,11.9 102.8,23c13.5,5.1 27,10.5 40,16.7c18.6,9 40.7,11.4 60.5,4.9c17.7,-5.9 36.7,-20.9 44.7,-38.2c8.6,-18.6 12.3,-40.7 4.8,-60.4c-7.1,-18.7 -19.7,-35.8 -38.1,-44.8c-57.1,-27.5 -119.2,-46.8 -182.3,-53.7c-21.2,-2.4 -40.2,-1.1 -58.7,10.8c-16,10.5 -30.6,30.1 -33.8,49.2c-3.3,20 -1.2,41.8 10.9,58.7" fill="#fff0c9" fill-rule="nonzero" id="path106"/>
    <path d="m13849.7,25763.9c1.9,19.1 9.3,41.2 25.3,53.1c52.9,39.2 105.8,78.4 158.7,117.6c17.3,12.8 34.8,21.5 57.1,20.2c18.8,-1.2 40.9,-10.8 53.1,-25.4c13.1,-15.7 22.4,-36.2 20.2,-57.2c-2,-19 -9.4,-41.1 -25.4,-53c-52.9,-39.2 -105.8,-78.4 -158.6,-117.6c-17.3,-12.8 -34.9,-21.5 -57.2,-20.2c-18.7,1.1 -40.8,10.7 -53,25.4c-13.2,15.7 -22.4,36.2 -20.2,57.1" fill="#fff0c9" fill-rule="nonzero" id="path108"/>
    <path d="m15316.6,25272.8c18,53.4 35.9,106.8 53.9,160.2c6.2,18.7 20.6,35.7 38.1,44.8c17.2,8.9 42,11.8 60.4,4.8c18.5,-7 36.2,-19.6 44.8,-38.1c8.8,-19.1 11.6,-40.2 4.8,-60.5c-18,-53.4 -35.9,-106.8 -53.9,-160.2c-6.2,-18.6 -20.6,-35.6 -38.1,-44.7c-17.2,-8.9 -42,-11.8 -60.4,-4.8c-18.5,7 -36.2,19.6 -44.8,38.1c-8.8,19 -11.6,40.2 -4.8,60.4" fill="#fff0c9" fill-rule="nonzero" id="path110"/>
    <path d="m14645.1,24944.3c44.5,69.5 89,138.9 133.5,208.4c10.8,16.8 29.8,29.7 49.2,33.8c18.7,4 42.9,0.4 58.7,-10.8c34.6,-24.7 46.5,-71.2 23,-107.9c-44.5,-69.5 -89,-139 -133.5,-208.5c-10.8,-16.8 -29.8,-29.7 -49.2,-33.8c-18.7,-4 -42.9,-0.4 -58.7,10.9c-34.6,24.6 -46.5,71.1 -23,107.9" fill="#fff0c9" fill-rule="nonzero" id="path112"/>
    <path d="m14945.2,24629.1c13.7,18.9 25.7,39 36.4,59.8c8.1,17.7 15.6,35.8 21.4,54.4c5.8,18.5 21,35.9 38.2,44.8c9.4,5.3 19.5,7.9 30.1,7.8c10.2,1.7 20.3,0.7 30.3,-3c18.5,-7.1 36.2,-19.7 44.7,-38.2c8.9,-19.2 11.3,-39.9 4.8,-60.4c-9.3,-29.8 -22,-58 -36,-85.9c-11.2,-22.5 -24.3,-43.9 -39.1,-64.3c-12.1,-16.7 -28.6,-29.4 -49.2,-33.8c-18.7,-3.9 -42.8,-0.4 -58.7,10.9c-16.4,11.7 -30.4,28.7 -33.8,49.2c-3.3,19.8 -1.3,41.9 10.9,58.7" fill="#fff0c9" fill-rule="nonzero" id="path114"/>
    <path d="m16342.3,25767.7c37.2,17.2 86.6,6.2 105.2,-33.3c20.4,-43.4 43.4,-85.5 69.1,-126c6.3,-10 12.8,-19.8 19.4,-29.6c0.8,-1.2 1.2,-1.8 1.7,-2.6c3.3,-4.6 6.6,-9.2 10,-13.8c14.4,-19.7 29.5,-38.8 45.1,-57.6c26.1,-31.3 28.1,-82.4 -5.2,-110.2c-31.3,-26.1 -82.3,-28.3 -110.2,5.2c-66.7,80.1 -124,168.5 -168.5,262.7c-17.3,36.9 -5.8,87.1 33.4,105.2" fill="#fff0c9" fill-rule="nonzero" id="path116"/>
    <path d="m16082.2,24874.2c8.4,50.6 21,99.9 41.4,147.1c8.3,19 19.2,34.9 38.2,44.7c17.2,8.9 42,11.8 60.4,4.8c36.6,-13.9 66.9,-58.5 49.6,-98.5c-14.7,-33.9 -25.5,-69.1 -33.1,-105.2c-7.2,-43.2 -9.5,-86.9 -6.2,-130.6c-0.4,5.2 -0.8,10.4 -1.2,15.6c1.7,-21.1 1.1,-39 -10.9,-57.7c-10.5,-16 -30,-30.6 -49.2,-33.8c-19.9,-3.3 -41.8,-1.1 -58.7,10.9c-15.6,11.1 -32.2,29.2 -33.8,49.2c-4.3,51.6 -4.9,102.3 3.5,153.5" fill="#fff0c9" fill-rule="nonzero" id="path118"/>
    <path d="m16706.2,24721.2c41.7,6.9 83.4,-17.4 92.5,-60.1l40.4,-190.3c8.5,-39.9 -18.5,-85.6 -60.1,-92.5c-41.7,-6.9 -83.4,17.3 -92.5,60.1l-40.4,190.2c-8.5,40 18.5,85.6 60.1,92.6" fill="#fff0c9" fill-rule="nonzero" id="path120"/>
    <path d="m17040.5,25935.6c5.3,8.9 12.4,15.9 21.2,21c8,6.7 17.4,11 28,12.8c19.9,3.3 41.7,1.2 58.7,-10.9c16.6,-11.8 30,-28.6 33.8,-49.2c0.3,-1.7 1,-3.5 1.4,-5.2c1.6,-3.6 3.4,-7.1 5.4,-10.6c2.2,-2.6 4.5,-5.2 7,-7.7c3.5,-2.4 6.7,-5.2 10.5,-7.2c8.9,-5.3 15.9,-12.4 21,-21.2c6.7,-8.1 10.9,-17.4 12.8,-28c2.6,-10.4 2.5,-20.7 -0.3,-30.8c-1.1,-10.1 -4.6,-19.4 -10.6,-27.9c-11.7,-16.4 -28.7,-30.4 -49.2,-33.8c-7,-0.5 -13.9,-1.1 -20.9,-1.6c-13.7,0.9 -26.3,5 -37.8,12.5c-13.2,7.1 -24.4,17.1 -35.6,26.9c-6.8,6 -12.9,12.6 -18.1,20c-8.8,12.1 -17.8,24.3 -23.8,38.1c-6.1,14.1 -11.6,29 -14.4,44.1c-3.7,20 -0.3,41.5 10.9,58.7" fill="#fff0c9" fill-rule="nonzero" id="path122"/>
    <path d="m17343.4,26599.5c2,19.8 9.7,40 25.3,53.1c16.3,13.5 35.7,21.2 57.2,20.2c35.6,-1.7 71.2,-3.4 106.8,-5.1c19.4,-0.9 40,-11 53,-25.3c7.5,-7.6 12.5,-16.4 15.1,-26.5c4.5,-9.6 6.2,-19.9 5.1,-30.7c-2,-19.7 -9.7,-40 -25.3,-53c-16.3,-13.6 -35.7,-21.2 -57.2,-20.2c-35.6,1.7 -71.2,3.3 -106.8,5c-19.5,0.9 -40,11.1 -53.1,25.4c-7.4,7.6 -12.4,16.4 -15,26.4c-4.5,9.7 -6.2,19.9 -5.1,30.7" fill="#fff0c9" fill-rule="nonzero" id="path124"/>
    <path d="m18436.3,26504.4c-1.7,10.2 -0.7,20.3 3,30.3c7.1,18.5 19.7,36.1 38.2,44.7c18,8.3 41.4,13.1 60.4,4.8c7.5,-3.3 15.4,-5.2 23.3,-7.2c4.9,-0.5 9.8,-0.7 14.7,-0.7c6.5,1 13,2.4 19.3,4.3c2.2,0.7 4.5,1.4 6.9,1.9l0.4,0.1l-0.3,-0.1c4,0.8 8.1,1.6 12.3,1.5c10.3,1.7 20.4,0.7 30.3,-3c9.9,-2.9 18.5,-8 25.6,-15.1c8.3,-6 14.7,-13.6 19.2,-23.1c8.6,-18.5 12.3,-40.7 4.8,-60.4c-2.9,-6 -5.8,-12 -8.7,-18c-7.5,-11.4 -17.3,-20.4 -29.5,-26.7c-14.8,-5.5 -29.6,-11.3 -45.3,-13.9c-15.8,-2.7 -32.1,-3.9 -48.1,-3.5c-15.7,0.3 -31,3.6 -46.2,6.8c-9.6,2.1 -18.8,5.1 -27.7,9c-9.9,2.9 -18.5,7.9 -25.6,15.1c-8.3,5.9 -14.7,13.6 -19.2,23c-5.3,9.5 -7.9,19.5 -7.8,30.2" fill="#fff0c9" fill-rule="nonzero" id="path126"/>
    <path d="m17982.6,26369.6c13.7,36.1 58.8,67.6 98.6,49.6c140.3,-63.4 276.8,-134.9 408.1,-215.4c34.9,-21.4 46.9,-74.2 22.9,-107.9c-25,-35.2 -70.7,-45.8 -107.9,-22.9c-61.8,37.9 -124.8,74 -189,108.1c-31.5,16.7 -63.4,33 -95.5,48.8c-3.8,1.9 -7.5,3.7 -11.3,5.6c-1.5,0.7 -13.7,7 -5.2,2.5c9.4,-5 -6.3,3 -8.1,3.9c-3.8,1.8 -7.6,3.6 -11.4,5.4c-17.2,8 -34.4,16 -51.6,23.8c-19.2,8.6 -34.8,18.8 -44.8,38.1c-8.9,17.2 -11.8,42 -4.8,60.4" fill="#fff0c9" fill-rule="nonzero" id="path128"/>
    <path d="m18425.3,27511.3c119,42.9 238.1,85.8 357.2,128.7c20.6,7.5 38.6,12 60.4,4.8c17.8,-5.9 36.7,-20.8 44.7,-38.1c15.8,-34.2 7.8,-90.4 -33.3,-105.2c-119.1,-42.9 -238.1,-85.8 -357.2,-128.7c-20.6,-7.4 -38.7,-12 -60.4,-4.8c-17.8,5.9 -36.8,20.9 -44.8,38.2c-15.8,34.1 -7.7,90.3 33.4,105.1" fill="#fff0c9" fill-rule="nonzero" id="path130"/>
    <path d="m21648.1,25088c285.9,76.8 558.8,158.3 815.6,242.4l9.5,156.3c-126.8,-42.9 -258.7,-84.5 -395.2,-125.5c-26.1,-8.3 -52.7,-16.4 -79.8,-24.1c-15,-4.4 -30,-8.8 -45,-13.2c-27,-8.1 -54.4,-15.9 -82.3,-23.8c-34.9,-10.2 -70.2,-20.1 -106,-30.1c-17.7,-5 -35.4,-9.9 -53.4,-15c-17.7,-4.9 -35.8,-10 -53.9,-15l-9.5,-152" fill="#efefef" fill-rule="nonzero" id="path132"/>
    <path d="m22078,25361.2c136.5,41 268.4,82.6 395.2,125.5c-127.4,-42.2 -258.7,-84.5 -395.2,-125.5" fill="#ad689d" fill-rule="nonzero" id="path134"/>
    <path d="m21657.6,25240c36.2,10.1 72,19.7 107.3,30c-35.4,-9.9 -71.1,-19.9 -107.3,-29.6l0,-0.4" fill="#ad689d" fill-rule="nonzero" id="path136"/>
    <path d="m22006.9,22673.6c107.4,-2.7 210.4,6.1 296.4,23.6l160.4,2633.2c-256.8,-84.1 -529.7,-165.6 -815.6,-242.4l-139.2,-2294.2l-0.7,-9.7c3,-100.6 221.3,-103.2 498.7,-110.5" fill="#ad689d" fill-rule="nonzero" id="path138"/>
    <path d="m21657.6,25240.4c288.3,78.4 561.3,161.5 815.6,246.3l48.9,799.8l516.6,8476.5l-799.8,48.5l-523.4,-8616.7l-57.9,-954.4" fill="#db70bd" fill-rule="nonzero" id="path140"/>
    <path d="m22303.3,22697.2l0.4,0c129.2,26.3 221,72.5 233.5,130.2l0.3,0.5l1.1,18.9l0,0.4l722.7,11902.1l-222.6,13.7l-735.4,-12065.8" fill="#db70bd" fill-rule="nonzero" id="path142"/>
    <path d="m22463.7,25330.4c78.4,25.4 155.4,51.3 230.3,77.6l9.5,157.9c-20,-7 -40.4,-14.1 -60.8,-21.3c-28.9,-10.5 -58.6,-20.8 -88.4,-30.7c-26.7,-9.3 -53.9,-18.3 -81.1,-27.2l-9.5,-156.3" fill="#efefef" fill-rule="nonzero" id="path144"/>
    <path d="m22303.9,22702.1l-0.2,-4.9c129.2,26.3 221,72.5 233.5,130.2l0.3,0.5l1.1,18.9l0,0.4l155.4,2560.8c-74.9,-26.3 -151.9,-52.2 -230.3,-77.6l-160.4,-2633.2c0.1,1.6 0.1,3.2 0.6,4.9" fill="#8c6082" fill-rule="nonzero" id="path146"/>
    <path d="m22473.2,25486.7c78.6,25.9 155.5,52.6 230.3,79.2l45.1,737.2l512.7,8446.2l-222.6,13.7l-516.6,-8476.5l-48.9,-799.8" fill="#c15da7" fill-rule="nonzero" id="path148"/>
    <path d="m22238.7,34809.7c2.7,102.1 227.6,153.4 508.4,146c280.8,-7.3 516.6,-105.1 513.9,-207.1c-2.7,-102.1 -242.8,-169.9 -523.6,-162.5c-280.8,7.3 -501.4,121.6 -498.7,223.6" fill="#eaa2d9" fill-rule="nonzero" id="path150"/>
    <path d="m25136.1,19125.2c21.3,-119.5 18.1,-237.8 -5.8,-349.6c-446.2,-22.6 -980.7,-237.3 -1377.6,-574.9c-206.2,131.7 -358.8,345.9 -405.1,605.8c-88,493.9 241.1,965.6 734.9,1053.6c493.9,88 965.6,-241 1053.6,-734.9" fill="#ffffff" fill-rule="nonzero" id="path152"/>
    <path d="m25136.1,19125.2l-46.3,-8.2c9.1,-51.2 13.5,-102 13.5,-152.1c0,-61.1 -6.5,-121.2 -19,-179.4l46,-9.9l-2.4,47c-229.6,-11.7 -479.5,-72.4 -722.8,-172.9c-243.4,-100.5 -480.2,-240.9 -682.9,-413.2l30.5,-35.8l25.3,39.6c-195.6,125 -340.1,327.8 -384.1,574.4c-9.1,51.2 -13.5,102.1 -13.5,152.2c0,204.7 73.2,397.8 198.7,549.1c125.6,151.4 302.9,260.6 511.7,297.8c51.1,9.1 102,13.5 152.2,13.5c204.6,0 397.7,-73.2 549.1,-198.7c151.3,-125.5 260.5,-302.9 297.7,-511.6l46.3,8.2l46.3,8.2c-41.2,231.3 -162.6,428.5 -330.3,567.6c-167.7,139 -381.9,220.3 -609.1,220.3c-55.7,0 -112.1,-4.8 -168.7,-14.9c-231.2,-41.2 -428.5,-162.6 -567.5,-330.3c-139.1,-167.7 -220.4,-382 -220.4,-609.2c0,-55.6 4.8,-112 14.9,-168.7c48.7,-273.2 209.3,-498.7 426.1,-637.2l29.3,-18.7l26.5,22.6c194.2,165.2 423.1,301 657.7,397.9c234.7,96.9 475.2,154.9 691.8,165.9l36,1.8l7.5,35.3c13.9,64.6 21.1,131.3 21.1,199.1c0,55.6 -4.8,112 -14.9,168.5l-46.3,-8.2" fill="#000000" fill-rule="nonzero" id="path154"/>
    <path d="m24850.1,18992.2c-54.4,-33.2 -125.5,-16 -158.8,38.4c-33.3,54.5 -16.1,125.6 38.4,158.9c54.5,33.3 125.6,16.1 158.8,-38.4c33.3,-54.5 16.1,-125.6 -38.4,-158.9zm-224,271.7c-32.6,-20 -75.3,-9.7 -95.2,23c-20,32.7 -9.7,75.3 23,95.3c32.7,19.9 75.3,9.6 95.3,-23.1c19.9,-32.6 9.6,-75.3 -23.1,-95.2zm173.8,178.2c-167.4,116.2 -466.3,-66.8 -420.9,-371.2l-0.7,-0.2c-149.3,296.1 -491.7,263.4 -570.2,75.4c-78.7,-188.5 38.2,-424.9 232.4,-539c40.6,-23.9 102.7,-60 171.3,-99.8c211.1,110 433.9,190 647.9,233.2c26.1,54 48.5,103 63,140.3c65.2,167 45,444.9 -122.8,561.3" fill="#000000" fill-rule="nonzero" id="path156"/>
    <path d="m24729.7,19189.5c-54.5,-33.3 -71.7,-104.4 -38.4,-158.9c33.3,-54.4 104.4,-71.6 158.8,-38.4c54.5,33.3 71.7,104.4 38.4,158.9c-33.2,54.5 -104.3,71.7 -158.8,38.4" fill="#ffffff" fill-rule="nonzero" id="path158"/>
    <path d="m24553.9,19382.2c-32.7,-20 -43,-62.6 -23,-95.3c19.9,-32.7 62.6,-43 95.2,-23c32.7,19.9 43,62.6 23.1,95.2c-20,32.7 -62.6,43 -95.3,23.1" fill="#ffffff" fill-rule="nonzero" id="path160"/>
    <path d="m25136.1,19125.2l-46.3,-8.2c9.1,-51.2 13.5,-102 13.5,-152.1c0,-61.1 -6.5,-121.2 -19,-179.4l46,-9.9l-2.4,47c-229.6,-11.7 -479.5,-72.4 -722.8,-172.9c-243.4,-100.5 -480.2,-240.9 -682.9,-413.2l30.5,-35.8l25.3,39.6c-195.6,125 -340.1,327.8 -384.1,574.4c-9.1,51.2 -13.5,102.1 -13.5,152.2c0,204.7 73.2,397.8 198.7,549.1c125.6,151.4 302.9,260.6 511.7,297.8c51.1,9.1 102,13.5 152.2,13.5c204.6,0 397.7,-73.2 549.1,-198.7c151.3,-125.5 260.5,-302.9 297.7,-511.6l46.3,8.2l46.3,8.2c-41.2,231.3 -162.6,428.5 -330.3,567.6c-167.7,139 -381.9,220.3 -609.1,220.3c-55.7,0 -112.1,-4.8 -168.7,-14.9c-231.2,-41.2 -428.5,-162.6 -567.5,-330.3c-139.1,-167.7 -220.4,-382 -220.4,-609.2c0,-55.6 4.8,-112 14.9,-168.7c48.7,-273.2 209.3,-498.7 426.1,-637.2l29.3,-18.7l26.5,22.6c194.2,165.2 423.1,301 657.7,397.9c234.7,96.9 475.2,154.9 691.8,165.9l36,1.8l7.5,35.3c13.9,64.6 21.1,131.3 21.1,199.1c0,55.6 -4.8,112 -14.9,168.5l-46.3,-8.2" fill="#000000" fill-rule="nonzero" id="path162"/>
    <path d="m22509,18098.3c2,-121.4 -19.9,-237.6 -61.3,-344.2c-444.1,48.4 -1005.9,-78.8 -1451.3,-349.1c-182.7,162.8 -299.4,398.4 -303.8,662.4c-8.6,501.6 391.2,915.1 892.7,923.6c501.7,8.6 915.1,-391.1 923.7,-892.7" fill="#ffffff" fill-rule="nonzero" id="path164"/>
    <path d="m22509,18098.3l-47.1,-0.8c0.1,-5 0.2,-9.9 0.2,-14.9c0,-109.8 -20.7,-214.8 -58.2,-311.5l43.8,-17l5.1,46.7c-63.8,7 -129.8,10.4 -197.4,10.4c-208.1,0 -431,-32.3 -651,-94.1c-219.9,-61.9 -436.8,-153.2 -632.4,-271.9l24.4,-40.2l31.2,35.1c-173.3,154.5 -283.8,377.7 -288,628.1c-0.1,5 -0.2,10 -0.2,15c0.1,234.5 94,447.5 246.9,603.2c153,155.7 364.4,253.6 599.8,257.6c5,0.1 10,0.2 15,0.2c234.5,0 447.5,-94 603.2,-246.9c155.7,-152.9 253.6,-364.3 257.6,-599.8l47.1,0.8l47,0.8c-4.5,260.9 -113.3,495.9 -285.8,665.3c-172.4,169.5 -409.2,273.8 -669.1,273.8c-5.6,0 -11.1,-0.1 -16.6,-0.2c-260.8,-4.4 -495.9,-113.1 -665.3,-285.7c-169.4,-172.4 -273.8,-409.2 -273.8,-669.1c0,-5.6 0.1,-11.1 0.2,-16.6c4.6,-277.5 127.4,-525.6 319.5,-696.7l25.9,-23.1l29.8,18c187.5,113.8 396.9,202.1 609.1,261.7c212.1,59.7 427.1,90.7 625.5,90.7c64.4,0 127,-3.3 187.2,-9.9l35.9,-3.9l13,33.7c41.7,107.2 64.6,223.9 64.6,345.5c0,5.5 -0.1,11 -0.1,16.5l-47,-0.8" fill="#000000" fill-rule="nonzero" id="path166"/>
    <path d="m22205.5,18012.4c-59,-24.2 -126.5,4.1 -150.7,63.1c-24.2,59.1 4,126.6 63.1,150.8c59,24.2 126.5,-4.1 150.7,-63.2c24.2,-59 -4,-126.5 -63.1,-150.7zm-178,303.7c-35.5,-14.5 -75.9,2.5 -90.4,37.9c-14.6,35.4 2.4,75.9 37.8,90.4c35.4,14.5 75.9,-2.5 90.4,-37.9c14.5,-35.4 -2.4,-75.9 -37.8,-90.4zm199.8,148.5c-146.8,141.2 -471,8 -474.5,-299.8l-0.7,-0.1c-100.5,316.1 -443.7,338.2 -551,164.9c-107.6,-173.6 -29.7,-425.5 143.9,-569c36.3,-30 91.9,-75.5 153.3,-125.7c225.9,75.1 458.5,118.8 676.7,127.4c34.3,49.2 64.2,94 84.5,128.6c90.9,154.5 115,432 -32.2,573.7" fill="#000000" fill-rule="nonzero" id="path168"/>
    <path d="m22117.9,18226.3c-59.1,-24.2 -87.3,-91.7 -63.1,-150.8c24.2,-59 91.7,-87.3 150.7,-63.1c59.1,24.2 87.3,91.7 63.1,150.7c-24.2,59.1 -91.7,87.4 -150.7,63.2" fill="#ffffff" fill-rule="nonzero" id="path170"/>
    <path d="m21974.9,18444.4c-35.4,-14.5 -52.4,-55 -37.8,-90.4c14.5,-35.4 54.9,-52.4 90.4,-37.9c35.4,14.5 52.3,55 37.8,90.4c-14.5,35.4 -55,52.4 -90.4,37.9" fill="#ffffff" fill-rule="nonzero" id="path172"/>
    <path d="m22509,18098.3l-47.1,-0.8c0.1,-5 0.2,-9.9 0.2,-14.9c0,-109.8 -20.7,-214.8 -58.2,-311.5l43.8,-17l5.1,46.7c-63.8,7 -129.8,10.4 -197.4,10.4c-208.1,0 -431,-32.3 -651,-94.1c-219.9,-61.9 -436.8,-153.2 -632.4,-271.9l24.4,-40.2l31.2,35.1c-173.3,154.5 -283.8,377.7 -288,628.1c-0.1,5 -0.2,10 -0.2,15c0.1,234.5 94,447.5 246.9,603.2c153,155.7 364.4,253.6 599.8,257.6c5,0.1 10,0.2 15,0.2c234.5,0 447.5,-94 603.2,-246.9c155.7,-152.9 253.6,-364.3 257.6,-599.8l47.1,0.8l47,0.8c-4.5,260.9 -113.3,495.9 -285.8,665.3c-172.4,169.5 -409.2,273.8 -669.1,273.8c-5.6,0 -11.1,-0.1 -16.6,-0.2c-260.8,-4.4 -495.9,-113.1 -665.3,-285.7c-169.4,-172.4 -273.8,-409.2 -273.8,-669.1c0,-5.6 0.1,-11.1 0.2,-16.6c4.6,-277.5 127.4,-525.6 319.5,-696.7l25.9,-23.1l29.8,18c187.5,113.8 396.9,202.1 609.1,261.7c212.1,59.7 427.1,90.7 625.5,90.7c64.4,0 127,-3.3 187.2,-9.9l35.9,-3.9l13,33.7c41.7,107.2 64.6,223.9 64.6,345.5c0,5.5 -0.1,11 -0.1,16.5l-47,-0.8" fill="#000000" fill-rule="nonzero" id="path174"/>
    <path d="m24188.4,18080.3c87.5,-156.1 355.5,59.6 764.6,150.1c452.4,100.1 706.3,110 637.6,415.5c-45.1,200.4 -460.6,204 -844.2,35.5c-383.6,-168.4 -658.5,-421.9 -558,-601.1" fill="#f47d1f" fill-rule="nonzero" id="path176"/>
    <path d="m22137.4,17316c-9.4,-178.7 -345.2,-103.9 -752.1,-203.8c-449.9,-110.5 -682.1,-214 -755.6,90.4c-48.3,199.6 322.7,386.7 741.2,405.4c418.6,18.8 777.3,-86.9 766.5,-292" fill="#f47d1f" fill-rule="nonzero" id="path178"/>
    <path d="m21009.5,20124.3c-484.1,-257.4 -793.9,-763.7 -789.6,-1315.4c-104.4,426.3 -52.2,984.2 328.1,1261.6c52,72.3 578.6,245.4 461.5,53.8" fill="#000000" fill-rule="nonzero" id="path180"/>
    <path d="m23469.5,20999.9c453.5,375.2 1122.9,3.8 1476,-346.5c-414.3,258 -919.5,286.6 -1393.7,271.6c-47.9,-9 -128.1,17.1 -82.3,74.9" fill="#000000" fill-rule="nonzero" id="path182"/>
    <path d="m23220.3,17324.7c118.5,140.2 229.7,237.3 327.4,298.6c48.8,30.7 94.2,52.4 135.2,66.4c41,13.9 77.6,20 108.9,20c26.4,0 49.1,-4.2 68.3,-11.7c19.2,-7.4 35.1,-18 48.5,-31.6c10.8,-11.1 17.3,-21.3 21.5,-31c4,-9.7 5.8,-18.9 5.8,-29c0,-11.6 -2.5,-24.5 -7.8,-38.6c-9.2,-24.7 -27.2,-52.4 -49.8,-79.5c-33.8,-40.8 -77.3,-80 -113,-111.9c-17.9,-16 -33.8,-30.1 -46.5,-42.9c-6.5,-6.5 -12.1,-12.6 -17.5,-19.9c-2.6,-3.7 -5.3,-7.7 -7.8,-13c-2.4,-5.4 -5.1,-12.4 -5.2,-23c0,-4.1 0.5,-8.9 1.9,-13.7c2.1,-7.2 6.3,-14.5 11.4,-19.7c5,-5.3 10.5,-8.7 15.3,-11l0.1,0c38,-17.5 81.5,-28 126.5,-37.2c33.7,-6.9 68.1,-12.8 100.7,-19.2c24.5,-4.8 48,-9.9 69.1,-15.6c31.7,-8.5 58.2,-19 74.5,-30.1c8.3,-5.4 13.9,-10.9 17.5,-15.8c3.7,-5 5.6,-9.4 6.7,-15.4c0.6,-3.6 0.9,-7 0.9,-10.3c0,-8.7 -1.9,-17.1 -6.1,-26.4c-7.4,-16.1 -23.1,-34.6 -47.2,-52.3c-35.9,-26.6 -89.4,-50.6 -150.5,-67.1c-61.1,-16.6 -129.9,-26 -197,-25.9c-51.5,-0.1 -102,5.5 -147.2,17.1c-23.3,6 -47.1,-8.1 -53.1,-31.5c-6,-23.3 8.1,-47.1 31.5,-53.1c53.6,-13.7 111,-19.8 168.8,-19.9c57.3,0.1 114.9,6.1 169.5,17.2c82.1,16.8 157.4,44.5 215.6,83c29.1,19.4 54,41.6 72.6,68c9.3,13.1 16.9,27.4 22.2,42.7c5.3,15.2 8.2,31.5 8.2,48.2c0,8.4 -0.7,16.9 -2.2,25.4c-3.9,23 -14.6,43.8 -28.7,60.1c-12.4,14.3 -27.2,25.6 -43,34.9c-27.7,16.3 -59,27.1 -92.2,36c-49.7,13.2 -103.8,22 -154,31.7c-25,4.9 -49.1,9.9 -70.6,15.6c-21.6,5.7 -40.8,12.1 -55.9,19.2l0.1,-0.1l-15.3,-32.8l22.5,28.4c-2.7,2.1 -5.1,3.5 -7.2,4.4l-15.3,-32.8l22.5,28.4l-24.1,-30.4l35,16.6c-2.7,5.8 -7,10.7 -10.9,13.8l-24.1,-30.4l35,16.6l-34.8,-16.6l38.6,0c0,4.7 -1,10.8 -3.8,16.6l-34.8,-16.6l38.6,0l-33.9,0l31.8,-11.9c0.8,2.2 2,6 2.1,11.9l-33.9,0l31.8,-11.9l-19,7.1l17.4,-10.6c0.2,0.3 0.8,1.3 1.6,3.5l-19,7.1l17.4,-10.6l-3.9,2.4l3.8,-2.5l0.1,0.1l-3.9,2.4l3.8,-2.5c0,0 1.3,1.8 3.5,4.2c4.3,4.8 11.8,12.1 21.1,20.6c16.3,15 38.3,34.2 62,56c35.6,32.8 75.1,71.7 107.1,115.2c15.9,21.8 30,44.8 40.5,69.4c10.4,24.6 17.2,51.1 17.2,78.9c0,20.9 -4,42.5 -12.8,63.1c-8.7,20.6 -22,40.1 -39.4,57.9c-22.1,22.6 -49.1,40.3 -79.4,52c-30.4,11.8 -64,17.6 -99.8,17.6c-42.6,0 -88.5,-8.2 -137,-24.7c-72.8,-24.7 -151.9,-68.1 -235.9,-132.4c-84,-64.4 -173,-149.7 -265.3,-258.9c-15.5,-18.4 -13.2,-45.9 5.2,-61.5c18.4,-15.5 45.9,-13.2 61.5,5.2" fill="#000000" fill-rule="nonzero" id="path184"/>
    <path d="m23538.8,16505.9c42.1,8.1 82.4,20.1 118.9,34.9c18.1,7.3 26.5,30 18.7,50.4c-7.8,20.6 -28.7,31.6 -46.8,23.8c-123.4,-49.8 -305.8,-66.6 -415,15.2c-16.8,12.6 -38.8,8.3 -49.1,-9.5c-10.4,-17.8 -5.2,-42.3 11.6,-54.9c98.3,-73.7 237.4,-83.9 361.7,-59.9" fill="#000000" fill-rule="nonzero" id="path186"/>
    <path d="m27948.3,14634.7l-3302.4,1014.6c-57,17.5 -117.3,-14.5 -134.8,-71.4c-17.5,-56.9 14.5,-117.2 71.4,-134.7l3302.4,-1014.6c57,-17.5 117.3,14.5 134.8,71.4c17.5,56.9 -14.5,117.2 -71.4,134.7" fill="#000000" fill-rule="nonzero" id="path188"/>
    <path d="m24450.3,15592.5c-69.1,118 -46.1,240.2 25,345.6c63.2,167.6 77.2,404.9 68.2,509.8c-4.1,47.5 31.1,89.3 78.6,93.3c47.4,4.1 89.2,-31.1 93.3,-78.5c5.7,-66.8 4,-190.3 -15.1,-322.9c75.5,43.3 146.7,67.2 212.5,69.5c48.2,69.8 107.3,162.6 149.4,228.8c35.1,55.1 68.3,107.2 95.9,148.6c26.5,39.6 80.1,50.3 119.7,23.8c39.6,-26.4 50.3,-80 23.8,-119.6c-26.6,-39.9 -59.3,-91.2 -93.9,-145.5c-49.2,-77.4 -89.4,-139.6 -122.9,-189.7c8.3,-6.2 16.5,-13 24.6,-20.2c136.9,109.6 303.5,241.2 402.5,313.4c38.8,28.1 92.5,19.6 120.5,-18.9c28.1,-38.6 19.6,-92.5 -18.9,-120.6c-97,-70.6 -265.2,-203.6 -402.1,-313.3c13.5,-28.6 22.7,-57 27.9,-84.8c108.6,68.8 231.8,143.3 323.2,188.2c42.8,21 94.5,3.3 115.4,-39.5c19.2,-39 6.2,-85.4 -28.7,-109.2c-3.4,-2.3 -6.9,-4.4 -10.7,-6.2c-130.2,-63.9 -338.9,-198.2 -457.9,-276.7c-42.9,-60.9 -105.3,-115 -180.7,-159.1c-205.5,-120.4 -429.3,-121.8 -549.6,83.7" fill="#000000" fill-rule="nonzero" id="path190"/>
    <path d="m19753.6,15280.1l2282.5,-1971.3c22.7,-19.6 52.9,-28.9 82.7,-25.5c29.8,3.4 57.1,19.2 74.8,43.5l1412.1,1930.5c35.2,48 24.7,115.5 -23.3,150.7c-48.1,35.1 -115.6,24.6 -150.7,-23.4l-1343.1,-1836.2l-2194,1894.9c-45.1,38.9 -113.2,33.9 -152.1,-11.2c-39,-45 -34,-113.1 11.1,-152" fill="#000000" fill-rule="nonzero" id="path192"/>
    <path d="m23330.7,15166.5c-109.1,82.5 -134.6,204.2 -109.4,328.8c-5.8,179 -83.8,403.5 -132.4,497.1c-21.9,42.2 -5.4,94.3 36.8,116.3c42.3,21.9 94.4,5.4 116.3,-36.9c30.9,-59.4 76.7,-174.1 109.9,-304c53.1,68.9 109.7,118.3 169.5,145.7c17.8,83 36.9,191.3 50.4,268.6c11.3,64.3 22,125.2 31.6,174c9.3,46.7 54.7,77.1 101.4,67.9c46.7,-9.3 77.1,-54.7 67.9,-101.4c-9.3,-47 -19.9,-106.9 -31,-170.3c-15.8,-90.4 -29.1,-163.3 -40.8,-222.4c10.1,-2.5 20.2,-5.6 30.4,-9.3c84.5,153.7 187.9,339.2 251.7,443.8c25.1,40.9 77.9,53.5 118.6,28.7c40.7,-24.8 53.5,-77.9 28.7,-118.6c-62.5,-102.3 -166.9,-289.7 -251.3,-443.5c23.4,-21.3 42.8,-43.9 58.3,-67.6c73.9,105.1 159.1,221.2 226.4,297.7c31.4,35.7 86,39.2 121.7,7.8c32.7,-28.7 38.4,-76.6 15.3,-112c-2.2,-3.4 -4.7,-6.6 -7.5,-9.8c-95.7,-108.9 -237,-312.9 -316.9,-431.1c-16.3,-72.6 -53.2,-146.5 -105.9,-216.2c-143.7,-189.9 -349.8,-277 -539.7,-133.3" fill="#000000" fill-rule="nonzero" id="path194"/>
   </g>
  </g>
 </g>
</svg>