<?xml version="1.0"?>
<svg width="2900" height="4900" xmlns="http://www.w3.org/2000/svg" xmlns:svg="http://www.w3.org/2000/svg" version="1.1">

 <g class="layer">
  <title>Layer 1</title>
  <g id="g8" transform="matrix(1.33333, 0, 0, -1.33333, 0, 5333.33)">
   <g id="g10" transform="translate(-907.5, 150) scale(0.1)">
    <path d="m20828.2,9546.4l-638.6,-4561.1c-5.8,-41.8 8.5,-84.2 38.4,-114l1517.9,-1507.9l-1410.1,-680.1c-66.8,-32.2 -94.9,-112.6 -62.7,-179.5c32.3,-66.8 112.6,-94.9 179.5,-62.6l1581.2,762.5c39.3,19 67,55.9 74.2,98.8c7.2,43 -6.9,86.9 -37.8,117.7l-1605,1594.4l629.2,4494.6c10.3,73.5 -40.9,141.4 -114.4,151.7c-73.6,10.3 -141.5,-40.9 -151.8,-114.5" fill="#000000" fill-rule="nonzero" id="path12"/>
    <path d="m20338.1,2500c-319.8,91.6 399.5,1452.2 1662.6,844.6c-915.7,-395.2 -1342.6,-735.2 -1662.6,-844.6" fill="#000000" fill-rule="nonzero" id="path14"/>
    <path d="m18591.1,13233.8l-1899.4,-9848l-1687.3,22.6c-74.3,1 -135.2,-58.4 -136.2,-132.6c-1,-74.2 58.3,-135.2 132.6,-136.2l1799.7,-24.2c65,-0.8 121.5,45.2 133.8,109l1920.8,9958.4c14.1,72.9 -33.6,143.4 -106.5,157.5c-72.9,14 -143.4,-33.7 -157.5,-106.5" fill="#000000" fill-rule="nonzero" id="path16"/>
    <path d="m14917.2,3203.5c-251,218.4 976.5,1146.7 1863.8,61.7c-996.9,29.5 -1527.6,-98 -1863.8,-61.7" fill="#000000" fill-rule="nonzero" id="path18"/>
    <path d="m18747.7,18582.3l-4431.6,-2713.2l-2827.1,270.6c-73.9,7.1 -139.5,-47.1 -146.6,-121c-7.1,-73.9 47.1,-139.5 121,-146.6l2871.8,-274.9c29.2,-2.8 58,3.8 83,19.1l4469.9,2736.7c63.3,38.8 83.2,121.5 44.4,184.8c-38.7,63.4 -121.5,83.3 -184.8,44.5" fill="#000000" fill-rule="nonzero" id="path20"/>
    <path d="m11529.7,16097.9c-18.9,169.4 -133,274.3 -282.6,326.7c-188,120.3 -378.9,347 -448.1,458.6c-31.3,50.5 -97.6,66 -148.1,34.7c-50.5,-31.3 -66,-97.6 -34.7,-148.1c44.1,-71 137.8,-193.1 255.7,-311.4c-107.6,-13 -196.6,-42.2 -264.1,-88.9c-100.2,33.9 -228.4,82.5 -319.8,117.3c-76.2,28.9 -148.2,56.2 -206.7,77c-55.9,19.8 -117.42,-9.4 -137.28,-65.4c-19.87,-56 9.4,-117.4 65.38,-137.3c56.3,-20 127.2,-46.9 202.2,-75.4c106.9,-40.6 193.4,-72.9 264.3,-98c-3.7,-12.4 -6.9,-25.2 -9.5,-38.5c-218.5,7.5 -483.09,14.9 -635.89,13.2c-59.74,-0.9 -106.98,-49.4 -106.31,-108.8c0.68,-59.4 49.37,-107 108.75,-106.3c149.53,1.7 416.85,-5.9 635.45,-13.4c7.8,-38.7 19.7,-73.9 35.3,-105.5c-159.8,-12.2 -338.5,-29.6 -463.3,-52.9c-58.37,-10.9 -96.86,-67.1 -85.95,-125.5c9.95,-53.2 57.55,-89.9 110.15,-87.7c5.1,0.2 10.2,0.8 15.3,1.8c177.7,33.2 486.4,54.6 663.9,64.8c88.2,-28.9 190.9,-36.4 299.1,-24.3c295.1,32.8 519.7,198.2 486.8,493.3" fill="#000000" fill-rule="nonzero" id="path22"/>
    <path d="m28528.1,11831c164.2,46.1 304.2,-20.3 409,-139.2c182.1,-129.1 463.9,-220.9 593.3,-243.2c58.6,-10 97.8,-65.6 87.8,-124.2c-10.1,-58.5 -65.7,-97.8 -124.3,-87.7c-82.3,14.2 -230.6,55.2 -384.6,120c28.4,-104.6 34.7,-198 16.8,-278.1c69,-80.2 162.3,-180.8 228.8,-252.4c55.4,-59.8 107.7,-116.2 149,-162.6c39.4,-44.4 35.3,-112.4 -9.1,-151.8c-44.4,-39.5 -112.3,-35.4 -151.8,9c-39.6,44.7 -91.2,100.2 -145.8,159.1c-77.8,83.8 -140.2,151.9 -190.1,208.1c-10,-8.1 -20.8,-15.8 -32.1,-23.2c89,-199.7 195.2,-442.2 251,-584.4c21.7,-55.7 -5.6,-117.7 -60.9,-139.4c-55.3,-21.7 -117.7,5.6 -139.3,60.9c-54.6,139.2 -162,384 -251.1,583.9c-38.8,-7.4 -75.8,-9.5 -111,-7c48.7,-152.6 99.7,-324.8 124.9,-449.2c11.8,-58.2 -25.8,-115 -84,-126.8c-53.1,-10.7 -105,19.6 -122.6,69.2c-1.7,4.8 -3.1,9.7 -4.2,14.8c-35.9,177.2 -132,471.3 -189.2,639.6c-59.9,71 -105.4,163.3 -134.9,268.2c-80.3,285.8 -11.4,556.1 274.4,636.4" fill="#000000" fill-rule="nonzero" id="path24"/>
    <path d="m24845.9,17634.7l1277.1,-5017.2c10.2,-40 37.7,-72.7 75.4,-89.6l2353.2,-1053.3c67.8,-30.3 147.3,0.1 177.6,67.8c30.3,67.8 0,147.3 -67.8,177.6l-2293.9,1026.8l-1261.1,4954.2c-18.3,72 -91.5,115.5 -163.4,97.1c-71.9,-18.3 -115.4,-91.4 -97.1,-163.4" fill="#000000" fill-rule="nonzero" id="path26"/>
    <path d="m18111.9,27931.9l-723.9,-5011l-0.3,-1.9l-4,-28.6l-77.8,-538l-1923.7,-13318.3c-61.6,-313.6 554.9,-723.3 1551.6,-1096.2c643.5,-240.6 1445.7,-465.8 2326,-639.6c2243.3,-442.8 4144.2,-383.7 4246,132.2l0.2,1l168.5,670.7l0.3,0l3245,12905.4l0,0.3l7.2,28l0.5,2.2l1234.5,4909.9c-192.1,-611 -2514.4,-673.5 -5247.1,-134.1c-1056.5,208.6 -2022.7,477.2 -2806.5,765.2c-1243.5,456.3 -2030,961.4 -1996.5,1352.8" fill="#e3e1e0" fill-rule="nonzero" id="path28"/>
    <path d="m17996.1,24444.7l-2044.8,-13847.4c-82,-415.3 954.6,-985.8 2460.6,-1409.4c364.2,-102.6 756.3,-196.3 1166.3,-277.3c2104.5,-415.4 3893.4,-333.8 3995.2,182.1l0.2,0.9l3370.5,13584.7c-179,-580.7 -2252.2,-665.5 -4684.7,-185.3c-2016.2,398 -4272.7,1847.8 -4263.3,1951.7" fill="#f5c80c" fill-rule="nonzero" id="path30"/>
    <path d="m17996.4,24446.9l-0.3,-1.9l-4,-27.9c-52.7,-589.6 1834.7,-1444 4267.2,-1924.2c2431.8,-480.1 4502,-407.2 4677.8,158.1l0.1,0.3l7,27.3l0.4,2.2c111.2,590.1 -1795.7,1462.4 -4263.4,1949.5c-2468.3,487.3 -4564.2,404.9 -4684.8,-183.4" fill="#ffea8c" fill-rule="nonzero" id="path32"/>
    <path d="m18116.3,27962.3l-4.2,-28.5l-0.4,-1.8c-54.3,-638.5 2070.3,-1578.4 4803.3,-2117.9c396.9,-78.4 785.3,-143.9 1159.7,-196.8l80.4,159.3c21.8,-2.9 43.6,-5.8 65,-8.6c21.8,-2.9 43.1,-5.7 64.5,-8.5c43.1,-5.8 85.8,-11.4 128.1,-16.5c33.7,-4.3 66.9,-8.5 99.7,-12.2c18.2,-2.2 36.4,-4.4 54.6,-6.6c32.7,-4.1 65.1,-7.7 97.1,-10.8c166,-18.7 327.3,-34.8 483.8,-47c33.5,-2.9 66.9,-5.8 100,-8.1c36.7,-3 73,-5.5 109.4,-7.6c25.3,-1.7 50.6,-3.5 75.4,-5.1l-83,-165.8c1563.3,-109.6 2681.5,52.2 2812.1,468.2l0.8,1.7l6.9,28c126,638.3 -2022.1,1600.2 -4798.2,2148.2c-2776,548 -5129,474.7 -5255,-163.6" fill="#efefef" fill-rule="nonzero" id="path34"/>
    <path d="m18506.7,27885l-3.5,-24.1l-0.1,-1.8c-42,-547 1924.2,-1381 4444.6,-1878.5c2520.5,-497.5 4655.8,-473.3 4824.8,48.7l0.6,1.6l6,23.7c107.8,546.4 -1880.3,1399 -4440.8,1904.4c-2560.5,505.5 -4723.7,472.4 -4831.6,-74" fill="#e0c7b8" fill-rule="nonzero" id="path36"/>
    <path d="m18507,27885.2l-3.9,-24.4l0.2,-1.5c-9.8,-124.8 85.6,-264.8 268.5,-412.7c35.8,-28.6 74.4,-57.6 116.1,-86.8c355.7,-247.3 938.9,-510.6 1672.7,-757.1c685.5,-231.8 1502.2,-447.5 2387.2,-622.2c415.4,-82 820.4,-150.3 1207.3,-203.9c21.8,-2.9 43.6,-5.8 65,-8.6c21.8,-2.9 43.1,-5.7 64.5,-8.5c43.1,-5.8 85.8,-11.4 128.1,-16.5c33.7,-4.3 66.9,-8.5 99.7,-12.2c18.2,-2.2 36.4,-4.4 54.6,-6.6c32.7,-4.1 65.1,-7.7 97.1,-10.8c166,-18.7 327.3,-34.8 483.8,-47c33.5,-2.9 66.9,-5.8 100,-8.1c36.7,-3 73,-5.5 109.4,-7.6c25.3,-1.7 50.6,-3.5 75.4,-5.1c24,-1.5 47.5,-2.9 71,-4.2c765.5,-43.5 1391.7,-13.3 1792.7,89.3c97.7,25 181.6,53.6 251.1,87c120.9,57.6 197.8,128.7 225,211.8l0.7,1.3l5.7,24c107.7,545.9 -1880.2,1398.8 -4440.5,1904.2c-2560.3,505.4 -4723.7,472 -4831.4,-73.8" fill="#e3e1e0" fill-rule="nonzero" id="path38"/>
    <path d="m18888,27359.7c355.6,-247.2 938.8,-510.7 1672.8,-757.2c685.2,-231.3 1502.1,-447.4 2387,-622.1c931.4,-183.9 1810,-296.5 2556,-339.1c765.5,-43.5 1391.7,-13.2 1792.6,89.2c-687.9,477.3 -2226.6,1017 -4058.9,1378.7c-1886.5,372.4 -3557.7,452.3 -4349.5,250.5" fill="#cccbca" fill-rule="nonzero" id="path40"/>
    <path d="m25503.8,25641.3c-746,42.6 -1624.6,155.2 -2556,339.1c-884.9,174.7 -1701.8,390.8 -2387,622.1c746,-42.7 1624.1,-155.2 2554.6,-338.8c885.9,-174.9 1702.7,-391.5 2388.4,-622.4" fill="#c3c2c1" fill-rule="nonzero" id="path42"/>
    <path d="m18111.7,27932l-723.5,-5011l-0.5,-2.2l-4.2,-28.5l-77.8,-537.9l-1923.4,-13318.1c-61.5,-313.6 554.7,-723.7 1551.7,-1096.2c643.1,-240.7 1445.3,-466.2 2325.8,-640c2243.2,-442.8 4144.2,-383.3 4246.1,132.5l0.1,0.9l62.7,249.1c-2978.8,441.7 -4356.2,829.7 -5156.8,1507.3c-1506,423.6 -2542.6,994.1 -2460.6,1409.4l2044.8,13847.4c-9.4,-103.9 276.8,2630.8 359.3,3048.5c-110.8,123.6 -253,329.4 -243.7,438.8" fill="#cccbca" fill-rule="nonzero" id="path44"/>
    <path d="m17996.1,24444.7l-2044.8,-13847.4c-82,-415.3 954.6,-985.8 2460.6,-1409.4c-514,434.7 -790.3,989.3 -1099.8,1754.1c-605.7,1497.6 68.9,8021.6 819.5,13171.6c-97.3,116.2 -144.9,227.2 -135.5,331.1" fill="#ddab1f" fill-rule="nonzero" id="path46"/>
    <path d="m25663.9,21391c0,0 -1365.5,115.5 -1853.5,345.2c-488,229.7 -1255.8,-8397 -1025.8,-8529.1c1237.5,-711.1 2879.3,8183.9 2879.3,8183.9" fill="#fffbf5" fill-rule="nonzero" id="path48"/>
    <path d="m17161.2,33953.4c-168.4,-218.9 -319,-455.7 -449.4,-710.5c-106.2,-207.9 -194.7,-420.1 -265.7,-635.3c-623,-1873.3 1773.1,-5016.1 1773.1,-5016.1l622.9,430.1l388.5,267.9l322.8,222.6l4,2.7l664.6,458.8l15.1,-84.9l249.6,-1449.3l0.3,-2.5l2.3,-0.1c228.8,-235.7 479.1,-478.1 748.3,-723.3c14.9,-14.3 30.4,-28.6 46.3,-42.5c879.3,104.2 1718.3,463.8 2402.2,1042.1c260.1,219.7 497.8,470.9 706.7,751.8c151.4,202.1 287.7,420.4 405.9,652.7c106.2,208 194.5,419.8 266.4,634.8c600.8,1805.6 0.3,3797.5 -1475.6,4974.6c-0.7,0.6 -1.5,1.8 -3.2,2.6c-86.8,68.6 -176.6,134.9 -269.3,197.7c-157.4,108.5 -324.3,207.4 -498.8,296.1c-239.5,122.3 -484.1,221 -732.3,296.8c-369.4,114.1 -745.8,178 -1120.3,195.2c-1456.2,66.4 -2890.4,-574.4 -3804.4,-1762" fill="#f4bb06" fill-rule="nonzero" id="path50"/>
    <path d="m17678.5,29952.5c-768.2,-241.1 -521.6,953.4 -572.6,1342.4c-0.3,249 228.6,434.5 471.6,383.5l2534.1,-353c105.2,-20.1 384.2,-229.8 286.4,-269.1l-2719.5,-1103.8zm4728.4,4095.6c483.9,758.5 1310.8,-530.2 1574.6,-932.5c133.2,-223.2 35.5,-512.5 -203.7,-613c-1794.7,-704.6 -2674.6,-1177.9 -2763.1,-974.2c-81.6,188.9 529.7,965.7 1392.2,2519.7zm-1151.7,-2713.1l2566.8,1092.8c220,91.8 468.2,-40.9 514.3,-274c23.5,-369.8 320,-1600.3 -461.6,-1503.3l-2663.9,500.2c-36.6,7.7 -85.8,32.6 -88.6,70c-7,53.3 70.7,89.3 133,114.3zm-339.6,-733.1c64.3,12.9 71.9,191.6 124.9,128.4l1841.1,-2096.7c101.3,-139.6 118.3,-260 79.2,-364.8c-144.6,-390.6 -1068.4,-565.3 -1340.2,-694.6c-229.7,-73.4 -469.9,78.7 -500.7,317.7l-157.7,1644.6l-93.3,973.9c-6.4,53.3 -6.4,80.2 46.7,91.5zm-748.2,838.2l-2655.7,478.9c-239.6,50.1 -382.5,300.6 -299.2,530.5c184.8,421.6 696.5,1736.3 1287.9,1173.2l1712.2,-1969.6c95.7,-54.7 11.2,-229 -45.2,-213zm2050.2,2701.6l-1195,-2308.7c-44.3,-92.3 -148.3,-56.7 -228.5,-57.3c-62.6,-1.9 -166.3,24.5 -174.3,86.8l-358.1,2619.5c-28.9,225.1 147.8,424.5 374.5,421.1c501.2,-51.6 1874.2,76.9 1581.4,-761.4zm711.2,-5430.5l-1709,2018c-64.7,77.9 47.7,141.8 68,215.2c14.8,34.5 50.3,55.2 87.3,47.2l2623.9,-518.5c814.2,-245.3 -276.3,-1394.8 -463.9,-1736.8c-147.7,-199.7 -442.3,-212.2 -606.3,-25.1zm-2751.4,5750.6l306.1,-2638.2c3.9,-30.1 -91.3,-90.9 -91.9,-90.9c-31.3,-20 -73.4,-13.2 -97.9,14.7l-1700.1,1900.7c-168.8,192 -120.4,489.3 100.8,617.7c348,146 1309.4,932.9 1483,196zm-2840.9,-6527.1c189.3,-198 392.6,-375.6 607.4,-533.1l24.5,17.3l250.8,172.6l622.9,430.1c-498.1,29.9 -1153.3,964.6 -1340.4,1271.1c-121,210 -31.8,479.1 192.2,572.4c2848.7,1150 3175,1613.3 2373.6,71.2c-168.8,-323.7 -386.5,-735.9 -641.7,-1248.8c-63,-126.5 -128,-259 -195.2,-398l322.8,222.6l4,2.7l663.9,1364.7l333.2,684.2c21.7,46 97.5,33.7 102.4,-17.8l130.4,-919.8l248.8,-1759.6c31.1,-241.5 -160.5,-454.1 -403.9,-446.7c-42.1,5.2 -90.5,10.7 -142.9,17c228.8,-235.7 479.1,-478.1 748.3,-723.3c14.9,-14.3 30.4,-28.6 46.3,-42.5l87.6,-79.2c25.2,-22.7 50.8,-45.6 76.6,-68.2c863.8,122.7 1689.6,486.4 2355.9,1094.6c251.3,228.6 479.4,491.7 678.8,790.1c49.8,66.2 98.4,133.3 144.4,201.3c1543.2,2275.7 809.5,5561.7 -1742.6,6760.5c-4604.9,2463.2 -9098.9,-3814 -5548.1,-7435.4" fill="#fffbe0" fill-rule="nonzero" id="path52"/>
    <path d="m16451.5,33376.6c-309.4,-607.2 -495.7,-1240.1 -557.4,-1869.8c-130,-1325.9 293.1,-2633.1 1283,-3634c178.9,-180.9 406.9,-370.1 655.2,-548l39.6,27.4l72,49.4l24.5,17.3c0,0 -369.1,452.9 -578.1,664.4c-898.5,908 -1324.2,2113.4 -1198.8,3394.3c38,381.3 122.8,759.6 254.6,1130c75,213.7 166.3,424.8 272.2,632.4c128.9,253.7 277.7,491.9 442.9,713.4c122.4,163.9 254.2,319 394.3,463.3c8.1,8.7 16.9,17.4 25.5,25.8c484.2,491.2 1066.7,861.8 1713.6,1082.5c892.2,303.9 1860.5,299.1 2791.3,-4.8c246.4,-80.2 490.5,-180.9 729.1,-303c175.6,-89.5 343.4,-185.8 502,-289.9c285.8,-185.2 545.1,-393.2 774.4,-621.6l30.7,-30.5c17.5,-17.6 34.3,-35.3 51.3,-53.6c6.9,-6.7 13.5,-13.8 20.5,-21.2c619.9,-656.9 1004.6,-1466.9 1114,-2349.3c86.2,-691.7 2.3,-1405.8 -242.8,-2098.7c-75.7,-213.1 -166,-423.9 -272,-631.5c-117.9,-231.3 -251.9,-450.4 -400.3,-656c-203.1,-283.2 -433.3,-541 -684.7,-768.9c-486,-441.7 -1052.1,-771.4 -1660.5,-958c-223.8,-68.2 -449.1,-117.1 -676.1,-146.2c25.2,-22.7 50.8,-45.6 76.6,-68.2c22,-20 44.3,-39.7 67,-59.7c60.8,-53.5 122.5,-107.3 185.3,-161.3c9.3,-8.1 18.7,-16.2 28.3,-23.9c833.1,170.7 1599,596.2 2234,1210.8c432.7,418.3 805.1,923.7 1096.6,1495.4c961.9,1884.8 735.4,4023.7 -724.9,5500.3l-31.9,32.7c-371.1,369.4 -861.7,823.8 -1391.4,1093.2c-2552.9,1302.7 -5248.8,137.8 -6459.6,-2234.5" fill="#ffea8c" fill-rule="nonzero" id="path54"/>
    <path d="m16316.5,33445.2c-319.7,-625.9 -511.2,-1279.1 -575.4,-1928c-134.2,-1367.7 302.8,-2716 1323.3,-3748c189.9,-191.4 399.4,-372.2 629.7,-540.4l138.2,96l39.6,27.4c-242.3,171.4 -464.7,359.6 -665.5,562.2c-947.1,957.7 -1395.3,2229.3 -1262.8,3579.5c61.9,634.4 248.6,1259.8 554.7,1858.5c590.7,1158.4 1555.4,2014.2 2716.3,2409.4c1190.2,405.3 2442,394.7 3646.5,-219.6c516,-263 1034.6,-691.3 1412.2,-1066.5l31.4,-31.8c698.4,-705.9 1131.1,-1589.7 1251.2,-2555.8c118.8,-953.9 -69.4,-1949.5 -543.1,-2879.3c-278.3,-545.9 -658.6,-1051.5 -1101.4,-1477.4c-551.3,-530.1 -1200.8,-936.5 -1874.4,-1142.2c-112.3,-34.6 -224.7,-63.4 -336.6,-86.6c9.3,-8.1 18.7,-16.2 28.3,-23.9c27.3,-23.7 54.8,-47.1 82.8,-70.7c837.5,181.2 1610.7,598.4 2252,1197.4c450,420.2 834.7,929.9 1131,1510.6c991.4,1943.9 758.8,4150.5 -747.5,5673.5c-11,11.1 -22,22.3 -33.6,33.4c-382.4,380.9 -847.3,717.8 -1393.6,996.4c-2632.4,1343.2 -5454.7,273.5 -6703.3,-2174.1" fill="#f47d1f" fill-rule="nonzero" id="path56"/>
    <path d="m23320.9,30170.8c7,3.7 13.9,7.5 20.9,11.2c14.9,5.6 30.3,7.3 46.1,5c48.3,-12.8 96.5,-25.6 144.8,-38.3c12.3,-1.4 23.4,-5.7 33.2,-12.9c11.2,-5.5 20.4,-13.5 27.4,-24.1c12.9,-17.9 20.5,-45.1 16.3,-67c-4.6,-23.6 -16.3,-47.1 -37,-60.7l-20.9,-11.2c-14.9,-5.7 -30.3,-7.3 -46.1,-5.1c-48.2,12.8 -96.5,25.6 -144.7,38.4c-12.4,1.4 -23.5,5.7 -33.3,12.9c-11.2,5.5 -20.3,13.5 -27.4,24.1c-12.9,17.8 -20.5,45 -16.3,67c4.6,23.5 16.3,47.1 37,60.7" fill="#fff0c9" fill-rule="nonzero" id="path58"/>
    <path d="m21942.7,30529.3c21.5,7.1 48.3,9.7 68.9,-1.5c72.6,-39.3 145.1,-78.7 217.6,-118c22,-11.9 39.9,-27.2 49.1,-51.3c7.9,-20.6 8.3,-48.8 -1.5,-68.9c-10.5,-21.6 -27.9,-41.4 -51.3,-49.2c-21.5,-7.1 -48.3,-9.7 -68.9,1.5c-72.6,39.4 -145.1,78.7 -217.6,118c-22,12 -39.9,27.2 -49.1,51.4c-7.8,20.5 -8.3,48.8 1.5,68.9c10.5,21.6 27.9,41.3 51.3,49.1" fill="#fff0c9" fill-rule="nonzero" id="path60"/>
    <path d="m23490.3,31122.4c60.9,3.5 121.8,7 182.8,10.5c24.1,1.5 47.9,-4.1 67.1,-19.6c17.5,-14 32.1,-38.6 33.6,-61.4c1.6,-23.6 -3.5,-48.9 -19.6,-67.2c-15.6,-17.6 -37.2,-32.2 -61.4,-33.6l-182.8,-10.5c-24.2,-1.4 -47.9,4.2 -67.2,19.6c-17.4,14.1 -32.1,38.7 -33.6,61.4c-1.5,23.6 3.6,48.9 19.7,67.2c15.6,17.7 37.1,32.2 61.4,33.6" fill="#fff0c9" fill-rule="nonzero" id="path62"/>
    <path d="m22991.2,31321.7c55.9,14.6 111.8,29.1 167.7,43.7c11.2,4.7 22.6,6.4 34.4,5.2c12,0.8 23.5,-1.5 34.5,-6.7c11.9,-4.7 21.7,-11.9 29.5,-21.6c9.1,-8.1 15.7,-18 19.7,-29.8c7.3,-22 8.9,-47.4 -1.5,-68.9c-4.3,-7 -8.5,-14 -12.7,-21c-10.4,-12.8 -23.3,-22.2 -38.7,-28.1l-167.7,-43.7c-11.2,-4.7 -22.6,-6.4 -34.4,-5.2c-12,-0.8 -23.5,1.5 -34.5,6.7c-11.9,4.7 -21.7,11.9 -29.5,21.6c-9.1,8.1 -15.7,18 -19.7,29.8c-7.3,22 -8.9,47.4 1.5,68.9c4.3,7 8.5,14 12.7,21c10.4,12.8 23.3,22.2 38.7,28.1" fill="#fff0c9" fill-rule="nonzero" id="path64"/>
    <path d="m23200.4,31893.9c104.8,50.3 221.3,79.9 337.3,86.3c24.2,1.4 47.9,-4.1 67.2,-19.6c17.5,-14.1 32.1,-38.6 33.6,-61.4c3.1,-47.3 -30.1,-97.9 -81.1,-100.8c-45.8,-2.5 -91.2,-9.3 -136,-19.2c-53.6,-13.8 -105.9,-32.3 -155.8,-56.2c-19.7,-9.5 -49.6,-6.9 -68.9,1.5c-20.9,9 -41.9,29.4 -49.2,51.3c-7.3,22.1 -8.9,47.4 1.5,68.9c11.3,23.2 28.2,38 51.4,49.2" fill="#fff0c9" fill-rule="nonzero" id="path66"/>
    <path d="m22435,32560.8c33.2,25.4 66.5,50.7 99.7,76c9.7,7.5 20.4,12.2 32.2,14c11.3,3.7 22.9,4.5 34.8,2.3c12.4,-1.4 23.5,-5.7 33.3,-12.9c11.2,-5.4 20.3,-13.5 27.4,-24.1c12.7,-19.4 20.8,-43.5 16.2,-67c-4.7,-24.5 -16.8,-45.3 -37,-60.7c-33.2,-25.3 -66.4,-50.6 -99.7,-76c-9.6,-7.5 -20.4,-12.1 -32.2,-13.9c-11.3,-3.8 -22.8,-4.5 -34.8,-2.3c-12.3,1.4 -23.4,5.6 -33.2,12.8c-11.2,5.5 -20.4,13.6 -27.4,24.2c-12.8,19.4 -20.8,43.5 -16.3,67c4.8,24.5 16.8,45.3 37,60.6" fill="#fff0c9" fill-rule="nonzero" id="path68"/>
    <path d="m22668.9,33369.2c76.4,62.1 152.8,124.1 229.2,186.1c37.2,30.1 101.6,18.9 127.7,-20.8c28.4,-43.3 19.1,-95.3 -20.8,-127.6c-76.4,-62 -152.8,-124 -229.2,-186.1c-37.2,-30.1 -101.6,-18.9 -127.7,20.8c-28.4,43.3 -19.1,95.3 20.8,127.6" fill="#fff0c9" fill-rule="nonzero" id="path70"/>
    <path d="m21886.2,32561.4c17.3,17.9 35.8,30.9 61.3,33.6c22.3,2.4 50.1,-4.6 67.2,-19.6c17.8,-15.7 32,-37.1 33.6,-61.4c1.5,-22.9 -3,-50.1 -19.6,-67.2c-46.1,-47.4 -92.1,-94.7 -138.2,-142.1c-17.3,-17.8 -35.9,-30.8 -61.4,-33.6c-22.3,-2.4 -50,4.6 -67.1,19.6c-17.8,15.7 -32.1,37.1 -33.6,61.4c-1.6,22.9 2.9,50.1 19.6,67.2c46.1,47.4 92.1,94.7 138.2,142.1" fill="#fff0c9" fill-rule="nonzero" id="path72"/>
    <path d="m21538.6,34221.1c8,9.1 17.9,15.7 29.7,19.7c11.2,4.6 22.7,6.4 34.5,5.2c11.9,0.8 23.4,-1.5 34.4,-6.7c21.6,-10.6 41.4,-27.9 49.2,-51.4c1.8,-7.6 3.6,-15.1 5.4,-22.7c1.7,-16 -0.6,-31.4 -6.9,-46.2c-13.2,-41.3 -26.4,-82.5 -39.6,-123.7c-4.7,-11.9 -11.9,-21.7 -21.6,-29.5c-8,-9.1 -18,-15.7 -29.8,-19.7c-11.1,-4.7 -22.6,-6.4 -34.4,-5.2c-11.9,-0.8 -23.4,1.5 -34.5,6.7c-21.5,10.5 -41.3,27.9 -49.1,51.4c-1.8,7.6 -3.6,15.1 -5.5,22.7c-1.6,16 0.7,31.4 7,46.2c13.2,41.2 26.4,82.5 39.6,123.7c4.6,11.9 11.8,21.7 21.6,29.5" fill="#fff0c9" fill-rule="nonzero" id="path74"/>
    <path d="m21171.6,33137.5c49.6,-9.6 83.2,-53.2 76.9,-104c-11.5,-92.2 -23,-184.4 -34.5,-276.7c-5.9,-47.5 -56.3,-86.1 -103.9,-76.9c-49.7,9.6 -83.3,53.2 -77,104c11.5,92.2 23,184.4 34.5,276.7c5.9,47.5 56.3,86.1 104,76.9" fill="#fff0c9" fill-rule="nonzero" id="path76"/>
    <path d="m20872.8,33904.3c20.5,7.8 48.8,8.3 68.9,-1.5c21.6,-10.5 41.3,-27.9 49.1,-51.4c7.9,-23.6 6.5,-45.2 -1.5,-68.9c-1.5,-4.5 -2.8,-9 -4.2,-13.5c-12.1,-45.2 -19.1,-91.4 -20.7,-138.2c0.1,-3.6 0,-7.2 0.1,-10.9c0.6,-24.7 -3.7,-47.3 -19.7,-67.1c-14,-17.5 -38.6,-32.2 -61.4,-33.6c-23.6,-1.6 -48.9,3.5 -67.1,19.6c-17.4,15.3 -33.1,37.4 -33.7,61.4c-1,43.1 0.6,86.5 7.1,129.2c6.6,42.7 17.9,84.9 31.7,125.8c7.3,21.4 30.9,41.3 51.4,49.1" fill="#fff0c9" fill-rule="nonzero" id="path78"/>
    <path d="m19735,33838.4c19.5,12.8 43.6,20.8 67,16.2c7.6,-2.1 15.2,-4.3 22.8,-6.5c15.4,-6.7 28,-16.9 37.9,-30.4c47.6,-53.6 95.2,-107.1 142.8,-160.7c14.4,-16.1 19.3,-46.5 16.3,-67c-3.4,-22.4 -17.7,-48 -37,-60.6c-19.4,-12.8 -43.5,-20.8 -67,-16.3l-22.8,6.5c-15.4,6.8 -28,16.9 -37.9,30.5c-47.6,53.5 -95.2,107.1 -142.8,160.6c-14.3,16.2 -19.3,46.5 -16.2,67c3.3,22.5 17.6,48 36.9,60.7" fill="#fff0c9" fill-rule="nonzero" id="path80"/>
    <path d="m19227.6,33702.4c21,7 49.1,10.3 69,-1.5c77.4,-45.9 148.8,-98.4 211.5,-163.3c17.6,-18.3 30.7,-35.2 33.6,-61.4c2.4,-22.3 -4.6,-50.1 -19.7,-67.2c-15.6,-17.8 -37,-32 -61.4,-33.6c-22.4,-1.5 -50.7,2.7 -67.1,19.7c-54.4,56.3 -115.6,105.2 -182.5,145.8c3.7,-2.2 7.4,-4.5 11.1,-6.7c-21.2,12.7 -38.1,25.9 -47.3,50.2c-7.8,20.5 -8.3,48.8 1.5,68.9c10.5,21.6 27.9,41.3 51.3,49.1" fill="#fff0c9" fill-rule="nonzero" id="path82"/>
    <path d="m18823.9,32571.6c22.8,1.5 50.2,-3 67.2,-19.7c29.5,-29 62.2,-54.2 97,-76.5c14.7,-8.4 29.5,-16.7 44.9,-23.9c21.9,-10.2 40.4,-28.5 49.1,-51.3c7.8,-20.6 8.3,-48.8 -1.5,-68.9c-10.5,-21.6 -27.9,-41.4 -51.3,-49.2c-22.3,-7.4 -47.1,-8.7 -68.9,1.5c-67.4,31.5 -130.8,73.6 -183.9,125.8c-17.8,17.5 -30.9,35.8 -33.6,61.4c-2.5,22.3 4.5,50.1 19.6,67.2c15.7,17.7 37.1,32 61.4,33.6" fill="#fff0c9" fill-rule="nonzero" id="path84"/>
    <path d="m17946,32559.1c18.7,12.3 44.3,22 67,16.2c74.8,-19 149.6,-38 224.4,-57c24.4,-6.2 45.3,-15.7 60.6,-37c12.9,-17.8 20.5,-45 16.3,-67c-4.6,-23.5 -16.3,-47.1 -37,-60.6c-18.7,-12.3 -44.3,-22.1 -67,-16.3c-74.8,19 -149.6,38 -224.3,57c-24.5,6.3 -45.4,15.8 -60.7,37c-12.9,17.9 -20.5,45 -16.3,67c4.6,23.6 16.3,47.1 37,60.7" fill="#fff0c9" fill-rule="nonzero" id="path86"/>
    <path d="m18586.6,30862.4c61.8,23.3 123.6,46.5 185.4,69.8c21.6,8.1 47.8,7.7 69,-1.5c20.8,-9 41.8,-29.4 49.1,-51.3c7.3,-22.1 9,-47.5 -1.5,-69c-10.8,-22 -27.9,-40.3 -51.4,-49.1c-61.8,-23.2 -123.6,-46.5 -185.4,-69.8c-21.6,-8.1 -47.7,-7.6 -68.9,1.5c-20.8,9.1 -41.9,29.4 -49.1,51.4c-7.4,22 -9,47.4 1.5,68.9c10.7,22.1 27.8,40.3 51.3,49.1" fill="#fff0c9" fill-rule="nonzero" id="path88"/>
    <path d="m17790.6,31229.1c96.1,11 192.2,22.1 288.3,33.1c23.2,2.7 49,-5 67.2,-19.6c17.4,-14.1 32.1,-38.6 33.6,-61.4c3.2,-49.7 -30.3,-94.9 -81.1,-100.8c-96.1,-11 -192.2,-22.1 -288.3,-33.1c-23.2,-2.7 -49,5 -67.2,19.6c-17.4,14.1 -32.1,38.6 -33.6,61.4c-3.2,49.7 30.3,95 81.1,100.8" fill="#fff0c9" fill-rule="nonzero" id="path90"/>
    <path d="m17726.5,30723c27.4,1.5 54.5,5.6 81.3,11.2c22.2,5.8 44.1,12.4 65.3,20.8c21.2,8.5 48.2,7.5 69,-1.5c11.8,-4.6 21.6,-11.8 29.4,-21.5c9.1,-8.1 15.7,-18 19.7,-29.8c7.3,-22 9,-47.4 -1.5,-68.9c-10.9,-22.4 -27.9,-39.8 -51.4,-49.2c-34,-13.5 -69,-22.9 -104.7,-30.9c-28.7,-6.4 -57.9,-10.4 -87.3,-12c-24.2,-1.4 -48,4.1 -67.2,19.6c-17.5,14.1 -32.1,38.6 -33.6,61.4c-1.5,23.6 3.5,48.9 19.7,67.2c15.5,17.6 37.1,32.2 61.3,33.6" fill="#fff0c9" fill-rule="nonzero" id="path92"/>
    <path d="m19796.1,30297.2c43.2,-21.1 69.7,-74.1 47.6,-120.3c-24.2,-50.7 -45.5,-102.8 -63.2,-156.2c-4.4,-13.1 -8.6,-26.2 -12.5,-39.5c-0.5,-1.6 -0.8,-2.4 -1.1,-3.5c-1.7,-6.4 -3.5,-12.8 -5.2,-19.2c-7.2,-27.7 -13.4,-55.6 -18.9,-83.7c-9.1,-46.9 -54,-86.6 -104,-76.9c-46.8,9 -86.7,53.8 -76.9,103.9c23.4,120 61.2,237.5 113.9,347.7c20.6,43.1 74.8,69.9 120.3,47.7" fill="#fff0c9" fill-rule="nonzero" id="path94"/>
    <path d="m18791.6,29871.4c52.2,30 106.3,55 164.3,71.4c23.4,6.6 45.9,8.5 68.9,-1.5c20.9,-9 41.9,-29.4 49.2,-51.3c14.4,-43.6 -3.7,-104.1 -52.9,-118.1c-41.6,-11.7 -81.6,-28 -120.1,-47.8c-44.5,-25.5 -85.9,-55.8 -123.2,-91.2c4.4,4.2 8.9,8.4 13.3,12.7c-17.9,-17.2 -34.6,-30 -60.5,-32.8c-22.3,-2.4 -50,4.6 -67.1,19.6c-17.8,15.7 -32,37.1 -33.6,61.4c-1.5,22.4 2.6,50.8 19.6,67.2c43.7,42.1 89.3,80.2 142.1,110.4" fill="#fff0c9" fill-rule="nonzero" id="path96"/>
    <path d="m19114.8,29191.2c37.2,-32.8 46.1,-88.6 14,-128.6l-143,-177.7c-29.9,-37.3 -91.4,-46.6 -128.5,-13.9c-37.2,32.7 -46.1,88.6 -14,128.5l142.9,177.7c30,37.3 91.5,46.7 128.6,14" fill="#fff0c9" fill-rule="nonzero" id="path98"/>
    <path d="m20465.9,29787.2c12,1.8 23.6,0.5 34.8,-3.7c12.1,-2.4 22.9,-7.7 32.4,-15.9c17.7,-15.7 32,-37.1 33.6,-61.4c1.5,-23.9 -3.8,-48.5 -19.7,-67.2c-1.4,-1.6 -2.4,-3.5 -3.7,-5.2c-2.1,-4.1 -3.9,-8.4 -5.6,-12.7c-0.8,-4 -1.4,-8.1 -1.9,-12.1c0.4,-5 0.4,-10 1.3,-14.9c1.7,-12 0.5,-23.6 -3.7,-34.7c-2.4,-12.1 -7.7,-22.9 -16,-32.4c-7.5,-10.1 -16.9,-17.6 -28.2,-22.5c-10,-6.6 -21,-10.3 -33.2,-11.1c-23.6,-1.6 -48.8,3.5 -67.1,19.6c-5.7,5.9 -11.3,11.9 -16.9,17.8c-9.4,13.1 -14.9,27.6 -16.7,43.6c-3.3,17.3 -2.5,34.8 -1.9,52.4c0.4,10.5 1.9,21 4.6,31.2c4.6,16.9 8.9,34.2 17.1,49.9c8.3,15.9 17.7,32 29.4,45.7c15.5,18.2 37.5,31 61.4,33.6" fill="#fff0c9" fill-rule="nonzero" id="path100"/>
    <path d="m21293.5,30003.9c19.5,12.7 43.5,20.8 67,16.2c24.4,-4.7 45.7,-16.7 60.7,-37c24.9,-33.5 49.7,-67.1 74.6,-100.7c13.6,-18.4 19.6,-44.6 16.2,-67c-1.4,-12.4 -5.6,-23.5 -12.8,-33.3c-5.5,-11.2 -13.6,-20.3 -24.2,-27.4c-19.4,-12.8 -43.5,-20.8 -66.9,-16.3c-24.4,4.8 -45.7,16.7 -60.7,37c-24.9,33.6 -49.7,67.2 -74.6,100.8c-13.6,18.3 -19.6,44.5 -16.3,67c1.4,12.4 5.7,23.5 12.9,33.3c5.5,11.2 13.5,20.3 24.1,27.4" fill="#fff0c9" fill-rule="nonzero" id="path102"/>
    <path d="m22016.8,28940.3c8,9.2 18,15.7 29.7,19.7c22.1,7.4 47.5,9 69,-1.5c20.9,-10.2 42.6,-27.9 49.1,-51.3c2.6,-9.2 6.6,-17.9 10.7,-26.5c3.2,-4.8 6.6,-9.5 10.3,-13.9c5.7,-5.2 11.7,-10 18.1,-14.3c2.4,-1.5 4.7,-3.1 6.9,-4.9l0.4,-0.3l-0.3,0.2c3.7,-3.1 7.4,-6.2 10.5,-10.1c9.1,-8 15.7,-18 19.7,-29.7c4.7,-11.2 6.4,-22.7 5.2,-34.5c0.8,-11.9 -1.5,-23.4 -6.7,-34.5c-10.5,-21.6 -27.9,-41.3 -51.4,-49.1c-7.6,-1.8 -15.1,-3.6 -22.7,-5.5c-16,-1.6 -31.4,0.7 -46.2,7c-16,9.5 -32.2,18.6 -46.2,30.9c-14.1,12.4 -27.4,26.3 -38.9,41.1c-11.2,14.5 -19.6,30.9 -27.9,47.1c-5.3,10.2 -9.3,20.8 -12.4,31.8c-4.7,11.1 -6.5,22.6 -5.2,34.4c-0.8,12 1.4,23.5 6.7,34.5c4.6,11.9 11.8,21.7 21.6,29.4" fill="#fff0c9" fill-rule="nonzero" id="path104"/>
    <path d="m21558.2,29252.7c43,14.3 104.9,-3.4 118.1,-52.8c46.3,-174.5 82.5,-351.5 106.6,-530.4c6.4,-47.5 -32.6,-97.6 -81,-100.8c-50.5,-3.3 -94,30.4 -100.8,81.1c-11.3,84.3 -25.2,168.3 -41.8,251.8c-8.1,41.1 -16.9,82.1 -26.4,123c-1.1,4.8 -2.2,9.6 -3.3,14.4c-0.5,1.9 -3.8,17.6 -1.6,6.6c2.5,-12.3 -1.9,7.9 -2.4,10.2c-1.2,4.8 -2.4,9.6 -3.6,14.4c-5.4,21.5 -10.9,43 -16.6,64.5c-6.3,23.7 -8.6,45.5 1.5,68.9c9,20.8 29.4,41.8 51.3,49.1" fill="#fff0c9" fill-rule="nonzero" id="path106"/>
    <path d="m22923.5,29696.4c127.2,-76.4 254.4,-152.8 381.6,-229.2c22,-13.3 39.5,-26.2 49.1,-51.4c7.8,-20.5 8.3,-48.8 -1.5,-68.9c-19.3,-39.6 -76.4,-73.9 -120.3,-47.6c-127.2,76.4 -254.3,152.8 -381.5,229.2c-22.1,13.2 -39.6,26.2 -49.1,51.3c-7.9,20.6 -8.3,48.9 1.5,68.9c19.3,39.7 76.4,74 120.2,47.7" fill="#fff0c9" fill-rule="nonzero" id="path108"/>
    <path d="m17432.9,31718.4c19.6,-5.1 39.7,-9.8 59.9,-14.3c13.9,-2.9 26.2,-11.1 34.3,-22.7c960.4,-1352.8 2938.4,-65 3335.6,309.5c28.6,27 21.3,73.3 -13.4,91.6c-340.2,178.9 246.4,771.5 483.3,1179.9c22.3,38.5 -7.2,86.1 -51.7,84.4c-519.6,-20.1 -196.5,425.1 139.2,935.9c21,32.1 4.3,74.7 -32.6,85.5c-254.7,74.2 -88.6,609.5 171.2,1097.3c15.4,29.1 3.6,65.9 -26.7,78.9c-263,112.6 -277.2,793.6 2.6,1192.4c27.2,38.6 -2.6,91.4 -49.7,88.6c-313.7,-18.8 -424.6,25.5 -181.9,595.7c9.8,22.9 3.7,45.3 -10.3,60.4c-1302.2,-1378.1 -2984.6,-4143.1 -3859.8,-5763.1" fill="#217c5c" fill-rule="nonzero" id="path110"/>
    <path d="m20415.4,31992.6c28.6,26.9 21.3,73.3 -13.4,91.5c-340.2,178.9 246.5,771.5 483.3,1180c22.4,38.5 -7.2,86.1 -51.7,84.3c-519.6,-20 -196.5,425.2 139.2,936c21,32.1 -140.7,63.3 -223.9,127.1c-210.4,161.5 77.4,337.8 337.1,825.6c15.4,29.1 3.7,65.9 -26.6,78.8c-263,112.7 -144.2,829.9 135.7,1228.7c27.2,38.6 -2.6,91.5 -49.7,88.6c-131.4,-7.9 -397.6,-86.9 -384.1,237.5c181.9,223.7 360,429.4 531.4,610.8c14,-15.1 20.1,-37.5 10.3,-60.4c-242.7,-570.2 -131.8,-614.5 181.9,-595.7c47.1,2.8 76.9,-50 49.7,-88.6c-279.8,-398.8 -265.6,-1079.8 -2.6,-1192.4c30.3,-13 42.1,-49.8 26.7,-78.9c-259.8,-487.8 -425.9,-1023.1 -171.2,-1097.3c36.9,-10.8 53.6,-53.4 32.6,-85.5c-335.7,-510.8 -658.8,-956 -139.2,-935.9c44.5,1.7 74,-45.9 51.7,-84.4c-236.9,-408.4 -823.5,-1001 -483.3,-1179.9c34.7,-18.3 42,-64.6 13.4,-91.6c-288.7,-272.2 -1412.8,-1027 -2374,-899.4c837.1,93 1682,670.4 1926.7,901.1" fill="#1b755f" fill-rule="nonzero" id="path112"/>
    <path d="m17432.9,31718.4c875.2,1620 2557.6,4385 3859.8,5763.1c-17.1,18.4 -45.9,25.8 -71.8,9.4c-426.3,-270.5 -850,-298.1 -956.8,-131.4c-20.2,31.6 -65.8,33.4 -90.4,5.1c-347.2,-400.8 -638.1,-438 -739.8,-307.7c-23.1,29.5 -67.7,29.7 -90.1,-0.5c-231.3,-311.4 -618.8,-636.3 -841.1,-519.8c-31.8,16.7 -71,0.7 -81,-33.9c-140.8,-488.7 -676.9,-948.1 -835.5,-709.5c-24.8,37.4 -81.9,30.5 -99.5,-10.9c-225.3,-529 -253.7,-965.8 -607.2,-844.1c-33.3,11.4 -69.1,-9.6 -74.6,-44.5c-115.8,-738.4 0.6,-1336.8 -319,-1240.9c-29.5,8.8 -60.7,-7.7 -69.9,-37.1c-143,-464.2 -76.8,-1617.7 1016.9,-1897.3" fill="#338e6b" fill-rule="nonzero" id="path114"/>
    <path d="m21069.5,37236.2c-1632.1,-2004.9 -2974.6,-4257.1 -4099.9,-6580.1c-28.8,-74.9 -148.4,-27 -114,48.2c1165.3,2313.2 2545.4,4546.9 4213.9,6531.9" fill="#6ccc96" fill-rule="nonzero" id="path116"/>
    <path d="m21189,35637.6c-469.3,-274.8 -1023.9,-229 -1537.3,-288.8c-214.2,236 -390.6,1057 -349,1381.1c-7.6,-428.4 138.1,-984.5 351.2,-1353.1c509.8,60.5 1058.2,7.6 1535.1,260.8" fill="#6ccc96" fill-rule="nonzero" id="path118"/>
    <path d="m20909.9,34142.3c-514,-186.3 -1061.9,-261 -1601.9,-331.2c-218.9,-7.5 -471.7,-87.2 -678.8,-17.1c-185.1,654.1 -504.6,1296.4 -563.8,1977c72.8,-657.8 415.3,-1344.4 588.5,-1964.6l0.2,0.2c754.1,-6 1530.3,125.7 2255.8,335.7" fill="#6ccc96" fill-rule="nonzero" id="path120"/>
    <path d="m20548.8,32159.1c-611.5,-82.6 -1232.2,-72.7 -1848.2,-71.7c-336.3,26.7 -717.4,-32.1 -1030.6,81.7c-228.8,636.1 -578.8,1269.1 -605,1954.8c43.8,-685.3 402.3,-1312.5 631.7,-1950.2c0.4,1 -0.6,2.7 -1.3,2.9c940,-106.2 1909,-87 2853.4,-17.5" fill="#6ccc96" fill-rule="nonzero" id="path122"/>
    <path d="m17998.2,32532c6.5,14 12.8,28.3 18.9,42.9c4.2,9.9 11.5,18.2 20.6,23.2c1058.8,583.7 498,2159.4 307.4,2486.4c-13.7,23.6 -46.1,22.4 -63.7,-1.4c-173,-234.3 -481.1,252.3 -719.3,464.2c-22.5,20 -59.1,2.6 -64.8,-30.3c-66.8,-384.8 -316.5,-105.9 -608.4,188.3c-18.3,18.4 -49.6,10 -62.6,-16.2c-89.3,-180.9 -423.8,-9.4 -711.9,226.7c-17.2,14 -43.8,8.7 -57.2,-12.4c-116.5,-183.5 -576.9,-131.6 -802,111.1c-21.9,23.6 -62,6.5 -67.4,-28.5c-35.8,-232.9 -82.8,-310.5 -429,-79.4c-13.9,9.3 -29.9,6.8 -42.3,-2.1c726.2,-1085.9 2326.8,-2579.1 3281.7,-3372.5" fill="#217c5c" fill-rule="nonzero" id="path124"/>
    <path d="m18274.8,34755.1c-13.7,23.5 -46.1,22.4 -63.7,-1.5c-173,-234.3 -481.1,252.3 -719.3,464.2c-22.5,20.1 -59.1,2.6 -64.8,-30.3c-66.8,-384.8 -316.5,-105.9 -608.3,188.3c-18.4,18.5 -64.4,-97.9 -120.2,-153.3c-141.2,-140.3 -215.4,87.9 -503.5,324.1c-17.2,14 -43.8,8.7 -57.2,-12.4c-116.4,-183.6 -580.7,-30.3 -805.8,212.5c-21.8,23.6 -62,6.5 -67.4,-28.5c-15,-97.6 -2.9,-300.9 -219.1,-261.3c-122.5,154.5 -233.4,304.6 -329,447.6c12.4,8.9 28.4,11.4 42.3,2.1c346.2,-231.1 393.2,-153.5 429,79.4c5.4,35 45.5,52.1 67.4,28.5c225.1,-242.7 685.5,-294.6 802,-111.1c13.4,21.1 40,26.4 57.2,12.4c288.1,-236.1 622.6,-407.6 711.9,-226.7c13,26.2 44.3,34.6 62.6,16.2c291.9,-294.2 541.6,-573.1 608.4,-188.3c5.7,32.9 42.3,50.3 64.8,30.3c238.2,-211.9 546.3,-698.5 719.3,-464.2c17.6,23.8 50,25 63.7,1.4c138.5,-237.7 472.7,-1135.2 238.2,-1831.9c66.9,625.5 -191.1,1301 -308.5,1502.5" fill="#1b755f" fill-rule="nonzero" id="path126"/>
    <path d="m17998.2,32532c-954.9,793.4 -2555.5,2286.6 -3281.7,3372.5c-15,-10.9 -24.4,-31.5 -17.4,-52.1c116.1,-338.9 69.2,-653.6 -59.4,-717.1c-24.4,-12 -32.7,-45.5 -17.5,-66.2c216.1,-292.6 196.1,-510.3 92.8,-573.3c-23.5,-14.4 -30.5,-47.2 -13.7,-66.5c173.9,-199 332.6,-514.3 219.8,-667.5c-16.1,-21.9 -11.4,-52.2 10.3,-62.7c307.1,-148.6 533.4,-585.8 348.3,-680.8c-29,-14.8 -33.1,-57.6 -8,-74.3c321.1,-214.6 610.7,-275.5 474.2,-524.9c-12.9,-23.4 -4.2,-51.7 18.4,-59c479,-153 899.7,-122 785.8,-348.8c-10.5,-20.9 -4.3,-45.4 14.1,-54.9c290.3,-147.9 1076.8,-204.8 1434,575.6" fill="#338e6b" fill-rule="nonzero" id="path128"/>
    <path d="m14847.1,35717.6c1096.9,-1386.5 2405.1,-2582.2 3794.4,-3624.3c46,-28.1 -4.8,-111.9 -50,-79.6c-1376.6,1070.6 -2666.5,2292.4 -3744.4,3703.9" fill="#6ccc96" fill-rule="nonzero" id="path130"/>
    <path d="m15941.4,35659.1c112.4,-371 -4.2,-775.5 -43.3,-1159.4c-191.9,-136.2 -771.7,-190.9 -983.3,-130.6c287,-44.8 683.8,11.6 964.8,134.8c38.1,381.2 158.4,780.6 61.8,1155.2" fill="#6ccc96" fill-rule="nonzero" id="path132"/>
    <path d="m16904.6,35316.5c45.8,-395.9 11.5,-806.5 -24.8,-1210.9c-28.8,-162 -14.2,-355.6 -93.4,-501.8c-468.8,-76.5 -950.5,-253.1 -1417.7,-234.4c454,-6.6 969,182.9 1413.1,253.7l0,0.2c120.6,555.1 151.9,1139.2 122.8,1693.2" fill="#6ccc96" fill-rule="nonzero" id="path134"/>
    <path d="m18183.4,34868.6c-39,-458.2 -141.6,-914.7 -237.5,-1368.5c-70,-245.5 -89.3,-531.7 -214.3,-752.1c-463.5,-110.3 -943.6,-310.2 -1409.1,-266.7c468,-30.5 945.5,176.2 1410.1,286.8l-2.1,-0.7c216.8,683 353.6,1398.9 452.9,2101.2" fill="#6ccc96" fill-rule="nonzero" id="path136"/>
    <path d="m13825.1,29828.8c-14.6,-240.8 -7.5,-485.8 23,-733.9c25.1,-202.4 65,-399.2 119.1,-589.6c467.2,-1660 3739.5,-2758.9 3739.5,-2758.9l239.8,616.2l149.7,384l124.4,319.2l1.5,3.8l255.9,657.4l52.5,-54l890.4,-925.8l1.5,-1.7l1.7,1.1c280.9,-58.4 580.7,-111 895.5,-156.5c17.8,-3.1 36,-5.8 54.2,-8.1c584.9,506.2 1015.5,1177.2 1226.8,1930.4c80.4,286.3 129.3,584.4 142.7,889.8c10.5,220.4 2.1,445 -26.2,671c-25,202.4 -65,398.8 -118.3,589.5c-450,1600 -1860.1,2746.4 -3504,2874.5c-0.8,0.1 -2,0.6 -3.6,0.3c-96.4,7.1 -193.8,11.1 -291.6,11.2c-167,1.2 -336.1,-8.9 -505.7,-30.2c-233.2,-29 -458.4,-77.4 -675,-144.2c-323,-98.4 -626.5,-236.6 -905.8,-407.6c-1085.6,-665.4 -1808.8,-1831.3 -1888,-3137.9" fill="#f4bb06" fill-rule="nonzero" id="path138"/>
    <path d="m16159.1,27189c-437.5,-550.7 -844.3,433.9 -1071.7,690.2c-122.2,179.9 -47.5,426.2 153.2,508.3l2005.4,986.1c86,37 390.5,22.1 339,-54.2l-1425.9,-2130.4zm1413.1,5278c-21.7,785.6 1207.7,258.7 1595.5,97c205.6,-96.2 276.7,-353.3 152.9,-543.1c-952.6,-1388.7 -1357.1,-2162 -1520.9,-2058c-151.5,96.5 -90,957.8 -227.5,2504.1zm496.2,-2526.2l1320.9,2047.7c114.1,174.1 358.6,199.7 506.1,53.8c198.1,-255.9 1015.3,-1000.6 402.6,-1313.3l-2171.4,-943.2c-30.3,-12.4 -78.1,-18.5 -98.4,7.2c-31.2,35.1 7.3,99.2 40.2,147.8zm113.5,-696.5c40.2,40.8 -41.9,173.7 27.4,154l2358.5,-614.4c141.7,-51.3 213,-130 236,-224.9c86.8,-353.3 -495.7,-932.2 -628.9,-1158.9c-130.2,-165.6 -378.4,-173.2 -517.7,-15.5l-919.7,1112.1l-544.5,658.5c-30.8,35.4 -44,54.9 -11.1,89.1zm-951.6,239.6l-2155.2,-954.6c-197.8,-81.1 -423.9,30 -476.2,237.1c-72.9,395.4 -346.9,1596.8 356.7,1479.3l2203,-585.6c95.9,7.3 120.3,-160.1 71.7,-176.2zm159.1,2958.1l266.8,-2255c13.2,-88.4 -79.4,-113.7 -137.2,-153.4c-44.3,-32 -132.2,-63.7 -168.5,-22.6l-1542.2,1718.9c-131.2,148.7 -101.1,379.4 64.5,488c387.8,208.2 1317.7,973.7 1516.6,224.1zm3174.5,-3578.8l-2224.4,622.2c-84.9,24.6 -35,125.9 -56.2,188.9c-6.2,32.2 9.3,64.6 40,76.9l2151.5,910.4c709,221.5 483.5,-1144 515.3,-1483.2c-9,-216.8 -215.9,-370.1 -426.2,-315.2zm-4806.7,2810.8l1513.8,-1757.9c17.6,-19.9 -21.5,-110.4 -22,-110.8c-12.8,-29.8 -46.6,-45.4 -78,-37.2l-2160.5,541.6c-216.1,56.2 -326.8,294.9 -229.7,496.1c180.1,276.1 489.9,1316.1 976.4,868.2zm1143,-6111.8c233.9,-50.5 467.9,-79.3 700.4,-88l9.3,24.5l96.8,247.7l239.8,616.2c-374.9,-222.4 -1306.6,132.5 -1592.1,262.6c-190.3,92.5 -257.7,330.9 -141.4,508c1496.8,2227.2 1505.7,2722.1 1681.7,1214.3c36.5,-316.7 81,-721.5 147.6,-1217.4c16.4,-122.4 34.4,-250.1 53.9,-383.5l124.4,319.2l1.5,3.8l-188.4,1312.2l-94.2,658c-6.8,43.8 54,72.1 82.8,37.3l544.8,-601.3l1041.9,-1150.6c140.8,-159.4 106.4,-407 -73.2,-520.9c-33,-16.9 -70.7,-36.7 -111.7,-57.7c280.9,-58.4 580.7,-111 895.5,-156.5c17.8,-3.1 36,-5.8 54.2,-8.1l102.2,-14.4c29.3,-4 59.1,-8 88.8,-11.7c564.5,511.8 983.6,1179.4 1167.5,1945.7c69.8,288.4 105.8,590.3 103.9,903.8c3.5,72.3 5.8,144.6 5.7,216.3c1.3,2401.7 -2139.1,4418.6 -4571.9,4035.4c-4536.7,-474.6 -4711.6,-7215.5 -369.8,-8094.9" fill="#fffbe0" fill-rule="nonzero" id="path140"/>
    <path d="m13594.4,29064c73.7,-590.6 249,-1139.6 512.8,-1625.2c555.6,-1022.5 1501.9,-1760.6 2708,-1999.4c218.1,-43.2 475.6,-68.4 742.3,-75.4l15.3,39.2l27.8,71l9.3,24.5c0,0 -488.9,146.7 -743.6,197.3c-1094.5,216.5 -1992.9,879.7 -2529.7,1867.4c-159.3,294.4 -283.3,609.5 -369.4,941.9c-50.4,191.3 -87.9,388.7 -113,590.7c-31,246.5 -40.1,491.7 -29.1,732.8c8.2,178.5 27.5,355.2 58.1,528.2c1.7,10.3 3.8,20.9 5.8,31.2c109.6,592.4 349.3,1145.7 709,1622.2c496.3,656.9 1198.9,1127.7 2020.9,1363.9c217.5,62.7 443.3,109.5 675.7,138.1c170.8,21.2 339.3,33.8 505,36.3c297.4,6 586.8,-17.4 864.6,-70.2l37.1,-7.1c21.3,-4.1 42.1,-8.6 63.3,-13.6c8.3,-1.5 16.6,-3.4 25.3,-5.3c770,-171.4 1445,-568.6 1956.4,-1153.1c401.2,-458.1 690.4,-1015.6 852.5,-1636.7c49.6,-191.2 87.6,-387.9 112.7,-589.9c28,-225.1 38.4,-449.1 31.8,-670.6c-8.1,-304.2 -48.3,-603.4 -118.4,-891.4c-135.1,-557.5 -383,-1073.2 -731.5,-1506.2c-128.5,-159 -267.5,-304.6 -417.4,-437c29.3,-4 59.1,-8 88.8,-11.7c25.8,-3.7 51.5,-7 77.7,-10.4c70.2,-8.9 141.2,-17.6 213,-25.9c10.8,-1.2 21.5,-2.5 32.2,-3.4c518.9,531.6 864.3,1214.5 1022.5,1970c107.9,514.4 129.7,1062.4 60.3,1618.6c-227.6,1834.3 -1439.2,3270.1 -3218.6,3622.5l-39,8c-449.4,85.4 -1026.7,173.7 -1541.7,109c-2484.4,-308.5 -3863.3,-2471.6 -3576.8,-4780.3" fill="#ffea8c" fill-rule="nonzero" id="path142"/>
    <path d="m13463.2,29047.5c75.4,-609.2 256.9,-1175.4 528.3,-1676.2c572.9,-1054.7 1549.4,-1815.7 2793,-2062.1c231.1,-45.4 471.2,-73.5 720.1,-82.3l52.9,137.1l15.3,39.2c-259.3,5.3 -512.3,32.4 -756.7,80.6c-1154.1,228.6 -2101.1,928.6 -2666.8,1969.9c-265.9,489.1 -437.3,1032.9 -509.2,1615.8c-140.3,1127 138.1,2218.5 784,3073c662.2,876.1 1572.6,1481.7 2744.6,1627.5c502,62.5 1086.8,6.9 1543.7,-79.5l38.3,-7.6c850.8,-168.4 1596.7,-595.5 2156.8,-1235.3c553.2,-631.6 904.8,-1443.8 1017.7,-2348.3c66.2,-531.1 38.9,-1083 -72.7,-1608c-139,-653.3 -409.7,-1265.4 -796,-1744.1c-64.2,-80.1 -131.4,-155.9 -201,-227.6c10.8,-1.2 21.5,-2.5 32.2,-3.4c31.4,-3.8 62.7,-7.2 94.5,-10.6c516.9,541.4 871.7,1221.9 1042,1969.2c119.6,524.3 148.1,1081.3 77.9,1646.5c-235.4,1891.3 -1484.5,3373.1 -3319.8,3736.6c-13.4,2.7 -26.8,5.4 -40.7,7.7c-463.1,88.1 -964.3,104 -1495.8,37.9c-2561.8,-318.2 -4078.7,-2474.4 -3782.6,-4856" fill="#f47d1f" fill-rule="nonzero" id="path144"/>
    <path d="m20132.5,30110.8c3.2,6.1 6.4,12.2 9.6,18.4c8.1,11.3 18.4,20.1 30.9,26.2c41.2,14.4 82.3,28.7 123.5,43.1c9.6,5.1 19.7,7.4 30.4,7.1c10.7,1.5 21.3,0.1 31.6,-4.1c18,-6.6 36.9,-22.5 44.5,-40.5c8.3,-19.2 11.3,-42 3,-62l-9.5,-18.3c-8.1,-11.4 -18.4,-20.1 -31,-26.2c-41.1,-14.4 -82.3,-28.8 -123.4,-43.2c-9.6,-5.1 -19.8,-7.4 -30.4,-7c-10.8,-1.5 -21.3,-0.2 -31.6,4c-18.1,6.6 -36.9,22.5 -44.6,40.5c-8.2,19.3 -11.3,42.1 -3,62" fill="#fff0c9" fill-rule="nonzero" id="path146"/>
    <path d="m18960.2,29695c12.1,15.6 30.2,30.6 50.6,32.6c71.7,7.1 143.4,14.2 215.1,21.3c21.8,2.1 42.2,-0.1 60.7,-13.1c15.7,-11 29.9,-31.2 32.7,-50.6c3,-20.7 0.1,-43.5 -13.1,-60.6c-12,-15.7 -30.1,-30.7 -50.5,-32.7c-71.8,-7.1 -143.5,-14.2 -215.2,-21.3c-21.7,-2.1 -42.2,0.2 -60.7,13.1c-15.7,11 -29.9,31.2 -32.6,50.6c-3,20.7 -0.1,43.5 13,60.7" fill="#fff0c9" fill-rule="nonzero" id="path148"/>
    <path d="m19788.8,30882c42.4,32.4 84.7,64.7 127,97.1c16.8,12.9 36.8,20.5 58.2,18.7c19.6,-1.6 42.2,-12.2 54.4,-27.9c12.7,-16.3 21.4,-37.1 18.7,-58.2c-2.6,-20.4 -11.1,-41.5 -27.9,-54.4l-127,-97.1c-16.8,-12.9 -36.8,-20.5 -58.2,-18.8c-19.6,1.7 -42.2,12.2 -54.4,28c-12.7,16.3 -21.4,37.1 -18.7,58.2c2.6,20.4 11.1,41.5 27.9,54.4" fill="#fff0c9" fill-rule="nonzero" id="path150"/>
    <path d="m19330.3,30781.6c33.3,37.9 66.6,75.8 99.9,113.7c5.7,8.9 13.2,15.8 22.3,20.7c8.3,6.4 17.7,10.4 28.3,12c10.8,2.4 21.4,2.1 31.8,-1.2c10.6,-1.3 20.2,-5.3 28.8,-11.9c16.1,-12.3 29.7,-29.9 32.7,-50.5c0.4,-7.2 0.7,-14.3 1.1,-21.4c-1.2,-14.4 -5.9,-27.5 -14.2,-39.3l-99.9,-113.7c-5.7,-8.9 -13.2,-15.8 -22.3,-20.7c-8.3,-6.4 -17.7,-10.4 -28.2,-12c-10.9,-2.5 -21.5,-2.1 -31.9,1.2c-10.5,1.3 -20.2,5.3 -28.8,11.9c-16.1,12.3 -29.7,29.9 -32.7,50.5c-0.4,7.2 -0.7,14.3 -1.1,21.4c1.2,14.4 5.9,27.5 14.2,39.3" fill="#fff0c9" fill-rule="nonzero" id="path152"/>
    <path d="m19201.3,31297.8c51.1,87.8 120.9,166.2 201.6,227.8c16.8,12.8 36.7,20.4 58.2,18.6c19.5,-1.6 42.1,-12.1 54.4,-27.9c25.4,-32.7 26.2,-85.5 -9.3,-112.6c-31.9,-24.3 -61.4,-51.4 -88.9,-80.5c-32,-36.3 -60.8,-75.2 -85.2,-117c-9.6,-16.5 -32.4,-29.3 -50.5,-32.7c-19.5,-3.7 -44.7,0.8 -60.7,13.1c-16.1,12.3 -29.7,29.9 -32.7,50.6c-3.2,22.2 1.8,41.2 13.1,60.6" fill="#fff0c9" fill-rule="nonzero" id="path154"/>
    <path d="m18321,31405.2c11.7,34.6 23.3,69.2 34.9,103.8c3.3,10.2 8.8,18.8 16.5,25.9c6.3,8.2 14.3,14.5 24,18.7c9.6,5.1 19.7,7.4 30.4,7c10.7,1.5 21.3,0.2 31.6,-4c18.7,-7.8 36.3,-21.3 44.6,-40.5c8.5,-20.1 10,-41 3,-62c-11.7,-34.6 -23.3,-69.2 -34.9,-103.8c-3.3,-10.2 -8.8,-18.8 -16.5,-25.9c-6.3,-8.2 -14.3,-14.4 -24,-18.7c-9.6,-5 -19.8,-7.4 -30.4,-7c-10.7,-1.5 -21.3,-0.1 -31.6,4c-18.7,7.9 -36.4,21.3 -44.6,40.5c-8.6,20.1 -10,41 -3,62" fill="#fff0c9" fill-rule="nonzero" id="path156"/>
    <path d="m18094.2,32104.4c24.8,82.3 49.7,164.5 74.6,246.8c12.1,40.1 64.2,63.5 102.5,47.6c41.8,-17.5 60.5,-59.6 47.5,-102.5c-24.8,-82.3 -49.7,-164.6 -74.6,-246.8c-12.1,-40.1 -64.2,-63.5 -102.5,-47.6c-41.8,17.5 -60.5,59.6 -47.5,102.5" fill="#fff0c9" fill-rule="nonzero" id="path158"/>
    <path d="m17923.9,31136.8c3.8,21.4 10.8,39.9 27.9,54.4c14.9,12.6 38.4,21.2 58.2,18.7c20.5,-2.7 41.3,-11.2 54.4,-28c12.3,-15.8 22.3,-37.6 18.7,-58.2c-10.1,-56.8 -20.2,-113.6 -30.3,-170.4c-3.8,-21.4 -10.9,-39.9 -28,-54.4c-14.9,-12.7 -38.4,-21.2 -58.2,-18.7c-20.5,2.6 -41.3,11.1 -54.3,27.9c-12.3,15.9 -22.4,37.7 -18.7,58.2c10.1,56.9 20.2,113.7 30.3,170.5" fill="#fff0c9" fill-rule="nonzero" id="path160"/>
    <path d="m16859.5,32166.7c1.3,10.6 5.3,20.2 11.9,28.8c5.7,8.9 13.2,15.8 22.3,20.7c8.3,6.4 17.7,10.4 28.2,12c20.8,3 43.6,0.1 60.7,-13.1c5,-4.5 10.1,-9.2 15.1,-13.7c9.1,-10.8 14.9,-23 17.6,-36.8c10.7,-36.3 21.3,-72.6 32,-108.9c2.4,-10.8 2,-21.5 -1.2,-31.9c-1.4,-10.5 -5.3,-20.1 -11.9,-28.8c-5.7,-8.8 -13.2,-15.7 -22.3,-20.6c-8.3,-6.4 -17.7,-10.4 -28.3,-12c-20.7,-3 -43.5,-0.1 -60.6,13c-5.1,4.6 -10.1,9.2 -15.1,13.8c-9.1,10.7 -14.9,23 -17.6,36.8c-10.7,36.3 -21.3,72.6 -32,108.8c-2.4,10.9 -2.1,21.5 1.2,31.9" fill="#fff0c9" fill-rule="nonzero" id="path162"/>
    <path d="m17124.9,31203.4c40.6,17.3 86.3,2.2 106.6,-37.5c36.9,-72.4 73.7,-144.7 110.6,-217.1c19,-37.2 1.5,-89.8 -37.5,-106.5c-40.6,-17.4 -86.3,-2.3 -106.6,37.5c-36.8,72.3 -73.7,144.6 -110.6,217c-19,37.3 -1.5,89.9 37.5,106.6" fill="#fff0c9" fill-rule="nonzero" id="path164"/>
    <path d="m16533.2,31611.5c11,15.7 31.2,29.9 50.6,32.6c20.7,3 43.5,0.1 60.6,-13c17.3,-13.3 26.9,-29.6 32.7,-50.6c1.1,-4 2.4,-7.9 3.6,-11.9c13.3,-38.6 31,-75.4 52.7,-110c1.8,-2.6 3.6,-5.3 5.4,-7.8c12.5,-17.6 20.5,-36 18.7,-58.2c-1.6,-19.6 -12.2,-42.2 -27.9,-54.4c-16.4,-12.7 -37.1,-21.4 -58.2,-18.7c-20,2.5 -42.3,10.9 -54.4,27.9c-21.9,30.7 -42,62.9 -58.2,96.9c-16.2,34.1 -28.6,70.1 -38.7,106.5c-5.2,19 2.1,45.1 13.1,60.7" fill="#fff0c9" fill-rule="nonzero" id="path166"/>
    <path d="m15742.7,31006.5c7.8,18.7 21.3,36.3 40.5,44.6c6.6,2.1 13.1,4.3 19.7,6.4c14.4,2.7 28.5,1.5 42.3,-3.4c60.6,-15.5 121.3,-30.9 182,-46.3c18.2,-4.6 36.7,-24.1 44.5,-40.5c8.6,-17.9 10.8,-43.3 3,-62c-7.8,-18.7 -21.3,-36.3 -40.5,-44.5l-19.6,-6.5c-14.5,-2.6 -28.6,-1.5 -42.4,3.5c-60.6,15.4 -121.3,30.8 -181.9,46.2c-18.3,4.7 -36.8,24.2 -44.6,40.5c-8.6,17.9 -10.8,43.4 -3,62" fill="#fff0c9" fill-rule="nonzero" id="path168"/>
    <path d="m15442.4,30659.6c11.7,15.3 30.4,31.4 50.6,32.7c78.5,4.7 155.8,1.7 232.9,-14.5c21.7,-4.6 39.5,-10.4 54.4,-28c12.7,-14.9 21.2,-38.4 18.7,-58.2c-2.6,-20.5 -11.1,-41.3 -27.9,-54.3c-15.5,-12.1 -38,-23 -58.2,-18.7c-66.9,14.1 -135.2,19.4 -203.4,16c3.7,0.2 7.5,0.4 11.3,0.6c-21.5,-1.1 -40.2,0.1 -58.8,13.1c-15.7,11 -29.9,31.3 -32.7,50.6c-2.9,20.8 -0.1,43.5 13.1,60.7" fill="#fff0c9" fill-rule="nonzero" id="path170"/>
    <path d="m15704.4,29644c15.8,12.3 37.7,22.5 58.2,18.7c35.5,-6.5 71.5,-8.8 107.6,-7.8c14.8,1.1 29.6,2.4 44.2,4.7c20.8,3.4 43.2,-0.8 60.7,-13c15.7,-11 29.9,-31.3 32.7,-50.6c2.9,-20.8 0,-43.5 -13.1,-60.7c-12.5,-16.2 -29.8,-29.3 -50.6,-32.7c-64.1,-10.2 -130.6,-10.8 -194.6,0.9c-21.4,3.9 -39.8,10.8 -54.3,28c-12.7,14.9 -21.3,38.4 -18.7,58.1c2.6,20.6 11.1,41.4 27.9,54.4" fill="#fff0c9" fill-rule="nonzero" id="path172"/>
    <path d="m15075.6,29204.9c7.6,18.1 21.3,37.7 40.5,44.6c63.4,22.9 126.8,45.8 190.2,68.7c20.8,7.5 40.5,10.8 62,3c18.1,-6.6 36.9,-22.6 44.6,-40.5c8.2,-19.3 11.3,-42.1 3,-62c-7.6,-18.1 -21.3,-37.6 -40.5,-44.6c-63.4,-22.9 -126.8,-45.8 -190.2,-68.7c-20.8,-7.4 -40.5,-10.8 -62,-2.9c-18.1,6.6 -36.9,22.5 -44.6,40.4c-8.2,19.3 -11.3,42.1 -3,62" fill="#fff0c9" fill-rule="nonzero" id="path174"/>
    <path d="m16370,28291.8c33.3,47.1 66.7,94.2 100,141.3c11.6,16.4 30.7,28.9 50.5,32.7c19.5,3.6 44.7,-0.8 60.7,-13.1c16.1,-12.3 29.7,-29.9 32.7,-50.6c3,-21.2 -0.4,-42.8 -13.1,-60.6c-33.3,-47.1 -66.6,-94.2 -99.9,-141.3c-11.6,-16.5 -30.7,-29 -50.6,-32.7c-19.4,-3.7 -44.6,0.7 -60.6,13c-16.1,12.4 -29.8,29.9 -32.7,50.6c-3.1,21.3 0.4,42.8 13,60.7" fill="#fff0c9" fill-rule="nonzero" id="path176"/>
    <path d="m15614.8,28167c64.1,55.1 128.1,110.1 192.2,165.2c15.5,13.3 37.9,20.4 58.2,18.7c19.5,-1.6 42.2,-12.2 54.4,-27.9c26.7,-34.4 24.6,-83.5 -9.2,-112.6c-64.1,-55.1 -128.2,-110.1 -192.3,-165.2c-15.5,-13.3 -37.9,-20.4 -58.2,-18.7c-19.5,1.6 -42.1,12.2 -54.4,27.9c-26.7,34.4 -24.6,83.5 9.3,112.6" fill="#fff0c9" fill-rule="nonzero" id="path178"/>
    <path d="m15816.4,27769.6c19,14.6 36.7,30.8 53.3,48c13.2,15 25.8,30.5 37,47c11.1,16.5 31.1,29 50.6,32.7c10.8,2.5 21.4,2.1 31.8,-1.2c10.6,-1.3 20.2,-5.3 28.8,-11.9c16.1,-12.3 29.8,-29.9 32.7,-50.5c3.1,-21.5 -0.7,-42.5 -13,-60.7c-18,-26.5 -38.7,-50.4 -60.6,-73.7c-17.7,-18.7 -36.8,-35.9 -57.3,-51.5c-16.8,-12.8 -36.7,-20.5 -58.2,-18.7c-19.5,1.6 -42.1,12.2 -54.3,27.9c-12.7,16.4 -21.4,37.1 -18.7,58.3c2.6,20.4 11,41.5 27.9,54.3" fill="#fff0c9" fill-rule="nonzero" id="path180"/>
    <path d="m17521.6,28475.5c41.5,6 86.7,-19.4 93.4,-63.6c7.3,-48.6 17.4,-96.7 30.7,-144c3.3,-11.6 6.7,-23.1 10.3,-34.6c0.5,-1.5 0.7,-2.1 1,-3.1c1.9,-5.5 3.7,-11 5.7,-16.5c8.3,-23.5 17.5,-46.8 27.3,-69.7c16.3,-38.4 3.3,-89.1 -37.5,-106.6c-38.4,-16.4 -89.1,-3.5 -106.6,37.5c-41.8,98.2 -72.1,201.7 -87.9,307.3c-6.2,41.2 19.8,87.1 63.6,93.3" fill="#fff0c9" fill-rule="nonzero" id="path182"/>
    <path d="m17003.7,27675.6c23.1,47.2 50,91.8 83.9,132.1c13.7,16.2 29,28.6 50.6,32.7c19.4,3.6 44.6,-0.8 60.6,-13.1c31.9,-24.4 48.4,-77.1 19.7,-111.3c-24.4,-28.9 -45.3,-60.2 -63.4,-93.4c-19.7,-40.2 -34.8,-82.4 -44.5,-126.3c1.1,5.3 2.3,10.5 3.4,15.7c-4.5,-21.2 -10.3,-38.6 -27.6,-53.3c-15,-12.7 -38.5,-21.2 -58.2,-18.7c-20.6,2.6 -41.3,11.1 -54.4,27.9c-12.1,15.5 -23,38 -18.7,58.2c11,51.8 25.3,101.7 48.6,149.5" fill="#fff0c9" fill-rule="nonzero" id="path184"/>
    <path d="m17570.7,27342c43,-5.5 76.7,-41.5 73.1,-86.2l-16.3,-198.5c-3.5,-41.6 -43.3,-78.5 -86.2,-73.1c-42.9,5.5 -76.7,41.5 -73,86.2l16.3,198.5c3.4,41.6 43.3,78.5 86.1,73.1" fill="#fff0c9" fill-rule="nonzero" id="path186"/>
    <path d="m18255.8,28434.8c7.8,7.2 16.8,12 27,14.4c9.8,4.2 20.3,5.7 31.2,4.3c20.5,-2.6 41.3,-11.1 54.4,-27.9c12.8,-16.5 21,-36.9 18.7,-58.2c-0.3,-1.9 -0.1,-3.7 -0.2,-5.6c0.5,-4 1.3,-8 2.2,-11.9c1.4,-3.3 2.9,-6.5 4.6,-9.7c2.7,-3.4 5.1,-7 8.1,-10.1c7.2,-7.8 12,-16.8 14.4,-27c4.2,-9.9 5.6,-20.3 4.3,-31.2c-0.5,-11 -3.6,-21 -9.3,-30.1c-4.1,-9.6 -10.2,-17.7 -18.6,-24.3c-16.3,-12.7 -37.1,-21.4 -58.2,-18.7c-7,1.6 -14,3.1 -20.9,4.6c-13.2,4.9 -24.4,12.7 -33.5,23.4c-10.8,10.9 -18.8,23.9 -27,36.9c-4.9,7.8 -8.9,16.1 -11.9,24.8c-5,14.6 -10.3,29.1 -12.1,44.5c-1.8,15.5 -2.9,31.8 -1.2,47.5c2.3,20.7 11.9,40.7 28,54.3" fill="#fff0c9" fill-rule="nonzero" id="path188"/>
    <path d="m18748.2,28997c7.8,18.7 21.2,36.3 40.4,44.5c20,8.5 41.3,10.3 62,3c34.5,-12.1 68.9,-24.2 103.3,-36.3c18.8,-6.6 36,-22.6 44.6,-40.5c5.1,-9.6 7.4,-19.8 7,-30.4c1.5,-10.8 0.2,-21.3 -4,-31.6c-7.8,-18.8 -21.3,-36.4 -40.5,-44.6c-19.9,-8.5 -41.2,-10.3 -62,-3c-34.4,12.1 -68.9,24.3 -103.3,36.4c-18.8,6.6 -36,22.6 -44.6,40.5c-5,9.6 -7.4,19.7 -7,30.3c-1.5,10.8 -0.1,21.3 4.1,31.7" fill="#fff0c9" fill-rule="nonzero" id="path190"/>
    <path d="m19792.2,28582.1c1.3,10.6 5.3,20.2 11.9,28.9c12.3,16.1 29.9,29.7 50.5,32.6c20.2,2.9 44.5,0.7 60.7,-13c6.4,-5.4 13.6,-9.7 20.7,-13.9c4.7,-2 9.4,-3.6 14.3,-5.1c6.7,-0.9 13.4,-1.4 20.1,-1.4c2.5,0.1 4.9,0.1 7.3,-0.2l0.5,0l-0.3,0c4.2,-0.4 8.4,-0.9 12.5,-2.2c10.6,-1.3 20.2,-5.3 28.8,-11.8c8.9,-5.8 15.8,-13.2 20.7,-22.4c6.4,-8.2 10.4,-17.6 12,-28.2c3,-20.8 0.1,-43.6 -13,-60.7c-4.6,-5 -9.2,-10 -13.8,-15.1c-10.8,-9 -23,-14.9 -36.8,-17.6c-16.2,-0.9 -32.4,-2.3 -48.6,-0.3c-16.2,2.1 -32.6,5.7 -48.2,10.8c-15.2,4.9 -29.3,12.7 -43.3,20.3c-8.8,4.8 -16.9,10.5 -24.5,16.9c-8.9,5.8 -15.8,13.2 -20.7,22.3c-6.4,8.3 -10.4,17.7 -12,28.3c-2.5,10.8 -2.1,21.5 1.2,31.8" fill="#fff0c9" fill-rule="nonzero" id="path192"/>
    <path d="m19307.5,28583.4c24.1,31.4 77.6,49 111.3,19.6c119,-103.4 231.9,-213.7 337,-331.3c27.8,-31.2 24.2,-86.5 -9.3,-112.5c-34.9,-27.2 -82.8,-24.1 -112.6,9.2c-49.5,55.4 -100.7,109.4 -153.5,161.6c-26.1,25.8 -52.5,51.1 -79.4,76c-3.1,3 -6.3,5.9 -9.5,8.8c-1.2,1.2 -11.3,10.9 -4.3,4.1c7.8,-7.7 -5.3,4.7 -6.8,6.1c-3.2,2.9 -6.4,5.8 -9.6,8.7c-14.5,12.9 -29,25.7 -43.6,38.5c-16.3,14.1 -28.6,28.7 -32.7,50.5c-3.7,19.5 0.7,44.7 13,60.7" fill="#fff0c9" fill-rule="nonzero" id="path194"/>
    <path d="m20077.5,29573.1c129.4,7 258.8,14.1 388.2,21.1c22.5,1.3 41.5,0.5 60.7,-13c15.7,-11 29.9,-31.3 32.7,-50.6c5.4,-38.1 -19,-90.9 -63.7,-93.4c-129.4,-7 -258.7,-14.1 -388.1,-21.1c-22.5,-1.2 -41.5,-0.4 -60.7,13c-15.7,11.1 -29.9,31.3 -32.7,50.6c-5.5,38.1 19,90.9 63.6,93.4" fill="#fff0c9" fill-rule="nonzero" id="path196"/>
    <path d="m24074.7,25617.3c343.6,-49.2 675.3,-87.2 990.9,-115l82.3,164.1c-156.5,12.2 -317.8,28.3 -483.8,47c-32,3.1 -64.4,6.7 -97.1,10.8c-18.2,2.2 -36.4,4.4 -54.6,6.6c-32.8,3.7 -66,7.9 -99.7,12.2c-42.3,5.1 -85,10.7 -128.1,16.5c-21.4,2.8 -42.7,5.6 -64.5,8.5c-21.4,2.8 -43.2,5.7 -65,8.6l-80.4,-159.3" fill="#efefef" fill-rule="nonzero" id="path198"/>
    <path d="m24664.1,25713.4c166,-18.7 327.3,-34.8 483.8,-47c-156.8,13.2 -317.8,28.3 -483.8,47" fill="#ad689d" fill-rule="nonzero" id="path200"/>
    <path d="m24155.1,25776.6c43.6,-5.8 86.7,-12 129.5,-17.1c-42.7,5.6 -85.9,11.3 -129.4,17.6l-0.1,-0.5" fill="#ad689d" fill-rule="nonzero" id="path202"/>
    <path d="m23348,22849.5c114.6,-52.5 229.6,-90.6 330.3,-111.4l1387.3,2764.2c-315.6,27.8 -647.3,65.8 -990.9,115l-1208,-2408.6l-5.3,-10.1c-43.1,-109.9 190.9,-213.4 486.6,-349.1" fill="#ad689d" fill-rule="nonzero" id="path204"/>
    <path d="m24155.2,25777.1c347,-48.5 679.5,-84.8 992.7,-110.7l421.6,839.5l4465.9,8897.9l-839.6,421.1l-4538,-9045.8l-502.6,-1002" fill="#db70bd" fill-rule="nonzero" id="path206"/>
    <path d="m23678.3,22738.1l0.5,-0.1c151.3,-31.2 271.6,-23.8 311.7,32.7l0.5,0.3l10,19.9l0.1,0.5l6267.9,12495l-233.6,117.4l-6357.1,-12665.7" fill="#db70bd" fill-rule="nonzero" id="path208"/>
    <path d="m25065.6,25502.3c96.2,-8.7 191.2,-16.3 284.1,-22.5l83,165.8c-24.8,1.6 -50.1,3.4 -75.4,5.1c-36,2 -72.7,4.6 -109.4,7.6c-33.1,2.3 -66.5,5.2 -100,8.1l-82.3,-164.1" fill="#efefef" fill-rule="nonzero" id="path210"/>
    <path d="m23681.2,22743.2l-2.4,-5.2c151.3,-31.2 271.6,-23.8 311.7,32.7l0.5,0.3l10,19.9l0.1,0.5l1348.6,2688.4c-92.9,6.2 -187.9,13.8 -284.1,22.5l-1387.3,-2764.2c0.9,1.7 1.7,3.4 2.9,5.1" fill="#8c6082" fill-rule="nonzero" id="path212"/>
    <path d="m25147.9,25666.4c96.7,-8.4 191.8,-15 284.8,-20.8l388.6,773.8l4447.7,8867l-233.6,117.4l-4465.9,-8897.9l-421.6,-839.5" fill="#c15da7" fill-rule="nonzero" id="path214"/>
    <path d="m29194.8,35823.1c49.9,108.8 315.9,60.3 615.2,-77.1c299.3,-137.4 508.4,-351.5 458.4,-460.3c-49.9,-108.7 -340,-71 -639.3,66.4c-299.3,137.4 -484.3,362.3 -434.3,471" fill="#eaa2d9" fill-rule="nonzero" id="path216"/>
    <path d="m23487.3,18112.5c-593.1,-1362.4 -2634.1,-514.8 -2087.8,866.9c593.1,1362.4 2634.2,514.8 2087.8,-866.9" fill="#ffffff" fill-rule="nonzero" id="path218"/>
    <path d="m23487.3,18112.5l-48.7,21.2c-102.1,-234.1 -246.6,-397.6 -412.1,-503.7c-165.6,-106 -353.3,-154.7 -542.4,-154.8c-140,0 -280.6,26.8 -412.7,76.9c-198,75 -376.3,202.4 -504.3,368.3c-64.1,82.9 -115.6,175.5 -151.2,276.2c-35.6,100.7 -55.2,209.6 -55.3,325.8c0.1,136.3 27.1,282.7 88.3,437.4l-49.4,19.6l48.7,-21.2c102.1,234.1 246.6,397.6 412.1,503.7c165.6,106 353.2,154.7 542.4,154.8c140,0 280.6,-26.8 412.6,-76.9c198.1,-75 376.4,-202.4 504.4,-368.3c64.1,-83 115.6,-175.5 151.2,-276.2c35.6,-100.7 55.2,-209.6 55.3,-325.8c-0.1,-136.3 -27.1,-282.7 -88.3,-437.4l49.4,-19.6l-48.7,21.2l48.7,-21.2l49.4,-19.5c65.7,166.1 95.7,326.1 95.7,476.5c0,170.9 -38.8,329.3 -106.6,469.8c-101.7,211 -268,381.7 -465.7,499.7c-197.7,118 -427.1,183.8 -657.4,183.9c-207.3,0 -415.6,-53.7 -599.6,-171.5c-184.1,-117.7 -342.9,-299.5 -452.3,-550.8l-0.3,-0.8l-0.3,-0.9c-65.7,-166.1 -95.8,-326.1 -95.8,-476.5c0,-170.9 38.8,-329.3 106.6,-469.9c101.7,-210.9 268,-381.6 465.6,-499.6c197.8,-118.1 427.2,-183.9 657.5,-183.9c207.3,0 415.6,53.7 599.6,171.5c184.1,117.7 343,299.4 452.3,550.8l0.4,1l0.3,0.7l-49.4,19.5" fill="#000000" fill-rule="nonzero" id="path220"/>
    <path d="m21541.6,18275.6c248.9,699.2 1294.9,346.7 1069.9,-360.5c-248.9,-699.1 -1294.9,-346.6 -1069.9,360.5" fill="#000000" fill-rule="nonzero" id="path222"/>
    <path d="m21630.6,18193.9c62.1,193.8 365,91.7 297.2,-100.1c-62.1,-193.8 -365,-91.8 -297.2,100.1" fill="#ffffff" fill-rule="nonzero" id="path224"/>
    <path d="m21972.9,18383.2c37.3,116.2 219,55 178.3,-60.1c-37.3,-116.2 -219,-55 -178.3,60.1" fill="#ffffff" fill-rule="nonzero" id="path226"/>
    <path d="m20584.2,18897.2c-593.1,-1362.4 -2634.1,-514.8 -2087.7,866.9c593.1,1362.4 2634.1,514.8 2087.7,-866.9" fill="#ffffff" fill-rule="nonzero" id="path228"/>
    <path d="m20584.2,18897.2l-48.7,21.2c-102,-234.2 -246.5,-397.6 -412.1,-503.7c-165.6,-106 -353.2,-154.8 -542.4,-154.8c-140,0 -280.6,26.8 -412.6,76.9c-198.1,75 -376.4,202.4 -504.4,368.3c-64,82.9 -115.6,175.5 -151.2,276.2c-35.5,100.7 -55.2,209.6 -55.2,325.8c0,136.3 27.1,282.7 88.3,437.4l-49.4,19.6l48.7,-21.2c102,234.1 246.5,397.6 412.1,503.7c165.6,106 353.2,154.7 542.4,154.8c139.9,0 280.6,-26.8 412.6,-76.9c198.1,-75 376.3,-202.4 504.4,-368.3c64,-83 115.6,-175.5 151.2,-276.2c35.5,-100.7 55.2,-209.6 55.2,-325.8c0,-136.3 -27.1,-282.7 -88.3,-437.4l49.4,-19.6l-48.7,21.2l48.7,-21.2l49.4,-19.5c65.7,166.1 95.7,326.1 95.7,476.5c0,170.9 -38.8,329.3 -106.5,469.8c-101.8,211 -268.1,381.7 -465.7,499.7c-197.7,118 -427.2,183.8 -657.4,183.9c-207.4,0 -415.7,-53.7 -599.7,-171.5c-184,-117.7 -342.9,-299.5 -452.2,-550.8l-0.4,-0.8l-0.3,-0.9c-65.7,-166.1 -95.7,-326.1 -95.7,-476.5c-0.1,-170.9 38.8,-329.3 106.5,-469.9c101.8,-210.9 268,-381.6 465.7,-499.6c197.7,-118.1 427.1,-183.9 657.4,-183.9c207.3,0 415.7,53.7 599.7,171.5c184,117.7 342.9,299.4 452.2,550.8l0.4,0.9l0.3,0.8l-49.4,19.5" fill="#000000" fill-rule="nonzero" id="path230"/>
    <path d="m18639.1,19096.9c248.9,699.2 1294.9,346.7 1069.9,-360.5c-248.9,-699.1 -1294.9,-346.6 -1069.9,360.5" fill="#000000" fill-rule="nonzero" id="path232"/>
    <path d="m18727.5,18978.6c62.2,193.7 365,91.7 297.2,-100.1c-62.1,-193.8 -365,-91.8 -297.2,100.1" fill="#ffffff" fill-rule="nonzero" id="path234"/>
    <path d="m19069.8,19167.9c37.3,116.2 219,55 178.4,-60.1c-37.3,-116.2 -219,-55 -178.4,60.1" fill="#ffffff" fill-rule="nonzero" id="path236"/>
    <path d="m21925.6,17201.9c19.7,-323 1342,-199.5 1301.4,121.6c-19.7,323.1 -1342,199.5 -1301.4,-121.6" fill="#f47d1f" fill-rule="nonzero" id="path238"/>
    <path d="m19185.1,17977.5c-164.9,-278.5 -1285.3,434.6 -1102.8,701.8c165,278.5 1285.4,-434.6 1102.8,-701.8" fill="#f47d1f" fill-rule="nonzero" id="path240"/>
    <path d="m22572.5,20708.4c758.8,-406.9 1480.4,-904.3 2035.2,-1570c-355.8,631 -812.7,1279.2 -1504.1,1567.1c-73.9,43.2 -696.2,214.7 -531.1,2.9" fill="#000000" fill-rule="nonzero" id="path242"/>
    <path d="m20510.6,21488.5c-808.7,325.6 -1760.7,0.7 -2408.4,-525.4c366.6,183.7 770.3,298.7 1178.2,327.6c301.7,30.4 601.4,44.7 904,67.6c74.1,21.2 463.1,-15.4 326.2,130.2" fill="#000000" fill-rule="nonzero" id="path244"/>
    <path d="m19219.1,17393.4c218.3,-428.6 94,-1200.3 542.3,-1364.5c448.2,-164.1 1271.4,223.6 1341.9,416.4c70.6,192.7 -409.6,8.4 -857.9,172.6c-448.2,164.1 -955.7,968.2 -1026.3,775.5" fill="#000000" fill-rule="nonzero" id="path246"/>
    <path d="m19219.1,17393.4l-68.6,-35c24.5,-48.1 44.9,-102.6 62.3,-161.7c30.5,-103.4 51.4,-220.7 71.2,-340.8c14.8,-90.2 29.1,-182 47,-271.5c13.4,-67.1 28.9,-133 48.5,-196c29.4,-94.4 68,-183 124.9,-258.8c28.4,-37.8 61.6,-72.2 100,-101.6c38.3,-29.4 82,-53.6 130.5,-71.4c86.2,-31.5 180.7,-44.2 278.4,-44.2c121.2,0 247.8,19.6 371.4,51c185.4,47.3 363.8,121 504.6,200c70.5,39.6 131.4,80.4 180.1,121.5c24.3,20.6 45.5,41.3 63.5,62.9c17.9,21.7 32.8,44.3 42.7,71c6.9,18.8 11.6,38.4 11.7,60.1c0,15.7 -2.8,32.6 -9.5,48.5c-5.7,13.9 -14.3,26.6 -24.1,36.8c-8.5,9 -17.9,16.1 -27.3,21.8c-16.5,10 -33,15.9 -49.4,20.2c-24.6,6.4 -49.6,9.3 -76.5,11.1c-26.9,1.8 -55.7,2.2 -86.5,2.2c-42.1,0 -87.9,-0.8 -136.8,-0.8c-76.2,0 -159.7,2 -245.6,12.1c-85.8,10 -174,28 -259.7,59.4c-43.6,15.9 -89.9,39.7 -137.3,69.6c-83,52.2 -169.2,123 -252.7,199.9c-62.7,57.7 -124.1,118.8 -182.3,178.2c-43.6,44.6 -85.5,88.1 -125.2,128.6c-59.5,60.9 -113.4,114.6 -162.1,155.6c-24.6,20.5 -47.7,37.9 -71.8,51.8c-12.1,6.9 -24.5,13 -38.3,17.8c-13.7,4.7 -29,8.3 -46.6,8.3c-11.2,0 -23.5,-1.6 -35.6,-5.6c-9.1,-2.9 -18.1,-7.2 -26.2,-12.6c-12.2,-8.1 -22.3,-18.4 -29.9,-29.1c-7.7,-10.8 -13.1,-21.9 -17.1,-32.9c-7.4,-20.1 -6,-42.3 3.7,-61.4l68.6,35l72.3,-26.5l0.1,0.1l-8.3,3.3l7.8,-4.2l0.5,0.9l-8.3,3.3l7.8,-4.2l-25.5,13.5l21.6,-19c2.2,2.5 3.4,4.5 3.9,5.5l-25.5,13.5l21.6,-19l-32.5,28.4l17.3,-39.4c6.3,2.7 12.1,7.3 15.2,11l-32.5,28.4l17.3,-39.4l-16.3,37.2l0,-40.8c3.7,-0.1 9.9,0.8 16.3,3.6l-16.3,37.2l0,-40.8l0,18.8l-4.6,-18.4c0,0 1.5,-0.4 4.6,-0.4l0,18.8l-4.6,-18.4c0,0 1.3,-0.3 3.5,-1.3c4.3,-1.8 12,-6 21.5,-12.4c18,-12.1 42.1,-31.8 69.4,-56.9c48.1,-43.9 106.6,-104.1 171.4,-170.9c97.4,-100.3 209.3,-215.9 327.8,-318.4c59.4,-51.3 120.4,-99.4 182.8,-140.8c62.4,-41.4 126.1,-76.2 191.5,-100.1c99.9,-36.6 200,-56.7 294.9,-67.8c94.8,-11.1 184.4,-13.1 263.4,-13.1c50.6,0 96.8,0.8 136.8,0.8c29.1,0 54.9,-0.4 76.1,-1.8c15.9,-1.1 29.2,-2.6 39,-4.5c7.3,-1.4 12.6,-2.9 15.3,-4c1,-0.4 1.7,-0.7 2,-0.8l0.1,-0.1l7.4,13.2l-10,-11.2c1.6,-1.4 2.6,-2 2.6,-2l7.4,13.2l-10,-11.2l21.9,24.4l-29.9,-13c2,-4.9 5.6,-9.3 8,-11.4l21.9,24.4l-29.9,-13l25.6,11.2l-28.2,0c-0.1,-1.7 0.4,-6.4 2.6,-11.2l25.6,11.2l-28.2,0l7.5,0l-7.5,0.8l0,-0.8l7.5,0l-7.5,0.8c0,-0.1 -0.4,-2.9 -2.3,-8c-0.8,-2.2 -3.2,-7.4 -8,-14.2c-8.8,-12.9 -25.5,-31.2 -48.5,-51.1c-40.3,-35 -99.6,-75.2 -170.7,-114.3c-106.6,-58.9 -239.8,-115.9 -378.6,-157.6c-138.8,-41.8 -283.4,-68.2 -411.9,-68.1c-84.3,0 -161.3,11.3 -225.5,34.8c-46.3,17.1 -83.8,41.1 -116.7,71.9c-28.6,27.1 -53.6,59.7 -75.7,97.8c-38.7,66.5 -68,150 -91.1,243.4c-17.4,70 -31.6,145.4 -44.8,223.3c-19.8,116.7 -37.5,238.7 -62.6,356.7c-25.1,118 -57.4,232.2 -109.2,334l-68.6,-34.9l72.3,-26.5l-72.3,26.5" fill="#000000" fill-rule="nonzero" id="path248"/>
    <path d="m19284.8,15740.2c-49.9,61.6 -191.4,139.2 -113.8,220.4c26.3,20.9 62.5,18.9 80.3,-5.5c122.9,-162.5 349.7,-328 557.6,-306.3c31.9,3.4 57.5,-19.5 57.1,-51c-75.1,-185.4 -477,37.3 -581.2,142.4" fill="#000000" fill-rule="nonzero" id="path250"/>
   </g>
  </g>
 </g>
</svg>