<?xml version="1.0"?>
<svg width="2500" height="3700" xmlns="http://www.w3.org/2000/svg" xmlns:svg="http://www.w3.org/2000/svg" enable-background="new 0 0 4000 4000" version="1.1" xml:space="preserve">

 <g class="layer">
  <title>Layer 1</title>
  <rect fill="none" height="4000" id="bg" width="4000"/>
  <g id="svg_1">
   <g id="svg_2">
    <g id="svg_3">
     <g id="svg_4">
      <polyline fill="none" id="svg_5" points="1889.5390625,3039.218994140625 1853.5380859375,3279.23095703125 1947.617919921875,3482.465087890625 1783.012939453125,3504.468017578125 " stroke="#000000" stroke-linecap="round" stroke-linejoin="round" stroke-miterlimit="10" stroke-width="24.94"/>
     </g>
     <path d="m1776.78,3512.16c-25.86,-16.84 75.03,-117.88 170.48,-29.55c-91.98,10.07 -139.12,28.58 -170.48,29.55z" id="svg_6"/>
    </g>
    <g id="svg_7">
     <polyline fill="none" id="svg_8" points="2189.6630859375,2901.2109375 2148.22509765625,3245.032958984375 2304.424072265625,3483.612060546875 2142.172119140625,3504.468017578125 " stroke="#000000" stroke-linecap="round" stroke-linejoin="round" stroke-miterlimit="10" stroke-width="24.94"/>
     <path d="m2135.35,3510.37c-25.18,-17.85 79.59,-114.87 171.51,-22.87c-92.31,6.47 -140.14,23.12 -171.51,22.87z" id="svg_9"/>
    </g>
   </g>
   <line fill="none" id="svg_10" stroke="#000000" stroke-linecap="round" stroke-linejoin="round" stroke-miterlimit="10" stroke-width="24.94" x1="1590.2" x2="1345.13" y1="2561" y2="2918.67"/>
   <polyline fill="none" id="svg_11" points="2049.219970703125,2484.492919921875 2427.239990234375,2493.492919921875 2080.2919921875,2290.7958984375 " stroke="#000000" stroke-linecap="round" stroke-linejoin="round" stroke-miterlimit="10" stroke-width="24.94"/>
   <g id="svg_12">
    <g id="svg_13">
     <g id="svg_14">
      <path d="m782.95,1457.44l229.38,443.76l0.08,0.18l1.32,2.53l24.62,47.64l609.67,1179.42c13.05,28.71 86.04,26.23 187.43,-1.02c65.46,-17.6 142.78,-45.55 223.41,-82.1c205.47,-93.16 354.67,-206.96 333.24,-254.21l-0.04,-0.09l-24.95,-63.51l0.03,-0.02l-479.93,-1222.08l-0.01,-0.03l-1.03,-2.66l-0.09,-0.2l-182.59,-464.94c19.63,60.06 -163.19,198.31 -413.5,311.79c-96.77,43.87 -189.73,77.74 -269.18,99.59c-125.99,34.71 -218.1,39.29 -237.86,5.95z" fill="#E3E1E0" id="svg_15"/>
     </g>
     <g id="svg_16">
      <path d="m973.71,1744.01l630.31,1228.84c17.25,38.04 133.18,24.36 278.37,-28.04c35.12,-12.65 71.97,-27.63 109.52,-44.65c192.77,-87.39 331.68,-196.58 310.26,-243.83l-0.04,-0.08l-508.82,-1283.81c18.95,56.88 -142.61,182.63 -365.41,283.64c-184.68,83.72 -448.98,96.8 -454.19,87.93z" fill="#F5C80C" id="svg_17"/>
     </g>
     <g id="svg_18">
      <path d="m973.62,1743.81l0.08,0.17l1.28,2.46c29.59,50.36 230.12,10.66 452.92,-90.35c222.74,-100.98 384.73,-225.6 366.42,-281.07l-0.02,-0.02l-1,-2.59l-0.09,-0.2c-24.94,-53.75 -228.04,-14.37 -454.07,88.1c-226.09,102.5 -389.6,229.36 -365.52,283.5z" fill="#FFEA8C" id="svg_19"/>
     </g>
     <g id="svg_20">
      <path d="m781.56,1454.75l1.29,2.53l0.08,0.17c32.27,54.36 256.73,7.92 507.06,-105.57c36.36,-16.48 71.29,-33.5 104.39,-50.74l-2.69,-17.4c1.91,-1.02 3.83,-2.04 5.7,-3.04c1.92,-1.01 3.79,-2.01 5.67,-3.01c3.79,-2.02 7.54,-4.01 11.23,-6.03c2.95,-1.59 5.85,-3.15 8.7,-4.74c1.59,-0.87 3.18,-1.74 4.76,-2.6c2.87,-1.55 5.67,-3.12 8.42,-4.71c14.4,-8.01 28.26,-15.99 41.53,-23.98c2.85,-1.69 5.7,-3.38 8.49,-5.09c3.12,-1.86 6.18,-3.74 9.22,-5.66c2.13,-1.32 4.26,-2.63 6.35,-3.92l2.84,18.07c131.78,-80.89 212.25,-158.03 198.87,-198.92c-0.02,-0.04 -0.06,-0.12 -0.03,-0.18l-1.05,-2.65c-26.51,-58.46 -254.13,-12.43 -508.4,102.85c-254.27,115.28 -438.94,256.16 -412.43,314.62z" fill="#EFEFEF" id="svg_21"/>
     </g>
     <g id="svg_22">
      <path d="m817.33,1438.55l1.1,2.15c0.05,0.04 0.07,0.09 0.09,0.14c28.01,46.32 233.69,0.46 464.55,-104.21s400.87,-229.11 384.49,-280.71c-0.03,-0.05 -0.05,-0.1 -0.05,-0.16l-0.88,-2.24c-22.69,-50.05 -231.19,-4.42 -465.72,101.9c-234.53,106.33 -406.27,233.09 -383.58,283.13z" fill="#E0C7B8" id="svg_23"/>
     </g>
     <g id="svg_24">
      <path d="m817.34,1438.53l1.09,2.18c0.06,0.02 0.08,0.06 0.1,0.1c6.38,10.58 22.07,16.35 45.23,17.73c4.51,0.23 9.27,0.35 14.3,0.3c42.74,-0.55 104.66,-12.87 177.7,-35.19c68.32,-20.72 146.26,-50.26 227.32,-87.01c38.04,-17.25 74.47,-35 108.6,-52.9c1.92,-1.02 3.84,-2.04 5.71,-3.03c1.92,-1.02 3.79,-2.02 5.67,-3.02c3.79,-2.02 7.54,-4.01 11.23,-6.03c2.95,-1.59 5.85,-3.15 8.7,-4.74c1.59,-0.87 3.17,-1.74 4.76,-2.6c2.87,-1.55 5.67,-3.12 8.42,-4.71c14.39,-8.01 28.26,-15.98 41.53,-23.98c2.85,-1.69 5.7,-3.38 8.49,-5.09c3.12,-1.86 6.18,-3.74 9.22,-5.66c2.13,-1.32 4.26,-2.63 6.34,-3.92c2.01,-1.26 3.97,-2.49 5.94,-3.73c63.94,-40.43 112.48,-78.78 138.78,-110.02c6.4,-7.61 11.5,-14.72 15.17,-21.39c6.39,-11.56 8.49,-21.68 5.9,-29.91c-0.02,-0.05 -0.04,-0.09 -0.02,-0.15l-0.92,-2.25c-22.67,-50 -231.17,-4.41 -465.68,101.9c-234.51,106.32 -406.25,233.12 -383.58,283.12z" fill="#E3E1E0" id="svg_25"/>
     </g>
     <g id="svg_26">
      <path d="m878.07,1458.85c42.73,-0.56 104.66,-12.87 177.72,-35.19c68.27,-20.74 146.24,-50.26 227.3,-87.01c85.31,-38.68 162.29,-80.05 224.62,-119.42c63.94,-40.43 112.46,-78.78 138.77,-110.01c-82.6,1.15 -237.07,46.11 -404.9,122.2c-172.8,78.34 -311.53,167.8 -363.51,229.43z" fill="#CCCBCA" id="svg_27"/>
     </g>
     <g id="svg_28" opacity="0.2">
      <path d="m1283.09,1336.65c85.31,-38.68 162.29,-80.05 224.62,-119.42c-68.29,20.8 -146.28,50.28 -227.43,87.07c-85.22,38.63 -162.16,79.98 -224.49,119.36c68.27,-20.74 146.24,-50.26 227.3,-87.01z" fill="#C6C5C4" id="svg_29"/>
     </g>
     <g id="svg_30">
      <path d="m782.93,1457.45l229.4,443.73l0.09,0.21l1.3,2.53l24.62,47.64l609.67,1179.4c13.06,28.7 86.06,26.26 187.45,-1.03c65.43,-17.58 142.76,-45.51 223.41,-82.07c205.47,-93.15 354.65,-206.99 333.23,-254.24l-0.04,-0.08l-9.26,-23.59c-264.45,135.44 -397.27,183.32 -500.41,174.86c-145.19,52.4 -261.12,66.08 -278.37,28.03l-630.31,-1228.84c5.22,8.88 -128.71,-227.06 -146.05,-265.31c-15.98,-3.56 -39.21,-11.93 -44.73,-21.24z" fill="#CCCBCA" id="svg_31"/>
      <path d="m973.71,1744.01l630.31,1228.84c17.25,38.04 133.18,24.36 278.37,-28.04c-66.19,-5.4 -120.2,-34.07 -188.91,-77.7c-134.54,-85.47 -454.68,-647.85 -689.9,-1104.3c-14.47,-3.74 -24.66,-9.93 -29.87,-18.8z" fill="#DDAB1F" id="svg_32"/>
     </g>
     <g id="svg_33">
      <path d="m1764.41,1549.21c0,0 -116.24,69.07 -168.59,78.63c-52.35,9.56 380.94,746.07 406.98,743.49c140.13,-13.92 -238.39,-822.12 -238.39,-822.12z" fill="#FFFBF5" id="svg_34"/>
     </g>
    </g>
    <g id="orange_00000123420388629676054020000017833193742824251778_">
     <path d="m361.17,1028.63c-0.96,27.24 0.54,54.89 4.69,82.82c3.41,22.79 8.48,44.9 15.12,66.24c57.47,186.12 430.11,300.92 430.11,300.92l25.32,-70.27l15.82,-43.78l13.14,-36.4l0.16,-0.44l27.03,-74.96l6.08,5.95l103.18,102.02l0.17,0.19c0.05,-0.05 0.14,-0.09 0.19,-0.13c31.89,5.79 65.89,10.88 101.57,15.13c2.02,0.29 4.08,0.54 6.15,0.75c64.61,-58.81 111.32,-135.81 133.04,-221.46c8.27,-32.56 12.95,-66.36 13.6,-100.89c0.56,-24.91 -1.03,-50.26 -4.87,-75.69c-3.4,-22.78 -8.48,-44.85 -15.03,-66.23c-55.36,-179.41 -217.85,-304.85 -403.85,-314.65c-0.09,-0.01 -0.22,-0.06 -0.4,-0.03c-10.91,-0.53 -21.92,-0.7 -32.96,-0.43c-18.86,0.33 -37.93,1.96 -57.03,4.85c-26.25,3.93 -51.53,10.04 -75.81,18.19c-36.2,12.04 -70.07,28.5 -101.12,48.61c-120.7,78.22 -199.06,211.93 -204.3,359.69z" fill="#F4BB06" id="svg_35"/>
     <path d="m720.55,1501.7c26.55,5.03 53.06,7.63 79.34,7.94l0.97,-2.79l10.23,-28.24l25.32,-70.27c-41.7,26.19 -147.92,-11.25 -180.52,-25.12c-21.75,-9.91 -30.04,-36.64 -17.41,-56.97c162.69,-255.75 162.3,-311.66 186.45,-141.9c5.02,35.67 11.2,81.25 20.13,137.06c2.2,13.77 4.59,28.13 7.17,43.15l13.14,-36.4l0.16,-0.44l-25,-147.63l-12.51,-74.04c-0.89,-4.93 5.9,-8.3 9.25,-4.45l63.23,66.36l120.92,126.96c16.35,17.61 13.18,45.66 -6.79,59.03c-3.68,2.01 -7.88,4.34 -12.45,6.84c31.89,5.79 65.89,10.88 101.57,15.13c2.02,0.29 4.08,0.54 6.15,0.75l11.58,1.34c3.32,0.37 6.69,0.74 10.06,1.07c62.29,-59.4 107.72,-135.98 126.31,-223.03c7.06,-32.76 10.27,-66.96 9.16,-102.36c0.19,-8.16 0.25,-16.34 0.04,-24.44c-6.68,-271.2 -254.11,-492.88 -527.74,-442.69c-510.95,66.47 -511.55,828.17 -18.76,915.14zm-146.43,-686.92l175.92,194.21c2.05,2.2 -2.11,12.53 -2.16,12.58c-1.36,3.4 -5.13,5.26 -8.7,4.43l-245.51,-55.03c-24.57,-5.73 -37.74,-32.37 -27.35,-55.37c19.56,-31.69 51.59,-150.01 107.8,-100.82zm550.77,303.76l-252.96,-63.94c-9.66,-2.54 -4.3,-14.12 -6.88,-21.18c-0.79,-3.61 0.86,-7.31 4.29,-8.79l240.37,-108.92c79.43,-27.02 57.85,127.81 62.41,166.03c-0.4,24.51 -23.33,42.41 -47.23,36.8zm-368.64,-395.11l36.53,253.88c1.74,9.95 -8.65,13.06 -15.06,17.71c-4.91,3.74 -14.75,7.57 -18.97,3.03l-179.02,-189.73c-15.24,-16.41 -12.49,-42.55 5.9,-55.28c43.19,-24.61 146.03,-113.69 170.62,-29.61zm-9.57,334.48l-240.66,113.92c-22.1,9.72 -47.95,-2.19 -54.45,-25.42c-9.35,-44.45 -43.7,-179.32 36.08,-168.06l250.43,59.87c10.82,-1.1 14.04,17.74 8.6,19.69zm108.14,24.36c4.42,-4.72 -5.22,-19.5 2.66,-17.47l268.07,62.68c16.14,5.39 24.42,14.08 27.29,24.73c10.8,39.65 -53.33,106.67 -67.72,132.65c-14.24,19.07 -42.25,20.64 -58.43,3.23l-107,-122.97l-63.37,-72.82c-3.57,-3.91 -5.12,-6.08 -1.5,-10.03zm-14.8,-78.33l143.35,-234.98c12.38,-19.99 39.92,-23.57 56.99,-7.51c23.11,28.33 117.5,110.1 49.2,147.15l-242.53,112.68c-3.38,1.48 -8.76,2.31 -11.13,-0.54c-3.62,-3.87 0.55,-11.22 4.12,-16.8zm-63.21,-283.86c-4.67,-88.64 135.65,-32.64 179.9,-15.48c23.5,10.28 32.25,39.11 18.81,60.89c-103.63,159.52 -147.11,248 -165.9,236.72c-17.39,-10.48 -12.89,-107.9 -32.81,-282.13zm-144.57,600.03c-47.84,63.43 -96.57,-46.61 -122.98,-74.9c-14.32,-19.97 -6.58,-48 15.85,-57.84l223.66,-117.05c9.61,-4.42 44.03,-3.6 38.43,5.17l-154.96,244.62z" fill="#FFFBE0" id="svg_36"/>
     <path d="m337.29,1115.65c10.01,66.49 31.36,127.98 62.54,182.07c65.63,113.89 174.59,194.54 311.47,218.09c24.74,4.26 53.9,6.37 84.03,6.41l1.61,-4.48l2.95,-8.1l0.97,-2.79c0,0 -55.62,-15.18 -84.52,-20.16c-124.21,-21.34 -227.55,-93.68 -290.96,-203.69c-18.83,-32.79 -33.73,-68.02 -44.4,-105.31c-6.23,-21.46 -11.03,-43.64 -14.43,-66.38c-4.21,-27.76 -5.93,-55.42 -5.38,-82.68c0.43,-20.17 2.11,-40.18 5.07,-59.8c0.16,-1.17 0.37,-2.37 0.57,-3.54c10.69,-67.21 36.19,-130.37 75.45,-185.2c54.18,-75.59 132.18,-130.75 224.33,-159.76c24.38,-7.69 49.75,-13.62 75.91,-17.51c19.23,-2.88 38.22,-4.78 56.93,-5.52c33.56,-1.53 66.31,0.29 97.82,5.47l4.21,0.69c2.42,0.41 4.79,0.86 7.2,1.35c0.94,0.15 1.88,0.34 2.86,0.53c87.45,17.17 164.8,60.11 224.2,124.66c46.6,50.59 80.84,112.72 100.92,182.4c6.15,21.45 10.99,43.55 14.4,66.29c3.8,25.33 5.61,50.6 5.5,75.63c-0.06,34.38 -3.74,68.28 -10.85,101c-13.67,63.33 -40.2,122.28 -78.32,172.16c-14.06,18.32 -29.34,35.16 -45.89,50.53c3.32,0.37 6.69,0.74 10.06,1.07c2.92,0.34 5.84,0.65 8.8,0.95c7.95,0.82 16,1.59 24.13,2.32c1.22,0.12 2.43,0.23 3.65,0.3c57.08,-61.5 94.14,-139.6 109.86,-225.36c10.73,-58.4 11.63,-120.34 2.22,-182.95c-30.92,-206.48 -171.81,-365.18 -373.74,-399.92l-4.43,-0.8c-50.99,-8.36 -116.44,-16.69 -174.41,-7.92c-279.67,41.89 -429.23,290.07 -390.33,549.95z" fill="#FFEA8C" id="svg_37"/>
     <path d="m322.53,1117.89c10.24,68.58 32.35,132.01 64.42,187.78c67.69,117.48 180.12,200.63 321.25,224.92c26.22,4.47 53.41,6.97 81.54,7.26l5.59,-15.63l1.61,-4.48c-29.28,0.15 -57.93,-2.2 -85.68,-6.94c-130.96,-22.54 -239.89,-98.9 -306.72,-214.89c-31.43,-54.46 -52.32,-115.38 -62.1,-181c-19.04,-126.87 9.29,-250.91 79.81,-349.24c72.29,-100.81 173.37,-171.78 305.3,-191.57c56.51,-8.49 122.71,-3.87 174.55,4.59l4.34,0.74c96.56,16.6 182,62.71 247.07,133.37c64.26,69.76 106.27,160.48 121.58,262.28c8.98,59.79 7.47,122.19 -3.64,181.79c-13.84,74.17 -42.66,144.06 -84.93,199.22c-7.03,9.22 -14.39,17.98 -22.05,26.26c1.21,0.11 2.43,0.23 3.64,0.3c3.55,0.33 7.11,0.63 10.71,0.92c56.82,-62.6 94.96,-140.45 112.07,-225.32c12.01,-59.55 13.65,-122.53 4.12,-186.15c-31.95,-212.9 -177.21,-376.68 -385.5,-412.51c-1.52,-0.27 -3.04,-0.53 -4.61,-0.76c-52.55,-8.63 -109.19,-9.01 -169.03,-0.03c-288.37,43.21 -453.54,290.99 -413.34,559.09z" fill="#F47D1F" id="svg_38"/>
     <g id="svg_39">
      <path d="m1072.63,978.88c0.34,-0.7 0.68,-1.4 1.03,-2.1c0.88,-1.31 2.01,-2.32 3.41,-3.05c4.61,-1.74 9.22,-3.48 13.82,-5.22c1.08,-0.6 2.21,-0.89 3.41,-0.88c1.22,-0.2 2.41,-0.08 3.59,0.37c2.05,0.69 4.23,2.43 5.14,4.44c0.99,2.15 1.4,4.72 0.52,6.99l-1.03,2.1c-0.88,1.31 -2.02,2.33 -3.42,3.05c-4.6,1.74 -9.21,3.48 -13.82,5.22c-1.07,0.6 -2.21,0.9 -3.41,0.88c-1.21,0.2 -2.4,0.08 -3.58,-0.36c-2.06,-0.7 -4.23,-2.44 -5.15,-4.45c-0.98,-2.15 -1.39,-4.71 -0.51,-6.99z" fill="#FFF0C9" id="svg_40"/>
      <path d="m941.43,1029.17c1.31,-1.8 3.32,-3.55 5.62,-3.83c8.08,-1.01 16.15,-2.01 24.23,-3.01c2.45,-0.31 4.77,-0.11 6.89,1.3c1.81,1.2 3.47,3.44 3.84,5.62c0.39,2.33 0.13,4.91 -1.31,6.88c-1.31,1.81 -3.32,3.55 -5.62,3.84c-8.07,1 -16.15,2.01 -24.23,3.01c-2.45,0.3 -4.77,0.11 -6.89,-1.3c-1.81,-1.2 -3.47,-3.45 -3.83,-5.62c-0.4,-2.34 -0.14,-4.92 1.3,-6.89z" fill="#FFF0C9" id="svg_41"/>
      <path d="m1031.63,892.78c4.69,-3.78 9.37,-7.56 14.06,-11.34c1.86,-1.49 4.09,-2.41 6.52,-2.27c2.21,0.12 4.79,1.25 6.22,3c1.48,1.8 2.52,4.12 2.28,6.52c-0.24,2.31 -1.13,4.71 -3,6.22l-14.07,11.33c-1.86,1.5 -4.09,2.41 -6.52,2.27c-2.21,-0.12 -4.79,-1.25 -6.22,-3c-1.47,-1.8 -2.52,-4.12 -2.27,-6.51c0.23,-2.32 1.13,-4.72 3,-6.22z" fill="#FFF0C9" id="svg_42"/>
      <path d="m980.13,905.41c3.65,-4.37 7.3,-8.75 10.96,-13.12c0.62,-1.02 1.44,-1.82 2.46,-2.4c0.92,-0.75 1.97,-1.23 3.16,-1.44c1.21,-0.31 2.41,-0.29 3.6,0.04c1.19,0.13 2.29,0.55 3.28,1.26c1.86,1.35 3.44,3.3 3.84,5.62c0.06,0.81 0.12,1.61 0.18,2.41c-0.09,1.63 -0.59,3.12 -1.49,4.48l-10.95,13.13c-0.63,1.01 -1.45,1.81 -2.47,2.39c-0.91,0.75 -1.96,1.23 -3.15,1.44c-1.22,0.31 -2.42,0.29 -3.6,-0.04c-1.2,-0.12 -2.29,-0.54 -3.29,-1.26c-1.85,-1.35 -3.44,-3.29 -3.83,-5.62c-0.07,-0.8 -0.13,-1.61 -0.19,-2.41c0.1,-1.63 0.59,-3.12 1.49,-4.48z" fill="#FFF0C9" id="svg_43"/>
      <path d="m964.1,847.48c5.52,-10.05 13.18,-19.1 22.12,-26.28c1.86,-1.5 4.08,-2.42 6.52,-2.28c2.21,0.13 4.79,1.26 6.22,3c2.96,3.62 3.21,9.58 -0.73,12.74c-3.53,2.83 -6.78,5.98 -9.81,9.35c-3.52,4.18 -6.65,8.66 -9.28,13.45c-1.04,1.89 -3.59,3.4 -5.62,3.83c-2.19,0.47 -5.05,0.04 -6.89,-1.3c-1.85,-1.35 -3.44,-3.29 -3.84,-5.62c-0.42,-2.5 0.08,-4.66 1.31,-6.89z" fill="#FFF0C9" id="svg_44"/>
      <path d="m864.39,837.86c1.22,-3.94 2.43,-7.88 3.65,-11.83c0.34,-1.15 0.94,-2.14 1.78,-2.97c0.69,-0.94 1.58,-1.67 2.66,-2.17c1.07,-0.6 2.21,-0.89 3.41,-0.88c1.22,-0.2 2.41,-0.08 3.59,0.36c2.14,0.83 4.16,2.3 5.14,4.45c1.03,2.24 1.25,4.6 0.52,6.99c-1.22,3.94 -2.43,7.88 -3.65,11.82c-0.34,1.16 -0.94,2.15 -1.78,2.97c-0.69,0.95 -1.58,1.67 -2.66,2.18c-1.07,0.6 -2.21,0.89 -3.41,0.88c-1.21,0.2 -2.41,0.08 -3.58,-0.37c-2.14,-0.83 -4.17,-2.3 -5.15,-4.44c-1.03,-2.24 -1.25,-4.6 -0.52,-6.99z" fill="#FFF0C9" id="svg_45"/>
      <path d="m836.79,759.55c2.57,-9.36 5.15,-18.72 7.73,-28.08c1.25,-4.56 7.07,-7.36 11.43,-5.67c4.78,1.85 7.01,6.56 5.67,11.44c-2.58,9.36 -5.16,18.72 -7.73,28.08c-1.26,4.56 -7.08,7.36 -11.44,5.67c-4.77,-1.85 -7.01,-6.56 -5.66,-11.44z" fill="#FFF0C9" id="svg_46"/>
      <path d="m820.31,869.3c0.36,-2.43 1.11,-4.54 3,-6.22c1.65,-1.47 4.28,-2.51 6.52,-2.28c2.32,0.24 4.69,1.14 6.22,3c1.43,1.75 2.63,4.19 2.27,6.52c-0.98,6.45 -1.96,12.89 -2.93,19.33c-0.37,2.43 -1.11,4.54 -3,6.22c-1.65,1.48 -4.28,2.51 -6.52,2.28c-2.33,-0.24 -4.7,-1.14 -6.22,-3c-1.44,-1.75 -2.63,-4.19 -2.28,-6.52c0.98,-6.44 1.96,-12.89 2.94,-19.33z" fill="#FFF0C9" id="svg_47"/>
      <path d="m697.19,756.02c0.12,-1.2 0.54,-2.29 1.26,-3.29c0.62,-1.02 1.44,-1.82 2.46,-2.39c0.92,-0.75 1.97,-1.23 3.16,-1.44c2.33,-0.4 4.91,-0.14 6.89,1.3c0.58,0.5 1.16,1.01 1.74,1.51c1.05,1.19 1.75,2.56 2.09,4.11c1.31,4.07 2.61,8.13 3.92,12.2c0.31,1.22 0.29,2.42 -0.04,3.6c-0.13,1.2 -0.55,2.29 -1.26,3.29c-0.63,1.02 -1.45,1.82 -2.47,2.39c-0.91,0.75 -1.96,1.23 -3.15,1.44c-2.34,0.4 -4.92,0.14 -6.89,-1.3c-0.58,-0.5 -1.16,-1.01 -1.74,-1.51c-1.05,-1.19 -1.75,-2.56 -2.09,-4.11c-1.31,-4.07 -2.62,-8.13 -3.93,-12.2c-0.3,-1.22 -0.29,-2.42 0.05,-3.6z" fill="#FFF0C9" id="svg_48"/>
      <path d="m729.9,864.05c4.53,-2.08 9.73,-0.5 12.14,3.93c4.37,8.07 8.74,16.13 13.1,24.19c2.26,4.16 0.43,10.15 -3.93,12.14c-4.54,2.08 -9.73,0.51 -12.14,-3.93c-4.37,-8.06 -8.74,-16.13 -13.11,-24.19c-2.25,-4.16 -0.42,-10.15 3.94,-12.14z" fill="#FFF0C9" id="svg_49"/>
      <path d="m661.92,819.64c1.2,-1.8 3.44,-3.46 5.62,-3.83c2.33,-0.39 4.92,-0.13 6.89,1.3c1.98,1.45 3.12,3.27 3.83,5.62c0.14,0.45 0.29,0.89 0.44,1.33c1.61,4.32 3.71,8.43 6.27,12.28c0.21,0.29 0.41,0.58 0.62,0.87c1.47,1.95 2.42,4 2.28,6.52c-0.13,2.21 -1.26,4.79 -3,6.22c-1.81,1.47 -4.13,2.52 -6.52,2.27c-2.26,-0.23 -4.8,-1.11 -6.22,-3c-2.55,-3.4 -4.92,-6.98 -6.84,-10.77c-1.93,-3.81 -3.44,-7.84 -4.67,-11.92c-0.65,-2.13 0.11,-5.09 1.3,-6.89z" fill="#FFF0C9" id="svg_50"/>
      <path d="m574.37,890.2c0.83,-2.13 2.3,-4.16 4.45,-5.14c0.73,-0.26 1.47,-0.53 2.2,-0.79c1.62,-0.34 3.22,-0.25 4.79,0.27c6.89,1.57 13.79,3.14 20.68,4.71c2.08,0.47 4.22,2.62 5.15,4.44c1.02,2 1.34,4.87 0.51,6.99c-0.83,2.14 -2.3,4.17 -4.44,5.15l-2.21,0.79c-1.62,0.33 -3.21,0.24 -4.78,-0.28c-6.9,-1.56 -13.79,-3.13 -20.68,-4.7c-2.08,-0.47 -4.22,-2.62 -5.15,-4.44c-1.02,-2 -1.34,-4.87 -0.52,-7z" fill="#FFF0C9" id="svg_51"/>
      <path d="m541.45,930.23c1.28,-1.76 3.34,-3.64 5.62,-3.83c8.85,-0.76 17.59,-0.64 26.34,0.98c2.47,0.45 4.49,1.05 6.22,3c1.48,1.65 2.51,4.28 2.28,6.51c-0.24,2.33 -1.14,4.7 -3,6.22c-1.72,1.41 -4.23,2.7 -6.52,2.28c-7.59,-1.4 -15.32,-1.82 -23.01,-1.24c0.42,-0.03 0.84,-0.06 1.27,-0.1c-2.43,0.2 -4.54,0.11 -6.67,-1.31c-1.81,-1.2 -3.47,-3.44 -3.84,-5.62c-0.39,-2.33 -0.13,-4.92 1.31,-6.89z" fill="#FFF0C9" id="svg_52"/>
      <path d="m573.92,1044.17c1.74,-1.43 4.19,-2.65 6.52,-2.28c4.03,0.63 8.1,0.79 12.17,0.57c1.67,-0.16 3.33,-0.35 4.98,-0.65c2.34,-0.44 4.88,-0.03 6.89,1.3c1.8,1.2 3.46,3.44 3.83,5.62c0.39,2.33 0.13,4.91 -1.3,6.89c-1.37,1.87 -3.29,3.4 -5.62,3.83c-7.21,1.34 -14.72,1.6 -21.98,0.45c-2.43,-0.38 -4.52,-1.1 -6.22,-3c-1.47,-1.65 -2.5,-4.28 -2.27,-6.51c0.23,-2.33 1.14,-4.7 3,-6.22z" fill="#FFF0C9" id="svg_53"/>
      <path d="m504.16,1095.54c0.8,-2.07 2.3,-4.31 4.45,-5.15c7.09,-2.77 14.19,-5.53 21.28,-8.3c2.32,-0.9 4.55,-1.34 6.99,-0.51c2.06,0.69 4.23,2.44 5.15,4.44c0.99,2.16 1.4,4.72 0.52,7c-0.8,2.06 -2.3,4.31 -4.45,5.14c-7.09,2.77 -14.19,5.53 -21.28,8.3c-2.32,0.9 -4.55,1.34 -6.99,0.51c-2.06,-0.69 -4.23,-2.44 -5.15,-4.44c-0.99,-2.16 -1.4,-4.72 -0.52,-6.99z" fill="#FFF0C9" id="svg_54"/>
      <path d="m652.92,1194.97c3.63,-5.41 7.26,-10.82 10.89,-16.24c1.26,-1.89 3.39,-3.35 5.61,-3.83c2.19,-0.47 5.05,-0.04 6.89,1.3c1.86,1.35 3.44,3.29 3.84,5.62c0.4,2.39 0.07,4.84 -1.31,6.89c-3.62,5.41 -7.25,10.83 -10.88,16.24c-1.26,1.89 -3.39,3.35 -5.62,3.83c-2.19,0.47 -5.04,0.04 -6.89,-1.3c-1.85,-1.35 -3.44,-3.29 -3.83,-5.62c-0.4,-2.39 -0.07,-4.83 1.3,-6.89z" fill="#FFF0C9" id="svg_55"/>
      <path d="m567.99,1211.21c7.08,-6.4 14.16,-12.8 21.24,-19.2c1.71,-1.55 4.23,-2.41 6.52,-2.28c2.21,0.13 4.79,1.26 6.22,3c3.11,3.81 3.02,9.36 -0.72,12.74c-7.08,6.4 -14.16,12.8 -21.24,19.2c-1.71,1.55 -4.23,2.41 -6.52,2.28c-2.21,-0.13 -4.79,-1.26 -6.22,-3c-3.12,-3.81 -3.02,-9.36 0.72,-12.74z" fill="#FFF0C9" id="svg_56"/>
      <path d="m591.89,1255.51c2.11,-1.69 4.05,-3.58 5.88,-5.57c1.44,-1.73 2.82,-3.51 4.04,-5.41c1.22,-1.9 3.44,-3.37 5.62,-3.84c1.22,-0.3 2.42,-0.29 3.6,0.05c1.2,0.12 2.29,0.54 3.29,1.25c1.85,1.35 3.44,3.3 3.83,5.62c0.41,2.42 0.05,4.8 -1.3,6.89c-1.95,3.04 -4.23,5.8 -6.63,8.49c-1.94,2.17 -4.05,4.16 -6.32,5.98c-1.86,1.5 -4.09,2.42 -6.52,2.28c-2.21,-0.13 -4.79,-1.26 -6.22,-3c-1.48,-1.81 -2.52,-4.13 -2.27,-6.52c0.23,-2.31 1.13,-4.72 3,-6.22z" fill="#FFF0C9" id="svg_57"/>
      <path d="m782.44,1170.96c4.67,-0.79 9.85,1.95 10.72,6.92c0.96,5.46 2.25,10.86 3.88,16.17c0.41,1.3 0.83,2.59 1.27,3.88c0.05,0.16 0.08,0.24 0.11,0.34c0.23,0.62 0.46,1.23 0.69,1.85c1.01,2.63 2.11,5.23 3.28,7.8c1.96,4.29 0.63,10.05 -3.93,12.14c-4.28,1.96 -10.05,0.65 -12.14,-3.93c-5.01,-10.97 -8.71,-22.57 -10.8,-34.45c-0.82,-4.64 1.99,-9.89 6.92,-10.72z" fill="#FFF0C9" id="svg_58"/>
      <path d="m726.23,1262.76c2.47,-5.4 5.38,-10.51 9.1,-15.16c1.5,-1.87 3.19,-3.31 5.61,-3.83c2.19,-0.47 5.05,-0.04 6.89,1.3c3.67,2.67 5.69,8.57 2.54,12.51c-2.67,3.34 -4.95,6.94 -6.9,10.73c-2.11,4.6 -3.69,9.41 -4.66,14.39c0.11,-0.6 0.23,-1.19 0.34,-1.78c-0.45,2.41 -1.06,4.39 -2.97,6.1c-1.65,1.47 -4.28,2.5 -6.52,2.28c-2.32,-0.24 -4.69,-1.14 -6.22,-3c-1.4,-1.72 -2.7,-4.23 -2.28,-6.52c1.1,-5.89 2.57,-11.56 5.07,-17.02z" fill="#FFF0C9" id="svg_59"/>
      <path d="m791.2,1298.82c4.87,0.5 8.78,4.47 8.5,9.52l-1.28,22.46c-0.27,4.72 -4.67,8.99 -9.52,8.5c-4.87,-0.5 -8.78,-4.47 -8.49,-9.52l1.27,-22.47c0.27,-4.71 4.67,-8.98 9.52,-8.49z" fill="#FFF0C9" id="svg_60"/>
      <path d="m865.46,1173.46c0.87,-0.83 1.87,-1.39 3,-1.69c1.11,-0.51 2.28,-0.7 3.52,-0.58c2.32,0.23 4.69,1.14 6.22,3c1.49,1.82 2.48,4.1 2.27,6.52c-0.01,0.21 0.01,0.42 0,0.63c0.07,0.45 0.17,0.9 0.29,1.34c0.16,0.36 0.34,0.73 0.54,1.08c0.32,0.37 0.6,0.78 0.95,1.12c0.83,0.86 1.4,1.86 1.7,3c0.5,1.11 0.69,2.28 0.58,3.52c-0.03,1.24 -0.35,2.38 -0.97,3.42c-0.43,1.1 -1.11,2.03 -2.03,2.79c-1.81,1.48 -4.13,2.52 -6.52,2.28c-0.79,-0.15 -1.59,-0.3 -2.38,-0.46c-1.5,-0.51 -2.78,-1.36 -3.84,-2.54c-1.26,-1.2 -2.2,-2.65 -3.15,-4.09c-0.58,-0.87 -1.06,-1.8 -1.42,-2.78c-0.61,-1.62 -1.25,-3.25 -1.49,-4.98c-0.25,-1.75 -0.42,-3.58 -0.27,-5.36c0.2,-2.34 1.23,-4.63 3,-6.22z" fill="#FFF0C9" id="svg_61"/>
      <path d="m919.46,1108.59c0.83,-2.14 2.3,-4.17 4.45,-5.15c2.22,-1.02 4.62,-1.28 6.99,-0.51c3.92,1.27 7.85,2.54 11.77,3.81c2.14,0.69 4.13,2.45 5.15,4.45c0.6,1.07 0.89,2.2 0.87,3.41c0.2,1.21 0.08,2.4 -0.36,3.58c-0.83,2.14 -2.3,4.17 -4.45,5.15c-2.22,1.02 -4.62,1.28 -6.99,0.51c-3.92,-1.27 -7.84,-2.54 -11.77,-3.81c-2.14,-0.69 -4.12,-2.45 -5.14,-4.45c-0.6,-1.07 -0.9,-2.2 -0.88,-3.41c-0.2,-1.21 -0.08,-2.4 0.36,-3.58z" fill="#FFF0C9" id="svg_62"/>
      <path d="m1038.54,1152.47c0.12,-1.2 0.54,-2.29 1.26,-3.29c1.34,-1.85 3.29,-3.44 5.61,-3.83c2.27,-0.39 5.03,-0.2 6.89,1.3c0.74,0.59 1.56,1.05 2.38,1.51c0.53,0.2 1.08,0.38 1.63,0.53c0.75,0.09 1.51,0.12 2.27,0.11c0.28,-0.02 0.56,-0.03 0.83,-0.01c0.02,0 0.04,0 0.05,0c-0.01,0 -0.02,0 -0.03,0c0.47,0.04 0.95,0.08 1.42,0.21c1.19,0.13 2.29,0.55 3.29,1.26c1.01,0.63 1.81,1.45 2.39,2.47c0.75,0.91 1.23,1.96 1.44,3.15c0.4,2.34 0.13,4.92 -1.3,6.89c-0.51,0.58 -1.01,1.16 -1.51,1.74c-1.19,1.06 -2.56,1.75 -4.11,2.09c-1.83,0.16 -3.65,0.36 -5.48,0.18c-1.84,-0.19 -3.71,-0.55 -5.48,-1.08c-1.73,-0.51 -3.35,-1.35 -4.95,-2.17c-1,-0.52 -1.94,-1.14 -2.81,-1.84c-1.02,-0.63 -1.82,-1.45 -2.4,-2.47c-0.74,-0.91 -1.22,-1.96 -1.44,-3.15c-0.31,-1.22 -0.29,-2.42 0.05,-3.6z" fill="#FFF0C9" id="svg_63"/>
      <path d="m983.81,1153.7c2.63,-3.61 8.61,-5.75 12.5,-2.53c13.73,11.35 26.79,23.48 38.99,36.45c3.24,3.45 2.98,9.71 -0.72,12.74c-3.86,3.16 -9.28,2.95 -12.74,-0.72c-5.75,-6.12 -11.68,-12.07 -17.8,-17.82c-3.02,-2.83 -6.07,-5.62 -9.17,-8.36c-0.37,-0.32 -0.74,-0.64 -1.1,-0.96c-0.15,-0.13 -1.31,-1.2 -0.51,-0.44c0.91,0.84 -0.6,-0.53 -0.78,-0.68c-0.37,-0.32 -0.74,-0.64 -1.11,-0.95c-1.67,-1.42 -3.35,-2.83 -5.03,-4.22c-1.88,-1.55 -3.31,-3.16 -3.84,-5.62c-0.47,-2.19 -0.04,-5.05 1.31,-6.89z" fill="#FFF0C9" id="svg_64"/>
      <path d="m1067.94,1039.76c14.6,-1.16 29.19,-2.33 43.78,-3.49c2.53,-0.2 4.68,-0.17 6.89,1.3c1.81,1.2 3.47,3.44 3.83,5.62c0.73,4.29 -1.88,10.32 -6.92,10.72c-14.59,1.16 -29.18,2.33 -43.77,3.49c-2.53,0.2 -4.68,0.17 -6.89,-1.3c-1.81,-1.2 -3.47,-3.44 -3.84,-5.62c-0.72,-4.29 1.89,-10.32 6.92,-10.72z" fill="#FFF0C9" id="svg_65"/>
     </g>
    </g>
    <g id="svg_66">
     <g id="svg_67">
      <path d="m511.21,1192.46c1.86,-0.73 3.74,-1.5 5.63,-2.3c1.28,-0.56 2.73,-0.6 4.05,-0.14c154.7,53.49 239.59,-163.36 249.99,-216.21c0.75,-3.8 -2.5,-7.11 -6.33,-6.58c-37.56,5.16 -24.47,-76.07 -28.9,-122.44c-0.41,-4.38 -5.52,-6.5 -8.98,-3.81c-40.56,31.43 -40.17,-22.85 -42.53,-83.11c-0.15,-3.78 -3.94,-6.25 -7.52,-5c-24.7,8.66 -42.08,-43.84 -49.21,-97.9c-0.43,-3.21 -3.49,-5.5 -6.67,-4.8c-27.57,6.05 -67.78,-47.79 -68.2,-95.86c-0.03,-4.66 -5.45,-7.19 -9.08,-4.26c-24.09,19.51 -35.54,22.31 -48.77,-37.38c-0.53,-2.4 -2.3,-3.85 -4.3,-4.26c-25.46,185.33 -1.87,503.8 20.82,684.05z" fill="#217C5C" id="svg_68"/>
      <path d="m734.88,999.34c0.75,-3.81 -2.5,-7.11 -6.33,-6.58c-37.56,5.15 -24.47,-76.07 -28.9,-122.44c-0.41,-4.38 -5.52,-6.51 -8.98,-3.81c-40.56,31.42 -40.17,-22.85 -42.53,-83.11c-0.15,-3.79 -14.92,2.99 -25.26,2.64c-26.16,-0.89 -13.17,-31.56 -20.31,-85.62c-0.43,-3.21 -3.48,-5.5 -6.66,-4.8c-27.58,6.05 -59.18,-58.34 -59.59,-106.4c-0.04,-4.67 -5.46,-7.2 -9.08,-4.27c-10.1,8.18 -26.92,29.79 -44.46,2.98c1.77,-28.4 4.26,-55.12 7.62,-79.52c1.99,0.4 3.76,1.86 4.29,4.25c13.23,59.7 24.68,56.9 48.78,37.39c3.62,-2.93 9.04,-0.4 9.07,4.26c0.42,48.07 40.63,101.91 68.2,95.86c3.18,-0.7 6.24,1.58 6.67,4.8c7.13,54.06 24.51,106.55 49.21,97.9c3.58,-1.25 7.37,1.21 7.52,5c2.36,60.26 1.97,114.53 42.53,83.11c3.47,-2.69 8.57,-0.57 8.98,3.81c4.43,46.37 -8.66,127.6 28.91,122.44c3.82,-0.53 7.07,2.78 6.32,6.58c-7.56,38.41 -54.48,163.49 -138.96,208.39c61.87,-55.49 96.55,-150.31 102.96,-182.86z" fill="#1B755F" id="svg_69"/>
      <path d="m511.21,1192.46c-22.69,-180.26 -46.28,-498.72 -20.81,-684.05c-2.43,-0.5 -5.17,0.56 -6.3,3.36c-18.71,46.17 -51.13,72.69 -69.26,65.44c-3.44,-1.37 -7.21,1.1 -7.56,4.78c-4.88,52.09 -26.09,71.76 -41.72,67.15c-3.56,-1.05 -7.15,1.5 -7.21,5.2c-0.7,38.27 -13.16,86.58 -37.7,89.98c-3.51,0.49 -5.73,4.02 -4.55,7.36c16.73,47.32 0.05,114.94 -26.36,104.89c-4.14,-1.58 -8.33,2.26 -7.36,6.59c12.26,55.39 35.04,92.08 -0.32,102.59c-3.33,0.99 -4.99,4.73 -3.43,7.85c33.06,65.91 76.74,107.27 45.58,117.91c-2.87,0.98 -4.43,4.1 -3.48,6.98c15.15,45.48 86.65,134.27 190.48,93.97z" fill="#338E6B" id="svg_70"/>
     </g>
     <g id="svg_71">
      <path d="m486.56,540.9c-15.99,254.57 5.46,512.38 48.4,763.4c1.99,7.67 -10.36,10.68 -11.91,2.68c-39.17,-252.54 -56.54,-511.01 -36.49,-766.08z" fill="#6CCC96" id="svg_72"/>
      <g id="svg_73">
       <path d="m587.86,662.37c-21.9,48.98 -69.05,77.12 -106.83,111.38c-30.73,-6.66 -91.99,-62.44 -107.24,-90.84c23.96,34.82 67.56,71.1 105.81,88.47c37.45,-34.11 84.5,-61.33 108.26,-109.01z" fill="#6CCC96" id="svg_74"/>
       <path d="m651.25,798.41c-30.58,44.44 -70.27,81.87 -109.59,118.49c-17.13,13.16 -32.85,34.06 -53.5,40.31c-52.38,-41.88 -114.89,-75.11 -158.68,-126.35c43.58,48.63 110.47,84.09 159.94,123.94l0.01,-0.03c60.88,-42.78 115.62,-97.88 161.82,-156.36z" fill="#6CCC96" id="svg_75"/>
       <path d="m736.04,978.32c-44.35,41.71 -94.74,76.53 -144.24,111.78c-28.53,17.15 -55.75,43.74 -87.42,52.57c-54.86,-37.93 -119.26,-68.66 -160.71,-122.21c42.83,52.5 107.59,82.28 162.59,120.31c-0.02,-0.11 -0.2,-0.18 -0.27,-0.15c81.55,-45.41 158.23,-102.54 230.05,-162.3z" fill="#6CCC96" id="svg_76"/>
      </g>
     </g>
    </g>
    <g id="svg_77">
     <g id="svg_78">
      <path d="m509.91,1094.71c-0.29,-1.49 -0.6,-3 -0.94,-4.52c-0.24,-1.04 -0.12,-2.13 0.32,-3.04c51.5,-107.61 -83.92,-201.91 -117.98,-217.23c-2.45,-1.1 -4.99,0.85 -5.03,3.78c-0.44,28.73 -53.09,7.34 -84.37,4c-2.96,-0.32 -4.9,3.18 -3.46,6.15c16.71,34.72 -19.33,26.65 -59.64,19.78c-2.53,-0.43 -4.56,2.04 -4.1,4.89c3.21,19.65 -33.48,25.08 -70.15,22.65c-2.19,-0.14 -4.02,1.81 -3.88,4.28c1.18,21.41 -38.76,43.66 -70.76,37.09c-3.1,-0.64 -5.34,3.04 -3.77,6.16c10.49,20.75 11.18,29.67 -29.87,30.99c-1.65,0.05 -2.8,1.16 -3.28,2.59c120.59,45.51 334.74,73.53 456.91,82.43z" fill="#217C5C" id="svg_79"/>
      <path d="m404.57,900.4c-2.45,-1.1 -4.98,0.85 -5.03,3.77c-0.44,28.73 -53.09,7.35 -84.37,4.01c-2.96,-0.32 -4.9,3.18 -3.46,6.15c16.71,34.72 -19.33,26.65 -59.64,19.78c-2.53,-0.43 0.45,11.55 -0.85,19.2c-3.28,19.37 -22.33,5.3 -59,2.88c-2.19,-0.14 -4.02,1.81 -3.88,4.27c1.18,21.42 -44.88,35.74 -76.88,29.17c-3.11,-0.64 -5.35,3.04 -3.77,6.16c4.39,8.69 17.03,24.32 -2.61,33.55c-18.69,-5.39 -36.2,-11.07 -52.08,-17.06c0.48,-1.43 1.63,-2.54 3.28,-2.59c41.05,-1.32 40.36,-10.24 29.87,-30.99c-1.57,-3.12 0.67,-6.8 3.77,-6.16c32,6.58 71.94,-15.68 70.76,-37.09c-0.14,-2.46 1.69,-4.41 3.88,-4.28c36.67,2.43 73.36,-3 70.15,-22.65c-0.46,-2.85 1.57,-5.31 4.1,-4.89c40.31,6.87 76.35,14.94 59.64,-19.78c-1.44,-2.97 0.5,-6.47 3.46,-6.15c31.28,3.34 83.93,24.73 84.37,-4c0.04,-2.93 2.58,-4.88 5.03,-3.78c24.76,11.14 103.07,64.01 124.22,133.38c-30.51,-54.04 -89.97,-93.46 -110.96,-102.9z" fill="#1B755F" id="svg_80"/>
      <path d="m509.91,1094.71c-122.17,-8.9 -336.32,-36.93 -456.9,-82.43c-0.59,1.74 -0.16,3.93 1.59,5.17c28.76,20.55 43.05,48.5 36.36,60.98c-1.26,2.36 -0.01,5.52 2.4,6.31c34.13,11.1 45.02,29.72 40.34,40.71c-1.06,2.49 0.26,5.53 2.72,6.11c25.37,6 56.2,22.2 55.94,40.97c-0.04,2.69 2.07,4.85 4.42,4.45c33.18,-5.69 76.42,16.42 67.01,34.66c-1.47,2.86 0.65,6.53 3.63,6.43c38.08,-1.21 64.82,-12.93 68.17,14.92c0.31,2.62 2.63,4.4 4.86,3.68c47.23,-15.2 79.22,-41.82 83.09,-17.08c0.35,2.28 2.26,3.89 4.28,3.59c31.79,-4.78 98.19,-45.33 82.09,-128.47z" fill="#338E6B" id="svg_81"/>
     </g>
     <g id="svg_82">
      <path d="m74.21,1019.79c167.59,48.36 341.2,69.29 512.5,73.24c5.31,-0.39 6.04,9.25 0.56,9.25c-171.93,-6.96 -345.55,-31.03 -513.06,-82.49z" fill="#6CCC96" id="svg_83"/>
      <g id="svg_84">
       <path d="m165.4,961.7c30.31,23.33 44.16,62.49 63.04,95.55c-7.59,21.94 -50.99,59.6 -71.44,66.9c25.62,-12.87 54.23,-40.16 69.72,-66.18c-18.82,-32.78 -32.07,-71.74 -61.32,-96.27z" fill="#6CCC96" id="svg_85"/>
       <path d="m262.37,933.95c26.4,29.14 47.2,64.08 67.49,98.62c6.98,14.65 19.26,29.36 21.28,45.63c-33.24,33.04 -61.77,74.85 -100.34,100.15c36.82,-25.52 67.29,-70.27 98.87,-101.43l-0.01,-0.01c-22.17,-51.49 -53.17,-100.17 -87.29,-142.96z" fill="#6CCC96" id="svg_86"/>
       <path d="m390.71,896.53c23.17,39.01 41.12,81.55 59.46,123.48c8.46,23.71 23.33,47.8 25.94,72.66c-30.87,35.45 -57.94,79.03 -97.8,102.25c39.31,-24.39 65.78,-68.39 96.73,-103.92c-0.07,0 -0.14,0.12 -0.13,0.18c-21.78,-67.27 -51.86,-132.58 -84.2,-194.65z" fill="#6CCC96" id="svg_87"/>
      </g>
     </g>
    </g>
    <g id="orange_00000086670831219145213080000013896927157017106340_">
     <path d="m330.01,1551.12c12.65,20.16 27.28,39.42 43.96,57.59c13.63,14.8 28.12,28.31 43.39,40.49c132.73,106.44 458.45,6.92 458.45,6.92l-16.11,-63.22l-10.01,-39.41l-8.33,-32.76l-0.1,-0.4l-17.17,-67.45l7.31,1.33l124.59,23.22l0.21,0.06c0.02,-0.06 0.06,-0.13 0.08,-0.18c25.89,-11.44 52.98,-24.41 80.86,-38.82c1.6,-0.77 3.22,-1.6 4.81,-2.46c17.92,-74.19 13.98,-152.75 -12.27,-225.33c-9.97,-27.6 -23.15,-54.33 -39.59,-79.62c-11.8,-18.29 -25.36,-35.84 -40.6,-52.35c-13.62,-14.81 -28.1,-28.28 -43.32,-40.53c-127.92,-102.62 -306.87,-113.74 -446.18,-29.72c-0.07,0.04 -0.19,0.07 -0.31,0.18c-8.14,4.96 -16.19,10.23 -24.04,15.84c-13.48,9.48 -26.47,19.99 -38.86,31.44c-17.06,15.7 -32.35,32.5 -45.91,50.29c-20.28,26.44 -36.72,54.94 -49.32,84.69c-48.97,115.69 -40.14,250.77 28.46,360.2z" fill="#F4BB06" id="svg_88"/>
     <path d="m821.64,1717.17c21.67,-9.37 42.11,-20.48 61.27,-33.12l-0.67,-2.49l-6.43,-25.44l-16.11,-63.22c-17.33,39.36 -112.49,64.32 -142.86,70.26c-20.59,3.49 -39.67,-11.77 -40.5,-32.67c-7.63,-264.64 -35.3,-304.89 65.32,-193.94c21.11,23.33 47.9,53.26 81.7,89.25c8.34,8.88 17.11,18.1 26.33,27.69l-8.33,-32.76l-0.1,-0.39l-90.4,-94.52l-45.32,-47.42c-3.06,-3.12 0.2,-8.88 4.51,-7.74l78.23,17.01l149.65,32.58c20.44,4.72 31.89,26.57 24,46.01c-1.68,3.26 -3.57,7 -5.65,11.05c25.89,-11.44 52.98,-24.41 80.86,-38.82c1.6,-0.77 3.22,-1.6 4.81,-2.46l9.03,-4.71c2.59,-1.36 5.21,-2.74 7.8,-4.15c15.96,-73.48 11.29,-151.1 -17.91,-223.16c-10.94,-27.15 -25.38,-53.46 -43.51,-78.51c-3.86,-6 -7.83,-11.94 -11.95,-17.7c-137.69,-192.85 -425.21,-231.95 -598.5,-61.61c-336.94,298.36 35.76,849.49 434.73,670.98zm-442.39,-425.02l222.36,54.26c2.55,0.59 4.61,10.1 4.59,10.15c0.68,3.13 -1.13,6.33 -4.12,7.47l-204.5,80.48c-20.57,7.88 -43.15,-4.93 -46.9,-26.65c-1.38,-32.49 -36.18,-133.75 28.57,-125.71zm547.09,-50.14l-214.25,77.67c-8.23,2.9 -10.03,-8.09 -15.35,-11.94c-2.34,-2.22 -2.96,-5.71 -1.2,-8.46l120.47,-196.51c44.2,-58.45 104.44,64.09 126.46,89.49c11.72,17.92 3.9,42.1 -16.13,49.75zm-460.14,-105.14l150.79,165.7c6.13,6.34 0.15,13.68 -2.21,20.18c-1.72,5.12 -6.96,12.7 -12.23,11.49l-222.41,-49.51c-19.06,-4.4 -29.88,-24.65 -22.82,-42.87c19.18,-38.95 49.91,-153.75 108.88,-104.99zm156.94,246.57l-118.23,200.27c-11.22,17.86 -35.75,21.91 -51.83,8.29c-28.54,-27.56 -119.45,-108.27 -56.24,-139.21l210.43,-79.38c7.29,-6.09 18.85,5.96 15.87,10.03zm90.13,-35.36c0.89,-5.58 -13.33,-11.54 -6.63,-13.94l224.56,-85.99c14.32,-4.01 24.56,-1.78 31.85,4.51c27.24,23.39 13.69,103.27 16.01,129.11c-0.95,20.76 -20.44,35.62 -40.67,30.95l-137.62,-36.51l-81.5,-21.62c-4.5,-1.07 -6.68,-1.88 -6,-6.51zm-49.07,-49.4l-11.45,-240.14c-0.83,-20.53 17.33,-36.61 37.54,-33.36c30.59,9.17 138.9,22.07 107.66,82.32l-120.19,200.29c-1.72,2.73 -5.2,5.96 -8.31,5.06c-4.51,-1.02 -5.1,-8.38 -5.25,-14.17zm-184.76,-174.31c-46.81,-61.81 82.1,-90.05 122.5,-99.32c22.03,-4.07 42.48,12.48 43.44,34.82c3.2,166.13 15.1,251.41 -4.01,252.46c-17.71,0.94 -62.18,-71.72 -161.93,-187.96zm189.38,504.74c-3.53,69.3 -92.67,13.61 -125.62,6.08c-20.14,-7.43 -28.27,-31.49 -16.88,-49.59l104.41,-194.21c4.78,-7.9 30.08,-24.17 30.32,-15.09l7.77,252.81z" fill="#FFFBE0" id="svg_89"/>
     <path d="m355.37,1625.74c39.81,43.18 85.37,77.19 134.41,101.04c103.26,50.2 221.56,55.15 332.08,5.13c19.98,-9.05 42.1,-21.8 63.91,-36.54l-1.03,-4.02l-1.83,-7.3l-0.67,-2.49c0,0 -47.65,16.26 -71,26.82c-100.28,45.41 -210.44,43.72 -310.19,-4.77c-29.68,-14.48 -57.71,-32.66 -83.69,-54.41c-15.02,-12.46 -29.36,-26.16 -42.96,-40.93c-16.64,-18.01 -31.44,-37.17 -44.39,-57.15c-9.57,-14.8 -18.16,-30.09 -25.63,-45.74c-0.45,-0.92 -0.9,-1.89 -1.32,-2.83c-25.2,-53.84 -37.69,-112.01 -36.16,-170.9c2.15,-81.2 31.54,-159.3 83.97,-225.42c13.86,-17.51 29.3,-34.22 46.31,-49.84c12.5,-11.51 25.3,-22.19 38.46,-31.89c23.53,-17.55 48.1,-32.27 73.42,-43.97l3.39,-1.56c1.94,-0.89 3.88,-1.72 5.87,-2.54c0.75,-0.36 1.52,-0.68 2.32,-1.02c71.65,-30.42 148.62,-37.27 223.2,-19.68c58.48,13.75 113.68,41.91 162.33,82.47c14.96,12.5 29.28,26.11 42.89,40.88c15.16,16.46 28.85,33.85 41.03,52c16.8,24.89 30.74,51.21 41.63,78.35c21.14,52.5 30.83,108.13 27.7,162.87c-1.2,20.13 -4,39.8 -8.44,59.02c2.59,-1.36 5.2,-2.74 7.8,-4.15c2.28,-1.18 4.54,-2.39 6.83,-3.63c6.15,-3.3 12.35,-6.68 18.59,-10.14c0.93,-0.51 1.87,-1.02 2.78,-1.57c11.15,-72.44 -0.3,-147.07 -30.95,-216.79c-20.85,-47.49 -50.54,-92.72 -88.01,-133.39c-123.51,-134.18 -303.14,-179.92 -466.19,-106.12l-3.59,1.59c-40.97,18.93 -92.38,44.97 -130.01,79.71c-181.72,167.29 -168.3,420.03 -12.86,588.91z" fill="#FFEA8C" id="svg_90"/>
     <path d="m345.79,1634.59c41,44.58 88.06,79.62 138.57,104.24c106.51,51.8 228.55,56.85 342.5,5.29c21.16,-9.62 42.04,-21.13 62.53,-34.7l-3.62,-14.05l-1.02,-4.02c-21.11,14.45 -42.98,26.78 -65.37,36.95c-105.75,47.86 -221.93,46 -327.08,-5.14c-49.4,-24 -94.35,-57.82 -133.57,-100.48c-75.92,-82.42 -116.19,-186 -113.37,-291.65c2.9,-108.31 41.23,-209.16 126.94,-288.1c36.7,-33.82 86.84,-62.9 128.48,-82.18l3.5,-1.59c77.96,-35.3 162.33,-43.81 244,-24.58c80.64,18.96 155.47,63.99 216.41,130.11c35.79,38.84 65.26,84.7 86.42,133.25c26.32,60.41 39.72,125.07 36.17,185.66c-0.56,10.12 -1.6,20.06 -3.08,29.8c0.93,-0.51 1.87,-1.03 2.78,-1.57c2.73,-1.5 5.45,-3.03 8.19,-4.58c10.43,-73.1 -0.13,-148.08 -29.33,-217.84c-20.48,-48.95 -50.15,-95.3 -88.21,-136.63c-127.4,-138.32 -312.67,-185.6 -480.85,-109.48c-1.23,0.56 -2.46,1.11 -3.71,1.71c-42.23,19.5 -83.37,46.98 -122.24,82.78c-187.38,172.51 -185.44,432.62 -25.04,606.8z" fill="#F47D1F" id="svg_91"/>
     <g id="svg_92">
      <path d="m820.14,1166.62c-0.1,-0.68 -0.19,-1.35 -0.29,-2.03c0,-1.37 0.32,-2.67 0.98,-3.87c2.48,-3.52 4.96,-7.04 7.43,-10.55c0.49,-0.96 1.16,-1.73 2.04,-2.31c0.78,-0.74 1.7,-1.23 2.77,-1.49c1.83,-0.5 4.25,-0.31 5.9,0.69c1.77,1.08 3.32,2.73 3.8,4.81l0.28,2.02c0.01,1.38 -0.32,2.67 -0.98,3.88c-2.47,3.51 -4.95,7.03 -7.43,10.55c-0.48,0.95 -1.16,1.72 -2.04,2.3c-0.77,0.74 -1.7,1.24 -2.77,1.49c-1.82,0.51 -4.25,0.31 -5.9,-0.69c-1.76,-1.07 -3.32,-2.73 -3.79,-4.8z" fill="#FFF0C9" id="svg_93"/>
      <path d="m749.89,1267.25c0.07,-1.95 0.67,-4.19 2.19,-5.52c5.35,-4.69 10.7,-9.37 16.05,-14.05c1.62,-1.42 3.39,-2.41 5.62,-2.43c1.89,-0.02 4.19,0.79 5.52,2.18c1.43,1.5 2.51,3.49 2.44,5.62c-0.07,1.95 -0.66,4.19 -2.19,5.53c-5.35,4.68 -10.7,9.36 -16.05,14.04c-1.62,1.43 -3.39,2.42 -5.62,2.44c-1.89,0.01 -4.19,-0.79 -5.52,-2.19c-1.43,-1.49 -2.51,-3.49 -2.44,-5.62z" fill="#FFF0C9" id="svg_94"/>
      <path d="m748.31,1124.43c1.54,-5.03 3.08,-10.05 4.62,-15.08c0.61,-2 1.77,-3.75 3.6,-4.84c1.65,-0.99 4.08,-1.44 5.96,-0.88c1.96,0.58 3.85,1.75 4.84,3.6c0.96,1.79 1.49,3.96 0.88,5.97l-4.62,15.08c-0.61,2 -1.77,3.75 -3.6,4.84c-1.66,0.99 -4.08,1.44 -5.97,0.88c-1.95,-0.59 -3.84,-1.75 -4.84,-3.6c-0.96,-1.79 -1.49,-3.97 -0.87,-5.97z" fill="#FFF0C9" id="svg_95"/>
      <path d="m717.25,1158.8c0.5,-4.96 1,-9.91 1.5,-14.86c-0.05,-1.05 0.16,-2.03 0.61,-2.94c0.29,-0.99 0.82,-1.85 1.57,-2.59c0.73,-0.82 1.61,-1.4 2.63,-1.73c0.92,-0.5 1.92,-0.73 2.99,-0.7c2,0.07 4.1,0.69 5.53,2.18c0.44,0.56 0.88,1.11 1.31,1.66c0.73,1.22 1.1,2.54 1.12,3.96l-1.49,14.86c0.04,1.05 -0.16,2.03 -0.61,2.94c-0.3,0.99 -0.82,1.85 -1.58,2.59c-0.73,0.82 -1.6,1.4 -2.62,1.73c-0.93,0.5 -1.93,0.73 -3,0.7c-2,-0.07 -4.1,-0.69 -5.52,-2.18c-0.44,-0.55 -0.88,-1.11 -1.32,-1.66c-0.73,-1.22 -1.1,-2.54 -1.12,-3.96z" fill="#FFF0C9" id="svg_96"/>
      <path d="m677.28,1124.76c-0.93,-9.98 0.17,-20.27 3.12,-29.85c0.62,-1.99 1.77,-3.74 3.6,-4.84c1.66,-0.99 4.08,-1.44 5.97,-0.87c3.92,1.16 7.01,5.36 5.72,9.56c-1.17,3.78 -1.98,7.65 -2.52,11.57c-0.49,4.75 -0.56,9.52 -0.12,14.28c0.17,1.87 -0.93,4.21 -2.19,5.52c-1.35,1.42 -3.63,2.5 -5.62,2.43c-2,-0.06 -4.1,-0.69 -5.52,-2.18c-1.54,-1.61 -2.23,-3.41 -2.44,-5.62z" fill="#FFF0C9" id="svg_97"/>
      <path d="m600.47,1166.64c-1.06,-3.45 -2.11,-6.89 -3.16,-10.34c-0.32,-1 -0.37,-2.01 -0.16,-3.02c0.03,-1.02 0.32,-1.98 0.85,-2.88c0.48,-0.95 1.16,-1.72 2.04,-2.3c0.78,-0.74 1.7,-1.24 2.77,-1.49c1.95,-0.45 4.14,-0.38 5.9,0.69c1.84,1.12 3.16,2.72 3.8,4.81c1.05,3.44 2.1,6.88 3.15,10.33c0.32,1 0.37,2.01 0.17,3.02c-0.04,1.02 -0.33,1.98 -0.86,2.88c-0.48,0.96 -1.16,1.73 -2.04,2.3c-0.78,0.74 -1.7,1.24 -2.77,1.5c-1.95,0.44 -4.14,0.37 -5.9,-0.7c-1.84,-1.11 -3.16,-2.71 -3.79,-4.8z" fill="#FFF0C9" id="svg_98"/>
      <path d="m542.14,1123.53c-2.72,-8.03 -5.44,-16.06 -8.17,-24.09c-1.32,-3.91 1.52,-8.78 5.5,-9.7c4.36,-1 8.28,1.31 9.7,5.5c2.72,8.03 5.44,16.06 8.17,24.09c1.32,3.91 -1.52,8.79 -5.5,9.7c-4.36,1 -8.28,-1.31 -9.7,-5.5z" fill="#FFF0C9" id="svg_99"/>
      <path d="m583.98,1210.97c-0.92,-1.93 -1.41,-3.82 -0.87,-5.97c0.47,-1.87 1.87,-3.9 3.6,-4.83c1.79,-0.97 3.95,-1.48 5.97,-0.88c1.89,0.56 3.95,1.74 4.83,3.6c2.45,5.14 4.9,10.28 7.35,15.42c0.92,1.93 1.42,3.82 0.88,5.97c-0.47,1.87 -1.87,3.9 -3.6,4.84c-1.8,0.96 -3.95,1.47 -5.97,0.87c-1.89,-0.56 -3.95,-1.74 -4.84,-3.6c-2.45,-5.14 -4.9,-10.28 -7.35,-15.42z" fill="#FFF0C9" id="svg_100"/>
      <path d="m439.46,1189.37c-0.5,-0.93 -0.73,-1.93 -0.7,-3c-0.05,-1.04 0.16,-2.02 0.61,-2.94c0.29,-0.99 0.82,-1.85 1.57,-2.58c1.5,-1.43 3.5,-2.51 5.62,-2.44c0.67,0.08 1.34,0.16 2.01,0.24c1.34,0.35 2.51,0.99 3.52,1.95c2.94,2.3 5.87,4.6 8.81,6.9c0.82,0.73 1.4,1.61 1.73,2.63c0.5,0.92 0.74,1.92 0.7,2.99c0.05,1.04 -0.15,2.02 -0.6,2.94c-0.3,0.99 -0.82,1.85 -1.58,2.59c-1.5,1.43 -3.49,2.5 -5.62,2.43c-0.67,-0.08 -1.33,-0.16 -2,-0.24c-1.34,-0.35 -2.52,-0.99 -3.52,-1.95c-2.94,-2.3 -5.88,-4.6 -8.82,-6.9c-0.82,-0.73 -1.39,-1.61 -1.73,-2.62z" fill="#FFF0C9" id="svg_101"/>
      <path d="m516.03,1251.47c2.27,-3.73 6.8,-5.14 10.71,-3.11c7.11,3.69 14.22,7.38 21.33,11.07c3.66,1.91 5.28,7.14 3.1,10.71c-2.26,3.72 -6.79,5.13 -10.7,3.1c-7.11,-3.69 -14.22,-7.38 -21.33,-11.07c-3.67,-1.9 -5.28,-7.13 -3.11,-10.7z" fill="#FFF0C9" id="svg_102"/>
      <path d="m445.12,1252.65c-0.02,-1.89 0.79,-4.19 2.19,-5.52c1.49,-1.43 3.49,-2.51 5.62,-2.43c2.14,0.07 3.85,0.83 5.52,2.18c0.32,0.26 0.65,0.5 0.97,0.75c3.29,2.33 6.82,4.28 10.55,5.8c0.29,0.11 0.58,0.23 0.88,0.33c2.01,0.69 3.71,1.71 4.84,3.6c0.99,1.66 1.44,4.08 0.87,5.97c-0.58,1.95 -1.75,3.84 -3.6,4.84c-1.75,0.94 -4.01,1.54 -5.96,0.87c-3.52,-1.21 -6.98,-2.64 -10.23,-4.44c-3.26,-1.81 -6.32,-3.98 -9.22,-6.33c-1.51,-1.22 -2.41,-3.73 -2.43,-5.62z" fill="#FFF0C9" id="svg_103"/>
      <path d="m416.38,1346.57c-0.45,-1.96 -0.38,-4.14 0.69,-5.9c0.4,-0.55 0.81,-1.1 1.21,-1.65c1.01,-1.04 2.2,-1.76 3.6,-2.15c5.75,-2.24 11.5,-4.49 17.26,-6.73c1.73,-0.67 4.33,-0.17 5.9,0.69c1.71,0.95 3.35,2.87 3.79,4.81c0.45,1.95 0.38,4.14 -0.69,5.9l-1.21,1.65c-1.01,1.04 -2.2,1.75 -3.59,2.15c-5.76,2.24 -11.51,4.48 -17.26,6.73c-1.74,0.67 -4.34,0.16 -5.9,-0.7c-1.72,-0.94 -3.36,-2.86 -3.8,-4.8z" fill="#FFF0C9" id="svg_104"/>
      <path d="m412.17,1391.64c0.07,-1.9 0.64,-4.27 2.19,-5.52c6.03,-4.89 12.41,-9.08 19.53,-12.2c2.01,-0.88 3.76,-1.44 5.97,-0.88c1.88,0.47 3.91,1.87 4.84,3.6c0.97,1.79 1.48,3.95 0.88,5.97c-0.56,1.85 -1.74,4.02 -3.6,4.84c-6.18,2.7 -11.97,6.18 -17.25,10.37c0.29,-0.23 0.58,-0.46 0.87,-0.69c-1.66,1.33 -3.23,2.3 -5.47,2.32c-1.89,0.02 -4.19,-0.79 -5.52,-2.19c-1.43,-1.49 -2.51,-3.49 -2.44,-5.62z" fill="#FFF0C9" id="svg_105"/>
      <path d="m491.47,1458.13c0.56,-1.89 1.74,-3.96 3.6,-4.84c3.22,-1.52 6.24,-3.4 9.08,-5.55c1.13,-0.94 2.24,-1.88 3.28,-2.91c1.48,-1.46 3.52,-2.42 5.62,-2.43c1.9,-0.02 4.2,0.79 5.53,2.18c1.43,1.5 2.5,3.49 2.43,5.62c-0.07,2.02 -0.71,4.07 -2.18,5.52c-4.56,4.51 -9.87,8.37 -15.67,11.1c-1.95,0.91 -3.82,1.42 -5.97,0.88c-1.88,-0.48 -3.91,-1.87 -4.84,-3.6c-0.97,-1.8 -1.48,-3.96 -0.88,-5.97z" fill="#FFF0C9" id="svg_106"/>
      <path d="m466.19,1529.45c-0.43,-1.89 -0.45,-4.24 0.69,-5.9c3.78,-5.48 7.55,-10.95 11.33,-16.43c1.23,-1.79 2.63,-3.19 4.8,-3.79c1.83,-0.51 4.26,-0.31 5.9,0.69c1.77,1.07 3.32,2.73 3.8,4.81c0.43,1.88 0.45,4.24 -0.69,5.9c-3.78,5.47 -7.55,10.95 -11.33,16.42c-1.23,1.79 -2.63,3.2 -4.8,3.8c-1.83,0.5 -4.26,0.31 -5.9,-0.7c-1.77,-1.07 -3.32,-2.72 -3.8,-4.8z" fill="#FFF0C9" id="svg_107"/>
      <path d="m622.48,1528.48c-0.03,-5.69 -0.06,-11.38 -0.09,-17.07c-0.01,-1.99 0.81,-4.09 2.19,-5.52c1.35,-1.42 3.63,-2.5 5.62,-2.44c2,0.07 4.1,0.7 5.52,2.19c1.46,1.53 2.42,3.46 2.43,5.62c0.03,5.69 0.06,11.38 0.09,17.07c0.01,1.99 -0.81,4.09 -2.18,5.53c-1.36,1.41 -3.63,2.5 -5.62,2.43c-2.01,-0.07 -4.11,-0.69 -5.53,-2.18c-1.46,-1.54 -2.42,-3.47 -2.43,-5.63z" fill="#FFF0C9" id="svg_108"/>
      <path d="m569.01,1581.83c1.99,-8.09 3.97,-16.19 5.96,-24.29c0.48,-1.95 1.87,-3.81 3.6,-4.84c1.66,-0.99 4.08,-1.44 5.96,-0.87c4.12,1.22 6.77,5.28 5.72,9.56c-1.98,8.1 -3.97,16.2 -5.95,24.29c-0.48,1.96 -1.88,3.81 -3.6,4.84c-1.66,0.99 -4.08,1.44 -5.97,0.88c-4.11,-1.23 -6.77,-5.29 -5.72,-9.57z" fill="#FFF0C9" id="svg_109"/>
      <path d="m608,1602.16c0.69,-2.26 1.17,-4.57 1.52,-6.9c0.2,-1.96 0.32,-3.93 0.27,-5.9c-0.05,-1.97 0.84,-4.12 2.19,-5.53c0.73,-0.82 1.6,-1.4 2.62,-1.73c0.93,-0.5 1.93,-0.73 3,-0.7c2,0.07 4.1,0.69 5.52,2.18c1.48,1.55 2.38,3.45 2.44,5.62c0.07,3.16 -0.22,6.27 -0.64,9.39c-0.34,2.52 -0.89,5 -1.64,7.42c-0.61,2 -1.77,3.75 -3.6,4.84c-1.66,0.99 -4.08,1.44 -5.97,0.88c-1.95,-0.58 -3.84,-1.75 -4.84,-3.6c-0.96,-1.79 -1.49,-3.97 -0.87,-5.97z" fill="#FFF0C9" id="svg_110"/>
      <path d="m704.38,1447.67c2.99,-2.86 8.07,-3.41 11.14,-0.25c3.37,3.48 6.95,6.76 10.73,9.79c0.93,0.75 1.86,1.48 2.81,2.19c0.13,0.09 0.18,0.14 0.25,0.19c0.47,0.34 0.94,0.67 1.41,1c2.02,1.41 4.09,2.75 6.19,4.04c3.52,2.14 5.38,6.96 3.1,10.7c-2.13,3.52 -6.94,5.4 -10.7,3.11c-8.99,-5.48 -17.36,-12.06 -24.69,-19.62c-2.86,-2.96 -3.4,-8.13 -0.24,-11.15z" fill="#FFF0C9" id="svg_111"/>
      <path d="m708.7,1541.6c-0.86,-5.12 -1.26,-10.24 -0.85,-15.42c0.17,-2.09 0.69,-3.96 2.19,-5.53c1.35,-1.41 3.62,-2.5 5.62,-2.43c3.95,0.14 8.3,3.41 7.95,7.81c-0.29,3.71 -0.17,7.43 0.28,11.13c0.72,4.36 1.93,8.62 3.67,12.69c-0.21,-0.49 -0.41,-0.97 -0.62,-1.45c0.85,1.96 1.38,3.69 0.84,5.86c-0.48,1.88 -1.87,3.91 -3.6,4.84c-1.8,0.97 -3.96,1.48 -5.97,0.88c-1.86,-0.55 -4.03,-1.74 -4.84,-3.6c-2.09,-4.79 -3.8,-9.62 -4.67,-14.78z" fill="#FFF0C9" id="svg_112"/>
      <path d="m773.35,1535.84c3.76,-2.02 8.54,-1.07 10.81,2.73l10.08,16.87c2.11,3.54 1.02,8.78 -2.73,10.8c-3.76,2.03 -8.54,1.07 -10.8,-2.72l-10.08,-16.87c-2.12,-3.54 -1.03,-8.79 2.72,-10.81z" fill="#FFF0C9" id="svg_113"/>
      <path d="m765.64,1408.82c0.22,-1.03 0.67,-1.93 1.34,-2.7c0.56,-0.91 1.31,-1.62 2.26,-2.14c1.8,-0.97 3.95,-1.48 5.97,-0.88c1.97,0.59 3.8,1.75 4.84,3.6c0.09,0.16 0.21,0.3 0.31,0.46c0.27,0.29 0.56,0.56 0.86,0.83c0.3,0.18 0.6,0.35 0.92,0.51c0.41,0.12 0.81,0.27 1.24,0.34c1.02,0.22 1.92,0.67 2.7,1.35c0.9,0.55 1.61,1.3 2.14,2.25c0.59,0.91 0.91,1.9 0.97,2.96c0.23,1 0.2,2 -0.1,3.01c-0.58,1.95 -1.75,3.84 -3.6,4.84c-0.64,0.28 -1.29,0.56 -1.94,0.83c-1.34,0.37 -2.68,0.38 -4.02,0.05c-1.5,-0.25 -2.89,-0.84 -4.29,-1.42c-0.84,-0.34 -1.64,-0.78 -2.38,-1.31c-1.24,-0.88 -2.5,-1.74 -3.52,-2.87c-1.04,-1.15 -2.06,-2.39 -2.82,-3.75c-1.01,-1.79 -1.39,-3.95 -0.88,-5.96z" fill="#FFF0C9" id="svg_114"/>
      <path d="m772.91,1335.45c-0.44,-1.96 -0.37,-4.14 0.7,-5.9c1.11,-1.83 2.72,-3.2 4.8,-3.8c3.46,-1 6.92,-2.01 10.38,-3.01c1.89,-0.55 4.18,-0.25 5.9,0.69c0.96,0.48 1.73,1.16 2.31,2.04c0.74,0.78 1.23,1.7 1.49,2.77c0.45,1.95 0.38,4.14 -0.7,5.9c-1.11,1.83 -2.71,3.19 -4.8,3.8c-3.46,1 -6.92,2 -10.38,3.01c-1.89,0.54 -4.18,0.25 -5.9,-0.7c-0.96,-0.48 -1.72,-1.16 -2.3,-2.03c-0.74,-0.78 -1.24,-1.71 -1.5,-2.77z" fill="#FFF0C9" id="svg_115"/>
      <path d="m880.52,1308.85c-0.5,-0.93 -0.73,-1.93 -0.7,-3c0.06,-2 0.69,-4.1 2.18,-5.52c1.45,-1.39 3.54,-2.61 5.62,-2.44c0.82,0.07 1.64,0 2.46,-0.07c0.49,-0.11 0.96,-0.25 1.44,-0.41c0.59,-0.31 1.15,-0.65 1.7,-1.04c0.19,-0.15 0.38,-0.29 0.59,-0.41c0.01,-0.01 0.03,-0.02 0.04,-0.03c-0.01,0.01 -0.02,0.02 -0.03,0.02c0.36,-0.21 0.73,-0.41 1.13,-0.54c0.93,-0.5 1.93,-0.73 3,-0.7c1.04,-0.05 2.02,0.15 2.94,0.61c0.99,0.29 1.85,0.82 2.58,1.57c1.43,1.5 2.51,3.49 2.44,5.62c-0.08,0.67 -0.16,1.34 -0.24,2.01c-0.35,1.34 -0.99,2.51 -1.95,3.52c-1.24,1.01 -2.46,2.04 -3.88,2.81c-1.42,0.77 -2.94,1.42 -4.49,1.91c-1.5,0.47 -3.08,0.66 -4.64,0.85c-0.98,0.11 -1.96,0.13 -2.94,0.05c-1.04,0.04 -2.02,-0.16 -2.93,-0.61c-0.99,-0.3 -1.85,-0.82 -2.59,-1.58c-0.82,-0.73 -1.4,-1.6 -1.73,-2.62z" fill="#FFF0C9" id="svg_116"/>
      <path d="m841.54,1336.55c0.13,-3.9 3.42,-8.38 7.81,-7.96c15.48,1.48 30.87,3.85 46.05,7.26c4.03,0.91 6.91,5.56 5.72,9.57c-1.25,4.18 -5.27,6.68 -9.57,5.72c-7.15,-1.61 -14.36,-3.01 -21.6,-4.17c-3.57,-0.57 -7.14,-1.09 -10.73,-1.55c-0.42,-0.05 -0.84,-0.11 -1.26,-0.16c-0.17,-0.02 -1.54,-0.22 -0.59,-0.07c1.07,0.17 -0.69,-0.08 -0.9,-0.11c-0.42,-0.05 -0.84,-0.09 -1.26,-0.14c-1.9,-0.21 -3.81,-0.41 -5.71,-0.59c-2.11,-0.2 -3.94,-0.66 -5.53,-2.18c-1.41,-1.35 -2.5,-3.63 -2.43,-5.62z" fill="#FFF0C9" id="svg_117"/>
      <path d="m846.57,1212.93c9.98,-7.99 19.97,-15.98 29.95,-23.97c1.73,-1.38 3.3,-2.41 5.62,-2.43c1.89,-0.02 4.19,0.79 5.52,2.19c2.63,2.74 3.69,8.38 0.25,11.14c-9.98,7.99 -19.96,15.98 -29.95,23.97c-1.73,1.39 -3.3,2.41 -5.62,2.43c-1.89,0.02 -4.19,-0.79 -5.52,-2.18c-2.63,-2.75 -3.69,-8.39 -0.25,-11.15z" fill="#FFF0C9" id="svg_118"/>
     </g>
    </g>
    <g id="svg_119">
     <g id="svg_120">
      <path d="m1394.38,1301.14c30.39,-15.76 59.2,-31.74 86.13,-47.62l-2.81,-17.89c-13.26,8 -27.13,15.97 -41.53,23.98c-2.75,1.59 -5.55,3.16 -8.42,4.71c-1.58,0.87 -3.17,1.73 -4.76,2.6c-2.84,1.59 -5.75,3.15 -8.7,4.74c-3.69,2.02 -7.44,4.02 -11.23,6.03c-1.87,1 -3.75,2 -5.67,3.02c-1.87,0.99 -3.79,2.01 -5.7,3.03l2.69,17.4z" fill="#EFEFEF" id="svg_121"/>
      <path d="m1436.17,1259.61c14.4,-8.01 28.26,-15.98 41.53,-23.98c-13.34,7.93 -27.13,15.97 -41.53,23.98z" fill="#AD689D" id="svg_122"/>
      <path d="m1391.69,1283.74c3.83,-2.04 7.64,-4.01 11.37,-6.05c-3.75,2 -7.54,4.01 -11.39,6.01l0.02,0.04z" fill="#AD689D" id="svg_123"/>
      <path d="m1494.83,1565.01c12.21,-2.37 23.63,-5.91 32.91,-10.02l-47.23,-301.47c-26.93,15.88 -55.74,31.86 -86.13,47.62l41.21,262.64l0.16,1.12c2.84,11.29 27.56,6.18 59.08,0.11z" fill="#AD689D" id="svg_124"/>
      <path d="m1391.67,1283.7c30.63,-16.02 59.4,-32.18 86.03,-48.07l-14.32,-91.57l-152,-970.46l-91.56,14.37l154.7,986.46l17.15,109.27z" fill="#DB70BD" id="svg_125"/>
      <path d="m1527.74,1554.99c0.04,-0.02 0.04,-0.02 0.04,-0.02c13.94,-6.17 23.17,-13.67 23.15,-20.5c0,0 -0.02,-0.04 0.02,-0.06l-0.34,-2.17c-0.02,-0.04 -0.02,-0.04 -0.02,-0.04l-213.73,-1362.57l-25.48,3.97l216.36,1381.39z" fill="#DB70BD" id="svg_126"/>
      <path d="m1480.51,1253.52c8.22,-4.81 16.28,-9.65 24.09,-14.48l-2.84,-18.08c-2.09,1.29 -4.22,2.61 -6.35,3.92c-3,1.9 -6.1,3.8 -9.22,5.66c-2.79,1.71 -5.64,3.4 -8.49,5.09l2.81,17.89z" fill="#EFEFEF" id="svg_127"/>
      <path d="m1527.68,1554.43l0.1,0.54c13.94,-6.17 23.17,-13.67 23.15,-20.5c0,0 -0.02,-0.04 0.02,-0.06l-0.34,-2.17c-0.02,-0.04 -0.02,-0.04 -0.02,-0.04l-45.99,-293.16c-7.81,4.83 -15.87,9.67 -24.09,14.48l47.23,301.47c-0.04,-0.18 -0.07,-0.36 -0.06,-0.56z" fill="#8C6082" id="svg_128"/>
      <path d="m1477.7,1235.63c8.24,-4.87 16.26,-9.8 24.06,-14.67l-13.21,-84.4l-151.69,-966.93l-25.48,3.97l152,970.46l14.32,91.57z" fill="#C15DA7" id="svg_129"/>
     </g>
     <path d="m1219.84,188.18c-2.23,-11.6 21.9,-22.97 53.81,-29.11c31.91,-6.14 60.97,-0.95 63.2,10.65c2.23,11.6 -23.21,25.21 -55.12,31.35c-31.91,6.14 -59.66,-1.3 -61.89,-12.89z" fill="#EAA2D9" id="svg_130"/>
    </g>
   </g>
   <g id="svg_131">
    <g id="svg_132">
     <path d="m1869.92,2312.47c60.72,-20.6 96.21,-83.9 64.68,-133.05c-44.92,3.33 -110.81,-2.52 -144.62,-10.58c-87.02,62.98 -25.2,179.96 79.94,143.63z" fill="#FFFFFF" id="svg_133" stroke="#000000" stroke-miterlimit="10" stroke-width="11.06"/>
     <g id="svg_134">
      <path d="m1802.7,2282.75c-25.15,-68.31 75.79,-107.44 103.25,-40.03c25.16,68.3 -75.79,107.43 -103.25,40.03z" id="svg_135"/>
      <path d="m1804.97,2277.19c-7.48,-18.5 21.74,-29.83 28.68,-11.12c7.49,18.5 -21.74,29.84 -28.68,11.12z" fill="#FFFFFF" id="svg_136"/>
      <path d="m1818.88,2241.43c-4.5,-11.09 13.04,-17.9 17.21,-6.67c4.49,11.1 -13.05,17.9 -17.21,6.67z" fill="#FFFFFF" id="svg_137"/>
     </g>
    </g>
    <g id="svg_138">
     <path d="m1531.82,2488.74c118.12,-38.13 89.59,-196.08 -37.8,-164.02c-20,43.75 -47.47,90.91 -81.08,116.35c12.91,44.14 65.94,65.48 118.88,47.67z" fill="#FFFFFF" id="svg_139" stroke="#000000" stroke-miterlimit="10" stroke-width="11.06"/>
     <g id="svg_140">
      <path d="m1474.9,2451.78c-25.15,-68.31 75.79,-107.44 103.25,-40.04c25.15,68.31 -75.79,107.44 -103.25,40.04z" id="svg_141"/>
      <path d="m1477.18,2446.22c-7.49,-18.5 21.73,-29.83 28.68,-11.12c7.48,18.5 -21.75,29.84 -28.68,11.12z" fill="#FFFFFF" id="svg_142"/>
      <path d="m1491.08,2410.47c-4.49,-11.1 13.04,-17.9 17.21,-6.68c4.49,11.1 -13.05,17.9 -17.21,6.68z" fill="#FFFFFF" id="svg_143"/>
     </g>
    </g>
    <path d="m1904.23,2319.67c8.96,27.8 121.8,-12.61 111.06,-39.77c-8.96,-27.81 -121.8,12.6 -111.06,39.77z" fill="#F47D1F" id="svg_144"/>
    <path d="m1456.55,2568.88c-17.83,-23.14 79.42,-93.2 95.71,-68.96c17.83,23.14 -79.42,93.2 -95.71,68.96z" fill="#F47D1F" id="svg_145"/>
    <path d="m1730.47,2048.73c60.79,57.07 153.36,51.91 231.07,48.1c-62.82,-8.47 -123.2,-27.49 -183.91,-44.89c-10.69,-3.05 -23.97,-6.59 -34.74,-9.5c-2.53,-0.64 -5.22,-1.43 -7.74,-1.93c-4.54,-1.07 -7.89,4.9 -4.68,8.22z" id="svg_146"/>
    <path d="m1444.91,2174.44c-34.31,69.52 -61.86,142.52 -104.27,207.8c51.04,-53.23 107.54,-113.82 114.4,-190.73c0.91,-6.68 0.51,-28.97 -10.13,-17.07z" id="svg_147"/>
    <g id="svg_148">
     <path d="m1630.65,2611.7c10.38,27.77 58.94,-44.86 81.28,-58.26c15.33,-12.83 33.13,-25.22 53.79,-34.72c27.36,-12.58 56.32,-18.49 82.4,-21.86c22.95,-5.94 96.55,1.05 85.25,-24.31c-18.35,-41.67 -144.14,-70.3 -200.38,-37.04c-61.94,21.32 -121.88,134.4 -102.34,176.19z" id="svg_149"/>
     <path d="m1669.72,2485.4c11.96,21.35 42.93,10.68 75.62,-6.29c2.09,-1.04 -5.27,-25.25 -3.16,-26.24c3.15,-1.47 15.82,20.23 18.97,18.8c32.78,-14.9 64.86,-26.62 53.24,-51.9c-52.15,3.28 -108.46,29.03 -144.67,65.63z" fill="#FFFFFF" id="svg_150"/>
     <path d="m1703.44,2553.53c2.7,-0.05 5.55,-0.07 8.49,-0.09c34.8,-31.89 90.65,-52.42 136.19,-56.58c1.43,-1.66 2.8,-3.36 4.11,-5.09c-44.86,-28.18 -139.32,12.8 -148.79,61.76z" fill="#C13D3D" id="svg_151"/>
     <path d="m1933.37,2472.55c-104.04,-120.43 -326.47,-17.76 -302.72,139.16c14.48,31.5 51.48,-54.57 135.07,-92.99c83.59,-38.43 182.13,-14.66 167.65,-46.17z" fill="none" id="svg_152" stroke="#000000" stroke-miterlimit="10" stroke-width="11.01"/>
    </g>
    <path d="m1421.75,2717.47c-35.22,-256.75 13.79,-247.35 13.25,-250.58c46.1,25.8 77.42,27.15 126.73,4.47c-40.16,34.69 -21.85,81.43 -44.17,81.3c-26.25,-0.14 -26.25,-42.9 -43.29,-42.81c-9.03,0.05 -29.47,16.55 -13.11,42.48c21.32,33.79 51.45,138.84 53.61,143.21c7.36,14.93 2.85,72.73 -47.59,75.93c-19.55,1.25 -41.57,-25.86 -45.43,-54z" fill="#68E0E8" id="svg_153"/>
    <path d="m1799.02,2552.4c7.61,0.34 22.23,-4.89 23.12,5.87c-0.18,3.23 -2.63,5.72 -5.52,5.43c-19.54,-1.53 -45.93,4.23 -57.63,20.57c-1.8,2.51 -5.07,2.89 -7.32,0.85c-8.55,-17.23 33.13,-31.93 47.35,-32.72z" id="svg_154"/>
   </g>
   <g id="svg_155">
    <line fill="none" id="svg_156" stroke="#000000" stroke-linecap="round" stroke-linejoin="round" stroke-miterlimit="10" stroke-width="24.94" x1="1342.68" x2="1376.75" y1="2916.52" y2="2568.82"/>
    <path d="m1429.16,2456.53c-6.46,-2.39 -13.63,0.92 -16.02,7.38c-4.04,10.92 -8.36,26.7 -11.96,40.99c-1.4,-0.88 -2.9,-1.68 -4.5,-2.41c2.74,-20.21 6.26,-45.15 8.77,-58.92c1.24,-6.78 -3.25,-13.27 -10.03,-14.51c-6.78,-1.24 -13.27,3.26 -14.5,10.03c-2.39,13.09 -5.57,35.27 -8.21,54.56c-1.1,-6.08 -2.46,-13.2 -4.12,-21.67c-1.44,-7.29 -2.79,-14.18 -3.73,-19.61c-1.18,-6.79 -7.65,-11.34 -14.43,-10.15c-6.78,1.18 -11.33,7.64 -10.15,14.42c0.99,5.7 2.37,12.72 3.83,20.15c1.87,9.52 4.56,23.23 6.03,33.05c-3.74,4.56 -6.78,10.36 -9.13,17.3c-8.72,-11.99 -17.95,-21.9 -23.81,-27.08c-5.16,-4.57 -13.04,-4.09 -17.6,1.07s-4.09,13.04 1.07,17.61c10.7,9.46 33.47,36.95 37.65,57.61c0.9,4.46 4.08,7.87 8.07,9.29c4.06,4.7 9.42,8.32 16.36,10.32c26.47,7.61 45.1,-10.35 52.72,-36.82c1.85,-6.44 2.86,-12.78 2.98,-18.81c2.67,-12.04 11.09,-48.82 18.09,-67.78c2.38,-6.46 -0.92,-13.63 -7.38,-16.02z" id="svg_157"/>
   </g>
   <g id="svg_158">
    <line fill="none" id="svg_159" stroke="#000000" stroke-linecap="round" stroke-linejoin="round" stroke-miterlimit="10" stroke-width="24.94" x1="2427.24" x2="2080.29" y1="2493.49" y2="2290.8"/>
    <path d="m2083.13,2191.22c-6.87,-0.53 -12.87,4.6 -13.4,11.47c-0.52,6.81 -0.52,20.7 1.86,36.08c-6.56,-3.38 -12.82,-5.46 -18.72,-6.14c-5.77,-8.07 -13.37,-19.79 -18.64,-27.92c-4.13,-6.36 -8.02,-12.37 -11.28,-17.16c-3.87,-5.7 -11.63,-7.17 -17.32,-3.3c-5.7,3.87 -7.18,11.63 -3.31,17.33c3.11,4.56 6.93,10.45 10.98,16.69c4.69,7.24 8.65,13.3 12.09,18.42c-15.31,-12.02 -33.02,-25.74 -43.84,-33.49c-5.6,-4.01 -13.39,-2.72 -17.4,2.88c-4.02,5.61 -2.72,13.4 2.88,17.41c11.38,8.14 31.23,23.59 47.25,36.2c-0.65,1.63 -1.18,3.25 -1.58,4.86c-12.5,-7.76 -26.56,-16.07 -37.04,-21.1c-6.21,-2.99 -13.66,-0.37 -16.64,5.84c-2.99,6.24 -0.37,13.66 5.84,16.64c18.17,8.73 49.75,29.27 60.09,36.09c4.29,4.26 9.45,8.12 15.27,11.46c23.88,13.73 49.76,13.68 63.49,-10.2c4.39,-7.64 5.46,-15.4 4.12,-22.87c0.22,-0.45 0.44,-0.9 0.61,-1.36c1.23,-3.5 0.89,-7.51 -1.26,-10.87c-11.8,-18.42 -13.57,-50.78 -12.58,-63.57c0.53,-6.86 -4.6,-12.86 -11.47,-13.39z" id="svg_160"/>
   </g>
   <path d="m1288.58,3474.31c107.17,-21.43 432.03,-11.52 397.46,28.8c-34.56,40.33 -201.61,34.57 -351.38,40.33c-78.29,3.01 -74.88,-63.37 -46.08,-69.13z" fill="#68E0E8" id="svg_161"/>
  </g>
 </g>
</svg>