<?xml version="1.0"?>
<svg width="3000" height="4100" xmlns="http://www.w3.org/2000/svg" xmlns:svg="http://www.w3.org/2000/svg" version="1.1">

 <g class="layer">
  <title>Layer 1</title>
  <g id="g8" transform="matrix(1.33333, 0, 0, -1.33333, 0, 5333.33)">
   <g id="g10" transform="translate(-1050, 510) scale(0.1)">
    <path d="m16470.6,12786.7l-540.6,-5096.8c-4.5,-42.5 16.8,-83.9 54.1,-104.8l3146.2,-1769.2l-750.8,-1067.9c-34.1,-48.5 -22.4,-115.4 26,-149.5c48.5,-34 115.4,-22.4 149.5,26.1l819.1,1165c17.4,24.7 23.6,55.9 16.9,85.4c-6.7,29.5 -25.7,55 -52.1,69.8l-3188.1,1792.7l533.1,5026.5c6.3,58.9 -36.4,111.8 -95.3,118c-59,6.3 -111.8,-36.4 -118,-95.3" fill="#000000" fill-rule="nonzero" id="path12"/>
    <path d="m18390.7,4599.5c-278.1,-53.4 -255.2,1256.4 937.7,1280.9c-543.4,-652.3 -736.8,-1074.7 -937.7,-1280.9" fill="#000000" fill-rule="nonzero" id="path14"/>
    <path d="m18985.4,11728.7l-2309.5,-6794.5l-1500.1,-74.9c-59.1,-2.9 -104.7,-53.3 -101.8,-112.5c3,-59.2 53.4,-104.7 112.5,-101.8l1572.9,78.5c44,2.2 82,31 96.2,72.7l2333,6863.5c19.1,56.1 -11,117 -67.1,136.1c-56.1,19.1 -117,-11 -136.1,-67.1" fill="#000000" fill-rule="nonzero" id="path16"/>
    <path d="m15113.3,4685.9c-226.4,170.1 759.5,1032.9 1578.8,165.5c-848.3,-35.5 -1291.2,-175.9 -1578.8,-165.5" fill="#000000" fill-rule="nonzero" id="path18"/>
    <path d="m21841.9,18012.5l3025.9,-4236.4l-3556.4,-2490.2c-48.5,-34 -60.3,-100.9 -26.3,-149.4c33.9,-48.6 100.8,-60.4 149.4,-26.4l3645.1,2552.4c23.5,16.4 39.4,41.5 44.2,69.7c4.9,28.3 -1.7,57.2 -18.4,80.5l-3088.9,4324.5c-34.5,48.3 -101.5,59.4 -149.7,25c-48.2,-34.5 -59.4,-101.5 -24.9,-149.7" fill="#000000" fill-rule="nonzero" id="path20"/>
    <path d="m16740.2,18857.3l-3976.3,2829.3l-501.8,4689.6c-6.3,58.9 -59.2,101.5 -118.1,95.2c-58.9,-6.3 -101.6,-59.1 -95.3,-118.1l507,-4737.5c3.2,-30.5 19.4,-58.3 44.4,-76.1l4015.7,-2857.2c48.2,-34.4 115.2,-23.1 149.6,25.2c34.3,48.3 23,115.3 -25.2,149.6" fill="#000000" fill-rule="nonzero" id="path22"/>
    <path d="m12300.1,26433.2c5.3,144.2 -77.4,246.9 -196.4,310.4c-142.9,125.3 -274.8,339.9 -319.1,442.4c-20,46.3 -73.7,67.9 -119.9,48.4c-46.3,-19.6 -67.6,-73 -47.6,-119.3c28.1,-65.1 91.6,-179.6 175.8,-294c-91.9,3.3 -170.3,-9.5 -232.7,-39.7c-80,41.5 -181.5,99 -253.9,140.1c-60.4,34.2 -117.4,66.5 -163.9,91.5c-44.5,24 -99.7,7.5 -123.4,-36.6c-23.7,-44.3 -6.7,-99.5 37.8,-123.5c44.7,-24.1 100.9,-55.9 160.3,-89.6c84.7,-48 153.3,-86.3 209.7,-116.6c-4.7,-9.9 -9,-20.2 -12.8,-31c-182.5,35 -403.7,75.9 -532.2,94.5c-50.2,7.2 -95.9,-27.2 -102.8,-77c-6.8,-49.8 28.1,-96 78.1,-103.2c125.7,-18.2 349.1,-59.6 531.7,-94.6c1.7,-33.4 7.3,-64.3 16.5,-92.9c-135.7,10.8 -287.8,19.7 -395.5,16.6c-50.4,-1.5 -89.7,-43.4 -87.8,-93.6c1.7,-45.9 37.1,-82.8 81.6,-87.9c4.2,-0.4 8.6,-0.6 13,-0.5c153.3,4.4 415.1,-18.2 565.3,-33c70.5,-35.7 155.8,-55.4 248.1,-59.5c251.8,-11.3 461,97.6 470.1,348.6" fill="#000000" fill-rule="nonzero" id="path24"/>
    <path d="m24782.4,24753.5l-1020.5,-4162.7l-0.3,-1.7l-6,-23.7l-109.5,-446.9l-2712.5,-11063.8c-51.1,-265.7 -664.9,-391.8 -1565.4,-368.5c-581.4,15.1 -1282.5,92.7 -2028.5,235.4c-1901.2,363.6 -3374.6,1012.7 -3291,1449.9l0.2,0.9l80.4,579.9l-0.3,0l1544.6,11158.6l0,0.3l3.2,24.2l0.4,1.9l587.6,4245.3c-42.9,-540.5 1760.1,-1325.8 4076.1,-1768.8c895.4,-171.3 1738.9,-266.7 2445.5,-289.2c1120.7,-36 1898.2,111.1 1996,428.9" fill="#e3e1e0" fill-rule="nonzero" id="path26"/>
    <path d="m23767.7,21979.6l-2785.2,-11517.5c-67.3,-352 -1061.8,-471.1 -2378.2,-326.1c-318.5,34.9 -655.9,85.6 -1003.4,152.1c-1783.6,341.1 -3161.9,972.4 -3078.2,1409.6l0.1,0.7l1661.4,11731.6c-43.7,-512.6 1556.8,-1236.4 3618.4,-1630.7c1708.8,-326.8 3939.5,95.7 3965.1,180.3" fill="#f5c80c" fill-rule="nonzero" id="path28"/>
    <path d="m23768.1,21981.4l-0.3,-1.6l-5.7,-23.1c-145.5,-479.5 -1897.9,-551.8 -3959.5,-157.5c-2061,394.2 -3662.8,1107.7 -3621.6,1607.2l0,0.2l3.2,23.7l0.4,1.8c99.8,498.5 1873.1,578.6 3964.5,178.6c2091.9,-400.1 3710.9,-1129.3 3619,-1629.3" fill="#ffea8c" fill-rule="nonzero" id="path30"/>
    <path d="m24788.6,24778.8l-5.7,-23.8l-0.3,-1.5c-159.9,-518.4 -2125.5,-582.6 -4441.7,-139.6c-336.4,64.4 -662,136.1 -972.7,213.3l-12.6,150.5c-18,4.7 -36.1,9.3 -53.7,13.9c-18,4.6 -35.7,9.2 -53.3,13.7c-35.7,9.2 -71,18.3 -105.9,27.7c-27.7,7.3 -55.1,14.5 -82,22c-15,4.1 -30,8.1 -45,12.2c-27,7.1 -53.6,14.6 -79.7,22.3c-136.2,37.9 -267.9,76.5 -394.6,116.5c-27.2,8.3 -54.3,16.7 -81,25.3c-29.8,9.3 -59.1,18.8 -88.3,28.7c-20.4,6.7 -40.8,13.4 -60.9,19.9l12.7,-156.4c-1261.9,409.6 -2088.3,891.1 -2058.9,1259.1l-0.1,1.6l3.4,24.1c103.5,541 2094.6,614.9 4447.3,164.9c2352.8,-450 4176.4,-1253.5 4073,-1794.4" fill="#efefef" fill-rule="nonzero" id="path32"/>
    <path d="m24457.7,24841.9l-4.9,-20.1l-0.5,-1.4c-140.5,-442.7 -1948.2,-473.9 -4084.3,-65.3c-2136.1,408.5 -3804.5,1104.6 -3771.7,1567.9l0.1,1.4l2.8,20.5c88.6,463 1919.4,501.9 4089.5,86.9c2170,-415.1 3857.5,-1126.9 3769,-1589.9" fill="#e0c7b8" fill-rule="nonzero" id="path34"/>
    <path d="m24457.5,24842.1l-4.7,-20.4l-0.6,-1.1c-31.9,-101 -151.2,-180.7 -341.6,-238.8c-37.2,-11.1 -76.7,-21.6 -118.7,-31.3c-357.6,-81.4 -898.9,-103.2 -1553,-64c-611.5,35.4 -1321,125 -2071,268.5c-352,67.3 -691.6,142.1 -1012.3,222.7c-18,4.7 -36.1,9.3 -53.7,13.9c-18,4.6 -35.7,9.2 -53.3,13.7c-35.7,9.2 -71,18.3 -105.9,27.7c-27.7,7.3 -55.1,14.5 -82,22c-15,4.1 -30,8.1 -45,12.2c-27,7.1 -53.6,14.6 -79.7,22.3c-136.2,37.9 -267.9,76.5 -394.6,116.5c-27.2,8.3 -54.3,16.7 -81,25.3c-29.8,9.3 -59.1,18.8 -88.3,28.7c-20.4,6.7 -40.8,13.4 -60.9,19.9c-19.2,6.5 -38.1,12.9 -57,19.2c-614.6,208.6 -1096.6,430.8 -1378.8,638.5c-68.8,50.6 -125.6,99.7 -169.5,147.9c-76.6,83.6 -114.5,163.7 -109.5,237.6l-0.1,1.2l3.2,20.7c88.4,462.7 1919.2,501.8 4089.1,86.8c2169.9,-415 3857.4,-1127.1 3768.9,-1589.7" fill="#e3e1e0" fill-rule="nonzero" id="path36"/>
    <path d="m23991.8,24550.4c-357.5,-81.3 -898.8,-103.2 -1553.1,-64c-611.1,35.7 -1320.8,125.1 -2070.8,268.5c-789.4,151 -1514.7,341.2 -2113.9,544.2c-614.6,208.6 -1096.4,430.9 -1378.7,638.4c691.3,156.5 2070.1,92.3 3623,-204.7c1598.9,-305.8 2936,-772.9 3493.5,-1182.4" fill="#cccbca" fill-rule="nonzero" id="path38"/>
    <path d="m22438.7,24486.4c-611.1,35.7 -1320.8,125.1 -2070.8,268.5c-667.1,127.6 -1288.5,283.2 -1826.6,450.9l-6,73.5c543.8,-44.2 1152.5,-126.8 1790.8,-248.9c788.6,-150.8 1513.5,-340.9 2112.6,-544m-4127.6,793.5c-19.1,6.4 -38.1,12.8 -57.1,19.2c18.6,-1.1 37.2,-2.2 55.9,-3.4l1.2,-15.8" fill="#c3c2c1" fill-rule="nonzero" id="path40"/>
    <path d="m24782.6,24753.5l-1020.8,-4162.6l-0.3,-1.9l-5.8,-23.7l-109.5,-446.8l-2712.6,-11063.6c-51.2,-265.7 -664.9,-392.2 -1565.5,-368.5c-581.1,15 -1282.3,92.3 -2028.5,235.1c-1901.2,363.6 -3374.4,1013 -3290.8,1450.2l0.1,0.7l29.8,215.4c2478.1,-597.7 3682.3,-729.9 4525.6,-451.8c1316.4,-145 2310.9,-25.9 2378.2,326.1l2785.2,11517.5c-25.6,-84.6 616.8,2152.8 684.5,2506.8c126.1,61.8 303,178.3 330.4,267.1" fill="#cccbca" fill-rule="nonzero" id="path42"/>
    <path d="m23767.7,21979.6l-2785.2,-11517.5c-67.3,-352 -1061.8,-471.1 -2378.2,-326.1c541.2,178.2 934,525.9 1419.4,1028.1c950.2,983.5 2489.1,6318.2 3532.7,10598.6c113.2,60.3 185.7,132.3 211.3,216.9" fill="#ddab1f" fill-rule="nonzero" id="path44"/>
    <path d="m16780.9,22013.7c0,0 1108.4,-342.2 1564.3,-316.7c455.9,25.6 -1676.5,-6989.1 -1898.9,-7020c-1196.8,-165.7 334.6,7336.7 334.6,7336.7" fill="#fffbf5" fill-rule="nonzero" id="path46"/>
    <path d="m26980.1,26276.2c5.7,16.2 11.7,32.6 18,49c4.4,11.2 4.3,23.6 0,34.8c-507,1309.7 1325.9,2105.3 1775.8,2210.9c32.4,7.6 61.7,-19.2 58.4,-52.2c-32.5,-323.7 659.8,-186.1 1058.8,-209.6c37.7,-2.2 57.5,-45.3 35.5,-75.9c-256.8,-357.5 208.4,-337.2 725.9,-338.6c32.5,-0.2 54.8,-31.9 45.2,-63c-66.5,-214.5 389,-347.1 854.7,-391.4c27.8,-2.7 48.3,-28.2 43.3,-55.6c-43.3,-238.4 430.9,-566.3 843.2,-554.9c40,1.2 63.4,-44.5 39.4,-76.5c-159.8,-212.7 -180.2,-311.7 335.7,-406.5c20.7,-3.9 33.7,-18.6 37.9,-35.6c-1581.2,-276.1 -4319.2,-173.2 -5871.8,-34.9" fill="#217c5c" fill-rule="nonzero" id="path48"/>
    <path d="m28566.2,28254.3c32.4,7.6 61.8,-19.2 58.4,-52.2c-32.5,-323.8 659.9,-186.2 1058.9,-209.6c37.6,-2.2 57.5,-45.3 35.4,-75.9c-256.7,-357.5 208.5,-337.2 725.9,-338.7c32.5,-0.1 -21,-128.9 -14.7,-217.4c15.7,-224 274.6,-103.1 740.4,-147.4c27.7,-2.7 48.2,-28.2 43.2,-55.6c-43.2,-238.4 518.7,-489.3 931,-477.8c39.9,1.1 63.4,-44.6 39.3,-76.5c-66.9,-89.1 -247,-240.2 -11.6,-382.1c242.9,24 471.3,53.7 679.5,90c-4.2,17 -17.2,31.7 -37.9,35.6c-515.9,94.8 -495.5,193.8 -335.7,406.5c24,32 0.6,77.7 -39.4,76.5c-412.3,-11.4 -886.5,316.5 -843.2,554.9c5,27.4 -15.5,52.9 -43.3,55.6c-465.7,44.3 -921.2,176.9 -854.7,391.4c9.6,31.1 -12.7,62.8 -45.2,63c-517.5,1.4 -982.7,-18.9 -725.9,338.6c22,30.6 2.2,73.7 -35.5,75.9c-399,23.5 -1091.3,-114.1 -1058.8,209.6c3.3,33 -26,59.8 -58.4,52.2c-327,-76.8 -1384.8,-518.1 -1743.5,-1256.5c456.5,547.8 1258.7,874.8 1535.8,939.9" fill="#1b755f" fill-rule="nonzero" id="path50"/>
    <path d="m26980.1,26276.2c1552.6,-138.3 4290.6,-241.2 5871.8,34.9c5,-20.6 -3.3,-44.4 -26.9,-55c-390.1,-174.8 -607.3,-461.1 -539.5,-614.3c12.8,-29 -7.2,-62.1 -38.7,-66.3c-445.1,-58 -607.1,-246.1 -562.6,-378.7c10.1,-30.1 -10.7,-61.7 -42.4,-63.4c-327.9,-17.9 -738.2,-139.8 -759.8,-351.3c-3,-30.2 -32.6,-50.4 -61.7,-41.3c-410.9,128.7 -985.5,-35.4 -891.1,-258.8c14.8,-34.9 -16.8,-72 -54.2,-65.1c-478.7,87.8 -800.4,271.7 -879.6,-34.7c-7.4,-28.9 -39,-44.3 -66.2,-31.9c-575.4,262.9 -943.6,624.5 -1025.2,354.1c-7.5,-25 -33.7,-39.4 -58.8,-32.1c-394.6,115.8 -1178.2,701 -865.1,1603.9" fill="#338e6b" fill-rule="nonzero" id="path52"/>
    <path d="m32574.4,26268.1c-2177.7,-216.5 -4394.9,-113 -6560.6,176.9c-66.4,14.7 -88.4,-92.2 -19.3,-103c2177.6,-257.1 4399.2,-325.4 6579.9,-73.9" fill="#6ccc96" fill-rule="nonzero" id="path54"/>
    <path d="m31501.4,27098.8c-413.2,-203.1 -639.8,-616.1 -921.7,-950.8c66.7,-261.4 564,-769.2 812.3,-891.1c-306,194.5 -630.7,557.1 -791.5,879.7c280.7,331.7 499.4,743.6 900.9,962.2" fill="#6ccc96" fill-rule="nonzero" id="path56"/>
    <path d="m30315.1,27599.9c-371.5,-276.1 -680.1,-628.1 -981.8,-976.6c-107.4,-151 -281.8,-292.4 -328.9,-471.4c375.4,-436 679.9,-961.6 1132.9,-1321.1c-430.6,358.5 -755.6,920.9 -1112.6,1332.7l0.2,0.1c347.8,535.3 803.2,1021.9 1290.2,1436.3" fill="#6ccc96" fill-rule="nonzero" id="path58"/>
    <path d="m28746.1,28270.8c-343.8,-393.3 -626.6,-836.2 -913.5,-1271.7c-138.1,-249.9 -357.6,-491.6 -423.5,-765.9c342.4,-458.6 626,-1001.2 1098,-1339.9c-463.5,350.9 -739,896.9 -1082.2,1356.6l1.4,-2.3c363.8,713.4 829.8,1388.7 1319.8,2023.2" fill="#6ccc96" fill-rule="nonzero" id="path60"/>
    <path d="m26769.8,27523c-5.6,11.8 -11.1,23.9 -16.5,36.1c-3.6,8.4 -9.9,15.3 -17.7,19.4c-902.9,482.1 -446,1822.3 -288.4,2101.2c11.4,20.1 38.8,19.5 54,-0.5c149,-196.4 404.3,219 603.6,401.2c18.8,17.2 50,2.8 55.1,-25c61,-324.9 269.1,-86 512.8,166.3c15.4,15.8 41.9,9.1 53.2,-13c77.7,-152.1 358.9,-3.1 600.1,200c14.4,12.1 37,7.9 48.6,-9.9c100.6,-154 489.8,-104.8 677.6,103.2c18.2,20.2 52.3,6.2 57.3,-23.3c33,-196.8 73.6,-262 364,-62.4c11.7,8 25.3,6.1 35.8,-1.3c-602.3,-927.4 -1940.2,-2209.5 -2739.5,-2892" fill="#217c5c" fill-rule="nonzero" id="path62"/>
    <path d="m26510.5,29401.6c11.3,20.1 38.7,19.5 53.9,-0.5c149.1,-196.3 404.3,219.1 603.6,401.2c18.8,17.2 50,2.8 55.2,-25c60.9,-324.9 269.1,-86 512.8,166.3c15.3,15.8 55.5,-82.1 103.4,-128.4c121.1,-117.2 181.3,76.9 422.5,280c14.4,12.1 37,7.9 48.6,-9.8c100.6,-154 491.9,-19 679.7,189.1c18.2,20.2 52.3,6.2 57.3,-23.4c13.8,-82.4 5.9,-254.7 188.5,-218.7c101.9,132.2 194,260.5 273.3,382.6c-10.5,7.4 -24.1,9.3 -35.8,1.3c-290.4,-199.6 -331,-134.4 -364,62.4c-5,29.5 -39.1,43.5 -57.3,23.3c-187.8,-208 -577,-257.2 -677.6,-103.2c-11.6,17.8 -34.2,22 -48.6,9.9c-241.2,-203.1 -522.4,-352.1 -600.1,-200c-11.3,22.1 -37.8,28.8 -53.2,13c-243.7,-252.3 -451.8,-491.2 -512.8,-166.3c-5.1,27.8 -36.3,42.2 -55.1,25c-199.3,-182.2 -454.6,-597.6 -603.6,-401.2c-15.2,20 -42.6,20.6 -54,0.5c-114.5,-202.7 -387.2,-966.2 -180.8,-1553.3c-63.7,528.7 147,1103.4 244.1,1275.2" fill="#1b755f" fill-rule="nonzero" id="path64"/>
    <path d="m26769.8,27523c799.3,682.5 2137.2,1964.6 2739.5,2892c12.9,-9.1 21.1,-26.4 15.3,-43.9c-94.4,-288.2 -51.1,-554.1 58.5,-606.3c20.8,-9.9 28.2,-38.1 15.5,-55.9c-179.5,-250.1 -160.2,-434.2 -72,-486.3c20.1,-11.9 26.4,-39.6 12.3,-56.1c-144.8,-170.4 -275.6,-439.1 -178.4,-567.5c13.9,-18.4 10.3,-44.1 -8,-53.3c-258.3,-129.2 -444.8,-501.8 -287.1,-580.1c24.7,-12.3 28.7,-48.4 7.6,-62.9c-269.4,-185.2 -513.8,-240.1 -395.4,-449.6c11.2,-19.7 4.2,-43.8 -14.9,-50.2c-403.7,-134.9 -760.2,-113.5 -661.2,-304.1c9.1,-17.6 4.1,-38.5 -11.3,-46.6c-244.1,-128.6 -909.2,-185.7 -1220.4,470.8" fill="#338e6b" fill-rule="nonzero" id="path66"/>
    <path d="m29400.9,30255.3c-912.7,-1186.1 -2006.5,-2213 -3170.6,-3110.9c-38.6,-24.3 5.3,-94.7 43.2,-66.8c1153.1,921.9 2231,1970.6 3127.4,3177.7" fill="#6ccc96" fill-rule="nonzero" id="path68"/>
    <path d="m28475.3,30193.4c-90.9,-315.3 12.4,-656.4 49.8,-980.9c164.1,-113.1 655.4,-152.9 833.9,-99.4c-242.5,-41.2 -579,2.1 -818.3,103.2c-36.6,322.2 -142.9,658.9 -65.4,977.1" fill="#6ccc96" fill-rule="nonzero" id="path70"/>
    <path d="m27663.9,29892.4c-34.3,-335.6 -0.5,-682.8 34.7,-1024.7c26.2,-136.8 16.1,-300.8 84.8,-423.6c397.7,-59.5 807.4,-203.5 1202.6,-182.3c-384.1,-10.8 -822.2,143.7 -1199,198.6l0.1,0.2c-108.4,468.5 -141.5,962.6 -123.2,1431.8" fill="#6ccc96" fill-rule="nonzero" id="path72"/>
    <path d="m26586.6,29498.8c38.1,-387.4 130.2,-772.7 216.5,-1155.7c62,-207 81.6,-449.1 190,-634.2c393.5,-88.1 802.1,-251.9 1195.7,-209.7c-395.8,-31.2 -802.3,138.4 -1196.8,226.8l1.8,-0.7c-191.3,575.7 -315.3,1180.1 -407.2,1773.5" fill="#6ccc96" fill-rule="nonzero" id="path74"/>
    <path d="m28421.9,25914.2c-48.9,-228.7 -119.1,-455.6 -211.9,-679.4c-75.9,-182.5 -164.3,-356 -264.1,-519.7c-866.8,-1429 -4207.6,-1606.5 -4207.6,-1606.5l-64.1,637.6l-40.2,397.5l-33.4,330.2l-0.4,4.1l-68.5,680.2l-63,-36.8l-1071.6,-633.6l-1.9,-1.2l-1.3,1.4c-277.4,18.4 -571,47 -876.8,86.1c-17.4,1.8 -35.1,4 -52.7,6.6c-415,624.3 -643,1362.6 -645,2120.8c-0.8,288.2 30.8,579.3 97.5,868c47.4,208.4 113.5,416.1 198.5,619.7c75.9,182.5 164.2,355.5 263.4,519.8c835.2,1377.5 2449.3,2082.3 4017.6,1775.6c0.8,-0.2 2,0 3.5,-0.7c91.8,-18.3 183.9,-39.9 275.2,-65.2c156.2,-42.1 311.5,-95.5 464.4,-159.4c210.2,-87.5 407.9,-191.1 592.9,-309.6c276.1,-175.8 523.7,-383.5 740.1,-615.6c841.3,-902.9 1214.2,-2179.3 949.4,-3419.9" fill="#f4bb06" fill-rule="nonzero" id="path76"/>
    <path d="m24778.6,26413.6c-28.3,84.6 259.9,19.6 330.6,-37.3l1617,-1440.9c166.1,-128.8 172,-378.1 11.2,-514.4c-278.8,-180.4 -914.1,-994.4 -1179.8,-366.7l-779,2359.3zm-33.6,656.6c-179.9,-54.7 -357.1,772.4 -886.5,2316.3c-66.4,209.4 66.6,431 283.7,467.5c404,50.4 1688.7,223.6 1464.7,-504.4c-529.4,-1408.3 -695.3,-2228.5 -861.9,-2279.4zm-257.4,-99.3c-25.7,-18.8 -68.7,-0.7 -93.8,18.7l-1783.1,1444c-491,450.9 465.2,934.4 716.6,1121.9c175.6,98.1 397.3,10.7 458.6,-181.5l702.5,-2254.7c18,-53.9 37.4,-123.8 -0.8,-148.4zm-319.3,-552.9l-679.4,-473.8l-1147.2,-800c-171,-111.1 -400.8,-39.5 -479.4,148.9c-65.6,246.2 -459.4,937.8 -286.7,1245.2c46.1,82.6 133.1,137.7 278.7,148.9l2361.7,-38c69.9,0.5 -41.2,-102.4 -14.3,-150.9c21.9,-40.4 4.5,-55.2 -33.4,-80.3zm1096.9,203.2l2209.1,-24.5c687.5,-72.8 120,-1123.6 -50.6,-1474c-102.6,-179.8 -342.5,-224.9 -506.2,-97.8l-1765,1450.3c-41.2,27.6 24.9,177.7 112.7,146zm1864,2055.1c126.5,-144.4 94.8,-367.7 -66.3,-472.4l-1885.9,-1205.3c-44.6,-28.9 -118.5,23.4 -151.6,64.8c-43.6,52.1 -123.5,99.7 -88.3,178.9l834,2036.5c380.2,648.5 1050,-307.6 1358.1,-602.5zm-5567,-1511.2c117.8,308.5 261.3,1642.1 865.9,1251.4l1773.1,-1408.2c25.4,-19.4 31.5,-53.7 17.4,-82.1c-36.2,-53.4 -15.8,-160.9 -101.5,-161.9l-2238.6,-4.1c-210.6,3.2 -364.1,200.1 -316.3,404.9zm6220.6,-90.7c38.4,-213.1 -126.8,-407.3 -343.2,-403.7l-2158.1,54.5c-31.4,0.5 -58.9,23.9 -63.2,55.1c-0.2,0.4 -13.3,95.1 8.3,109.1l1869.5,1249c570.5,292 590,-759.5 686.7,-1064zm-1585.1,3308.2c-2172.4,988.8 -4694.2,-339.5 -5315.9,-2582.6c-18.7,-67 -35.3,-135.1 -50.8,-203.5c-83,-292.2 -127.7,-583.6 -137.4,-871c-27,-763.2 191.2,-1495.3 585.6,-2119.7c28.8,-4.3 57.6,-8.2 86,-12.1l99.2,-13c17.6,-2.6 35.3,-4.8 52.7,-6.6c305.8,-39.1 599.4,-67.7 876.8,-86.1c-32.8,30.3 -62.8,58.5 -89.3,82.9c-138.2,152.9 -106.1,393.1 66.7,505.4l1271.4,804.3l664.7,420.2c35.9,25 85.4,-17.2 67.7,-56.3l-258.7,-590.1l-516.2,-1176.4l0.4,-4.1l33.4,-330.2c52.8,119.5 102.7,234.1 149.7,344.1c190.9,445.8 337.4,812.2 453.7,1098.5c555.3,1362.5 435.3,898 1255.4,-1570c62.7,-195.6 -62.1,-400.7 -263.8,-437.8c-300.3,-47.4 -1262.4,-137.2 -1554.8,167.7l64.1,-637.6l26.2,-256.4l2.2,-25.3c219.4,-52.2 445.4,-85.9 676.9,-99.5c4282.6,-304.8 5867.6,6035.4 1754.1,7655.2" fill="#fffbe0" fill-rule="nonzero" id="path78"/>
    <path d="m26338.6,30531.8c-464.1,193.9 -1026.2,261.2 -1468,298.1l-38.5,2.6c-1753,132.4 -3256.8,-894.2 -3945.1,-2548c-209,-501.5 -330.8,-1018.8 -363.5,-1527.2c-48.2,-746.6 97.2,-1473.8 443.9,-2104.8c10.3,-2 20.6,-3.6 30.9,-5.2c69.3,-10.8 137.8,-21.2 205.7,-31c25.3,-3.7 50.2,-7.3 75.2,-10.5c28.8,-4.3 57.6,-8.2 86,-12.1c-105.7,162.5 -197.7,334.6 -276.4,516.3c-213.1,494.7 -310.9,1040.7 -292.5,1596.3c9.2,287.1 49.3,576.9 120.6,863.2c51.3,208.5 119.2,415 203.7,617.9c75.8,182.1 162.2,355.9 258.2,521.6c312.5,538 727.1,983.6 1220.5,1307.3c629.2,413.2 1362.5,609.1 2126.1,569.4c8.6,-0.4 16.8,-0.8 24.9,-1.6c21.1,-0.9 41.8,-2.1 62.8,-3.7l36.4,-3c273.1,-22.7 549.4,-76 825.6,-158.7c154,-45.3 308.1,-100.7 462.2,-164.9c209.5,-86.9 408.3,-189.2 595.1,-304.1c706.4,-433.8 1240.4,-1055.7 1533.5,-1797.8c212.3,-538.3 292.6,-1117.2 241.3,-1698.8c-0.8,-10.1 -1.6,-20.6 -2.7,-30.6c-16.3,-169.5 -44.1,-339.6 -82.6,-508.3c-52.3,-228 -124.4,-454.6 -217.4,-676.8c-75.8,-182.1 -162,-356.8 -258.6,-522.3c-166.7,-288.1 -364.2,-550.2 -589.3,-783.8c-757.4,-783.1 -1768.4,-1169.4 -2846.6,-1087.7c-251,18.8 -745.5,8.6 -745.5,8.6l2.2,-25.3l7.6,-73.5l4.1,-40.6c250.9,-62.6 497.9,-105.9 712.7,-122.1c1188.3,-89.8 2263.4,354 3047.4,1164.8c372.3,385.1 678.4,852.2 900.4,1384.6c866.3,2081.7 139.7,4459.2 -2100.3,5391.7" fill="#ffea8c" fill-rule="nonzero" id="path80"/>
    <path d="m26284.3,30606.4c-479.2,199.6 -951.3,314.7 -1406.7,352.6c-13.5,1.4 -26.8,2.3 -40,3.3c-1808.2,136.6 -3358.9,-923.2 -4069.2,-2628.3c-212.2,-509.6 -330,-1037.1 -354.3,-1557.7c-34.8,-742.1 120.1,-1469.6 462.3,-2109.2c30.6,-5 60.8,-10 91,-14.6c10.3,-2 20.6,-3.6 30.9,-5.2c-46.4,85 -89.4,173.2 -128.6,264.6c-236.6,547.3 -330.6,1189.1 -291,1835.2c32,519.2 149.6,1041.7 349.2,1520.5c339.9,815.3 878.9,1482.6 1559.3,1928.9c689,452.3 1496.3,657.6 2334.6,594.2l37.6,-2.8c449.1,-37.8 1009.7,-137.6 1462.2,-326.2c1056.7,-440.1 1749.8,-1241.8 2140.9,-2231.6c381.6,-965.5 358.4,-2056.9 -64.9,-3073c-218.3,-525.7 -519.3,-989 -894.5,-1376.7c-798.3,-825.8 -1864.3,-1233.9 -3001.2,-1148c-240.8,18.4 -484.1,58.7 -727.6,121l4.1,-40.6l13.9,-141.8c234.7,-56.3 466.2,-92.3 693.8,-109.8c1225.1,-92.5 2334.4,364.9 3143,1201.3c383.3,397.2 699.6,878.9 928.1,1428.2c894.1,2147.2 36.8,4554.2 -2272.9,5515.7" fill="#f47d1f" fill-rule="nonzero" id="path82"/>
    <path d="m22604.9,27813.4c-1.4,6.5 -2.8,13.1 -4.2,19.6c-4.6,12.7 -11.9,23.5 -22.1,32.5c-34.7,24.1 -69.4,48.2 -104.1,72.3c-7.6,7.2 -16.5,12 -26.5,14.4c-9.7,4.2 -19.9,5.7 -30.6,4.5c-18.5,-1.5 -40.3,-11.5 -52.1,-26.3c-12.7,-15.8 -21.5,-36.3 -18.9,-57.1l4.2,-19.6c4.6,-12.7 11.9,-23.6 22.1,-32.5c34.7,-24.1 69.4,-48.2 104.1,-72.3c7.6,-7.3 16.5,-12.1 26.5,-14.5c9.7,-4.2 19.9,-5.6 30.6,-4.4c18.6,1.5 40.3,11.5 52.1,26.2c12.7,15.9 21.5,36.4 18.9,57.2" fill="#fff0c9" fill-rule="nonzero" id="path84"/>
    <path d="m23591.8,27121c-7.2,17.7 -20.2,36.4 -38.8,43.6c-65.1,25.2 -130.2,50.5 -195.4,75.7c-19.7,7.6 -39.4,10.8 -60,3.5c-17.6,-6.2 -36.1,-21.4 -43.7,-38.7c-8.1,-18.7 -11.3,-40.7 -3.5,-60.1c7.2,-17.8 20.2,-36.4 38.8,-43.6c65.1,-25.2 130.2,-50.5 195.3,-75.7c19.8,-7.6 39.5,-10.8 60.1,-3.5c17.5,6.2 36,21.4 43.6,38.7c8.2,18.7 11.4,40.7 3.6,60.1" fill="#fff0c9" fill-rule="nonzero" id="path86"/>
    <path d="m23125.8,28444.4c-31.1,41.2 -62.2,82.4 -93.4,123.6c-12.3,16.4 -28.9,28.7 -49.5,32.6c-18.6,3.5 -42.5,-0.5 -58,-12c-16,-12 -29.6,-29.1 -32.5,-49.5c-2.9,-19.7 -0.4,-41.6 12,-58l93.4,-123.7c12.3,-16.4 29,-28.6 49.5,-32.5c18.6,-3.6 42.5,0.4 58,11.9c16.1,12 29.6,29.1 32.5,49.5c2.9,19.8 0.4,41.6 -12,58.1" fill="#fff0c9" fill-rule="nonzero" id="path88"/>
    <path d="m23528,28231.7c-21.2,44 -42.5,88.1 -63.8,132.1c-3,9.8 -8.2,18.2 -15.5,25.1c-6,8.1 -13.8,14.3 -23.2,18.6c-9.5,5.1 -19.5,7.4 -30.1,7.1c-10.2,1.5 -20.2,0.3 -30,-3.6c-18.2,-7.4 -35.5,-20.2 -43.6,-38.8c-2.2,-6.5 -4.4,-13.1 -6.6,-19.7c-2.6,-13.7 -1.5,-27.1 3.1,-40.3l63.8,-132.1c3.1,-9.8 8.2,-18.2 15.5,-25.1c6,-8.1 13.8,-14.3 23.2,-18.6c9.5,-5.1 19.5,-7.4 30.1,-7.1c10.2,-1.5 20.2,-0.3 30,3.6c18.2,7.4 35.5,20.2 43.6,38.8c2.2,6.5 4.4,13.1 6.6,19.6c2.6,13.8 1.6,27.2 -3.1,40.4" fill="#fff0c9" fill-rule="nonzero" id="path90"/>
    <path d="m23782.4,28680.3c-25,95.2 -69.8,186.6 -129.2,265c-12.4,16.3 -29,28.6 -49.5,32.5c-18.7,3.6 -42.6,-0.4 -58.1,-12c-32.2,-23.9 -46.7,-73 -20.5,-107.5c23.4,-31 44,-63.9 62.1,-98.3c20.6,-42.1 37.3,-85.9 49.2,-131.3c4.7,-17.9 22.7,-35.7 38.8,-43.6c17.2,-8.5 41.9,-10.9 60,-3.6c18.2,7.4 35.5,20.2 43.6,38.8c8.8,19.9 9.1,39 3.6,60" fill="#fff0c9" fill-rule="nonzero" id="path92"/>
    <path d="m24632.2,28552.3c-1.9,35.3 -3.7,70.7 -5.6,106c-0.5,10.3 -3.4,19.8 -8.7,28.5c-3.7,9.3 -9.6,17.1 -17.6,23.6c-7.6,7.2 -16.5,12.1 -26.5,14.4c-9.7,4.2 -19.9,5.7 -30.6,4.5c-19.5,-2.4 -39.4,-10.5 -52.1,-26.3c-13.2,-16.5 -20,-35.7 -18.9,-57.1c1.9,-35.3 3.8,-70.6 5.7,-106c0.4,-10.3 3.3,-19.8 8.6,-28.4c3.8,-9.3 9.7,-17.2 17.6,-23.7c7.7,-7.2 16.5,-12 26.6,-14.4c9.6,-4.2 19.8,-5.7 30.5,-4.5c19.6,2.5 39.5,10.5 52.2,26.3c13.2,16.5 20,35.7 18.8,57.1" fill="#fff0c9" fill-rule="nonzero" id="path94"/>
    <path d="m25025.4,29146.4c-1.9,83.3 -3.8,166.5 -5.7,249.8c-0.9,40.6 -43.5,76 -83.3,71c-43.6,-5.4 -72,-39.9 -71,-83.4c1.9,-83.2 3.8,-166.5 5.7,-249.8c0.9,-40.5 43.5,-75.9 83.3,-71c43.6,5.4 72,40 71,83.4" fill="#fff0c9" fill-rule="nonzero" id="path96"/>
    <path d="m24933.5,28198.6c2,21 0.2,40.1 -12,58.1c-10.7,15.7 -30.4,29.7 -49.5,32.5c-19.8,2.9 -41.4,0.3 -58,-12c-15.6,-11.6 -30.6,-29.3 -32.6,-49.5c-5.3,-55.7 -10.6,-111.3 -15.9,-167c-2,-21 -0.2,-40.1 12,-58c10.7,-15.7 30.4,-29.8 49.5,-32.6c19.8,-2.9 41.5,-0.3 58,12c15.6,11.6 30.7,29.3 32.6,49.5c5.3,55.7 10.6,111.4 15.9,167" fill="#fff0c9" fill-rule="nonzero" id="path98"/>
    <path d="m26194.6,28884.3c1.4,10.2 0.2,20.2 -3.7,30c-3,9.8 -8.2,18.2 -15.5,25.1c-6,8.1 -13.8,14.3 -23.2,18.6c-18.6,8.1 -40.7,11.3 -60.1,3.5c-5.8,-3 -11.7,-6 -17.6,-8.9c-11.3,-7.7 -19.9,-17.7 -26,-29.8c-19.4,-31.2 -38.7,-62.3 -58.1,-93.4c-5.1,-9.5 -7.5,-19.5 -7.1,-30.1c-1.5,-10.2 -0.3,-20.2 3.6,-30c3,-9.7 8.2,-18.1 15.5,-25c6,-8.2 13.8,-14.3 23.2,-18.6c18.6,-8.1 40.7,-11.4 60.1,-3.5c5.9,3 11.7,5.9 17.6,8.9c11.3,7.7 19.9,17.6 26,29.8c19.4,31.1 38.7,62.3 58.1,93.4c5.1,9.5 7.5,19.5 7.2,30" fill="#fff0c9" fill-rule="nonzero" id="path100"/>
    <path d="m25696.9,28053.6c-33.5,26.7 -80,24.5 -109.3,-7.4c-53.2,-58 -106.4,-116 -159.6,-174c-27.4,-29.8 -24.7,-83.5 7.4,-109.2c33.4,-26.8 80,-24.5 109.2,7.4c53.2,58 106.4,116 159.6,173.9c27.4,29.9 24.7,83.6 -7.3,109.3" fill="#fff0c9" fill-rule="nonzero" id="path102"/>
    <path d="m26355.3,28281.2c-6.2,17.6 -21.5,36.1 -38.8,43.7c-18.6,8.1 -40.6,11.3 -60,3.5c-19.6,-7.9 -32.8,-20.6 -43.7,-38.8c-2,-3.4 -4.3,-6.7 -6.4,-10.1c-22.5,-32.6 -48.5,-62.4 -77.8,-89.1c-2.3,-1.9 -4.6,-4 -7,-5.9c-16.3,-13.2 -28.5,-28.3 -32.6,-49.5c-3.5,-18.7 0.5,-42.5 12,-58c12,-16.1 29.1,-29.6 49.5,-32.6c19.3,-2.8 42.3,-0.8 58,12c28.4,23 55.5,47.8 79.5,75.4c24,27.6 44.9,58 63.7,89.4c9.9,16.4 9.7,42.6 3.6,60" fill="#fff0c9" fill-rule="nonzero" id="path104"/>
    <path d="m26936.5,27511.3c-2.4,19.5 -10.4,39.4 -26.2,52.1c-5.6,3.7 -11.1,7.4 -16.7,11.1c-12.8,6.2 -26.3,8.8 -40.4,7.8c-60.7,1.3 -121.3,2.6 -181.9,4c-18.3,0.4 -40.6,-13.1 -52.2,-26.3c-12.6,-14.4 -21.3,-37.7 -18.8,-57.1c2.4,-19.5 10.4,-39.5 26.2,-52.1l16.7,-11.1c12.8,-6.2 26.3,-8.8 40.4,-7.8c60.7,-1.3 121.3,-2.7 182,-4c18.2,-0.4 40.5,13 52.1,26.2c12.6,14.5 21.3,37.8 18.8,57.2" fill="#fff0c9" fill-rule="nonzero" id="path106"/>
    <path d="m27127,27109.4c-7,17.3 -20.2,37.3 -38.8,43.7c-72,24.8 -145,42 -221.3,46.8c-21.4,1.4 -39.5,0.6 -58,-11.9c-15.7,-10.7 -29.8,-30.4 -32.5,-49.6c-2.9,-19.8 -0.4,-41.4 11.9,-58c11.4,-15.2 29.6,-31.3 49.5,-32.5c66.1,-4.2 131.3,-16.9 194.2,-37.8c-3.5,1.2 -7,2.4 -10.4,3.5c19.8,-6.7 37.5,-10.3 58.2,-3c17.6,6.2 36.1,21.4 43.7,38.8c8.1,18.6 11.3,40.6 3.5,60" fill="#fff0c9" fill-rule="nonzero" id="path108"/>
    <path d="m26619,26229c-11.6,15.6 -29.4,30.8 -49.6,32.6c-34.8,3.1 -69,10.3 -102.5,20.6c-13.5,4.9 -26.9,9.9 -40,15.9c-18.6,8.5 -40.6,10.4 -60.1,3.5c-17.5,-6.2 -36,-21.4 -43.6,-38.7c-8.1,-18.7 -11.4,-40.7 -3.5,-60.1c7.4,-18.4 20.2,-35.1 38.7,-43.6c57.2,-26.2 119.2,-44 182,-49.7c21,-1.9 39.9,-0.3 58,12c15.7,10.7 29.8,30.4 32.5,49.5c2.9,19.8 0.4,41.5 -11.9,58" fill="#fff0c9" fill-rule="nonzero" id="path110"/>
    <path d="m27092.2,25655.9c-2.3,18.9 -10.1,40.7 -26.2,52.1c-53.3,37.9 -106.6,75.7 -159.8,113.5c-17.4,12.4 -35,20.6 -57.1,18.9c-18.6,-1.5 -40.3,-11.5 -52.2,-26.3c-12.7,-15.8 -21.4,-36.3 -18.8,-57.1c2.3,-18.9 10.1,-40.7 26.2,-52.1c53.3,-37.8 106.6,-75.7 159.8,-113.5c17.5,-12.4 35,-20.6 57.1,-18.9c18.6,1.5 40.3,11.5 52.2,26.3c12.7,15.9 21.4,36.3 18.8,57.1" fill="#fff0c9" fill-rule="nonzero" id="path112"/>
    <path d="m25646.6,25138.9c-18.8,52.6 -37.7,105.2 -56.6,157.9c-6.6,18.3 -21.2,35 -38.8,43.6c-17.2,8.5 -41.9,10.9 -60,3.5c-18.3,-7.3 -35.5,-20.2 -43.6,-38.7c-8.4,-19.1 -10.8,-40.1 -3.6,-60.1c18.9,-52.6 37.8,-105.2 56.7,-157.8c6.6,-18.4 21.2,-35 38.7,-43.7c17.3,-8.5 41.9,-10.8 60.1,-3.5c18.2,7.4 35.5,20.2 43.6,38.8c8.4,19 10.7,40 3.5,60" fill="#fff0c9" fill-rule="nonzero" id="path114"/>
    <path d="m26319.6,24826.5c-45.6,68 -91.2,136.1 -136.7,204.1c-11,16.4 -30.1,28.9 -49.5,32.6c-18.7,3.5 -42.5,-0.5 -58,-12c-33.9,-25.2 -44.7,-71.6 -20.6,-107.5c45.6,-68.1 91.1,-136.1 136.7,-204.2c11,-16.4 30.1,-28.8 49.5,-32.5c18.6,-3.6 42.5,0.4 58,12c33.9,25.1 44.7,71.5 20.6,107.5" fill="#fff0c9" fill-rule="nonzero" id="path116"/>
    <path d="m26028.2,24507.7c-14,18.5 -26.2,38.2 -37.3,58.6c-8.4,17.4 -16.2,35.2 -22.3,53.5c-6.2,18.3 -21.6,35.2 -38.8,43.7c-9.5,5.1 -19.5,7.5 -30.1,7.1c-10.2,1.5 -20.2,0.3 -29.9,-3.6c-18.3,-7.4 -35.6,-20.2 -43.7,-38.8c-8.4,-19.2 -10.3,-39.8 -3.5,-60c9.9,-29.4 23,-57.1 37.5,-84.5c11.5,-22.1 25,-43.1 40,-63c12.4,-16.3 29,-28.6 49.5,-32.5c18.7,-3.6 42.6,0.4 58.1,12c16,11.9 29.5,29.1 32.5,49.5c2.9,19.7 0.4,41.6 -12,58" fill="#fff0c9" fill-rule="nonzero" id="path118"/>
    <path d="m24618.9,25609.1c-37.2,16.3 -86,4.4 -103.7,-35.2c-19.4,-43.4 -41.3,-85.7 -66,-126.4c-6.1,-10 -12.3,-19.9 -18.6,-29.7c-0.8,-1.3 -1.2,-1.8 -1.7,-2.6c-3.2,-4.7 -6.4,-9.3 -9.6,-13.9c-13.9,-19.9 -28.5,-39.2 -43.6,-58.1c-25.2,-31.6 -26.2,-82.4 7.4,-109.3c31.6,-25.2 82.3,-26.4 109.2,7.4c64.6,80.8 119.7,169.7 161.8,264.2c16.5,36.8 4.1,86.4 -35.2,103.6" fill="#fff0c9" fill-rule="nonzero" id="path120"/>
    <path d="m24895.1,24727.8c-9.3,50.1 -22.9,98.7 -44.1,145.1c-8.5,18.8 -19.7,34.3 -38.7,43.7c-17.3,8.4 -41.9,10.8 -60.1,3.5c-36,-14.6 -65.2,-59.4 -47.2,-98.8c15.3,-33.3 26.7,-68.1 35,-103.7c8,-42.7 11.1,-86 8.8,-129.4c0.3,5.1 0.6,10.3 0.8,15.5c-1.2,-21 -0.3,-38.8 12.1,-57c10.6,-15.7 30.4,-29.8 49.5,-32.6c19.8,-2.9 41.4,-0.3 58,12c15.2,11.4 31.3,29.6 32.5,49.5c3.2,51.2 2.8,101.6 -6.6,152.2" fill="#fff0c9" fill-rule="nonzero" id="path122"/>
    <path d="m24279.1,24563.3c-41.6,6.1 -82.4,-18.8 -90.6,-61.5l-36.2,-189.6c-7.6,-39.8 20,-84.5 61.4,-90.6c41.6,-6 82.5,18.9 90.6,61.5l36.3,189.7c7.6,39.7 -20.1,84.5 -61.5,90.5" fill="#fff0c9" fill-rule="nonzero" id="path124"/>
    <path d="m23922.8,25761.6c-5.5,8.7 -12.6,15.5 -21.5,20.4c-8.1,6.5 -17.5,10.5 -28,12.1c-19.9,2.9 -41.5,0.3 -58,-12c-16.3,-12 -29.2,-29 -32.6,-49.5c-0.3,-1.8 -0.9,-3.5 -1.3,-5.2c-1.5,-3.7 -3.3,-7.1 -5.1,-10.6c-2.2,-2.7 -4.4,-5.3 -6.8,-7.8c-3.4,-2.5 -6.6,-5.3 -10.3,-7.4c-8.7,-5.4 -15.5,-12.6 -20.4,-21.4c-6.5,-8.2 -10.5,-17.5 -12.1,-28.1c-2.4,-10.4 -2.1,-20.5 0.9,-30.5c1.3,-10 5,-19.2 11.1,-27.5c11.9,-16.1 29,-29.6 49.5,-32.5c6.9,-0.4 13.8,-0.8 20.7,-1.2c13.6,1.2 26,5.5 37.3,13.1c13,7.4 23.8,17.5 34.8,27.5c6.6,6.1 12.5,12.8 17.5,20.1c8.5,12.3 17.2,24.5 22.9,38.4c5.7,14.1 10.9,29 13.4,44c3.2,20 -0.6,41.2 -12,58.1" fill="#fff0c9" fill-rule="nonzero" id="path126"/>
    <path d="m23608.8,26414.2c-2.4,19.5 -10.5,39.4 -26.3,52.1c-16.4,13.1 -35.8,20.3 -57.1,18.9c-35.3,-2.4 -70.6,-4.8 -105.9,-7.2c-19.2,-1.3 -39.4,-11.8 -52.1,-26.2c-7.2,-7.7 -12,-16.5 -14.4,-26.6c-4.2,-9.6 -5.7,-19.8 -4.5,-30.5c2.5,-19.6 10.5,-39.5 26.3,-52.2c16.4,-13.1 35.8,-20.3 57.1,-18.8c35.3,2.3 70.6,4.7 105.9,7.1c19.3,1.3 39.5,11.8 52.1,26.3c7.2,7.6 12,16.5 14.4,26.5c4.2,9.7 5.7,19.9 4.5,30.6" fill="#fff0c9" fill-rule="nonzero" id="path128"/>
    <path d="m22526.3,26297.6c1.4,10.2 0.2,20.2 -3.7,30c-7.3,18.2 -20.2,35.5 -38.7,43.6c-18.1,7.9 -41.4,12.2 -60.1,3.6c-7.3,-3.4 -15.1,-5.6 -22.9,-7.7c-4.9,-0.6 -9.7,-0.9 -14.6,-1c-6.5,0.9 -12.9,2.2 -19.2,3.9c-2.3,0.7 -4.6,1.3 -6.9,1.8l-0.4,0.1l0.3,-0.1c-4,0.7 -8.1,1.3 -12.3,1.2c-10.2,1.5 -20.2,0.3 -30,-3.6c-9.8,-3.1 -18.1,-8.3 -25.1,-15.5c-8.1,-6.1 -14.3,-13.8 -18.5,-23.3c-8.2,-18.6 -11.4,-40.6 -3.6,-60c3,-5.9 6,-11.8 9,-17.7c7.7,-11.2 17.6,-19.9 29.8,-25.9c14.9,-5.2 29.6,-10.6 45.2,-12.9c15.8,-2.3 32,-3.2 47.9,-2.5c15.5,0.7 30.7,4.2 45.7,7.7c9.4,2.2 18.5,5.4 27.3,9.5c9.8,3.1 18.1,8.2 25,15.5c8.2,6 14.4,13.8 18.6,23.2c5.1,9.5 7.5,19.6 7.2,30.1" fill="#fff0c9" fill-rule="nonzero" id="path130"/>
    <path d="m22979.2,26173.1c-14.4,35.5 -59.8,65.8 -98.8,47.2c-138,-65.8 -272,-139.5 -400.6,-222c-34.2,-21.9 -45.1,-74.6 -20.6,-107.6c25.6,-34.3 71.1,-43.9 107.5,-20.5c60.7,38.9 122.4,76 185.4,111.1c31,17.3 62.2,34.1 93.8,50.4c3.7,1.9 7.4,3.8 11.1,5.7c1.5,0.8 13.4,7.3 5.1,2.7c-9.3,-5.2 6.1,3.1 8,4c3.7,1.8 7.4,3.7 11.2,5.6c16.8,8.3 33.7,16.5 50.7,24.6c18.8,8.9 34.1,19.4 43.6,38.7c8.5,17.3 10.9,42 3.6,60.1" fill="#fff0c9" fill-rule="nonzero" id="path132"/>
    <path d="m22516.8,27297c-119,40.1 -238,80.2 -357,120.4c-20.7,7 -38.6,11.1 -60.1,3.5c-17.5,-6.2 -36,-21.4 -43.6,-38.7c-15,-34.2 -5.8,-89.9 35.2,-103.7c119,-40.1 238,-80.3 357,-120.4c20.7,-7 38.6,-11.2 60.1,-3.6c17.5,6.2 36,21.4 43.6,38.8c15,34.2 5.8,89.8 -35.2,103.7" fill="#fff0c9" fill-rule="nonzero" id="path134"/>
    <path d="m19368.2,24827.2c-285.3,70.3 -557.7,145.7 -814.3,223.9l-12.5,154.9c126.7,-40 258.4,-78.6 394.6,-116.5c26.1,-7.7 52.7,-15.2 79.7,-22.3c15,-4.1 30,-8.1 45,-12.2c26.9,-7.5 54.3,-14.7 82.1,-22c34.8,-9.4 70.1,-18.5 105.8,-27.7c17.6,-4.6 35.3,-9.1 53.3,-13.7c17.6,-4.6 35.7,-9.2 53.7,-13.9l12.6,-150.5" fill="#efefef" fill-rule="nonzero" id="path136"/>
    <path d="m18936,25089.5c-136.2,37.9 -267.9,76.5 -394.6,116.5c127.3,-39.3 258.4,-78.6 394.6,-116.5" fill="#ad689d" fill-rule="nonzero" id="path138"/>
    <path d="m19355.6,24977.7c-36.1,9.3 -71.8,18.1 -107,27.6c35.3,-9.1 70.9,-18.3 107.1,-27.2l-0.1,-0.4" fill="#ad689d" fill-rule="nonzero" id="path140"/>
    <path d="m19061.1,22424.3c-106.5,-4.9 -208.9,1.7 -294.6,17.3l-212.5,2609.5c256.5,-78.2 528.9,-153.6 814.2,-223.9l184.6,-2273.6l0.9,-9.6c-1,-99.9 -217.5,-107 -492.6,-119.7" fill="#ad689d" fill-rule="nonzero" id="path142"/>
    <path d="m19355.7,24978.1c-287.7,72 -560.3,148.9 -814.3,227.9l-64.7,792.6l-684.5,8400.1l792.6,64.4l694.1,-8539.1l76.8,-945.9" fill="#db70bd" fill-rule="nonzero" id="path144"/>
    <path d="m18766.5,22441.6l-0.4,0.1c-128.7,23.4 -220.7,67.4 -234.3,124.4l-0.3,0.4l-1.5,18.8l0.1,0.4l-958.4,11794.9l220.5,18.1l974.3,-11957.1" fill="#db70bd" fill-rule="nonzero" id="path146"/>
    <path d="m18553.9,25051.1c-78.2,23.6 -155.1,47.8 -230,72.4l-12.7,156.4c20.1,-6.5 40.5,-13.2 60.9,-19.9c28.8,-9.8 58.5,-19.4 88.3,-28.7c26.7,-8.6 53.8,-17 81,-25.3l12.5,-154.9" fill="#efefef" fill-rule="nonzero" id="path148"/>
    <path d="m18765.9,22446.4l0.2,-4.7c-128.7,23.4 -220.7,67.4 -234.3,124.4l-0.3,0.4l-1.5,18.8l0.1,0.4l-206.2,2537.8c74.9,-24.6 151.8,-48.8 230.1,-72.4l212.5,-2609.5c-0.1,1.6 -0.2,3.2 -0.6,4.8" fill="#8c6082" fill-rule="nonzero" id="path150"/>
    <path d="m18541.4,25206c-78.5,24.1 -155.3,49 -230.2,73.9l-59.6,730.6l-679.9,8370.1l220.5,18.1l684.5,-8400.1l64.7,-792.6" fill="#c15da7" fill-rule="nonzero" id="path152"/>
    <path d="m18585,34461.3c-4.7,101.2 -228.9,147.5 -507.3,134.5c-278.5,-13 -510.5,-114.7 -505.8,-215.9c4.7,-101.3 244.4,-163.6 522.9,-150.6c278.4,13 495,130.8 490.2,232" fill="#eaa2d9" fill-rule="nonzero" id="path154"/>
    <path d="m18411.2,22813.7c-192.2,-1159.8 1527.5,-1474.8 1759,-322.4c192.2,1159.7 -1527.6,1474.8 -1759,322.4" fill="#ffffff" fill-rule="nonzero" id="path156"/>
    <path d="m18411.2,22813.7l-44.3,7.3c-10.5,-63.4 -15.5,-124.7 -15.5,-183.6c0,-143.9 30.1,-273.7 83.1,-386.9c79.5,-169.9 210,-301.7 364.4,-390.6c154.5,-89 333.1,-135.5 511.4,-135.6c199.5,0 399.2,58.6 562.7,183.5c81.7,62.4 154.2,141.4 212.6,237.2c58.3,95.7 102.6,208.2 128.5,337.5l0.2,0.8l0.1,0.7c10.5,63.4 15.6,124.7 15.6,183.6c0,143.9 -30.1,273.7 -83.2,386.9c-79.4,169.9 -209.9,301.7 -364.4,390.6c-154.5,88.9 -333,135.5 -511.3,135.5c-199.5,0 -399.3,-58.5 -562.8,-183.4c-81.7,-62.4 -154.2,-141.4 -212.5,-237.2c-58.4,-95.7 -102.6,-208.2 -128.6,-337.5l-0.1,-0.7l-0.2,-0.8l44.3,-7.3l43.9,-8.8c24.1,119.8 64.6,222.1 117.2,308.5c79,129.4 185.1,223.3 305.9,285.4c120.7,62.1 256.3,92.2 392.9,92.2c216.9,0.1 435.5,-76.2 598.2,-216.8c81.4,-70.3 149,-156.5 196.4,-257.7c47.3,-101.2 74.6,-217.5 74.6,-348.9c0,-53.8 -4.6,-110.1 -14.3,-169l44.2,-7.3l-43.9,8.8c-24.1,-119.8 -64.7,-222.2 -117.3,-308.5c-78.9,-129.4 -185,-223.3 -305.8,-285.4c-120.7,-62.1 -256.3,-92.2 -392.9,-92.2c-217,-0.1 -435.6,76.2 -598.2,216.8c-81.4,70.3 -149,156.5 -196.4,257.7c-47.4,101.2 -74.7,217.5 -74.7,348.9c0,53.8 4.6,110.1 14.4,169l-44.2,7.3l43.9,-8.8l-43.9,8.8" fill="#000000" fill-rule="nonzero" id="path158"/>
    <path d="m18657.4,22577.8c-44.2,-517 723.5,-595.9 785.3,-80.7c44.2,517 -723.5,595.8 -785.3,80.7" fill="#000000" fill-rule="nonzero" id="path160"/>
    <path d="m18683.5,22543.9c-14,-142.7 202.8,-165 218.1,-22.4c14,142.7 -202.8,164.9 -218.1,22.4" fill="#ffffff" fill-rule="nonzero" id="path162"/>
    <path d="m18900,22720c-10,-84.8 123.4,-98.5 130.9,-13.4c9.9,84.8 -123.4,98.5 -130.9,13.4" fill="#ffffff" fill-rule="nonzero" id="path164"/>
    <path d="m15982.4,23476.4c-192.2,-1159.8 1527.6,-1474.8 1759.1,-322.4c192.1,1159.7 -1527.6,1474.7 -1759.1,322.4" fill="#ffffff" fill-rule="nonzero" id="path166"/>
    <path d="m15982.4,23476.4l-44.2,7.3c-10.5,-63.5 -15.6,-124.7 -15.6,-183.7c0,-143.8 30.1,-273.7 83.2,-386.8c79.5,-169.9 209.9,-301.7 364.4,-390.6c154.4,-89 333,-135.5 511.3,-135.6c199.5,0 399.3,58.6 562.8,183.5c81.7,62.4 154.1,141.4 212.5,237.1c58.4,95.8 102.6,208.3 128.6,337.5l0.1,0.8l0.2,0.7c10.5,63.5 15.5,124.8 15.5,183.7c0,143.8 -30.1,273.7 -83.1,386.9c-79.5,169.8 -210,301.6 -364.4,390.5c-154.5,89 -333.1,135.6 -511.4,135.6c-199.5,0 -399.2,-58.5 -562.7,-183.5c-81.8,-62.4 -154.2,-141.3 -212.6,-237.1c-58.3,-95.8 -102.6,-208.3 -128.5,-337.5l-0.2,-0.8l-0.1,-0.7l44.2,-7.3l43.9,-8.9c24.1,119.9 64.7,222.2 117.3,308.5c78.9,129.5 185,223.3 305.8,285.5c120.7,62.1 256.3,92.2 392.9,92.2c217,0 435.6,-76.2 598.2,-216.8c81.4,-70.3 149,-156.6 196.4,-257.7c47.4,-101.3 74.7,-217.5 74.7,-348.9c0,-53.8 -4.6,-110.2 -14.4,-169l44.3,-7.3l-44,8.8c-24.1,-119.9 -64.6,-222.2 -117.2,-308.5c-79,-129.5 -185.1,-223.3 -305.9,-285.5c-120.7,-62.1 -256.3,-92.2 -392.9,-92.1c-216.9,-0.1 -435.5,76.1 -598.2,216.7c-81.4,70.3 -149,156.6 -196.4,257.8c-47.3,101.2 -74.6,217.5 -74.6,348.8c0,53.9 4.6,110.2 14.3,169l-44.2,7.4l43.9,-8.9l-43.9,8.9" fill="#000000" fill-rule="nonzero" id="path168"/>
    <path d="m16228.7,23240.5c-44.3,-517.1 723.4,-595.9 785.2,-80.7c44.3,517 -723.5,595.8 -785.2,80.7" fill="#000000" fill-rule="nonzero" id="path170"/>
    <path d="m16254.7,23206.6c-14,-142.7 202.9,-165 218.2,-22.5c14,142.7 -202.9,165 -218.2,22.5" fill="#ffffff" fill-rule="nonzero" id="path172"/>
    <path d="m16471.2,23382.7c-9.9,-84.8 123.4,-98.5 130.9,-13.5c10,84.8 -123.4,98.5 -130.9,13.5" fill="#ffffff" fill-rule="nonzero" id="path174"/>
    <path d="m18958.9,21736.3c-21.5,-255.1 1027.8,-309.5 1032.7,-53.5c21.4,255.2 -1027.8,309.5 -1032.7,53.5" fill="#f47d1f" fill-rule="nonzero" id="path176"/>
    <path d="m16840.1,22342.2c-70.4,-246.2 -1070.7,75.2 -984.5,316.3c70.4,246.1 1070.7,-75.3 984.5,-316.3" fill="#f47d1f" fill-rule="nonzero" id="path178"/>
    <path d="m18855.2,21125.2c-10.7,21.3 -33.5,34.2 -57.9,32c-1301.9,-133.2 -1908.5,466.1 -2260.3,763.1c-191.5,-544.9 145.3,-1671.1 1098.3,-1569.6c222,20.1 420.6,85 633.4,191.3c292.2,168.9 616.9,520 586.5,583.2" fill="#521919" fill-rule="nonzero" id="path180"/>
    <path d="m17875.7,20500.2c-366.5,-112.7 -849,11 -1065.8,343.7c349.1,214.5 932.1,47.9 1065.8,-343.7" fill="#c13d3d" fill-rule="nonzero" id="path182"/>
    <path d="m18073.6,20547.6c-453.7,-218.4 -1015.4,-147.4 -1320.8,288.9c7.2,13.9 -7.3,-12.1 1.6,10.7c6.5,15.8 -47.8,70.4 -30,81.5c79.5,51.3 184.9,7 238.7,-62.7c23.2,21.6 198.4,-62 190.5,-101.1c12.7,23.4 236.7,-64.3 223.1,-97.5c25.7,45.1 243.1,-20.9 230.8,-58.2c14.9,36.2 203.2,12.8 205.4,-16.6c118.9,67.4 202.2,2.7 260.7,-45" fill="#ffffff" fill-rule="nonzero" id="path184"/>
    <path d="m16963.4,21487.9c0,0 774.1,-387.3 1268.1,-413.6c0,0 -96.3,-190.6 -246.2,-181.8c-34.4,2.1 -184.6,10.7 -211.2,42.7c-39.3,-26.9 -244.9,39.1 -272.4,76.4c-37.7,-15.9 -256.1,56.6 -307.6,108.9c-238.1,68.1 -296.8,151.7 -230.7,367.4" fill="#ffffff" fill-rule="nonzero" id="path186"/>
    <path d="m17998.8,20543.8c-877.2,-357.2 -1467.8,344.1 -1399.1,1169.8c516.2,-490 1281.4,-712.1 2028.9,-674.8c-58.6,-164.2 -411.6,-415.3 -629.8,-495zm856.4,581.4c-10.7,21.3 -33.5,34.2 -57.9,32c-1301.9,-133.2 -1908.5,466.1 -2260.3,763.1c-191.5,-544.9 145.3,-1671.1 1098.3,-1569.6c222,20.1 420.6,85 633.4,191.3c292.2,168.9 616.9,520 586.5,583.2" fill="#000000" fill-rule="nonzero" id="path188"/>
    <path d="m19645.5,24200.3c579.1,-220.3 1034.7,-642 1183.9,-1257.9c6.7,161 -27.4,323 -78.5,475.6c-118.2,401.4 -407.3,789.5 -845.2,860.9c-54.9,15.8 -393.2,37.2 -260.2,-78.6" fill="#000000" fill-rule="nonzero" id="path190"/>
    <path d="m17648.5,24921.3c-170.2,253.1 -490.5,372.2 -787.6,366c-367.9,-31 -731.2,-189.4 -995.1,-444c391.5,228.9 872.9,290.7 1309.1,171.1c123.5,-33 247.4,-78 365.9,-128.7c17,-7.1 42.1,-18.5 59,-24.5c35.1,-14.1 69.5,29.1 48.7,60.1" fill="#000000" fill-rule="nonzero" id="path192"/>
    <path d="m16810.1,20142.5c-39.6,33.5 -75.2,70.1 -104.9,107.4c-35.4,41.7 39.3,106.6 73.7,61.8c100.8,-125.8 283.8,-251.7 447.6,-230c25.2,3.3 45.9,-14.2 46.3,-39.1c-37.1,-147.9 -390.5,21.4 -462.7,99.9" fill="#000000" fill-rule="nonzero" id="path194"/>
    <path d="m20378.1,20994.6c-152.2,0 -308.9,10.8 -428.4,15.2c-236,13.9 -455,34.5 -560.8,44c-300.9,25.1 -867.5,555.6 -1008.6,1087c48.1,-14.2 96.4,-28.1 145.6,-42c74.3,-98.4 168.2,-178.5 273,-238.9c55,-31.6 113,-57.9 172.9,-78.6c-8.1,-13.8 -12.6,-28.8 -12.9,-45c-11.9,-140.9 302.7,-220.5 587.7,-220.5c231.1,0 442.8,52.4 445,167c2.7,33.1 -12.4,62.7 -40.9,88.8c475.1,-86.4 931.9,-147.7 1354.1,-184.6c-116.8,-155.8 -236.9,-297.6 -345.2,-410.8c-48.7,-46.6 -106.9,-90.4 -167.7,-127.3c-101.7,-42.6 -255.3,-54.3 -413.8,-54.3" fill="#b0ca51" fill-rule="nonzero" id="path196"/>
    <path d="m21304.8,21587c-422.2,36.9 -879,98.2 -1354.1,184.6c-35.6,32.5 -92.1,59.5 -160.4,80.3c28.4,16.9 56.1,35.5 82.7,55.9c81.7,62.4 154.2,141.4 212.6,237.2c58.3,95.7 102.6,208.2 128.5,337.5l0.2,0.8l0.1,0.7c10.5,63.4 15.6,124.7 15.6,183.6c0,143.9 -30.1,273.7 -83.2,386.9c-0.5,1.1 -1,2.2 -1.5,3.2c156.9,-18 315.3,-43 480.9,-70.3c66.2,-11.1 133.4,-22.8 200.7,-34.7c0.8,-3.4 1.7,-6.9 2.5,-10.3c0.1,3.3 0.3,6.5 0.4,9.8c303.3,-54 606.4,-114.2 813.5,-156.5c140.8,-28.8 224.3,-174.8 177.8,-310.9c-102.5,-286.7 -304.2,-615.2 -516.3,-897.8m-2778.9,511.8c-49.2,13.9 -97.5,27.8 -145.6,42c-13.6,51.1 -23.3,102.3 -28.4,153c-10.2,76.7 -6.6,147 8.3,211.2c12.5,-92.1 38.1,-177.2 74.3,-254.5c25.5,-54.5 56.3,-105.2 91.4,-151.7" fill="#b5db91" fill-rule="nonzero" id="path198"/>
    <path d="m19057.9,21848.3c-127.3,35.3 -246.9,97 -345.8,182.5c-81.4,70.3 -149,156.5 -196.4,257.7c-47.4,101.2 -74.7,217.5 -74.7,348.9c0,16.5 0.5,33.4 1.3,50.4c121.6,173.5 341.9,279.6 563.5,327.7c241.2,51.1 461.1,71.3 673.3,71.3c121.5,0 240.4,-6.7 359.5,-17.8c9.6,-17.1 18.7,-34.5 27.1,-52.5c47.3,-101.2 74.6,-217.5 74.6,-348.9c0,-53.6 -4.5,-109.6 -14.2,-168.2c-24.1,-119.5 -64.6,-221.6 -117.1,-307.8c-78.9,-129.4 -185,-223.3 -305.8,-285.4c-16,-8.3 -32.3,-16 -48.9,-23.1c-80,13.4 -166.5,20.3 -250.4,20.3c-134.4,0 -262.1,-17.7 -346,-55.1m-13,1078.5c-180.1,0 -359,-111.2 -387.5,-349c-23.8,-278.4 187.8,-429.7 397.8,-429.7c180.1,0 359,111.2 387.5,349c23.8,278.3 -187.8,429.7 -397.8,429.7" fill="#b5e5ca" fill-rule="nonzero" id="path200"/>
    <path d="m18971.8,21781.3c-59.9,20.7 -117.9,47 -172.9,78.6c-104.8,60.4 -198.7,140.5 -273,238.9c-35.1,46.5 -65.9,97.2 -91.4,151.7c-36.2,77.3 -61.8,162.4 -74.3,254.5c15.8,67.7 44.1,128.6 82.1,182.8c-0.8,-17 -1.3,-33.9 -1.3,-50.4c0,-131.4 27.3,-247.7 74.7,-348.9c47.4,-101.2 115,-187.4 196.4,-257.7c98.9,-85.5 218.5,-147.2 345.8,-182.5c-40,-17.8 -70.1,-40.1 -86.1,-67m818.5,70.6c-41.6,12.7 -87.6,23.1 -136,31.2c16.6,7.1 32.9,14.8 48.9,23.1c120.8,62.1 226.9,156 305.8,285.4c52.5,86.2 93,188.3 117.1,307.8c9.7,58.6 14.2,114.6 14.2,168.2c0,131.4 -27.3,247.7 -74.6,348.9c-8.4,18 -17.5,35.4 -27.1,52.5c35.5,-3.4 71.1,-7.1 106.7,-11.3c0.5,-1 1,-2.1 1.5,-3.2c53.1,-113.2 83.2,-243 83.2,-386.9c0,-58.9 -5.1,-120.2 -15.6,-183.6l-0.1,-0.7l-0.2,-0.8c-25.9,-129.3 -70.2,-241.8 -128.5,-337.5c-58.4,-95.8 -130.9,-174.8 -212.6,-237.2c-26.6,-20.4 -54.3,-39 -82.7,-55.9m379.9,639.4l0,0" fill="#36664b" fill-rule="nonzero" id="path202"/>
    <path d="m19055.2,22148.1c-210,0 -421.6,151.3 -397.8,429.7c28.5,237.8 207.4,349 387.5,349c210,0 421.6,-151.4 397.8,-429.7c-28.5,-237.8 -207.4,-349 -387.5,-349m-264.4,492.2c-50.4,0 -100.3,-30.7 -107.3,-96.4c-7.6,-76.9 51.9,-118.8 110.8,-118.9c50.4,0 100.3,30.7 107.3,96.5c7.6,76.9 -51.9,118.8 -110.8,118.8m173.3,137.1c-30.6,0 -60.7,-18.2 -64.1,-57.4c-5.4,-45.7 31,-70.8 66.8,-70.8c30.5,0 60.6,18.2 64.1,57.4c5.3,45.7 -31,70.8 -66.8,70.8" fill="#36664b" fill-rule="nonzero" id="path204"/>
    <path d="m18794.3,22425c-58.9,0.1 -118.4,42 -110.8,118.9c7,65.7 56.9,96.4 107.3,96.4c58.9,0 118.4,-41.9 110.8,-118.8c-7,-65.8 -56.9,-96.5 -107.3,-96.5" fill="#b5e5ca" fill-rule="nonzero" id="path206"/>
    <path d="m18966.8,22649.2c-35.8,0 -72.2,25.1 -66.8,70.8c3.4,39.2 33.5,57.4 64.1,57.4c35.8,0 72.1,-25.1 66.8,-70.8c-3.5,-39.2 -33.6,-57.4 -64.1,-57.4" fill="#b5e5ca" fill-rule="nonzero" id="path208"/>
    <path d="m19546.6,21515.8c-285,0 -599.6,79.6 -587.7,220.5c0.3,16.2 4.8,31.2 12.9,45c16,26.9 46.1,49.2 86.1,67c83.9,37.4 211.6,55.1 346,55.1c83.9,0 170.4,-6.9 250.4,-20.3c48.4,-8.1 94.4,-18.5 136,-31.2c68.3,-20.8 124.8,-47.8 160.4,-80.3c28.5,-26.1 43.6,-55.7 40.9,-88.8c-2.2,-114.6 -213.9,-167 -445,-167" fill="#b0a55b" fill-rule="nonzero" id="path210"/>
    <path d="m20829.4,22942.4c-0.8,3.4 -1.7,6.9 -2.5,10.3c0.9,-0.2 1.9,-0.4 2.9,-0.5c-0.1,-3.3 -0.3,-6.5 -0.4,-9.8" fill="#36664b" fill-rule="nonzero" id="path212"/>
    <path d="m15681.7,22169.7c-341.9,177 -929.5,494.9 -1006.7,652.8c-187.7,476.1 -201.4,1208.8 -103.4,1758.8c26.2,111 125.1,183.8 232,183.8c27.9,0 56.3,-4.9 84.1,-15.4c270.9,-102.4 714.1,-272.1 1091,-433.9l-297,-2146.1" fill="#b5e6ca" fill-rule="nonzero" id="path214"/>
    <path d="m15986.8,22036.5c-46,8.6 -86.4,21.2 -119.4,38c-43.4,22.2 -108.2,55.1 -185.7,95.2l297,2146.1c137,-58.8 265.1,-116.5 373.1,-169.6c10.7,-5.3 22,-10.9 34,-17c-36.8,-20.3 -72.3,-43.4 -106.2,-69.4c-81.8,-62.4 -154.2,-141.3 -212.6,-237.1c-58.3,-95.8 -102.6,-208.3 -128.5,-337.5l-0.2,-0.8l-0.1,-0.7c-10.5,-63.5 -15.6,-124.7 -15.6,-183.7c0,-143.8 30.1,-273.7 83.2,-386.8c23.9,-51.2 52.5,-98.9 84.9,-143.1l-3.4,-24c-10.8,0.5 -21.3,0.7 -31.6,0.7c-104.6,0 -182.2,-25.9 -200.1,-88.3c-27.7,-77.4 56.5,-163 186,-235.5l-54.8,-386.5" fill="#a7d6bb" fill-rule="nonzero" id="path216"/>
    <path d="m16148.9,22023.2c-59.2,0 -113.8,4.4 -162.1,13.3l54.8,386.5c171.7,-96.2 423,-169.2 598.4,-169.2c104.6,0 182.3,26 200.1,88.4c5.4,14.9 6.5,30.1 4,45.5c12.5,-0.5 25,-0.7 37.4,-0.7l0.1,0c159.6,0 319.4,37.5 460.6,116.5c1.1,-0.4 2.1,-0.9 3.1,-1.3c-298.5,-312.7 -833.5,-479 -1196.4,-479m-38.7,721.5c-7.7,0.6 -15.3,1 -22.9,1.4l3.4,24c6.4,-8.6 12.9,-17.1 19.5,-25.4" fill="#b0ca51" fill-rule="nonzero" id="path218"/>
    <path d="m17345.3,22502.2c-1,0.4 -2,0.9 -3.1,1.3c3.2,1.7 6.3,3.5 9.4,5.3c-2.1,-2.2 -4.2,-4.4 -6.3,-6.6" fill="#b5db91" fill-rule="nonzero" id="path220"/>
    <path d="m16881.1,22476.7c-31.1,0 -62.1,1.5 -93.1,4.6c-104.4,104.1 -333.4,201.1 -538.8,243.3c-66.2,64.1 -121.7,139.9 -162.3,226.6c-47.3,101.2 -74.6,217.5 -74.6,348.8c0,53.6 4.5,109.7 14.2,168.3c24.1,119.5 64.6,221.6 117.1,307.7c78.9,129.5 185,223.3 305.8,285.5c11.1,5.7 22.3,11.1 33.6,16.3c417.3,-228.1 1224.7,-765.3 1027.6,-1320.7c-67.7,-80.7 -148,-142.9 -236.2,-188.3c-120.7,-62.1 -256.3,-92.1 -392.8,-92.1l-0.1,0c-0.1,0 -0.3,0 -0.4,0m-265,1112.8c-180,0 -358.9,-111.2 -387.4,-349c-23.9,-278.4 187.7,-429.7 397.7,-429.8c180.1,0 359,111.3 387.5,349.1c23.8,278.3 -187.7,429.7 -397.8,429.7" fill="#b5e5ca" fill-rule="nonzero" id="path222"/>
    <path d="m16881.6,22387l-0.1,0c-12.4,0 -24.9,0.2 -37.4,0.7c-5,31 -25,62.6 -56.1,93.6c31,-3.1 62,-4.6 93.1,-4.6c0.1,0 0.3,0 0.4,0l0.1,0c136.5,0 272.1,30 392.8,92.1c88.2,45.4 168.5,107.6 236.2,188.3c-22,-61.8 -56.4,-123.9 -105.1,-185.7c-16.9,-21.5 -34.9,-42.3 -53.9,-62.6c-3.1,-1.8 -6.2,-3.6 -9.4,-5.3c-141.2,-79 -301,-116.5 -460.6,-116.5m-632.4,337.6c-48.3,9.9 -95.3,16.8 -139,20.1c-6.6,8.3 -13.1,16.8 -19.5,25.4c-32.4,44.2 -61,91.9 -84.9,143.1c-53.1,113.1 -83.2,243 -83.2,386.8c0,59 5.1,120.2 15.6,183.7l0,0l0.1,0.7l0.2,0.8c25.9,129.2 70.2,241.7 128.5,337.5c58.4,95.8 130.8,174.7 212.6,237.1c33.9,26 69.4,49.1 106.2,69.4c29,-14.8 61.7,-32 97.2,-51.4c-11.3,-5.2 -22.5,-10.6 -33.6,-16.3c-120.8,-62.2 -226.9,-156 -305.8,-285.5c-52.5,-86.1 -93,-188.2 -117.1,-307.7c-9.7,-58.6 -14.2,-114.7 -14.2,-168.3c0,-131.3 27.3,-247.6 74.6,-348.8c40.6,-86.7 96.1,-162.5 162.3,-226.6" fill="#36664b" fill-rule="nonzero" id="path224"/>
    <path d="m16626.4,22810.7c-210,0.1 -421.6,151.4 -397.7,429.8c28.5,237.8 207.4,349 387.4,349c210.1,0 421.6,-151.4 397.8,-429.7c-28.5,-237.8 -207.4,-349.1 -387.5,-349.1m-264.4,492.3c-50.3,0 -100.2,-30.7 -107.3,-96.4c-7.5,-76.9 52,-118.9 110.9,-118.9c50.3,0 100.2,30.7 107.3,96.4c7.5,76.9 -52,118.9 -110.9,118.9m173.3,137.1c-30.5,0 -60.6,-18.3 -64.1,-57.4c-5.3,-45.8 31,-70.8 66.8,-70.8c30.6,0 60.7,18.2 64.1,57.3c5.4,45.8 -31,70.9 -66.8,70.9" fill="#36664b" fill-rule="nonzero" id="path226"/>
    <path d="m16365.6,23087.7c-58.9,0 -118.4,42 -110.9,118.9c7.1,65.7 57,96.4 107.3,96.4c58.9,0 118.4,-42 110.9,-118.9c-7.1,-65.7 -57,-96.4 -107.3,-96.4" fill="#b5e5ca" fill-rule="nonzero" id="path228"/>
    <path d="m16538,23311.9c-35.8,0 -72.1,25 -66.8,70.8c3.5,39.1 33.6,57.4 64.1,57.4c35.8,0 72.2,-25.1 66.8,-70.9c-3.4,-39.1 -33.5,-57.3 -64.1,-57.3" fill="#b5e5ca" fill-rule="nonzero" id="path230"/>
    <path d="m16640,22253.8c-175.4,0 -426.7,73 -598.4,169.2c-129.5,72.5 -213.7,158.1 -186,235.5c17.9,62.4 95.5,88.3 200.1,88.3c10.3,0 20.8,-0.2 31.6,-0.7c7.6,-0.4 15.2,-0.8 22.9,-1.4c43.7,-3.3 90.7,-10.2 139,-20.1c205.4,-42.2 434.4,-139.2 538.8,-243.3c31.1,-31 51.1,-62.6 56.1,-93.6c2.5,-15.4 1.4,-30.6 -4,-45.5c-17.8,-62.4 -95.5,-88.4 -200.1,-88.4" fill="#b0a55b" fill-rule="nonzero" id="path232"/>
    <path d="m14726.8,22847.1c-370.5,782.1 288.1,1680.3 982.1,1519.5c400.2,-155.1 2249.3,-928.7 1651.6,-1759.7c-216.8,-347.8 -1130.1,-587.2 -1478.4,-477c-270.7,71.3 -1050.9,497.6 -1155.3,717.2zm3821.5,-118.6c718.6,513.6 1614,248.5 2214.9,177.3c677.6,-224.2 733.7,-1336.5 2.4,-1805.9c-205.2,-130.2 -1092.4,-74.7 -1359.6,8.6c-134.6,42.2 -369,188.9 -589,421.7c-327.4,365.1 -589,831.2 -268.7,1198.3zm-4032.5,1866c-105.1,-607.3 -81.2,-1314.4 107.5,-1796.6c133.2,-272.6 933.3,-696.6 1229.5,-778.8c490.4,-118 1414.2,144 1662.3,611.9c217.4,56.1 527.3,-105.8 696.5,-153.9c26.1,-9.1 60.1,-32.4 80.4,-59c-50.7,-535 597.5,-1255 1079.7,-1418.9c294.3,-88.4 1197.5,-155.8 1455.4,4c416.8,306.7 814,893.9 1048.2,1463.1l0,0c59.5,162.7 -50,354.8 -220.6,385.6c-389,79.6 -1137.2,226 -1566.2,270.2c-195,20.3 -1176.7,99.9 -1602.1,-294.2c-101.7,-29.1 -235,-52.6 -320.3,-11c-101.3,49.4 -209.8,81.6 -321.9,94.1c-123.7,13.8 -198.8,60.9 -256.9,135.1c-377.4,1069.3 -1871.4,1393.4 -2679.4,1757.3c-160.5,64.6 -356.2,-39.4 -392.1,-208.9" fill="#1a0e26" fill-rule="nonzero" id="path234"/>
    <path d="m21549.7,11336.2c139.6,-36.6 214,-145.4 240.5,-277.7c78.7,-172.9 246.2,-361.2 331.5,-433.1c38.6,-32.5 43.8,-90.1 11.7,-128.8c-32,-38.7 -89.3,-43.6 -127.9,-11.1c-54.3,45.7 -145.5,139.5 -230.8,253.1c-23.4,-89 -58.2,-160.3 -105.1,-211.4c16.6,-88.5 42.4,-202.3 60.8,-283.5c15.3,-67.6 29.8,-131.5 40.4,-183.3c10.1,-49.5 -21.6,-97.7 -70.7,-107.6c-49.2,-9.9 -97.2,22.3 -107.3,71.8c-10.2,49.8 -24.4,112.8 -39.5,179.4c-21.6,94.9 -38.5,171.7 -51.2,234.4c-10.8,-1.7 -21.9,-2.7 -33.3,-3.3c-19.2,-184.8 -43.9,-408.4 -63.1,-536.8c-7.7,-50.2 -53.8,-84 -103.4,-76.2c-49.6,7.8 -83.8,54.6 -76.3,104.5c18.8,125.6 43.6,351.5 62.8,536.4c-31.4,11.3 -59.5,25.6 -84.2,42.6c-28.8,-133 -64.1,-281.3 -98.2,-383.5c-15.9,-47.8 -67.4,-73.3 -115,-57c-43.4,14.9 -68.5,59.4 -60.5,103.4c0.7,4.2 1.8,8.5 3.2,12.7c48.5,145.5 102.4,402.6 131.6,550.8c-13.9,77.8 -8.2,165.1 14.5,254.7c61.9,244.3 226.5,413.2 469.5,349.5" fill="#000000" fill-rule="nonzero" id="path236"/>
    <path d="m24956.6,13838.2l-3645.2,-2552.3c-48.5,-34 -60.3,-100.9 -26.3,-149.4c33.9,-48.6 100.8,-60.4 149.4,-26.4l3645.1,2552.4c48.6,34 60.4,100.9 26.4,149.4c-34,48.5 -100.9,60.3 -149.4,26.3" fill="#000000" fill-rule="nonzero" id="path238"/>
   </g>
  </g>
 </g>
</svg>